<svg xmlns="http://www.w3.org/2000/svg" viewBox="0 0 1024 1024" fill="currentcolor">
  <path d="M944,576H80V128c0-35.328,28.672-64,64-64h736c35.328,0,64,28.672,64,64v448h0ZM944,704c0,35.328-28.672,64-64,64H144c-35.328,0-64-28.672-64-64v-64h864v64h0ZM464,832h128v128h-128v-128ZM880,0H144C73.312,0,16,57.312,16,128v576c0,70.688,57.312,128,128,128h256v128h-64c-17.695,0-32,14.336-32,32s14.305,32,32,32h384c17.695,0,32-14.304,32-32s-14.305-32-32-32h-64v-128h224c70.688,0,128-57.312,128-128V128C1008,57.312,950.688,0,880,0h0Z" />
</svg>