<svg xmlns="http://www.w3.org/2000/svg" viewBox="0 0 1024 1024" fill="currentcolor">
  <path d="M280.3 729.6c59 56.5 139.2 91.2 227.5 91.2h2.4-.1 6.8c88.4 0 168.7-34.8 227.9-91.4h-.1c0 .1 177.1-182.6 177.1-182.6 10.8-10.7 25.8-17.4 42.2-17.4 33.1 0 60 26.9 60 60s-6.8 31.7-17.8 42.6-235.5 226.6-235.5 226.6c-67.3 50.5-152.3 80.9-244.4 80.9s-11.4-.1-17.1-.3h.8c-4.8.2-10.4.3-16.1.3-92.1 0-177-30.4-245.4-81.7l1.1.8L17.2 632C6.6 621.2 0 606.3 0 590c0-33.1 26.9-60 60-60s30.8 6.4 41.6 16.8 178.6 182.7 178.6 182.7Zm122.8-170.7c26.7 28.8 64.7 46.8 106.9 46.8s80.7-18.2 107.3-47.2c0-.1 155.4-156.5 155.4-156.5 11-11.6 26.5-18.9 43.7-18.9 33.2 0 60 26.9 60 60s-6.8 31.9-17.9 42.7-137 139-137 139c-69.2 66.1-109.2 110-211.9 108.6-98.7-1.4-138.5-42.8-206.4-107.8L164.6 485.8c-10.6-10.8-17.1-25.6-17.1-41.9 0-33.1 26.9-60 60-60s32 6.9 42.9 18S403 558.7 403 558.7Zm-92-220.4c-10.9-10.9-17.6-25.9-17.6-42.5 0-33.1 26.9-60 60-60s30.8 6.4 41.5 16.7 95.1 99.4 95.1 99.4c5.1 5.3 12.2 8.7 20.1 8.7s14.6-3.1 19.6-8.1l98.6-100c10.8-10.3 25.4-16.7 41.5-16.7 33.1 0 60 26.9 60 60s-6.7 31.6-17.6 42.5-169.4 167.4-169.4 167.4c-8.1 8.4-19.4 13.6-32 13.6s-24.1-5.3-32.1-13.8-167.7-167.2-167.7-167.2Zm199-254.1c43.5 0 78.8 35.3 78.8 78.8S553.6 242 510.1 242s-78.8-35.3-78.8-78.8 35.3-78.8 78.8-78.8Z"/>
</svg>