<svg xmlns="http://www.w3.org/2000/svg" viewBox="0 0 1024 1024" fill="currentcolor">
  <path d="M724.4.2c80.8-2.8 159.1 27.7 216.7 84.5 55.5 57.5 85.3 135.1 82.7 215v424.8c0 88.7-29 165.1-84.5 218.8-58.8 54.3-136.7 83.3-216.7 80.6H301.2c-79.3 2.5-156.4-26.5-214.5-80.6C28.6 884.9-2.8 805 .2 722.7V299.6C.2 119.6 119.6.2 299.6.2h424.8Zm2.2 95.1H301.4c-61.8 0-115.2 18.3-150.6 53.3-38.2 40.7-58.2 95.2-55.4 151v423.1c0 64 18.3 115.2 55.4 152.7 41.4 36.6 95.4 55.7 150.6 53.3h421.4C778 931.1 832 912 873.4 875.4c40.2-39.7 61.8-94.5 59.7-151V299.6c1.4-54.9-18.5-108.2-55.4-148.9-40.7-38.2-95.2-58.2-151-55.4ZM512 245.9c144.6 0 264.4 119.4 264.4 264.4 0 146-118.4 264.4-264.5 264.4-146 0-264.4-118.4-264.4-264.4 0-146 118.4-264.4 264.4-264.4Zm0 94.6c-93.3.5-168.9 76-169.3 169.3.5 93.3 76 168.9 169.3 169.3 93.3-.5 168.9-76 169.3-169.3-.5-93.3-76-168.9-169.3-169.3Zm274.7-160.8c33 0 59.7 26.7 59.7 59.7s-26.7 59.7-59.7 59.7-59.7-26.7-59.7-59.7 26.7-59.7 59.7-59.7Z"/>
</svg>