<?xml version="1.0" encoding="utf-8"?>
<!-- Generator: Adobe Illustrator 26.2.1, SVG Export Plug-In . SVG Version: 6.00 Build 0)  -->
<svg version="1.1" id="Layer_1" xmlns="http://www.w3.org/2000/svg" xmlns:xlink="http://www.w3.org/1999/xlink" x="0px" y="0px"
	 viewBox="0 0 677.15 61.03" style="enable-background:new 0 0 677.15 61.03;" xml:space="preserve">
<style type="text/css">
	.st0{fill:none;}
	.st1{fill:#E51B27;}
</style>
<g>
	<path class="st0" d="M502.12,26.38c-0.48-1.34-1.45-2.01-2.91-2.01c-1.49,0-2.51,0.77-3.06,2.31c-0.55,1.54-0.86,3.79-0.94,6.74
		h7.69C502.87,30.07,502.61,27.71,502.12,26.38z"/>
	<path class="st0" d="M525,25.85c-2.03,0-3.41,1.4-4.14,4.21c-0.39,1.51-0.59,3.63-0.59,6.38c0,2.93,0.19,5.14,0.56,6.63
		c0.69,2.69,2.01,4.04,3.97,4.04c1.23,0,2.33-0.55,3.31-1.65c0.98-1.1,1.47-1.87,1.47-2.31V29.28c0-0.46-0.42-1.15-1.26-2.06
		C527.49,26.3,526.38,25.85,525,25.85z"/>
	<path class="st0" d="M562.65,42.47c0,1.25,0.28,2.19,0.85,2.83c0.57,0.65,1.2,0.96,1.91,0.96c0.93,0,1.79-0.28,2.59-0.84
		c0.45-0.34,0.98-0.86,1.59-1.56v-8.35c-1.52,0.37-2.86,0.96-4.01,1.76C563.63,38.64,562.65,40.37,562.65,42.47z"/>
	<path class="st0" d="M447.25,1.1c-2.65,0-4.81,2.16-4.81,4.81c0,2.65,2.16,4.81,4.81,4.81c2.65,0,4.79-2.16,4.79-4.81
		C452.04,3.26,449.9,1.1,447.25,1.1z M450.51,8.96h-1.88l-1.58-2.86h-0.35v1.35c0,0.82,0,1.22,0.92,1.22v0.29h-3.27V8.68
		c0.81,0,0.81-0.4,0.81-1.22V4.19c0-0.67,0-1.21-0.7-1.21V2.69h3.21c1.34,0,2.36,0.54,2.36,1.68c0,0.84-0.6,1.43-1.4,1.62l0.97,1.76
		c0.19,0.34,0.47,0.92,0.9,0.92V8.96z"/>
	<path class="st0" d="M473.47,12.95c-1.13,0-1.95,0.14-2.44,0.41c-0.49,0.27-0.74,0.79-0.74,1.57v15.33c3.4-0.06,5.67-0.45,6.8-1.17
		c1.8-1.15,2.71-3.63,2.71-7.44c0-2.6-0.44-4.7-1.31-6.3C477.61,13.75,475.94,12.95,473.47,12.95z"/>
	<path class="st0" d="M375.42,26.41c-0.48-1.33-1.45-2-2.89-2c-1.48,0-2.5,0.77-3.05,2.3c-0.55,1.53-0.86,3.77-0.93,6.71h7.65
		C376.16,30.08,375.9,27.74,375.42,26.41z"/>
	<path class="st0" d="M171.09,42.42c0,1.24,0.28,2.18,0.85,2.82c0.56,0.64,1.2,0.96,1.9,0.96c0.92,0,1.78-0.28,2.58-0.83
		c0.44-0.33,0.97-0.85,1.58-1.56V35.5c-1.52,0.37-2.85,0.95-3.99,1.75C172.06,38.6,171.09,40.33,171.09,42.42z"/>
	<path class="st0" d="M447.06,3.04h-0.36v2.67c0.09,0.03,0.28,0.05,0.43,0.05c0.79,0,1.23-0.68,1.23-1.41
		C448.36,3.77,448.18,3.04,447.06,3.04z"/>
	<path class="st0" d="M324.01,25.88c-2.02,0-3.39,1.4-4.12,4.19c-0.39,1.5-0.58,3.61-0.58,6.35c0,2.92,0.18,5.12,0.56,6.6
		c0.68,2.68,2,4.02,3.95,4.02c1.23,0,2.32-0.55,3.29-1.64c0.97-1.09,1.46-1.86,1.46-2.3v-13.8c0-0.46-0.42-1.15-1.25-2.05
		C326.48,26.33,325.38,25.88,324.01,25.88z"/>
	<path class="st0" d="M129.73,26.41c-0.48-1.33-1.45-2-2.89-2c-1.48,0-2.5,0.77-3.05,2.3c-0.55,1.53-0.86,3.77-0.93,6.71h7.65
		C130.47,30.08,130.21,27.74,129.73,26.41z"/>
	<path d="M113.49,14.29c2.53,1.45,4.07,4.22,4.6,8.31h1.64l-0.06-11.45H85.49L85.44,22.6h1.64c0.35-4.06,1.88-6.83,4.6-8.31
		c1.48-0.8,3.6-1.23,6.38-1.31v29.91c0,2.07-0.36,3.46-1.09,4.15c-0.73,0.69-2.2,1.04-4.42,1.04v1.44h20.24v-1.44
		c-2.31,0-3.83-0.34-4.56-1.03c-0.73-0.69-1.09-2.07-1.09-4.16V12.98C109.94,13.06,112.07,13.49,113.49,14.29z"/>
	<path d="M136.44,42.35c-1.07,1.18-1.97,2.02-2.69,2.52c-1.19,0.83-2.44,1.25-3.78,1.25c-2.8,0-4.75-1.56-5.86-4.68
		c-0.61-1.66-0.98-3.63-1.11-5.9h14.5c0-0.52-0.06-1.27-0.19-2.25c-0.26-2.09-0.72-3.79-1.39-5.1c-0.89-1.74-2.16-3.1-3.8-4.07
		c-1.65-0.98-3.4-1.47-5.27-1.47c-3.28,0-6.07,1.21-8.4,3.62c-2.32,2.41-3.48,5.8-3.48,10.16c0,4.82,1.22,8.34,3.66,10.53
		c2.44,2.2,5.06,3.3,7.85,3.3c1.94,0,3.66-0.36,5.16-1.08c2.31-1.13,4.35-3.13,6.11-6.01L136.44,42.35z M123.79,26.71
		c0.55-1.53,1.56-2.3,3.05-2.3c1.45,0,2.41,0.67,2.89,2c0.48,1.33,0.74,3.67,0.78,7.01h-7.65
		C122.93,30.48,123.24,28.25,123.79,26.71z"/>
	<path d="M161.71,46.95l-8.48-12.88l5.87-7.24c0.61-0.76,1.33-1.32,2.18-1.69c0.46-0.18,1.04-0.34,1.74-0.47V23.3h-9.51v1.36
		c1.03,0.04,1.78,0.13,2.23,0.28s0.68,0.5,0.68,1.06c0,0.44-0.23,1-0.69,1.66c-0.46,0.67-1.67,2.23-3.62,4.68
		c-0.73-0.98-1.56-2.23-2.51-3.73c-0.95-1.5-1.43-2.47-1.43-2.89c0-0.35,0.11-0.57,0.33-0.65c0.22-0.08,0.99-0.22,2.3-0.4V23.3
		h-14.19v1.36c0.68,0.09,1.2,0.25,1.55,0.47c0.35,0.22,0.82,0.79,1.41,1.69l7.29,11.18c-0.61,0.78-1.39,1.79-2.33,3.05
		c-0.94,1.26-1.7,2.24-2.27,2.95c-1.39,1.68-2.42,2.76-3.09,3.22c-0.68,0.46-1.48,0.77-2.43,0.91v1.3h9.59v-1.3
		c-0.94-0.04-1.65-0.15-2.12-0.33c-0.47-0.18-0.71-0.57-0.71-1.17c0-0.5,0.62-1.62,1.86-3.36c0.6-0.84,1.51-2.04,2.72-3.59
		c0.42,0.65,0.89,1.36,1.4,2.12c0.51,0.76,0.9,1.35,1.18,1.78c0.5,0.78,0.86,1.38,1.08,1.8c0.39,0.7,0.58,1.21,0.58,1.53
		c0,0.48-0.23,0.79-0.69,0.94c-0.46,0.15-1.09,0.24-1.88,0.28v1.3h13.67v-1.3c-0.43-0.16-0.76-0.33-1.01-0.48
		C162.14,47.5,161.91,47.26,161.71,46.95z"/>
	<path d="M201.02,33.48l-3.11-1.5c-1.5-0.72-2.51-1.42-3.05-2.11c-0.55-0.67-0.83-1.33-0.83-2c0-0.81,0.31-1.57,0.93-2.27
		c0.62-0.7,1.56-1.05,2.81-1.05c1.63,0,3.05,0.58,4.27,1.75c1.22,1.16,2.1,2.71,2.63,4.63h1.44v-8.21h-1.25
		c-0.13,0.35-0.29,0.62-0.49,0.82c-0.19,0.19-0.52,0.29-0.98,0.29c-0.33,0-1.17-0.2-2.52-0.6c-1.35-0.4-2.62-0.6-3.83-0.6
		c-2.75,0-4.9,0.8-6.43,2.4c-1.53,1.6-2.3,3.5-2.3,5.7c0,1.74,0.49,3.24,1.47,4.52c0.96,1.28,2.55,2.46,4.77,3.55l4.21,2.05
		c0.91,0.44,1.56,0.86,1.97,1.25c0.74,0.72,1.11,1.59,1.11,2.61c0,1.07-0.34,1.93-1.03,2.59c-0.68,0.66-1.76,0.98-3.22,0.98
		c-1.59,0-3.14-0.56-4.66-1.68c-1.52-1.12-2.55-3.04-3.1-5.75h-1.58v5.01l-0.01-0.02c-0.37,0.37-0.64,0.6-0.82,0.68
		c-0.18,0.09-0.38,0.13-0.6,0.13c-0.26,0-0.49-0.14-0.71-0.43c-0.21-0.28-0.32-0.63-0.32-1.04V31.42c0-3.36-1.07-5.67-3.22-6.93
		c-2.16-1.24-4.85-1.86-8.07-1.86c-2.99,0-5.52,0.64-7.57,1.91s-3.08,3-3.08,5.17c0,1.22,0.38,2.15,1.15,2.79
		c0.77,0.64,1.7,0.97,2.79,0.97c0.94,0,1.77-0.29,2.48-0.87s1.07-1.41,1.07-2.48c0-0.43-0.08-0.83-0.23-1.21
		c-0.16-0.38-0.36-0.72-0.62-1.04l-0.33-0.39c-0.15-0.17-0.26-0.32-0.33-0.47c-0.07-0.15-0.11-0.33-0.11-0.56
		c0-0.57,0.33-1.05,0.98-1.43c0.66-0.38,1.49-0.57,2.51-0.57c1.81,0,3.07,0.4,3.78,1.21c0.71,0.8,1.07,2.05,1.07,3.73v4.13
		c-5.25,1.52-9.1,3.03-11.56,4.53c-2.46,1.5-3.69,3.53-3.69,6.08c0,2.09,0.67,3.63,2.02,4.63c1.35,0.99,2.8,1.48,4.35,1.48
		c1.16,0,2.35-0.2,3.55-0.61c1.98-0.65,3.75-1.76,5.32-3.33c0.2,1.09,0.53,1.92,0.97,2.47c0.78,0.98,2.01,1.47,3.69,1.47
		c0.94,0,1.84-0.16,2.69-0.5c1.02-0.39,1.96-1,2.84-1.83v2.33h1.36c0.3-0.59,0.56-1.01,0.79-1.26c0.23-0.25,0.5-0.38,0.82-0.38
		c0.13,0,0.23,0.01,0.32,0.03c0.08,0.02,0.3,0.09,0.65,0.22l0.97,0.33c1.13,0.39,2.07,0.66,2.84,0.82c0.77,0.16,1.53,0.23,2.29,0.23
		c3.05,0,5.34-0.91,6.86-2.73c1.53-1.82,2.29-3.78,2.29-5.89c0-2.16-0.74-3.98-2.22-5.46C204.35,35.3,202.94,34.4,201.02,33.48z
		 M178,43.81c-0.61,0.7-1.14,1.22-1.58,1.56c-0.79,0.56-1.65,0.83-2.58,0.83c-0.7,0-1.34-0.32-1.9-0.96
		c-0.56-0.64-0.85-1.58-0.85-2.82c0-2.09,0.97-3.82,2.91-5.17c1.15-0.8,2.48-1.38,3.99-1.75V43.81z"/>
	<path d="M248.71,45.37c-2.51,1.63-5.22,2.44-8.14,2.44c-4.76,0-8.02-2.46-9.77-7.37c-0.94-2.62-1.41-5.97-1.41-10.03
		c0-5.53,0.8-9.93,2.39-13.21c1.6-3.28,4.29-4.92,8.1-4.92c3.36,0,6.37,1.53,9.03,4.6c1.42,1.66,2.81,3.94,4.18,6.82h1.44V10.41
		h-1.58c-0.11,0.61-0.38,1.19-0.82,1.75c-0.43,0.55-1.01,0.83-1.74,0.83c-0.28,0-1.62-0.44-4.05-1.32
		c-2.42-0.88-4.81-1.32-7.18-1.32c-5.47,0-10.09,1.79-13.86,5.38c-4.01,3.83-6.01,8.83-6.01,15c0,6.23,2.1,11.18,6.29,14.86
		c3.79,3.33,8.48,4.99,14.08,4.99c3.66,0,6.99-0.99,9.98-2.97c1.68-1.11,3.63-2.9,5.85-5.38l-1.69-1.39
		C251.85,42.92,250.15,44.43,248.71,45.37z"/>
	<path d="M291.7,19.03c1.2,0,2.23-0.43,3.09-1.29c0.86-0.86,1.29-1.9,1.29-3.12c0-1.22-0.43-2.26-1.29-3.12
		c-0.86-0.86-1.89-1.29-3.09-1.29c-1.22,0-2.26,0.43-3.12,1.29c-0.86,0.86-1.29,1.9-1.29,3.12c0,1.22,0.43,2.26,1.29,3.12
		C289.44,18.6,290.48,19.03,291.7,19.03z"/>
	<path d="M308.37,44.65V11.08h-10.75v1.36c1.05,0.24,1.77,0.55,2.16,0.92c0.39,0.37,0.58,1.17,0.58,2.38v28.91
		c0,1.26-0.21,2.08-0.63,2.48c-0.37,0.35-0.97,0.64-1.79,0.87c-0.8-0.19-1.38-0.44-1.7-0.74c-0.37-0.35-0.55-1.15-0.55-2.38V23.3
		h-10.9v1.36c1.15,0.21,1.91,0.52,2.3,0.94c0.39,0.42,0.58,1.21,0.58,2.36v16.69c0,1.29-0.28,2.19-0.83,2.69
		c-0.31,0.28-0.87,0.5-1.64,0.67c-0.84-0.22-1.47-0.49-1.85-0.85c-0.43-0.4-0.65-1.23-0.65-2.51V31.01c0-3.05-0.71-5.21-2.14-6.47
		c-1.42-1.27-3.22-1.9-5.41-1.9c-1.61,0-3.05,0.38-4.34,1.15c-1.28,0.77-2.51,1.85-3.67,3.26V11.08h-10.98v1.36
		c1.2,0.15,2,0.45,2.41,0.91c0.41,0.46,0.61,1.25,0.61,2.39v28.91c0,1.29-0.24,2.16-0.74,2.59c-0.49,0.43-1.25,0.72-2.29,0.85v1.36
		h13.67v-1.36c-1.01-0.21-1.71-0.48-2.08-0.83c-0.37-0.35-0.56-1.15-0.56-2.38V29.68c0-0.33,0.52-0.95,1.57-1.86
		c1.04-0.9,2.06-1.36,3.04-1.36c1.31,0,2.19,0.58,2.63,1.75c0.26,0.65,0.39,1.62,0.39,2.91v13.75c0,1.24-0.18,2.03-0.55,2.38
		s-1.06,0.63-2.08,0.83v1.36h12.6h0.74h12.09h0.71h12.82v-1.36c-1.03-0.26-1.75-0.58-2.16-0.97
		C308.58,46.73,308.37,45.91,308.37,44.65z"/>
	<path d="M362.18,27.04c0-1.44-0.47-2.54-1.4-3.29c-0.94-0.75-1.99-1.12-3.15-1.12c-1.56,0-2.93,0.46-4.11,1.39
		c-1.18,0.92-2.38,2.17-3.58,3.74V23.3h-10.75v1.36c1.2,0.15,2,0.44,2.41,0.87c0.4,0.43,0.61,1.24,0.61,2.43V43.4l-0.06,1.66
		c-0.04,1.11-0.27,1.86-0.69,2.25c-0.34,0.31-0.89,0.53-1.65,0.68v-0.95c-1.3-0.11-2.16-0.39-2.61-0.84
		c-0.45-0.45-0.67-1.26-0.67-2.43V11.08H324.3v1.36c1.74,0.07,2.88,0.28,3.44,0.63c0.56,0.35,0.83,1.24,0.83,2.67v10.4
		c-1.09-1.14-1.99-1.94-2.71-2.38c-1.17-0.74-2.5-1.11-3.99-1.11c-3,0-5.56,1.3-7.69,3.9c-2.13,2.6-3.2,6.14-3.2,10.63
		c0,4.03,1.02,7.22,3.07,9.56c2.05,2.35,4.46,3.52,7.24,3.52c1.63,0,3.14-0.42,4.55-1.28c0.89-0.54,1.87-1.36,2.94-2.47v3.74
		c2.33-0.65,3.96-1.05,4.88-1.2c0.86-0.15,2.71-0.36,5.53-0.64v1.05h15.11v-1.36c-1.63-0.15-2.71-0.45-3.26-0.92
		c-0.55-0.47-0.82-1.64-0.82-3.51V32.9c0-1.74,0.38-3.08,1.15-4.01c0.77-0.93,1.53-1.4,2.29-1.4c0.35,0,0.97,0.56,1.85,1.69
		c0.88,1.13,1.92,1.69,3.12,1.69c1.06,0,1.91-0.36,2.57-1.08C361.85,29.07,362.18,28.15,362.18,27.04z M328.57,43.09
		c0,0.45-0.49,1.21-1.46,2.3c-0.97,1.09-2.07,1.64-3.29,1.64c-1.95,0-3.26-1.34-3.95-4.02c-0.37-1.48-0.56-3.68-0.56-6.6
		c0-2.73,0.19-4.85,0.58-6.35c0.73-2.79,2.1-4.19,4.12-4.19c1.37,0,2.48,0.45,3.31,1.36c0.83,0.91,1.25,1.59,1.25,2.05V43.09z"/>
	<path d="M382.13,42.35c-1.07,1.18-1.97,2.02-2.69,2.52c-1.18,0.83-2.44,1.25-3.78,1.25c-2.8,0-4.75-1.56-5.86-4.68
		c-0.61-1.66-0.98-3.63-1.11-5.9h14.5c0-0.52-0.07-1.27-0.2-2.25c-0.26-2.09-0.72-3.79-1.39-5.1c-0.89-1.74-2.16-3.1-3.8-4.07
		c-1.65-0.98-3.41-1.47-5.28-1.47c-3.27,0-6.07,1.21-8.4,3.62c-2.32,2.41-3.48,5.8-3.48,10.16c0,4.82,1.22,8.34,3.66,10.53
		c2.44,2.2,5.06,3.3,7.86,3.3c1.94,0,3.66-0.36,5.16-1.08c2.31-1.13,4.35-3.13,6.11-6.01L382.13,42.35z M369.48,26.71
		c0.55-1.53,1.56-2.3,3.05-2.3c1.45,0,2.41,0.67,2.89,2c0.48,1.33,0.74,3.67,0.78,7.01h-7.65
		C368.62,30.48,368.93,28.25,369.48,26.71z"/>
	<path d="M409.09,44.87V31.15c0-3.16-0.67-5.37-2.01-6.63c-1.34-1.26-3.23-1.88-5.67-1.88c-1.7,0-3.25,0.45-4.64,1.34
		c-1.4,0.9-2.55,2.03-3.45,3.4V23.3h-10.76v1.36c1.22,0.15,2.03,0.45,2.43,0.89c0.4,0.45,0.6,1.25,0.6,2.41v16.69
		c0,1.29-0.25,2.16-0.74,2.59s-1.25,0.72-2.29,0.85v1.36h13.67v-1.36c-1.02-0.21-1.71-0.48-2.08-0.83
		c-0.37-0.35-0.55-1.15-0.55-2.38V29.68c0.45-0.72,1.08-1.44,1.9-2.15c0.82-0.71,1.72-1.07,2.7-1.07c1.31,0,2.19,0.58,2.64,1.75
		c0.26,0.65,0.39,1.62,0.39,2.91v13.75c0,1.24-0.18,2.03-0.55,2.38c-0.37,0.35-1.06,0.63-2.08,0.83v1.36h13.33v-1.36
		c-1.02-0.13-1.74-0.38-2.18-0.75C409.3,46.97,409.09,46.15,409.09,44.87z"/>
	<path d="M419.52,10.22c-1.46,0-2.61,0.44-3.46,1.33c-0.85,0.89-1.28,2.04-1.28,3.46c0,1.29,0.4,2.35,1.19,3.17
		c0.79,0.82,1.8,1.23,3.02,1.23c0.18,0,0.59-0.05,1.22-0.14c0.37,0,0.66,0.12,0.86,0.36c0.18,0.26,0.28,0.57,0.28,0.94
		c0,1.37-0.78,2.83-2.33,4.38c-0.87,0.87-2.15,1.9-3.85,3.08l0.67,1.25c2.57-1.44,4.57-2.93,6.01-4.46c2.25-2.42,3.38-5.1,3.38-8.04
		c0-2.03-0.55-3.64-1.65-4.81C422.48,10.8,421.13,10.22,419.52,10.22z"/>
	<path d="M438.33,33.48l-3.1-1.5c-1.5-0.72-2.51-1.42-3.05-2.11c-0.55-0.67-0.83-1.33-0.83-2c0-0.81,0.31-1.57,0.93-2.27
		c0.62-0.7,1.56-1.05,2.81-1.05c1.62,0,3.05,0.58,4.27,1.75c1.22,1.16,2.1,2.71,2.64,4.63h1.44v-8.21h-1.25
		c-0.13,0.35-0.29,0.62-0.49,0.82c-0.19,0.19-0.52,0.29-0.98,0.29c-0.33,0-1.18-0.2-2.52-0.6c-1.35-0.4-2.62-0.6-3.83-0.6
		c-2.76,0-4.9,0.8-6.43,2.4c-1.54,1.6-2.3,3.5-2.3,5.7c0,1.74,0.49,3.24,1.47,4.52c0.96,1.28,2.55,2.46,4.77,3.55l4.21,2.05
		c0.91,0.44,1.56,0.86,1.97,1.25c0.74,0.72,1.11,1.59,1.11,2.61c0,1.07-0.34,1.93-1.03,2.59c-0.68,0.66-1.76,0.98-3.22,0.98
		c-1.59,0-3.14-0.56-4.66-1.68c-1.52-1.12-2.55-3.04-3.1-5.75h-1.58v9.4h1.36c0.3-0.59,0.56-1.01,0.79-1.26
		c0.23-0.25,0.5-0.38,0.82-0.38c0.13,0,0.23,0.01,0.32,0.03c0.08,0.02,0.3,0.09,0.65,0.22l0.97,0.33c1.13,0.39,2.07,0.66,2.84,0.82
		c0.77,0.16,1.53,0.23,2.29,0.23c3.05,0,5.34-0.91,6.86-2.73c1.52-1.82,2.29-3.78,2.29-5.89c0-2.16-0.74-3.98-2.22-5.46
		C441.66,35.3,440.25,34.4,438.33,33.48z"/>
	<path d="M447.25,0.42c-3.03,0-5.51,2.46-5.51,5.49c0,3.03,2.48,5.49,5.51,5.49s5.49-2.46,5.49-5.49
		C452.74,2.88,450.28,0.42,447.25,0.42z M447.25,10.72c-2.65,0-4.81-2.16-4.81-4.81c0-2.65,2.16-4.81,4.81-4.81
		c2.65,0,4.79,2.16,4.79,4.81C452.04,8.56,449.9,10.72,447.25,10.72z"/>
	<path d="M449.61,7.75l-0.97-1.76c0.79-0.19,1.4-0.78,1.4-1.62c0-1.14-1.03-1.68-2.36-1.68h-3.21v0.29c0.7,0,0.7,0.54,0.7,1.21v3.27
		c0,0.82,0,1.22-0.81,1.22v0.29h3.27V8.68c-0.92,0-0.92-0.4-0.92-1.22V6.11h0.35l1.58,2.86h1.88V8.68
		C450.08,8.68,449.79,8.09,449.61,7.75z M447.13,5.76c-0.15,0-0.34-0.02-0.43-0.05V3.04h0.36c1.11,0,1.3,0.73,1.3,1.3
		C448.36,5.07,447.92,5.76,447.13,5.76z"/>
	<path class="st1" d="M67.78,31.52c-1.14,0-2.18,0.45-2.94,1.2L52.47,45.49c-4.78,4.14-9.33,6.32-16.37,6.37v0
		c-6.87-0.11-11.35-2.29-16.06-6.36L7.57,32.72c-0.76-0.74-1.79-1.2-2.94-1.2c-2.31,0-4.19,1.87-4.19,4.18
		c0,1.16,0.47,2.2,1.23,2.96L17.9,54.5c4.56,3.74,11.03,5.63,18.2,5.63c7.16,0,13.62-1.89,18.2-5.63l16.44-15.83
		c0.76-0.76,1.23-1.81,1.23-2.96C71.97,33.39,70.09,31.52,67.78,31.52z"/>
	<path class="st1" d="M21.65,38.23c4.75,4.53,7.53,7.42,14.42,7.53c7.16,0.1,9.97-2.96,14.79-7.58l9.57-9.71
		c0.76-0.76,1.23-1.81,1.23-2.96c0-2.31-1.88-4.19-4.19-4.19c-1.19,0-2.26,0.5-3.03,1.3L43.59,33.52c-1.86,2.03-4.53,3.31-7.49,3.31
		c-2.96,0-5.62-1.26-7.47-3.27L17.97,22.61c-0.77-0.8-1.84-1.3-3.04-1.3c-2.31,0-4.18,1.88-4.18,4.19c0,1.16,0.47,2.21,1.23,2.96
		L21.65,38.23z"/>
	<path class="st1" d="M33.91,29.84c0.56,0.59,1.36,0.96,2.24,0.96c0.88,0,1.67-0.36,2.23-0.94l11.83-11.69
		c0.77-0.76,1.24-1.81,1.24-2.98c0-2.31-1.88-4.2-4.19-4.2c-1.13,0-2.15,0.45-2.91,1.18l-6.88,6.98c-0.36,0.35-0.84,0.56-1.37,0.56
		c-0.56,0-1.06-0.23-1.41-0.61l-6.64-6.94C27.3,11.45,26.27,11,25.15,11c-2.32,0-4.19,1.88-4.19,4.2c0,1.16,0.48,2.22,1.24,2.98
		L33.91,29.84z"/>
	<path class="st1" d="M36.1,11.44c3.04,0,5.5-2.47,5.5-5.51c0-3.04-2.46-5.51-5.5-5.51c-3.05,0-5.51,2.47-5.51,5.51
		C30.59,8.97,33.05,11.44,36.1,11.44z"/>
	<path d="M489.57,21.47c0-3.85-1.27-6.56-3.8-8.14c-2.53-1.58-6.24-2.37-11.1-2.37H456.3v1.45c1.86,0.2,3.11,0.59,3.76,1.15
		c0.65,0.56,0.98,1.92,0.98,4.06v25.25c0,2.02-0.32,3.37-0.96,4.02c-0.64,0.66-1.9,1.05-3.78,1.18v1.45h19v-1.45
		c-1.93-0.07-3.25-0.44-3.96-1.08c-0.71-0.65-1.06-2.03-1.06-4.12V32.23c3.4,0,5.96-0.08,7.69-0.22c1.73-0.15,3.46-0.57,5.18-1.28
		c2.29-1,3.92-2.33,4.92-3.97C489.08,25.11,489.57,23.35,489.57,21.47z M477.09,29.08c-1.13,0.72-3.4,1.12-6.8,1.17V14.92
		c0-0.78,0.24-1.3,0.74-1.57c0.49-0.27,1.31-0.41,2.44-0.41c2.47,0,4.14,0.8,5.01,2.4c0.88,1.6,1.31,3.7,1.31,6.3
		C479.79,25.45,478.89,27.93,477.09,29.08z"/>
	<path d="M506.16,44.94c-1.19,0.83-2.46,1.25-3.8,1.25c-2.81,0-4.78-1.57-5.89-4.71c-0.61-1.67-0.99-3.65-1.12-5.94h14.58
		c0-0.52-0.07-1.27-0.2-2.26c-0.26-2.1-0.72-3.81-1.39-5.13c-0.89-1.75-2.17-3.11-3.82-4.1c-1.66-0.99-3.42-1.48-5.3-1.48
		c-3.29,0-6.1,1.21-8.44,3.64c-2.33,2.42-3.5,5.83-3.5,10.21c0,4.85,1.23,8.38,3.68,10.59c2.46,2.21,5.09,3.31,7.9,3.31
		c1.95,0,3.68-0.36,5.19-1.08c2.32-1.13,4.37-3.15,6.14-6.05l-1.31-0.81C507.79,43.59,506.89,44.43,506.16,44.94z M496.15,26.68
		c0.55-1.54,1.57-2.31,3.06-2.31c1.46,0,2.43,0.67,2.91,2.01c0.49,1.34,0.75,3.69,0.78,7.05h-7.69
		C495.29,30.47,495.6,28.23,496.15,26.68z"/>
	<path d="M551.48,44.94V23.26h-10.95v1.37c1.15,0.21,1.92,0.52,2.31,0.94c0.39,0.42,0.59,1.21,0.59,2.37v16.78
		c0,1.3-0.28,2.2-0.84,2.7c-0.33,0.29-0.91,0.52-1.72,0.68v-0.99c-1.3-0.11-2.17-0.39-2.62-0.84c-0.45-0.45-0.67-1.27-0.67-2.45
		V10.97h-12.29v1.36c1.74,0.08,2.9,0.29,3.46,0.63c0.56,0.35,0.83,1.24,0.83,2.68V26.1c-1.1-1.15-2.01-1.95-2.73-2.4
		c-1.17-0.74-2.51-1.12-4.01-1.12c-3.01,0-5.59,1.31-7.73,3.92c-2.15,2.61-3.22,6.17-3.22,10.69c0,4.05,1.03,7.26,3.09,9.61
		c2.06,2.36,4.48,3.54,7.27,3.54c1.64,0,3.16-0.42,4.57-1.28c0.89-0.54,1.88-1.37,2.96-2.48v3.76c2.34-0.65,3.97-1.05,4.9-1.21
		c0.89-0.15,2.85-0.38,5.85-0.68v1.08h13.6v-1.36c-1.02-0.21-1.72-0.48-2.09-0.84S551.48,46.18,551.48,44.94z M529.58,43.15
		c0,0.45-0.49,1.22-1.47,2.31c-0.98,1.1-2.08,1.65-3.31,1.65c-1.96,0-3.28-1.35-3.97-4.04c-0.37-1.49-0.56-3.7-0.56-6.63
		c0-2.75,0.19-4.88,0.59-6.38c0.72-2.81,2.1-4.21,4.14-4.21c1.38,0,2.49,0.46,3.32,1.37c0.84,0.91,1.26,1.6,1.26,2.06V43.15z"/>
	<path d="M547.47,18.96c1.21,0,2.24-0.43,3.11-1.29c0.86-0.86,1.29-1.91,1.29-3.14c0-1.23-0.43-2.27-1.29-3.14
		c-0.87-0.86-1.9-1.3-3.11-1.3c-1.23,0-2.27,0.43-3.14,1.3c-0.86,0.86-1.3,1.91-1.3,3.14c0,1.23,0.43,2.27,1.3,3.14
		C545.2,18.53,546.24,18.96,547.47,18.96z"/>
	<path d="M579.08,46.59c-0.18,0.09-0.37,0.13-0.6,0.13c-0.26,0-0.5-0.15-0.71-0.44c-0.22-0.28-0.32-0.63-0.32-1.04V31.42
		c0-3.38-1.08-5.7-3.23-6.97c-2.17-1.24-4.88-1.87-8.11-1.87c-3.01,0-5.55,0.64-7.61,1.92c-2.06,1.28-3.09,3.01-3.09,5.2
		c0,1.22,0.39,2.16,1.16,2.81c0.77,0.65,1.7,0.97,2.8,0.97c0.95,0,1.78-0.29,2.5-0.88c0.71-0.58,1.07-1.42,1.07-2.49
		c0-0.43-0.08-0.83-0.24-1.21c-0.16-0.38-0.37-0.73-0.62-1.04l-0.34-0.39c-0.15-0.17-0.26-0.32-0.33-0.47
		c-0.08-0.15-0.11-0.33-0.11-0.56c0-0.57,0.33-1.05,0.99-1.43c0.66-0.38,1.5-0.57,2.52-0.57c1.82,0,3.09,0.41,3.8,1.21
		c0.72,0.81,1.07,2.06,1.07,3.75v4.15c-5.27,1.53-9.15,3.04-11.62,4.55c-2.47,1.51-3.71,3.54-3.71,6.11c0,2.1,0.68,3.65,2.03,4.65
		c1.36,1,2.81,1.49,4.38,1.49c1.17,0,2.36-0.2,3.57-0.61c1.99-0.65,3.77-1.77,5.35-3.35c0.21,1.1,0.53,1.93,0.98,2.48
		c0.78,0.99,2.02,1.48,3.71,1.48c0.95,0,1.85-0.16,2.7-0.5c1.36-0.52,2.59-1.43,3.71-2.73l-0.87-1.2
		C579.53,46.29,579.26,46.51,579.08,46.59z M569.59,43.87c-0.61,0.71-1.14,1.23-1.59,1.56c-0.8,0.56-1.66,0.84-2.59,0.84
		c-0.7,0-1.34-0.32-1.91-0.96c-0.57-0.64-0.85-1.59-0.85-2.83c0-2.1,0.98-3.84,2.93-5.2c1.15-0.8,2.49-1.39,4.01-1.76V43.87z"/>
	<path d="M594.97,43.21c-0.5,0.93-1,1.66-1.51,2.19c-0.5,0.53-1.12,0.79-1.87,0.79c-0.85,0-1.47-0.42-1.84-1.25
		c-0.24-0.54-0.36-1.21-0.36-2.01V25.76h5.43v-2.51h-5.43v-9.64h-1.45c-1.41,2.17-2.98,4.21-4.71,6.1c-0.88,0.97-1.8,1.9-2.79,2.81
		c-0.74,0.63-1.37,1.18-1.87,1.64v1.59h2.96v18.51c0.01,2.54,0.98,4.3,2.91,5.26c1,0.5,2.17,0.75,3.51,0.75
		c2.36,0,4.35-0.87,5.98-2.59c0.93-0.98,1.73-2.26,2.4-3.82L594.97,43.21z"/>
	<path d="M617.57,23.72c-0.94-0.75-2-1.13-3.17-1.13c-1.56,0-2.94,0.46-4.13,1.39c-1.19,0.93-2.39,2.18-3.6,3.76v-4.49h-10.81v1.37
		c1.21,0.15,2.02,0.44,2.42,0.87c0.41,0.43,0.61,1.25,0.61,2.45v15.52l-0.06,1.67c-0.04,1.11-0.27,1.87-0.7,2.26
		s-1.19,0.65-2.28,0.78v1.36h15.19v-1.36c-1.64-0.15-2.73-0.46-3.27-0.93s-0.82-1.65-0.82-3.53V32.9c0-1.75,0.39-3.1,1.16-4.03
		c0.77-0.94,1.54-1.41,2.3-1.41c0.35,0,0.98,0.57,1.86,1.7c0.88,1.13,1.93,1.7,3.14,1.7c1.06,0,1.92-0.36,2.58-1.09
		c0.66-0.72,0.99-1.64,0.99-2.76C618.98,25.57,618.51,24.47,617.57,23.72z"/>
	<path d="M629.94,44.94V23.26h-10.95v1.37c1.15,0.21,1.92,0.52,2.31,0.94c0.39,0.42,0.59,1.21,0.59,2.37v16.78
		c0,1.3-0.28,2.2-0.84,2.7c-0.37,0.34-1.06,0.58-2.06,0.75v1.36h13.6v-1.36c-1.02-0.21-1.72-0.48-2.09-0.84
		C630.12,46.98,629.94,46.18,629.94,44.94z"/>
	<path d="M625.92,18.96c1.21,0,2.24-0.43,3.11-1.29c0.86-0.86,1.29-1.91,1.29-3.14c0-1.23-0.43-2.27-1.29-3.14
		c-0.87-0.86-1.9-1.3-3.11-1.3c-1.23,0-2.27,0.43-3.14,1.3c-0.86,0.86-1.3,1.91-1.3,3.14c0,1.23,0.43,2.27,1.3,3.14
		C623.65,18.53,624.7,18.96,625.92,18.96z"/>
	<path d="M652.31,45.5c-1.06,0.67-2.34,1-3.85,1c-2.4,0-4.3-1.21-5.71-3.62c-1.41-2.42-2.12-5.41-2.12-8.97
		c0-2.51,0.37-4.73,1.12-6.68c0.74-1.94,1.99-2.91,3.76-2.91c0.62,0,1.16,0.19,1.64,0.56c0.47,0.37,0.7,1.06,0.7,2.06
		c0,0.37-0.01,0.72-0.03,1.04c-0.02,0.33-0.03,0.57-0.03,0.74c0,1.56,0.51,2.64,1.53,3.23c0.54,0.33,1.17,0.5,1.89,0.5
		c1.08,0,1.97-0.36,2.66-1.09c0.7-0.72,1.05-1.58,1.05-2.56c0-1.84-0.88-3.34-2.63-4.51c-1.75-1.17-3.83-1.76-6.23-1.76
		c-4.11,0-7.39,1.4-9.85,4.19c-2.46,2.8-3.69,6.18-3.69,10.16c0,3.77,1.16,6.97,3.48,9.58c2.32,2.62,5.32,3.93,8.98,3.93
		c1.49,0,2.89-0.25,4.21-0.75c2.49-0.97,4.66-2.74,6.52-5.32l-1.06-0.98C653.72,44.39,652.94,45.1,652.31,45.5z"/>
	<path d="M674.08,36.19c-0.89-0.87-2.3-1.77-4.24-2.7l-3.12-1.51c-1.51-0.72-2.53-1.43-3.06-2.12c-0.56-0.67-0.84-1.34-0.84-2.01
		c0-0.82,0.31-1.58,0.93-2.29c0.62-0.71,1.56-1.06,2.83-1.06c1.63,0,3.06,0.58,4.29,1.76c1.23,1.17,2.11,2.72,2.65,4.65h1.45v-8.25
		h-1.25c-0.13,0.35-0.29,0.63-0.49,0.82c-0.19,0.19-0.52,0.29-0.99,0.29c-0.34,0-1.18-0.2-2.54-0.6c-1.36-0.4-2.64-0.6-3.85-0.6
		c-2.77,0-4.92,0.8-6.46,2.41c-1.54,1.61-2.31,3.52-2.31,5.73c0,1.75,0.49,3.26,1.48,4.54c0.97,1.28,2.56,2.47,4.79,3.57l4.23,2.06
		c0.91,0.44,1.57,0.86,1.98,1.26c0.74,0.72,1.11,1.6,1.11,2.62c0,1.08-0.34,1.95-1.03,2.61s-1.77,0.99-3.23,0.99
		c-1.6,0-3.16-0.57-4.68-1.69c-1.52-1.13-2.56-3.05-3.12-5.79h-1.59v9.45h1.36c0.3-0.6,0.56-1.01,0.8-1.27
		c0.23-0.25,0.5-0.38,0.82-0.38c0.13,0,0.24,0.01,0.32,0.03c0.08,0.02,0.3,0.09,0.65,0.22l0.98,0.34c1.13,0.39,2.08,0.66,2.86,0.82
		s1.54,0.24,2.3,0.24c3.07,0,5.37-0.91,6.9-2.74c1.53-1.83,2.3-3.81,2.3-5.92C676.31,39.5,675.57,37.67,674.08,36.19z"/>
</g>
</svg>
