<svg xmlns="http://www.w3.org/2000/svg" viewBox="0 0 1024 1024" fill="currentcolor">
  <path d="M963.7,966.7v-82.5H60.3v82.5c0,16.7-13.5,30.2-30.2,30.2s-30.2-13.5-30.2-30.2v-487.3c0-16.7,13.5-30.2,30.2-30.2s30.2,13.5,30.2,30.2v49.2c14.5-11.1,32.2-17.1,50.4-17.1h204.5c46,.1,83.3,37.4,83.3,83.5v57.2h565.1v-55.6c0-16.7,13.5-30.2,30.2-30.2s30.2,13.5,30.2,30.2v370.1c0,16.7-13.5,30.2-30.2,30.2s-30.2-13.5-30.2-30.2ZM60.3,823.7h903.4v-111.2H60.3v111.2ZM87.6,594.9v57.2h250.6v-57.1c0-12.7-10.3-23-23-23.1,0,0,0,0,0,0H110.7c-12.7,0-23.1,10.3-23.1,23.1h0ZM559.5,500h-95.2c-33.2-.3-60-27.2-60.1-60.4v-67.9h-67.9c-33.4,0-60.4-27-60.4-60.4h0v-95.3c0-33.4,27-60.4,60.4-60.4,0,0,.1,0,.2,0h67.8v-68c0-33.3,27-60.3,60.3-60.4,0,0,0,0,.1,0l95.1.2c33.2.2,60.1,27.2,60.1,60.4v67.8h67.9c33.3,0,60.2,27.1,60.2,60.4v95.3c0,33.3-27,60.4-60.3,60.4h-67.6v67.9c0,33.3-27,60.4-60.3,60.4h-.2ZM336.3,311.2h99.9c15.7,0,28.3,12.7,28.3,28.4v100h95.1c0,.1,0-100,0-100,0-15.7,12.6-28.4,28.3-28.4,0,0,0,0,0,0h99.8v-95.2h-99.8c-15.7,0-28.3-12.7-28.3-28.4v-99.9l-95-.2v100c0,15.7-12.7,28.3-28.3,28.3h-99.7l-.2,95.3Z"/>
</svg>