<svg xmlns="http://www.w3.org/2000/svg" viewBox="0 0 1024 1024" fill="currentcolor">
  <path d="M823.1,1023.8H199.4c-53.6-2-95.7-46.5-94.6-100.1V244.3c-1.5-53.8,40.7-98.8,94.6-100.7h85.1c5.8-13.9,15.7-25.7,28.4-33.9,15.8-10.8,34.3-16.8,53.5-17.2h4.2c4.3-26.3,19-49.7,40.9-65C437.4,9.2,468.5-.4,500.3,0c31.8-.4,62.9,9.2,88.8,27.6,21.8,15.3,36.5,38.7,40.9,65h8c35.5-1.9,68.5,18.4,82.6,51.1h104c53.7,2,95.9,46.7,94.6,100.5v679.4c1.3,53.7-40.9,98.5-94.6,100.5l-1.5-.2ZM170.3,242.1v683.3c-.5,18,13.4,33.2,31.4,34.2h620.5c18.1-1,32-16.2,31.5-34.3V242c.6-18.1-13.4-33.3-31.5-34.3h-98.1v.7c2.4,24.3-8.9,47.8-29.2,61.3-15.6,7.9-33.1,11.4-50.6,10.1h-278c-18,1.4-36-1.5-52.6-8.5-22.7-12.4-35.8-37.2-33.2-62.9v-.7h-78.9c-18.1,1-32,16.2-31.4,34.3h0ZM346.3,165.7v42.7c0,2.1.1,4.3.4,6.4,6.6.7,13.2.9,19.8.8h278c2.9,0,9.6,0,13.9-.5.3-2.2.4-4.5.4-6.7v-43.9c-5.3-5.7-13-8.7-20.7-7.9h-43.8c-10.8,0-20.9-5.2-27.1-14-6.1-8.7-7.4-19.9-3.4-29.8,1.1-2.7,1.7-5.7,1.7-8.6,0-18.9-26.7-40-65-40s-65,18.6-65,40c0,2.9.6,5.9,1.7,8.6,4,9.9,2.7,21.1-3.4,29.8-6.2,8.8-16.3,14.1-27.1,14h-40c-7.7.5-15,3.8-20.6,9.1h.1ZM255.7,800.8c.2-19,15.8-34.3,34.8-34.1h0c19-.2,34.6,15.1,34.8,34.1h0c-.2,19.1-15.8,34.4-34.8,34.2h0c-19,.3-34.7-14.9-35-34h0c0-.1,0-.2,0-.2ZM458.7,831.2c-17,.1-30.8-13.5-31-30.5.2-17,14-30.6,31-30.5h265.8c17-.2,30.9,13.5,31,30.5-.2,17-14,30.6-31,30.5h-265.8ZM255.7,625.2c.2-19,15.8-34.3,34.8-34.1h0c19-.2,34.6,15.1,34.8,34.1h0c-.2,19-15.7,34.3-34.7,34.1h0c-19,.3-34.7-14.9-35-34h0c0-.1,0-.2,0-.2ZM458.7,655.6c-17,.1-30.8-13.5-31-30.5.2-17,14-30.6,31-30.5h265.8c17-.2,30.9,13.5,31,30.5-.2,17-14,30.6-31,30.5h-265.8ZM266.5,498.6c-9.8-2.6-17.8-9.6-21.6-18.9l-13.9-34c-6.6-16.4,1.3-35,17.7-41.6.2,0,.3-.1.5-.2,14.8-5.8,31.6-.3,40.1,13.1l45.7-33.9c14.4-10.7,34.8-7.9,45.8,6.2,10.7,13.9,8.2,33.8-5.7,44.5-.2.2-.4.3-.7.5l-79.5,59c-5.7,4.2-12.6,6.5-19.7,6.5-3,0-6.1-.4-9-1.2h.3ZM458.7,479.9c-17,.1-30.8-13.5-31-30.5.2-17,14-30.6,31-30.5h265.8c17-.2,30.9,13.5,31,30.5-.2,17-14,30.6-31,30.5h-265.8Z"/>
</svg>