<svg xmlns="http://www.w3.org/2000/svg" viewBox="0 0 1024 1024" fill="currentcolor">
  <path d="M495,968.2l-17.7-10.9s-.2,0-.2-.2c-82.6-52-160.4-111.2-232.6-177-62.7-55.2-118.2-118.1-165.1-187.3C30.3,523.3,2.7,440.9,0,355.8c0-13.6,1.4-27.2,4.2-40.6,9.7-72.8,45.5-139.6,100.7-188,55.7-48.9,127.3-76,201.5-76.2,77.8,1,151.8,33.2,205.7,89.2,53.8-56,127.8-88.2,205.5-89.2,74.3.3,146,27.4,201.9,76.4,55.4,48.6,91.2,115.6,100.7,188.7,2.4,13,3.7,26.2,3.7,39.4,0,17.8-14.4,32.2-32.2,32.2h0c-17.8,0-32.3-14.3-32.4-32.1,0-9.5-.9-18.9-2.7-28.2,0-.8-.2-1.4-.3-2.2-7.4-57.9-35.8-111.2-79.7-149.7-44-38.6-100.5-60-159.1-60.3-35.1,0-69.7,8.9-100.5,25.8-30.8,17.1-57.9,40-80,67.4-6.2,7.5-15.4,11.8-25,11.8-9.7,0-18.8-4.4-25-11.8-22-27.5-49.2-50.3-80-67.4-30.8-16.9-65.4-25.8-100.5-25.8-58.5.2-114.9,21.5-158.8,60.1-43.9,38.4-72.2,91.5-79.6,149.4-.2.9-.2,1.8-.5,2.7-2,9.3-3,18.8-3,28.3,2.8,72.7,26.7,142.9,68.9,202.1,44,64.6,95.9,123.3,154.6,174.9,69.3,63.1,144,120,223.3,170.1l.6.4.5-.4c14.9-9.5,30-19.6,44.6-29.5,14.8-9.9,34.8-6.1,44.9,8.5,10,14.6,6.2,34.6-8.5,44.6,0,0,0,0,0,0-15.1,10.2-30.7,20.8-46.6,30.8,0,0-.2,0-.3.2l-17.6,10.9c-5.1,3.1-11,4.8-17.1,4.8-6,0-11.9-1.7-17-4.8ZM459.5,576.1c.6-146.2,119.5-264.4,265.7-264.1,146.2-.2,265,117.9,265.6,264.1-.6,146.2-119.4,264.3-265.6,264.1-146.2.3-265.1-117.9-265.7-264.1h0ZM524.1,576.1c.4,110.7,90.4,200.2,201.1,200,110.7.2,200.6-89.3,201-200-.5-110.7-90.4-200.1-201-199.9-110.7-.2-200.7,89.2-201.1,199.9h0ZM705.9,721.5v-24.8c-20.2-2.2-39-11.4-53.2-26-13.3-14.6-20.4-33.9-19.7-53.6h52.4c-.5,9.6,3.9,18.7,11.7,24.3,8.4,5.9,18.4,8.9,28.6,8.5,9.5.2,18.9-2.3,27.1-7.2,7.1-3.9,11.6-11.3,11.6-19.4,0-8.9-5.5-15.7-16.9-20.6-10-3.7-20.2-6.6-30.6-8.8-15.2-3.1-30-7.8-44.3-13.9-20.2-8.4-34-27.4-35.7-49.2-.2-2.6-.4-5.1-.4-7.8-.7-17.3,5.6-34.2,17.6-46.8,13.3-12.7,30.4-20.5,48.7-22.4v-23h41.5v23c18.6,2,35.9,10.7,48.6,24.5,11.7,14.1,17.8,32.1,17,50.5h-51.4c.5-8.6-3.4-16.9-10.4-22-7.6-5.3-16.7-8-26-7.6-8.3-.3-16.6,1.6-24,5.5-6.1,2.9-10,9.1-10,15.9,0,2.5.4,5,1.4,7.3,1,2.4,2.7,4.5,4.9,6,2.3,1.7,4.5,3.2,6.4,4.4,2.9,1.6,6.1,2.9,9.3,3.8,4.2,1.3,7.6,2.3,10.2,2.9s6.5,1.7,11.9,3.1c.9.2,1.6.4,2.1.5l12.7,3.2c2.9.7,7,2,12.4,3.5,4.4,1.3,8.6,2.8,12.8,4.5,3.2,1.4,7.1,3.3,11.7,5.6,3.9,2,7.5,4.4,10.9,7.2,3.1,2.8,6.1,5.8,8.9,9,3,3.3,5.5,7.1,7.4,11.2,1.9,4.4,3.3,8.9,4.3,13.6,1.2,5.4,1.8,10.8,1.7,16.3.8,18.6-6.1,36.8-19.2,50.1-14,13.1-31.9,21.4-51,23.7v25h-41.1Z"/>
</svg>