<svg xmlns="http://www.w3.org/2000/svg" viewBox="0 0 1024 1024" fill="currentcolor">
  <path d="M489.2,1014.6l-286.1-281.3c-41.2-40.4-73.9-88.8-95.9-142.1-21.1-51.3-32-106.2-31.9-161.6,0-55.5,10.8-110.4,31.9-161.7,22-53.4,54.7-101.7,95.9-142.1C285.4,44.7,396.5-.5,512,0c56.3-.1,112,10.5,164.3,31.4,54,21.5,103.1,53.6,144.5,94.4,41.3,40.4,73.9,88.7,96,142.1,21.2,51.3,32,106.3,31.9,161.7,0,55.4-10.8,110.4-31.9,161.6-22,53.4-54.7,101.7-96,142.1l-286,281.3c-6.1,6-14.3,9.3-22.8,9.3-8.5,0-16.7-3.4-22.8-9.4ZM248.7,170.3c-69.8,68.1-109.1,161.6-109,259.2-.1,97.5,39.2,191,109,259.1l263.3,259,263.3-259c69.9-68.1,109.3-161.5,109.1-259.1.1-97.6-39.2-191.1-109.1-259.2-70.2-69.1-164.8-107.7-263.3-107.3-98.6-.4-193.3,38.1-263.5,107.3h.1ZM405,522.3c-58.1-57.2-58.9-150.6-1.7-208.7.6-.6,1.1-1.2,1.7-1.7,28.5-28.1,67-43.9,107.1-43.7,40-.1,78.5,15.6,107,43.7,28.4,27.7,44.4,65.6,44.4,105.3,0,39.6-16,77.6-44.4,105.3-28.5,28.1-67,43.9-107,43.7-40.1.1-78.7-15.6-107.2-43.8h.1ZM450.4,356.4c-33.5,32.9-33.9,86.6-1.1,120.1.4.4.7.7,1.1,1.1,16.4,16.2,38.6,25.2,61.6,25.1,23,0,45.1-8.9,61.5-25.1,16.3-15.9,25.5-37.7,25.5-60.5,0-22.8-9.1-44.7-25.5-60.5-16.4-16.2-38.5-25.3-61.5-25.2-23.1-.1-45.3,8.9-61.7,25.1h.1Z"/>
</svg>