<svg xmlns="http://www.w3.org/2000/svg" viewBox="0 0 1024 1024" fill="currentcolor">
  <path d="M816.7,285c43.9,0,79.6-35.7,79.6-79.6s-35.7-79.6-79.6-79.6-79.6,35.7-79.6,79.6,35.7,79.6,79.6,79.6ZM816.7,170.1c19.4,0,35.3,15.8,35.3,35.3s-15.8,35.3-35.3,35.3-35.3-15.8-35.3-35.3,15.8-35.3,35.3-35.3Z"/>
  <path d="M794.4,514.8l.6.6c6,5.6,13.6,8.6,21.7,8.6s15.8-3,21.7-8.6l.6-.4c11.8-11.8,53.5-54.5,94-109.5,57.9-78.6,87.2-145.8,87.2-199.7,0-112.5-91.2-203.7-203.5-203.7s-203.5,91.2-203.5,203.5,29.3,121.1,87,199.7c40.5,54.7,82.4,97.6,94.2,109.5ZM716.6,105.8c26.7-26.9,62.2-41.5,100.1-41.5,77.8,0,141.2,63.4,141.2,141.2s-98.9,196.1-141.2,242.2c-20.9-22.7-53.1-59.6-81.6-101.1-38.9-56.5-59.6-105.5-59.6-141.2s14.4-73,41.1-99.7Z"/>
  <path d="M839.5,653.2h-134.1c-35.7,0-64.6-28.9-64.6-64.6s28.9-64.6,64.6-64.6,31.3-14,31.3-31.3-14-31.3-31.3-31.3c-70,0-126.9,56.9-126.9,126.9s56.9,126.9,126.9,126.9h134.1c67.4,0,122.1,54.7,122.1,122.1s-54.7,122.1-122.1,122.1l-485.4,1c79.2-84.6,206.3-241,206.3-371.9s-125.7-280.3-280.3-280.3S0,434,0,588.6s42.5,170,126.1,278.1c63.6,82.2,129.1,143.6,132.7,146.8,1.8,1.6,3.4,2.6,4.6,3.2l.4.2c.2.2.6.4.8.6.8.6,1.4,1,2.2,1.4l1.2.6c3.6,1.6,7.6,2.4,12.2,2.4h559.2c101.7,0,184.5-82.8,184.5-184.5s-82.8-184.3-184.5-184.3ZM280.3,947.3c-61-61.6-218-232.8-218-358.7s97.8-217.8,218-217.8,218,97.8,218,218-31.5,128.3-93.8,213.9c-45.9,63.2-97.4,117.7-124.1,144.6Z"/>
  <path d="M280.3,461.7c-70,0-126.9,56.9-126.9,126.9s56.9,126.9,126.9,126.9,126.9-56.9,126.9-126.9-56.9-126.9-126.9-126.9ZM280.1,653.2c-35.7,0-64.6-28.9-64.6-64.6s28.9-64.6,64.6-64.6,64.6,28.9,64.6,64.6-28.9,64.6-64.6,64.6Z"/>
</svg>