<svg xmlns="http://www.w3.org/2000/svg" viewBox="0 0 1024 1024" fill="currentcolor">
  <path d="M146.9,1004.3c-26.1-61.5-34.6-129-24.6-195.1,8.5-171.5,155.8-393.6,466.3-505.5,16.4-6.7,35,1.2,41.7,17.5,6.7,16.4-1.2,35-17.5,41.7-.8.3-1.6.6-2.5.9-324.5,116.9-419.4,337.9-424.3,449.9v3.6c-9,54.7-2.1,110.9,19.7,161.9,6.9,16.2-.6,35-16.9,42-3.9,1.8-8.2,2.7-12.5,2.7-12.9,0-24.5-7.8-29.5-19.7ZM450.3,833.7c-19.1-7-37.4-15.8-54.7-26.4-15.1-9.6-19.5-29.5-10-44.6,9.3-14.7,28.5-19.4,43.5-10.7,13.7,8.3,28.1,15.2,43.1,20.7,124.9,45.1,262.8-19.5,307.9-144.4,0-.1,0-.2.1-.3,17.6-54,30.6-109.4,39-165.6,15.9-106.4,47.6-209.9,93.9-307C414.9-31.7,215.5,113.5,152.3,186.1c-72.2,82.9-77.6,184.8-45.4,242.7,8.8,15.5,3.3,35.2-12.2,43.9-15.5,8.8-35.2,3.3-43.9-12.2,0,0-.1-.2-.1-.3C-.7,368.3,21.2,238,103.5,143.5c221.1-253.3,678.8-109.1,865.4-35.4l32,12.7-14.8,31.2c-51.6,101-86.4,209.6-103.1,321.8-8.9,59.6-22.8,118.4-41.5,175.7-43.7,121.3-158.6,202.3-287.6,202.6-35.4,0-70.5-6.2-103.7-18.3Z"/>
</svg>