<svg viewBox="0 0 40 40" fill="none" xmlns="http://www.w3.org/2000/svg">
<path d="M24.5889 5.30286C24.8486 5.18668 25.1475 5.22631 25.3691 5.40149L25.3701 5.40247C25.6372 5.61687 26.7826 6.29078 28.9014 7.16418C31.0153 8.03558 34.0894 9.10231 38.207 10.1036L38.8242 10.2531L38.9814 10.2921L38.9043 10.4347L38.6016 10.9933C38.537 11.1123 37.9414 12.1394 36.2363 13.1368C34.5304 14.1347 31.7204 15.0976 27.2334 15.0988V15.0997H27.2246V15.0988C25.1819 15.0982 22.793 14.8988 20 14.4122C12.4633 15.7265 7.852 14.9519 5.10156 13.8048C2.34722 12.656 1.46813 11.1378 1.38965 10.9923V10.9913L1.08691 10.4347L1.00977 10.2921L1.16797 10.2531L1.78418 10.1036C5.90332 9.10228 8.97754 8.03686 11.0908 7.16614C13.2086 6.29354 14.3534 5.62 14.6221 5.4054L14.708 5.34485C14.9176 5.21872 15.1756 5.20039 15.4014 5.30286L15.4941 5.35168C15.6711 5.4622 15.7935 5.63972 15.834 5.84387L15.8467 5.94836C15.9059 7.04957 16.3875 8.01312 17.2373 8.74426C18.7912 10.0743 21.2463 10.0388 22.8232 8.65637C24.0597 7.57075 24.1229 6.35172 24.1445 5.94836C24.1583 5.66593 24.3284 5.41545 24.5889 5.30188V5.30286ZM14.7266 6.797C13.08 7.759 9.1199 9.50242 3.03906 11.0538C4.43678 12.3811 8.80536 15.1348 19.8975 13.1827L19.8994 13.1818L19.9854 13.1681L20.0078 13.2394L20.0195 13.171L20.1064 13.1847L20.1074 13.1857C31.2838 15.1514 35.6032 12.3888 36.9766 11.0597C30.8944 9.50808 26.931 7.76446 25.2793 6.79993C25.0617 7.88234 24.5085 8.81725 23.6377 9.5802C21.5784 11.3837 18.4863 11.4277 16.4434 9.67493V9.6759C15.5386 8.90081 14.9537 7.91515 14.7266 6.797Z" fill="#DF2530" stroke="#DF2530" stroke-width="0.25"/>
<path d="M20 2.25C21.6106 2.25 22.9257 3.56133 22.9258 5.1748C22.9258 6.78845 21.6133 8.09766 20 8.09766C18.3895 8.09747 17.0781 6.78539 17.0781 5.1748C17.0782 3.56447 18.3894 2.25019 20 2.25ZM20 3.48047C19.0665 3.48066 18.3058 4.24127 18.3057 5.1748C18.3057 6.10843 19.0664 6.86895 20 6.86914C20.9337 6.86914 21.6943 6.10855 21.6943 5.1748C21.6942 4.24115 20.9337 3.48047 20 3.48047Z" fill="#DF2530" stroke="#DF2530" stroke-width="0.25"/>
<path d="M20.6133 27.1777V32.4219H19.3857V27.1777H20.6133Z" fill="#DF2530" stroke="#DF2530" stroke-width="0.25"/>
<path d="M20.6133 7.35828V25.5497H19.3857V7.35828H20.6133Z" fill="#DF2530" stroke="#DF2530" stroke-width="0.25"/>
<path d="M20 15.8055C22.1991 15.8055 24.1984 16.4009 25.6514 17.368C27.1033 18.3345 28.0225 19.6828 28.0225 21.1864C28.0223 22.8668 26.9009 24.4021 24.9893 25.413L24.8789 25.4716L24.8203 25.3612L24.3613 24.495L24.3037 24.3837L24.4141 24.326C25.9477 23.5154 26.7948 22.3633 26.7949 21.1864C26.7949 20.0667 26.0573 19.0313 24.8252 18.2694C23.5951 17.5088 21.8888 17.0331 20 17.0331H19.875V15.8055H20Z" fill="#DF2530" stroke="#DF2530" stroke-width="0.25"/>
<path d="M17.9951 16.0967L18.1729 17.0605L18.1953 17.1836L18.0723 17.2061C16.6264 17.4711 15.4053 18.0197 14.5488 18.7275C13.6921 19.4356 13.2081 20.2949 13.208 21.1855C13.208 22.3052 13.9451 23.3407 15.1768 24.1025C16.4065 24.8632 18.1126 25.3389 20 25.3389C21.5899 25.3389 23.0142 25.7586 24.0449 26.4541C25.0757 27.1497 25.7216 28.1287 25.7217 29.2412C25.7217 30.1891 25.2328 31.0818 24.3662 31.7754L24.4463 31.8799H23.8193L24.0176 31.7295L23.5029 31.0498L23.4277 30.9502L23.5273 30.875C24.1626 30.3931 24.4941 29.8095 24.4941 29.2412C24.4941 28.545 24.0074 27.879 23.1846 27.3799C22.3649 26.8828 21.2328 26.5664 20 26.5664C17.8009 26.5664 15.8016 25.9711 14.3486 25.0039C12.8966 24.0374 11.9775 22.6892 11.9775 21.1855C11.9777 18.7365 14.4294 16.6253 17.8496 15.9961L17.9727 15.9736L17.9951 16.0967Z" fill="#DF2530" stroke="#DF2530" stroke-width="0.25"/>
<path d="M15.5078 26.8613L16.1855 27.5693L16.2715 27.6592L16.1816 27.7461C15.8662 28.048 15.5059 28.5287 15.5059 29.1338C15.5061 29.8299 15.9926 30.4958 16.8154 30.9941C17.6351 31.4905 18.7672 31.8056 20 31.8057C21.185 31.8057 22.2493 32.1238 23.0205 32.6523C23.7915 33.1809 24.2781 33.927 24.2783 34.7773C24.2783 35.6279 23.7917 36.3747 23.0205 36.9033C22.2493 37.4319 21.185 37.75 20 37.75C18.8151 37.7499 17.7516 37.4318 16.9805 36.9033C16.2092 36.3747 15.7227 35.6279 15.7227 34.7773V34.6523H16.9502V34.7773C16.9502 35.2205 17.2697 35.6539 17.8301 35.9834C18.3865 36.3105 19.1575 36.5195 19.998 36.5195C20.8384 36.5195 21.6087 36.3099 22.165 35.9824C22.7255 35.6525 23.0449 35.2191 23.0449 34.7773C23.0447 34.3358 22.7253 33.903 22.165 33.5732C21.6087 33.2458 20.8384 33.0362 19.998 33.0361C18.408 33.0361 16.983 32.6164 15.9521 31.9209C14.9215 31.2254 14.2756 30.2462 14.2754 29.1338C14.2754 28.3025 14.6441 27.5158 15.3311 26.8574L15.4209 26.7705L15.5078 26.8613Z" fill="#DF2530" stroke="#DF2530" stroke-width="0.25"/>
</svg>
