<svg xmlns="http://www.w3.org/2000/svg" viewBox="0 0 1024 1024" fill="currentcolor">
  <path d="M868.7 357.8c86.3 0 155.3-69 155.3-149.6S955 52.9 874.4 52.9 747.8 93.2 724.8 156.5H0v103.6h724.9c23 57.5 80.5 97.8 143.8 97.8Zm0-207.1c28.8 0 51.8 23 51.8 51.8s-28.8 51.8-57.5 51.8-51.8-23-51.8-51.8c5.8-28.8 28.8-51.8 57.5-51.8Zm-512 207.1c-63.3 0-120.8 40.3-143.8 103.5H0v103.6h212.9c28.8 80.5 115.1 120.8 195.6 92 46-17.3 80.5-51.8 92-92h517.8V455.6H500.5c-23-57.5-80.5-97.8-143.8-97.8Zm0 201.3c-28.8 0-51.8-23-51.8-51.8s23-51.8 51.8-51.8 51.8 23 51.8 51.8-23 51.8-51.8 51.8Zm512 103.6c-63.3 0-120.8 40.3-143.8 103.5H0v103.5h724.9c28.8 80.5 115.1 120.8 195.6 92s120.8-115.1 92-195.6c-23-63.3-80.5-103.5-143.8-103.5Zm0 201.3c-28.8 0-51.8-23-51.8-51.8s23-51.8 51.8-51.8 51.8 23 51.8 51.8-23 51.8-51.8 51.8Z"/>
</svg>