<svg xmlns="http://www.w3.org/2000/svg" viewBox="0 0 1024 1024" fill="currentcolor">
  <path d="M982.4,553.6H274.7c-23,0-41.6-18.6-41.6-41.6s18.6-41.6,41.6-41.6h707.6c23,0,41.6,18.6,41.6,41.6s-18.6,41.6-41.6,41.6Z"/>
  <path d="M982.4,845H274.7c-23,0-41.6-18.6-41.6-41.6s18.6-41.6,41.6-41.6h707.6c23,0,41.6,18.6,41.6,41.6s-18.6,41.6-41.6,41.6Z"/>
  <path d="M982.4,262.2H274.7c-23,0-41.6-18.6-41.6-41.6s18.6-41.6,41.6-41.6h707.6c23,0,41.6,18.6,41.6,41.6s-18.6,41.6-41.6,41.6Z"/>
  <path d="M53.8,272.7h-1.7C23.3,272.7,0,249.4,0,220.6s23.3-52,52-52h1.7c28.7,0,52,23.3,52,52s0,0,0,0c0,28.7-23.3,52-52,52h0Z"/>
  <path d="M54.1,855.4h-2.1C23.3,855.4,0,832.1,0,803.4s23.3-52,52-52h2.1c28.7,0,52,23.3,52,52s-23.3,52-52,52Z"/>
  <path d="M54.1,563.4h-2.1C23.3,563.4,0,540.1,0,511.3s23.3-52,52-52h2.1c28.7,0,52,23.3,52,52s-23.3,52-52,52Z"/>
</svg>