<svg xmlns="http://www.w3.org/2000/svg" viewBox="0 0 1024 1024" fill="currentcolor">
  <path d="M1004.7459526,932.51988l-197.8009069-197.8427706c62.4031275-77.4557561,99.9339644-175.8041315,99.9339644-283.0145361C906.87901,202.2175184,704.6614792-.0000124,455.2164243-.0000124,205.768753-.0000124,3.5538387,202.2175184,3.5538387,451.6625733c0,249.4476714,202.2149143,451.6625857,451.6625857,451.6625857,103.5813421,0,198.7192926-35.241414,274.9165201-93.8794219l198.8213354,198.8213354c10.042063,10.0656114,23.6791742,15.7119824,37.8971446,15.6910505v.0418637c14.2179704.0026165,27.8524651-5.646371,37.904994-15.6989,20.9240172-20.9292502,20.9187842-54.859806-.0104659-75.7812067ZM455.2164243,796.1540017c-190.2575855,0-344.4914284-154.233843-344.4914284-344.4914284S264.9588389,107.1711449,455.2164243,107.1711449c190.168625.2145516,344.2768768,154.3228034,344.4914284,344.4914284,0,190.2575855-154.233843,344.4914284-344.4914284,344.4914284Z"/>
</svg>