<svg xmlns="http://www.w3.org/2000/svg" viewBox="0 0 1024 1024" fill="currentcolor">
  <path d="M512.7296499.0000031C332.5998926.0000031,185.9440884,153.0297884,185.9440884,341.1315195c0,52.6049387,11.1599883,103.6148478,33.4759519,151.4377801,0,1.5939919,1.5939919,1.5939919,1.5939919,3.1879839l275.7756371,518.0752765c4.7820064,9.5640127,15.9399805,12.7529732,23.9099403,7.9700208,3.1899981-1.5939919,6.377982-4.7819758,7.9699597-7.9699597l274.1827285-518.0763141c0-1.5929849,1.5939919-1.5929849,1.5939919-3.1870073,22.3169859-47.8229323,35.0699591-98.8328719,33.4759672-151.4377801C839.516249,153.031772,692.8624589,0,512.7327016,0l-.0030518.0000031ZM512.7296499,459.0923559c-66.9499202-1.5939919-119.5558354-55.7919155-117.9598293-122.7438498-1.594999-66.9499202,51.0099396-121.1498273,117.9598293-122.7438345,66.9499202,1.5939919,119.5558659,55.7919307,117.9598598,122.7438345,0,66.9499202-52.6039316,121.1498273-117.9598598,122.7438498Z"/>
</svg>