<svg xmlns="http://www.w3.org/2000/svg" viewBox="0 0 1024 1024" fill="currentcolor">
  <path d="M613.7,963.3c-111.2,2.1-204.5-83.2-212.4-194.1v-102.9c0-37.4-11.6-159.1-160.4-159.1s-140.4,152.8-140.4,159.1v89.7c18.6,11.9,29.9,32.4,29.9,54.5-.1,35.9-29.3,64.9-65.2,64.8-35.9.1-65.1-28.9-65.2-64.8,0-24,13.3-46,34.5-57.2v-87c0-76.4,43.3-220.8,206.8-220.8s226.4,110.9,226.4,220.8v101.6c6.3,76.8,71.5,135.4,148.5,133.5,75.5,7.1,142.6-48.1,150.1-123.5v-201.2c0-7.5,3-14.8,8.2-20.2-6.8-.3-13.3-2.9-18.5-7.3-146.1-30.2-170.2-146.6-170.2-219.8V91.1c.1-17,14-30.7,31-30.7h96.1c17,0,30.9,13.6,31,30.6h0c-.1,17.1-14,30.9-31,30.9h-65v207.2c0,103,52.1,157.1,158.8,164.7,104.4-8.5,155.3-62.5,155.3-164.4V122.1h-65.2c-17,.1-30.9-13.6-31-30.6h0c.1-17.2,14-30.9,31-30.9h96.1c17,0,30.9,13.6,31,30.7h0v238.1c0,73.5-24,189.8-170.5,219.9-5.5,4.5-12.4,7-19.6,7v.3h-9.9c5.3,5.4,8.2,12.7,8.3,20.2v191.1c0,4.3,0,9.1-.3,13.9-10.3,105.4-100.5,184.8-206.4,181.7-4,0-8,0-11.8-.2Z"/>
</svg>