<svg xmlns="http://www.w3.org/2000/svg" viewBox="0 0 1024 1024" fill="currentcolor">
  <path d="M431.5,991.2L33,594.3C12,573.7.1,545.5.2,516.1c0-29.5,11.5-57.8,32.2-78.8L430.6,33.3l1.1-1c44.2-43.4,115.1-43,158.9.8l400.7,403.7.3.3c20.9,21,32.6,49.5,32.2,79.1,0,29.4-11.9,57.6-32.9,78.3l-401.1,397.1c-21,20.8-49.5,32.5-79.1,32.5-29.7,0-58.3-11.7-79.3-32.8ZM78.8,483c-8.8,8.7-13.6,20.5-13.5,32.9,0,12.2,4.8,23.9,13.5,32.5l398.2,396.9c18.6,18.5,48.5,18.5,67.1,0l401-397.1c8.8-8.5,13.7-20.3,13.7-32.5.1-12.1-4.6-23.8-13-32.5L544.3,79c-18.6-18.6-48.9-18.7-67.5,0M370.2,695v-183.9c-.9-35.7,12.2-70.4,36.5-96.6,30.7-28.9,72.4-43.2,114.4-39.1h93.6l-57.2-58c-12.3-12.4-12.2-32.5.2-44.8,0,0,0,0,0,0,12.5-12.2,32.5-12.1,44.9.3l102,103.2c11.9,12,12.2,31.2.8,43.6l-102,112.1c-6,6.6-14.4,10.4-23.3,10.4l-.3.2c-7.9,0-15.5-3-21.3-8.4-13-11.8-13.9-31.9-2.1-44.8,0,0,0,0,0,0l45.9-50.3h-82.6c-24.2-3.2-48.6,3.9-67.4,19.5-12.3,14.2-19.1,32.4-18.8,51.2v185.4c0,17.5-14.2,31.7-31.7,31.7h0c-17.5,0-31.7-14.2-31.6-31.7h0Z"/>
</svg>