<svg xmlns="http://www.w3.org/2000/svg" viewBox="0 0 1024 1024" fill="currentcolor">
  <path d="M72.4,913.7c-39.7.2-72.1-31.7-72.4-71.4V181.5c.3-39.7,32.7-71.6,72.4-71.4h795.6c39.7-.2,72.1,31.7,72.4,71.4-.1,16.7-13.8,30.2-30.5,30.1h0c-16.7.1-30.4-13.4-30.5-30.1h0c0-6.2-5.1-11.2-11.3-11.2H72.4c-6.2,0-11.3,5-11.3,11.2v93.4h644.1c16.7-.1,30.4,13.3,30.5,30.1h0c-.1,16.7-13.8,30.2-30.5,30.1H61.1v507.2c0,6.2,5.1,11.3,11.3,11.2h795.6c6.2,0,11.3-5,11.3-11.2v-282.2c.1-16.7,13.8-30.2,30.5-30.1h0c16.7-.1,30.4,13.3,30.5,30h0v282.3c-.3,39.7-32.7,71.7-72.4,71.4H72.4ZM448.5,804.9c-8.1-8.1-10.8-20-7.2-30.8l45.4-132.4c1.4-4.9,4.1-9.3,7.7-12.9l372-368.1c15.1-15,35.6-23.4,56.9-23.3h0c21.3,0,41.8,8.3,56.9,23.3l20.3,20.1c31.1,30.6,31.5,80.5.9,111.6-.3.3-.6.6-.9.9l-36.7,36.3c-.2.3-.5.6-.8.8l-.7.7-332.6,329.3c-3.6,3.9-8.2,6.9-13.3,8.5l-136.8,43.5c-3,1-6.2,1.5-9.4,1.5-8.1,0-15.9-3.2-21.7-8.8v-.2ZM518.5,736.7l72-23,307.9-304.8-47.9-47.4-307.9,304.8-24.1,70.4ZM941.5,366.5l15.8-15.6c7.6-7.5,7.7-19.7.2-27.3l-.2-.2-20.3-20.1c-3.6-3.6-8.5-5.6-13.6-5.6-5.1,0-10.1,2-13.7,5.6l-15.9,15.8,47.8,47.4ZM152.7,675.6c-16.7.1-30.4-13.3-30.5-30.1h0c.1-16.7,13.8-30.2,30.5-30.1h241.7c16.7-.1,30.4,13.3,30.5,30h0c-.1,16.8-13.7,30.2-30.5,30.1h-241.7ZM152.7,556.5c-16.7.1-30.4-13.4-30.5-30.1.1-16.7,13.8-30.2,30.5-30.1h328c16.7-.1,30.4,13.3,30.5,30.1h0c-.1,16.8-13.8,30.3-30.5,30.1H152.7ZM152.7,454.3c-16.7.1-30.4-13.4-30.5-30.1.1-16.7,13.8-30.2,30.5-30.1h397c16.7-.1,30.4,13.3,30.5,30h0c-.1,16.8-13.8,30.2-30.5,30.1H152.7Z"/>
</svg>