<svg xmlns="http://www.w3.org/2000/svg" viewBox="0 0 1024 1024" fill="currentcolor">
  <path d="M512,0C229.2,0,0,229.2,0,512s229.2,512,512,512,512-229.2,512-512S794.8,0,512,0ZM828.7,814.6c-171,178.8-454.6,185.1-633.4,14-84-84-131.2-197.9-131.2-316.7,0-247.4,200.5-448.1,447.9-448.1,118.9-.3,232.9,47,316.7,131.4,165.7,173.2,165.7,446.2,0,619.4Z"/>
  <path d="M731,401.6h-97.2v-97.2c0-46-37.2-83.3-83.2-83.3h-69.5c-46,0-83.2,37.4-83.2,83.3v97.2h-97.2c-46,0-83.3,37.2-83.3,83.2v69.5c0,46,37.4,83.2,83.3,83.2h97.2v97.2c0,45.9,37.3,83.1,83.2,83.2h69.5c45.9,0,83.1-37.3,83.2-83.2v-97.2h97.2c46,0,83.3-37.2,83.3-83.2v-69.5c0-46-37.4-83.2-83.3-83.2ZM750.2,554.1c0,10.6-8.6,19.2-19.2,19.2h-161.3v161.3c0,10.6-8.6,19.2-19.2,19.2h-69.5c-10.6,0-19.2-8.6-19.2-19.2v-161.4h-161.3c-10.6,0-19.2-8.6-19.2-19.2v-69.5c0-10.6,8.6-19.2,19.2-19.2h161.4v-161.3c0-10.6,8.6-19.2,19.2-19.2h69.5c10.6,0,19.2,8.6,19.2,19.2v161.4h161.2c10.6,0,19.2,8.6,19.2,19.2v69.5Z"/>
</svg>