<svg xmlns="http://www.w3.org/2000/svg" viewBox="0 0 1024 1024" fill="currentcolor">
  <path d="M512.5,0h0c82.5-.7,162.9,25.8,228.9,75.3,83.1,64.8,137.9,159.2,152.8,263.5,13.8,98.4,1.8,198.7-34.8,291-22.8,59.3-54.3,114.8-93.4,164.8-30.9,39.6-67.5,74.2-108.7,102.9-29.7,20.8-62.9,36.1-98.1,45.1,1.4,5.4,3.6,10.5,6.4,15.3,12.8,15,11.5,37.4-3,50.8-14.5,11.4-32.8,16.7-51.2,14.8h-.2c-17.8,1.6-35.4-3.7-49.4-14.8-14.5-13.2-16-35.5-3.3-50.5,2.6-5,4.8-10.2,6.5-15.6-11.1-2.6-22-5.8-32.6-9.8-15.9-6.4-31.4-13.7-46.4-21.9h0c-61.7-37.1-114.5-87.4-154.5-147.3-48-70.5-81-150.2-96.9-234-10.6-55.1-13.2-111.4-7.9-167.2,5.8-56.9,22.8-112.1,49.8-162.5,26-48.7,62.2-91.3,106.2-124.7C341.9,31.1,412.5,5.2,486.1.9c8.8-.6,17.7-.9,26.4-.9ZM512.4,887.6c5-1.9,10.2-3,15.4-3.4l2.7-.4c57.9-7.6,129.1-56.7,185.7-128.3,35.2-45,63.5-94.9,84-148.3,32.7-81.9,43.5-170.9,31.4-258.3-12.4-88.2-58.4-168.2-128.5-223.2-55-41.2-122-63.2-190.8-62.5h0c-7.4,0-14.9.2-22.4.7-61.2,3.5-120.1,25.1-169.1,61.8-36.8,28-67,63.6-88.8,104.4-23.2,43.2-37.6,90.5-42.6,139.2-4.6,49.7-2.2,99.9,7.2,148.9,14.2,75.1,43.7,146.5,86.7,209.7,34.7,51.9,80.3,95.6,133.6,128.1,12.1,6.6,24.6,12.5,37.3,17.7,13.4,5,27.2,8.5,41.4,10.4,5.7.4,11.3,1.5,16.6,3.3Z"/>
</svg>