<svg viewBox="0 0 56 56" fill="none" xmlns="http://www.w3.org/2000/svg">
<path d="M2.28516 24.6455C2.28516 30.576 4.64105 36.2636 8.83457 40.4572C13.0281 44.6507 18.7157 47.0066 24.6463 47.0066C30.5768 47.0066 36.2644 44.6507 40.458 40.4572C44.6515 36.2636 47.0074 30.576 47.0074 24.6455C47.0074 18.7149 44.6515 13.0273 40.458 8.83378C36.2644 4.64026 30.5768 2.28436 24.6463 2.28436C18.7157 2.28436 13.0281 4.64026 8.83457 8.83378C4.64105 13.0273 2.28516 18.7149 2.28516 24.6455Z" fill="#DF3F49"/>
<path d="M8.83384 40.4572C4.67067 36.2574 2.34062 30.5795 2.35357 24.666C2.36652 18.7524 4.72141 13.0848 8.90293 8.90324C13.0845 4.72171 18.7521 2.36682 24.6657 2.35387C30.5792 2.34093 36.2571 4.67097 40.4569 8.83414L8.83384 40.4572Z" fill="#FFC2C1"/>
<path d="M8.83457 40.4572C4.64105 36.2636 2.28516 30.576 2.28516 24.6455C2.28516 18.7149 4.64105 13.0273 8.83457 8.83378C13.0281 4.64026 18.7157 2.28436 24.6463 2.28436C30.5768 2.28436 36.2644 4.64026 40.458 8.83378C44.6515 13.0273 47.0074 18.7149 47.0074 24.6455C47.0074 30.576 44.6515 36.2636 40.458 40.4572C36.2644 44.6507 30.5768 47.0066 24.6463 47.0066C18.7157 47.0066 13.0281 44.6507 8.83457 40.4572Z" stroke="#2C070B" stroke-width="2.33333" stroke-linecap="round" stroke-linejoin="round"/>
<path d="M14.0566 35.9157C16.9743 38.7298 20.8705 40.3012 24.9241 40.2985C28.8897 40.3083 32.7078 38.7955 35.5904 36.0723C34.6529 34.0122 33.1459 32.2631 31.2471 31.0312C29.3482 29.7994 27.1368 29.1362 24.8735 29.1197C22.6102 29.1032 20.3893 29.7343 18.4728 30.9384C16.5563 32.1425 15.024 33.8695 14.0566 35.9157Z" fill="#FFC2C1"/>
<path d="M24.79 33.3464C26.5022 33.348 28.1936 33.7216 29.7473 34.4412C31.3009 35.1609 32.6796 36.2095 33.7881 37.5146C34.4243 37.0799 35.0268 36.5977 35.5904 36.0723C34.6529 34.0122 33.1459 32.2631 31.2471 31.0312C29.3482 29.7994 27.1368 29.1362 24.8735 29.1197C22.6102 29.1032 20.3893 29.7343 18.4728 30.9384C16.5563 32.1425 15.024 33.8695 14.0566 35.9157C14.6278 36.4568 15.2384 36.9546 15.8835 37.405C16.992 36.1316 18.3605 35.1104 19.8969 34.4103C21.4332 33.7103 23.1017 33.3475 24.79 33.3464Z" fill="#FFE3E3"/>
<path d="M35.951 36.9447C35.1157 34.6504 33.5949 32.6685 31.5947 31.2681C29.5946 29.8677 27.2121 29.1165 24.7704 29.1165C22.3287 29.1165 19.9462 29.8677 17.9461 31.2681C15.9459 32.6685 14.4251 34.6504 13.5898 36.9447" stroke="#2C070B" stroke-width="2.33333" stroke-linecap="round" stroke-linejoin="round"/>
<path d="M53.7149 53.7152L40.457 40.4573" stroke="#2C070B" stroke-width="2.33333" stroke-linecap="round" stroke-linejoin="round"/>
<path d="M33.1423 16.4173V17.7589C32.8069 17.7589 32.4715 17.7366 32.1585 17.712C29.3517 17.4499 26.7553 16.1117 24.9135 13.9777C23.0664 16.1174 20.4611 17.457 17.6461 17.7142C17.333 17.7388 17.02 17.7612 16.6846 17.7612V16.4195C16.6846 14.2371 17.5515 12.144 19.0948 10.6008C20.638 9.05758 22.731 8.19061 24.9135 8.19061C27.0959 8.19061 29.1889 9.05758 30.7322 10.6008C32.2754 12.144 33.1423 14.2371 33.1423 16.4195V16.4173Z" fill="#DF3F49"/>
<path d="M24.9135 8.16553C23.8314 8.16699 22.7601 8.38158 21.761 8.79704C20.7618 9.2125 19.8543 9.82069 19.0901 10.5869C18.326 11.3531 17.7203 12.2623 17.3075 13.2626C16.8948 14.2629 16.6831 15.3347 16.6846 16.4168V17.7584H16.7941C17.0405 15.7787 18.0017 13.9572 19.4969 12.6364C20.9922 11.3157 22.9184 10.5868 24.9135 10.5868C26.9085 10.5868 28.8348 11.3157 30.33 12.6364C31.8253 13.9572 32.7865 15.7787 33.0328 17.7584H33.1424V16.4168C33.1438 15.3347 32.9321 14.2629 32.5194 13.2626C32.1067 12.2623 31.5009 11.3531 30.7368 10.5869C29.9727 9.82069 29.0651 9.2125 28.066 8.79704C27.0668 8.38158 25.9956 8.16699 24.9135 8.16553Z" fill="#DF3F49"/>
<path d="M33.1423 16.4173V17.7589C32.8069 17.7589 32.4715 17.7366 32.1585 17.712C29.3517 17.4499 26.7553 16.1117 24.9135 13.9777C23.0664 16.1174 20.4611 17.457 17.6461 17.7142C17.333 17.7388 17.02 17.7612 16.6846 17.7612V16.4195C16.6846 14.2371 17.5515 12.144 19.0948 10.6008C20.638 9.05758 22.731 8.19061 24.9135 8.19061C27.0959 8.19061 29.1889 9.05758 30.7322 10.6008C32.2754 12.144 33.1423 14.2371 33.1423 16.4195V16.4173Z" stroke="#2C070B" stroke-width="2.33333" stroke-linecap="round" stroke-linejoin="round"/>
<path d="M16.6845 17.7586V18.8096C16.7451 20.8632 16.2092 22.8904 15.1416 24.6458" stroke="#2C070B" stroke-width="2.33333" stroke-linecap="round" stroke-linejoin="round"/>
<path d="M33.1433 17.7586V18.8096C33.0827 20.8632 33.6186 22.8904 34.6862 24.6458" stroke="#2C070B" stroke-width="2.33333" stroke-linecap="round" stroke-linejoin="round"/>
<path d="M32.1579 17.7138C32.0774 19.5843 31.2778 21.3514 29.9258 22.6465C28.5738 23.9416 26.7739 24.6646 24.9017 24.6646C23.0295 24.6646 21.2296 23.9416 19.8776 22.6465C18.5256 21.3514 17.726 19.5843 17.6455 17.7138C20.4602 17.4571 23.0654 16.1184 24.9129 13.9795C26.7547 16.1135 29.3511 17.4518 32.1579 17.7138Z" fill="#FFC2C1" stroke="#2C070B" stroke-width="2.33333" stroke-linecap="round" stroke-linejoin="round"/>
</svg>
