<svg version="1.1" id="Layer_1" xmlns="http://www.w3.org/2000/svg" x="0" y="0" viewBox="0 0 653.97 60.73" style="enable-background:new 0 0 653.97 60.73" xml:space="preserve"><style>.st0{fill:none}.st1{fill:#e51b27}</style><path class="st0" d="M325.59 26.01c-2.03 0-3.41 1.4-4.14 4.21-.39 1.51-.59 3.64-.59 6.39 0 2.94.19 5.15.56 6.64.69 2.7 2.01 4.05 3.97 4.05 1.23 0 2.34-.55 3.32-1.65.98-1.1 1.47-1.87 1.47-2.32v-13.9c0-.46-.42-1.15-1.26-2.07-.84-.89-1.95-1.35-3.33-1.35zm234.75 0c-1.23 0-2.33.54-3.29 1.62-.97 1.08-1.45 1.86-1.45 2.34v13.9c0 .56.46 1.28 1.38 2.16.92.88 1.96 1.33 3.11 1.33 2.07 0 3.46-1.37 4.19-4.1.39-1.51.58-3.68.58-6.5 0-3.27-.3-5.88-.89-7.83-.59-1.95-1.8-2.92-3.63-2.92zm50.6 16.66c0 1.25.28 2.2.85 2.84.57.65 1.2.97 1.91.97.93 0 1.8-.28 2.6-.84.45-.34.98-.86 1.59-1.57V35.7c-1.53.37-2.87.96-4.02 1.76-1.96 1.36-2.93 3.1-2.93 5.21zm-99.18-18.14c-1.93 0-3.23 1.24-3.88 3.71-.43 1.66-.64 4.46-.64 8.4 0 4 .21 6.8.61 8.4.65 2.48 1.94 3.71 3.88 3.71 1.84 0 3.05-.95 3.63-2.85.58-1.9.87-4.98.87-9.27 0-4.26-.3-7.35-.91-9.25-.61-1.89-1.8-2.85-3.56-2.85zm-381.78 2.01c-.49-1.34-1.46-2.01-2.91-2.01-1.49 0-2.52.77-3.07 2.32-.55 1.54-.86 3.8-.94 6.75h7.7c-.03-3.36-.29-5.72-.78-7.06zm247.37 0c-.48-1.34-1.46-2.01-2.91-2.01-1.49 0-2.51.77-3.07 2.32-.55 1.54-.86 3.8-.94 6.75h7.7c-.03-3.36-.29-5.72-.78-7.06zM171.63 42.67c0 1.25.28 2.2.85 2.84.57.65 1.21.97 1.91.97.93 0 1.8-.28 2.6-.84.45-.34.98-.86 1.59-1.57V35.7c-1.53.37-2.87.96-4.02 1.76-1.95 1.36-2.93 3.1-2.93 5.21zm476.35-41.3c-2.67 0-4.84 2.17-4.84 4.84s2.17 4.84 4.84 4.84 4.82-2.17 4.82-4.84a4.827 4.827 0 0 0-4.82-4.84zm3.28 7.91h-1.89l-1.59-2.88h-.35v1.36c0 .83 0 1.23.92 1.23v.29h-3.29V9c.81 0 .81-.4.81-1.23v-3.3c0-.67 0-1.22-.7-1.22v-.28h3.23c1.34 0 2.38.55 2.38 1.7 0 .84-.61 1.44-1.41 1.63l.98 1.77c.19.34.48.93.91.93v.28z"/><path class="st0" d="M647.79 3.32h-.37v2.69c.09.03.28.05.43.05.8 0 1.24-.69 1.24-1.42.01-.58-.18-1.32-1.3-1.32z"/><path d="M113.64 14.27c2.55 1.45 4.09 4.25 4.63 8.37h1.65l-.06-11.53H85.45l-.05 11.52h1.65c.35-4.09 1.9-6.88 4.63-8.37 1.49-.8 3.63-1.24 6.42-1.32v30.11c0 2.09-.37 3.48-1.1 4.18-.73.7-2.22 1.05-4.45 1.05v1.45h20.38v-1.45c-2.33 0-3.86-.35-4.59-1.03-.73-.69-1.1-2.09-1.1-4.19V12.95c2.83.08 4.97.51 6.4 1.32z"/><path d="M136.74 42.59c-1.08 1.19-1.99 2.04-2.71 2.54-1.19.84-2.46 1.25-3.8 1.25-2.82 0-4.78-1.57-5.9-4.72-.62-1.67-.99-3.66-1.12-5.95h14.6c0-.52-.06-1.27-.2-2.26-.26-2.1-.73-3.81-1.4-5.14-.89-1.75-2.17-3.12-3.83-4.1-1.66-.99-3.43-1.48-5.31-1.48-3.3 0-6.12 1.21-8.45 3.64-2.34 2.43-3.51 5.84-3.51 10.23 0 4.86 1.23 8.39 3.69 10.61 2.46 2.21 5.1 3.32 7.91 3.32 1.96 0 3.69-.36 5.2-1.09 2.33-1.13 4.38-3.15 6.15-6.06l-1.32-.79zM124 26.85c.55-1.54 1.57-2.32 3.07-2.32 1.46 0 2.43.67 2.91 2.01.49 1.34.75 3.69.79 7.06h-7.7c.07-2.95.38-5.21.93-6.75z"/><path d="m162.18 47.22-8.54-12.97 5.91-7.29c.61-.76 1.34-1.33 2.19-1.7.46-.19 1.05-.34 1.75-.48v-1.37h-9.58v1.37c1.04.04 1.79.13 2.24.28.45.15.68.5.68 1.06 0 .45-.23 1.01-.7 1.68-.46.67-1.68 2.24-3.65 4.71-.73-.99-1.57-2.24-2.53-3.75-.96-1.51-1.44-2.48-1.44-2.91 0-.35.11-.57.33-.66.22-.08 1-.22 2.32-.41v-1.37h-14.29v1.37c.69.09 1.21.25 1.56.48.35.22.83.79 1.42 1.7l7.34 11.26c-.62.78-1.4 1.81-2.35 3.08-.95 1.27-1.71 2.26-2.29 2.97-1.4 1.69-2.43 2.77-3.11 3.24-.68.47-1.49.77-2.44.92v1.31h9.65v-1.31c-.95-.04-1.66-.15-2.13-.33-.48-.19-.71-.58-.71-1.17 0-.5.62-1.63 1.87-3.39.6-.85 1.52-2.05 2.74-3.61.42.66.89 1.37 1.41 2.13.52.76.91 1.36 1.19 1.79.5.78.87 1.39 1.09 1.82.39.71.59 1.22.59 1.54 0 .48-.23.8-.7.95-.46.15-1.1.24-1.9.28v1.31h13.76v-1.31c-.43-.17-.77-.33-1.02-.49-.23-.17-.45-.41-.66-.73z"/><path d="m201.76 33.66-3.13-1.51c-1.51-.72-2.53-1.43-3.07-2.12-.56-.67-.84-1.34-.84-2.01 0-.82.31-1.58.94-2.29.62-.71 1.57-1.06 2.83-1.06 1.64 0 3.07.59 4.3 1.76s2.11 2.73 2.65 4.66h1.45v-8.26h-1.26c-.13.35-.29.63-.49.82-.2.19-.53.29-.99.29-.33 0-1.18-.2-2.54-.6-1.36-.4-2.64-.6-3.85-.6-2.77 0-4.93.81-6.48 2.41-1.54 1.61-2.32 3.52-2.32 5.74 0 1.75.49 3.27 1.48 4.55.97 1.29 2.57 2.47 4.8 3.57l4.24 2.07c.91.45 1.57.86 1.98 1.26.75.73 1.12 1.6 1.12 2.62 0 1.08-.34 1.95-1.03 2.61-.69.66-1.77.99-3.24.99-1.6 0-3.16-.56-4.69-1.69-1.53-1.13-2.57-3.06-3.13-5.79h-1.59v5.04l-.01-.02c-.37.37-.65.6-.82.68-.18.09-.38.13-.6.13-.26 0-.5-.14-.71-.43-.21-.29-.32-.64-.32-1.04V31.59c0-3.39-1.08-5.71-3.24-6.98-2.18-1.25-4.88-1.87-8.12-1.87-3.01 0-5.55.64-7.62 1.92-2.07 1.28-3.1 3.02-3.1 5.21 0 1.22.39 2.16 1.16 2.81.77.65 1.71.97 2.81.97.95 0 1.78-.29 2.5-.88.72-.59 1.07-1.42 1.07-2.5 0-.43-.08-.83-.24-1.21-.16-.38-.37-.73-.63-1.05l-.34-.39c-.15-.17-.26-.32-.33-.47s-.11-.33-.11-.56c0-.58.33-1.06.99-1.44.66-.38 1.5-.57 2.53-.57 1.82 0 3.09.41 3.81 1.21.72.81 1.07 2.06 1.07 3.75v4.16c-5.29 1.53-9.17 3.05-11.64 4.56-2.47 1.51-3.71 3.55-3.71 6.12 0 2.11.68 3.66 2.04 4.66 1.36.99 2.82 1.49 4.38 1.49 1.17 0 2.36-.2 3.57-.61 1.99-.65 3.78-1.77 5.36-3.36.21 1.1.53 1.93.98 2.49.78.99 2.02 1.48 3.71 1.48.95 0 1.85-.17 2.71-.5 1.02-.39 1.98-1 2.86-1.84v2.34h1.37c.3-.6.56-1.02.8-1.27.23-.25.51-.38.82-.38.13 0 .24.01.32.03s.3.09.66.22l.98.34c1.13.39 2.09.66 2.86.82.77.16 1.54.24 2.3.24 3.07 0 5.37-.91 6.91-2.75 1.54-1.83 2.3-3.81 2.3-5.93 0-2.18-.75-4.01-2.23-5.5-.89-.86-2.31-1.76-4.24-2.69zm-23.18 10.41c-.61.71-1.14 1.23-1.59 1.57-.8.56-1.67.84-2.6.84-.71 0-1.34-.32-1.91-.97-.57-.64-.85-1.59-.85-2.84 0-2.11.98-3.84 2.93-5.21 1.15-.8 2.49-1.39 4.02-1.76v8.37zm71.19 1.57c-2.53 1.64-5.26 2.46-8.2 2.46-4.8 0-8.08-2.47-9.84-7.43-.95-2.64-1.42-6.01-1.42-10.1 0-5.56.8-10 2.41-13.3 1.61-3.3 4.33-4.95 8.15-4.95 3.38 0 6.41 1.54 9.09 4.63 1.43 1.67 2.83 3.96 4.21 6.87h1.45V10.44h-1.59c-.11.61-.39 1.2-.82 1.76-.44.56-1.02.84-1.75.84-.28 0-1.64-.44-4.07-1.33-2.44-.88-4.85-1.33-7.23-1.33-5.51 0-10.16 1.8-13.96 5.41-4.04 3.85-6.06 8.89-6.06 15.1 0 6.27 2.11 11.26 6.33 14.96 3.81 3.35 8.54 5.03 14.18 5.03 3.68 0 7.03-1 10.05-2.99 1.69-1.12 3.66-2.92 5.89-5.42l-1.7-1.4c-1.96 2.1-3.67 3.61-5.12 4.57zm43.29-26.52c1.21 0 2.25-.43 3.11-1.3.86-.87 1.3-1.91 1.3-3.14 0-1.23-.43-2.28-1.3-3.14-.86-.87-1.9-1.3-3.11-1.3-1.23 0-2.28.43-3.14 1.3-.86.86-1.3 1.91-1.3 3.14 0 1.23.43 2.27 1.3 3.14.86.87 1.91 1.3 3.14 1.3z"/><path d="M309.85 44.91v-33.8h-10.83v1.37c1.06.24 1.79.55 2.18.93.39.38.59 1.17.59 2.39v29.11c0 1.27-.21 2.1-.63 2.5-.37.35-.98.64-1.81.87-.81-.2-1.39-.44-1.71-.75-.37-.35-.56-1.15-.56-2.4V23.42h-10.97v1.37c1.15.21 1.93.52 2.32.94.39.42.59 1.21.59 2.38v16.8c0 1.3-.28 2.2-.84 2.71-.32.29-.88.51-1.65.67-.85-.22-1.48-.5-1.87-.85-.44-.4-.66-1.24-.66-2.53V31.18c0-3.07-.72-5.24-2.15-6.52-1.43-1.27-3.25-1.91-5.44-1.91-1.62 0-3.08.39-4.37 1.16-1.29.77-2.53 1.87-3.7 3.28V11.11h-11.05v1.37c1.21.15 2.02.46 2.43.91.41.46.61 1.26.61 2.41v29.11c0 1.3-.25 2.17-.74 2.61-.49.44-1.26.72-2.3.85v1.37h13.76v-1.37c-1.02-.21-1.72-.48-2.09-.84-.37-.35-.56-1.15-.56-2.4v-15.3c0-.33.53-.96 1.58-1.87 1.05-.91 2.07-1.37 3.06-1.37 1.32 0 2.21.59 2.65 1.76.26.65.39 1.63.39 2.93v13.85c0 1.25-.19 2.05-.56 2.4-.37.35-1.07.63-2.09.84v1.37h39.22v-1.37c-1.04-.26-1.77-.59-2.18-.98-.42-.39-.62-1.21-.62-2.48zm54.18-17.72c0-1.45-.47-2.55-1.41-3.31-.94-.75-2-1.13-3.18-1.13-1.57 0-2.95.46-4.14 1.4-1.19.93-2.4 2.19-3.61 3.77v-4.49h-10.83v1.37c1.21.15 2.02.44 2.43.87.41.43.61 1.25.61 2.45v15.55l-.06 1.68c-.04 1.12-.27 1.87-.7 2.26-.34.31-.9.53-1.66.68v-.96c-1.3-.11-2.18-.39-2.63-.84-.45-.45-.67-1.27-.67-2.45V11.11h-12.31v1.37c1.75.08 2.9.29 3.46.63.56.35.84 1.24.84 2.69v10.47c-1.1-1.15-2.01-1.95-2.74-2.4-1.17-.75-2.51-1.12-4.02-1.12-3.01 0-5.6 1.31-7.75 3.92-2.15 2.61-3.22 6.18-3.22 10.7 0 4.06 1.03 7.27 3.1 9.63 2.07 2.36 4.49 3.54 7.29 3.54 1.64 0 3.16-.43 4.58-1.28.89-.54 1.88-1.37 2.96-2.48v3.77c2.35-.65 3.98-1.05 4.91-1.21.87-.15 2.73-.36 5.57-.65v1.05h15.21v-1.37c-1.63-.15-2.73-.46-3.28-.93-.55-.47-.83-1.65-.83-3.54V33.08c0-1.75.39-3.1 1.16-4.04.77-.94 1.54-1.41 2.31-1.41.35 0 .97.57 1.86 1.7.89 1.13 1.94 1.7 3.15 1.7 1.06 0 1.93-.36 2.59-1.09s1.01-1.64 1.01-2.75zm-33.85 16.15c0 .45-.49 1.22-1.47 2.32-.98 1.1-2.09 1.65-3.32 1.65-1.96 0-3.28-1.35-3.97-4.05-.37-1.49-.56-3.7-.56-6.64 0-2.75.2-4.88.59-6.39.73-2.81 2.11-4.21 4.14-4.21 1.38 0 2.49.46 3.33 1.37.84.91 1.26 1.6 1.26 2.07v13.88z"/><path d="M384.11 42.59c-1.08 1.19-1.99 2.04-2.71 2.54-1.19.84-2.46 1.25-3.8 1.25-2.82 0-4.78-1.57-5.9-4.72-.61-1.67-.99-3.66-1.12-5.95h14.6c0-.52-.07-1.27-.2-2.26-.26-2.1-.73-3.81-1.4-5.14-.89-1.75-2.17-3.12-3.83-4.1-1.66-.99-3.43-1.48-5.31-1.48-3.3 0-6.11 1.21-8.45 3.64-2.34 2.43-3.51 5.84-3.51 10.23 0 4.86 1.23 8.39 3.69 10.61 2.46 2.21 5.1 3.32 7.91 3.32 1.96 0 3.69-.36 5.2-1.09 2.33-1.13 4.38-3.15 6.15-6.06l-1.32-.79zm-12.74-15.74c.55-1.54 1.57-2.32 3.07-2.32 1.46 0 2.43.67 2.91 2.01.49 1.34.75 3.69.79 7.06h-7.7c.07-2.95.38-5.21.93-6.75z"/><path d="M411.25 45.13V31.32c0-3.18-.68-5.41-2.02-6.67-1.35-1.26-3.25-1.9-5.71-1.9-1.71 0-3.27.45-4.67 1.35-1.4.9-2.56 2.04-3.47 3.42v-4.1h-10.83v1.37c1.23.15 2.04.45 2.44.9.4.45.6 1.26.6 2.42v16.8c0 1.3-.25 2.17-.74 2.61-.49.44-1.26.72-2.3.85v1.37h13.76v-1.37c-1.02-.21-1.72-.48-2.1-.84-.37-.35-.56-1.15-.56-2.4v-15.3c.45-.73 1.08-1.45 1.91-2.16.83-.72 1.74-1.08 2.72-1.08 1.32 0 2.2.59 2.65 1.76.26.65.39 1.63.39 2.93v13.85c0 1.25-.19 2.05-.56 2.4-.37.35-1.07.63-2.09.84v1.37h13.43v-1.37c-1.02-.13-1.76-.38-2.19-.76-.44-.37-.66-1.19-.66-2.48zm10.51-34.89c-1.47 0-2.63.45-3.49 1.34-.86.89-1.28 2.06-1.28 3.49 0 1.3.4 2.37 1.2 3.2.8.83 1.82 1.24 3.04 1.24.19 0 .6-.05 1.23-.14.37 0 .66.12.86.36.19.26.28.58.28.95 0 1.38-.78 2.85-2.34 4.41-.88.88-2.17 1.91-3.88 3.1l.67 1.26c2.59-1.45 4.6-2.95 6.06-4.49 2.27-2.44 3.41-5.14 3.41-8.09 0-2.05-.55-3.66-1.66-4.84-1.12-1.2-2.48-1.79-4.1-1.79zm18.94 23.42-3.13-1.51c-1.51-.72-2.53-1.43-3.07-2.12-.56-.67-.84-1.34-.84-2.01 0-.82.31-1.58.94-2.29.62-.71 1.57-1.06 2.83-1.06 1.64 0 3.07.59 4.3 1.76s2.11 2.73 2.65 4.66h1.45v-8.26h-1.25c-.13.35-.29.63-.49.82-.19.19-.53.29-.99.29-.34 0-1.18-.2-2.54-.6-1.36-.4-2.64-.6-3.85-.6-2.77 0-4.93.81-6.48 2.41-1.55 1.61-2.32 3.52-2.32 5.74 0 1.75.49 3.27 1.48 4.55.97 1.29 2.57 2.47 4.8 3.57l4.24 2.07c.91.45 1.57.86 1.98 1.26.74.73 1.12 1.6 1.12 2.62 0 1.08-.35 1.95-1.03 2.61-.69.66-1.77.99-3.24.99-1.6 0-3.16-.56-4.69-1.69-1.53-1.13-2.57-3.06-3.13-5.79h-1.59v9.46h1.37c.3-.6.56-1.02.8-1.27s.5-.38.82-.38c.13 0 .24.01.32.03.08.02.3.09.66.22l.98.34c1.13.39 2.09.66 2.86.82.77.16 1.54.24 2.3.24 3.07 0 5.37-.91 6.91-2.75 1.53-1.83 2.3-3.81 2.3-5.93 0-2.18-.74-4.01-2.23-5.5-.89-.87-2.3-1.77-4.24-2.7z"/><path class="st1" d="M67.75 31.62c-1.14 0-2.18.46-2.93 1.2L52.48 45.54c-4.77 4.14-9.31 6.31-16.33 6.36-6.85-.11-11.31-2.28-16.01-6.35L7.69 32.81a4.178 4.178 0 0 0-5.89 5.93L18 54.54c4.56 3.73 11 5.61 18.15 5.61 7.15 0 13.59-1.88 18.15-5.61l16.4-15.79c.76-.75 1.22-1.8 1.22-2.95 0-2.31-1.87-4.18-4.17-4.18z"/><path class="st1" d="M21.74 38.31c4.74 4.52 7.51 7.41 14.38 7.51 7.15.11 9.94-2.95 14.76-7.56l9.54-9.68c.75-.76 1.22-1.8 1.22-2.96 0-2.31-1.87-4.18-4.18-4.18-1.19 0-2.26.5-3.02 1.3L43.61 33.62a10.1 10.1 0 0 1-7.47 3.29c-2.95 0-5.6-1.25-7.45-3.26L18.07 22.74c-.76-.8-1.83-1.3-3.02-1.3-2.31 0-4.18 1.87-4.18 4.18 0 1.15.47 2.2 1.22 2.96l9.65 9.73z"/><path class="st1" d="M33.96 29.95c.56.59 1.36.96 2.24.96.87 0 1.66-.36 2.23-.94l11.8-11.66c.77-.76 1.24-1.81 1.24-2.97a4.178 4.178 0 0 0-7.08-3.01l-6.87 6.96c-.35.35-.83.57-1.37.57-.55 0-1.05-.23-1.4-.6l-6.63-6.92a4.178 4.178 0 0 0-7.08 3.01c0 1.16.47 2.21 1.24 2.97l11.68 11.63z"/><path class="st1" d="M36.15 11.59c3.03 0 5.49-2.46 5.49-5.49 0-3.03-2.46-5.49-5.49-5.49-3.03 0-5.49 2.46-5.49 5.49 0 3.03 2.45 5.49 5.49 5.49z"/><path d="m650.35 8.07-.98-1.77c.8-.19 1.41-.79 1.41-1.63 0-1.15-1.04-1.7-2.38-1.7h-3.23v.29c.7 0 .7.55.7 1.22v3.29c0 .83 0 1.23-.81 1.23v.29h3.29V9c-.92 0-.92-.4-.92-1.23V6.41h.35l1.59 2.88h1.89V9c-.43 0-.72-.59-.91-.93zm-2.49-2.01c-.15 0-.34-.02-.43-.05V3.32h.37c1.12 0 1.31.73 1.31 1.31-.01.74-.45 1.43-1.25 1.43z"/><path d="M647.98.69c-3.05 0-5.54 2.48-5.54 5.53 0 3.05 2.49 5.53 5.54 5.53s5.53-2.48 5.53-5.53c0-3.06-2.47-5.53-5.53-5.53zm0 10.37c-2.67 0-4.84-2.17-4.84-4.84s2.17-4.84 4.84-4.84 4.82 2.17 4.82 4.84a4.827 4.827 0 0 1-4.82 4.84zM495.3 44.27V16.58c0-1.63.51-2.73 1.53-3.3.61-.35 1.76-.59 3.43-.72v-1.45h-19.45v1.45c1.73.11 2.91.34 3.54.69 1.02.57 1.54 1.68 1.54 3.33v11.86h-13.62V16.58c0-1.65.54-2.76 1.62-3.35.65-.35 1.82-.57 3.49-.67v-1.45h-19.34v1.45c1.69.17 2.83.42 3.41.75.95.57 1.42 1.66 1.42 3.27v27.69c0 1.66-.53 2.78-1.59 3.38-.63.35-1.71.57-3.24.64v1.45h19.34v-1.45c-1.58-.06-2.71-.25-3.38-.58-1.15-.6-1.73-1.74-1.73-3.44V31.09h13.62v13.17c0 1.64-.53 2.76-1.59 3.35-.69.39-1.85.61-3.49.67v1.45h19.45v-1.45c-1.53-.06-2.61-.26-3.26-.61-1.14-.59-1.7-1.73-1.7-3.4z"/><path d="M511.73 22.69c-3.7 0-6.78 1.33-9.23 3.99s-3.67 5.98-3.67 9.96c0 3.97 1.22 7.28 3.66 9.95 2.43 2.67 5.52 4 9.24 4 3.83 0 6.94-1.37 9.32-4.12 2.38-2.74 3.57-6.02 3.57-9.84 0-3.87-1.2-7.16-3.61-9.88-2.41-2.7-5.5-4.06-9.28-4.06zm3.63 23.22c-.58 1.9-1.79 2.85-3.63 2.85-1.94 0-3.23-1.24-3.88-3.71-.41-1.6-.61-4.4-.61-8.4 0-3.94.22-6.75.64-8.4.65-2.47 1.94-3.71 3.88-3.71 1.77 0 2.95.95 3.56 2.86.6 1.91.91 4.99.91 9.25-.01 4.28-.29 7.36-.87 9.26zm27.27-9.54c-.89-.88-2.31-1.78-4.24-2.71l-3.13-1.51c-1.51-.72-2.53-1.43-3.07-2.12-.56-.67-.84-1.34-.84-2.01 0-.82.31-1.58.94-2.29.62-.71 1.57-1.06 2.83-1.06 1.64 0 3.07.59 4.3 1.76s2.11 2.73 2.65 4.66h1.45v-8.26h-1.25c-.13.35-.29.63-.49.82-.19.19-.53.29-.99.29-.34 0-1.18-.2-2.54-.6-1.36-.4-2.64-.6-3.85-.6-2.77 0-4.93.81-6.48 2.41-1.55 1.61-2.32 3.52-2.32 5.74 0 1.75.49 3.27 1.48 4.55.97 1.29 2.57 2.47 4.8 3.57l4.24 2.07c.91.45 1.57.86 1.98 1.26.74.73 1.12 1.6 1.12 2.62 0 1.08-.35 1.95-1.03 2.61-.69.66-1.77.99-3.24.99-1.6 0-3.16-.56-4.69-1.69-1.53-1.13-2.57-3.06-3.13-5.79h-1.59v9.46h1.37c.3-.6.56-1.02.8-1.27s.5-.38.82-.38c.13 0 .24.01.32.03.08.02.3.09.66.22l.98.34c1.13.39 2.09.66 2.86.82.77.16 1.54.24 2.3.24 3.07 0 5.37-.91 6.91-2.75 1.53-1.83 2.3-3.81 2.3-5.93.01-2.17-.74-4-2.23-5.49z"/><path d="M570.35 26.07c-1.98-2.25-4.47-3.38-7.47-3.38-2.08 0-3.8.54-5.14 1.62-.75.61-1.51 1.57-2.29 2.88v-3.77h-10.91v1.37c1.19.17 2 .46 2.41.89.42.42.63 1.23.63 2.43v28.72c0 1.21-.22 2.03-.67 2.47-.45.44-1.28.72-2.51.85v1.37h15.63v-1.17c-1.51-.09-2.58-.42-3.22-.98-.64-.56-1.03-1.59-1.16-3.1-.02-.32-.04-1.76-.06-4.33v-4.83c.8.89 1.57 1.58 2.32 2.07 1.4.91 2.88 1.37 4.44 1.37 3.05 0 5.64-1.36 7.77-4.09 2.13-2.73 3.2-6.17 3.2-10.31 0-4.47-.99-7.83-2.97-10.08zm-6.07 17.19c-.73 2.74-2.12 4.1-4.19 4.1-1.15 0-2.19-.44-3.11-1.33-.92-.89-1.38-1.61-1.38-2.16v-13.9c0-.48.48-1.26 1.45-2.34.97-1.08 2.07-1.62 3.29-1.62 1.82 0 3.03.97 3.63 2.92.59 1.94.89 4.55.89 7.83.01 2.83-.19 4.99-.58 6.5zm15.78-24.14c1.21 0 2.25-.43 3.11-1.3.86-.87 1.3-1.91 1.3-3.14 0-1.23-.43-2.28-1.3-3.14-.87-.87-1.9-1.3-3.11-1.3-1.23 0-2.28.43-3.14 1.3-.86.86-1.3 1.91-1.3 3.14 0 1.23.43 2.27 1.3 3.14.87.87 1.92 1.3 3.14 1.3z"/><path d="M584.08 45.13V23.42h-10.97v1.37c1.15.21 1.93.52 2.32.94.39.42.59 1.21.59 2.38v16.8c0 1.3-.28 2.2-.84 2.71-.37.34-1.06.59-2.07.76v1.37h13.62v-1.37c-1.02-.21-1.72-.48-2.09-.84-.37-.36-.56-1.16-.56-2.41zm54.45-.22v-33.8H627.7v1.37c1.06.24 1.79.55 2.18.93.39.38.58 1.17.58 2.39v29.11c0 1.27-.21 2.1-.63 2.5-.34.33-.89.6-1.63.82.3-.28.59-.59.88-.92l-.87-1.2c-.37.37-.65.6-.82.68-.18.09-.37.13-.6.13-.26 0-.5-.14-.71-.43-.22-.29-.32-.64-.32-1.04V31.59c0-3.39-1.08-5.71-3.24-6.98-2.18-1.25-4.88-1.87-8.12-1.87-3.02 0-5.55.64-7.62 1.92-2.07 1.28-3.1 3.02-3.1 5.21 0 1.22.39 2.16 1.16 2.81.77.65 1.71.97 2.8.97.95 0 1.78-.29 2.5-.88.71-.59 1.07-1.42 1.07-2.5 0-.43-.08-.83-.24-1.21-.16-.38-.37-.73-.63-1.05l-.34-.39c-.15-.17-.26-.32-.33-.47-.08-.15-.11-.33-.11-.56 0-.58.33-1.06.99-1.44.66-.38 1.51-.57 2.53-.57 1.82 0 3.1.41 3.81 1.21.72.81 1.07 2.06 1.07 3.75v4.16c-5.28 1.53-9.16 3.05-11.64 4.56-2.19 1.33-3.4 3.08-3.66 5.24l-.24-.12c-.5.93-1 1.66-1.51 2.19-.5.53-1.12.79-1.87.79-.86 0-1.47-.42-1.84-1.25-.24-.54-.36-1.21-.36-2.01V25.9h5.44v-2.51h-5.44v-9.66h-1.45a46.233 46.233 0 0 1-4.72 6.11c-.88.97-1.81 1.91-2.79 2.82-.74.63-1.37 1.18-1.87 1.65v1.59h2.96v18.54c.01 2.55.98 4.31 2.91 5.27 1 .5 2.18.75 3.51.75 2.36 0 4.36-.86 5.99-2.59.5-.53.96-1.15 1.38-1.85.28 1.28.89 2.29 1.87 3 1.36.99 2.82 1.49 4.38 1.49 1.17 0 2.36-.2 3.57-.61 1.99-.65 3.77-1.77 5.36-3.36.21 1.1.53 1.93.98 2.49.78.99 2.02 1.48 3.71 1.48.95 0 1.85-.17 2.71-.5.82-.31 1.59-.79 2.33-1.39v1.09h13.62v-1.37c-1.04-.26-1.77-.59-2.18-.98-.38-.36-.58-1.18-.58-2.45zm-20.64-.84c-.61.71-1.15 1.23-1.59 1.57-.8.56-1.66.84-2.6.84-.71 0-1.34-.32-1.91-.97-.57-.64-.85-1.59-.85-2.84 0-2.11.98-3.84 2.93-5.21 1.15-.8 2.49-1.39 4.02-1.76v8.37z"/></svg>