<svg xmlns="http://www.w3.org/2000/svg" viewBox="0 0 1024 1024" fill="currentcolor">
  <path d="M469.264829735266176,736.975904896249631c-13.765643473367163,0-26.91493965041991-6.163723765715986-35.544146652358904-17.052944004890378l-175.049748676261515-215.524861801064617c-16.025688060924949-19.723928590419746-12.943826178066956-48.693411479091083,6.780102412350971-64.513629541030241,19.723928590419746-16.025688060924949,48.693411479091083-12.943826178066956,64.513629541030241,6.780102412350971l138.889254727588195,171.146069498103316L942.022423755468481,17.463884370246888c15.820249412259727-19.929373913271775,44.584293652267661-23.216693242740803,64.51369224166956-7.601926565534086,19.929398589403718,15.614766677206717,23.216667770606364,44.584267200434624,7.601888357332427,64.51364227709746l-508.918119319196194,645.136420811577409c-8.629207001937175,10.889220239174392-21.778503178989922,17.46388400286196-35.749585301022307,17.46388400286196h-.205469998985791Z"/>
  <path d="M900.52005468669995,351.948639538002681c20.340275886734162,49.309790125726067,31.845906122865927,103.34510807523111,31.845906122865927,160.051347909622564,0,231.755988510654788-188.404452151660735,420.160503362954842-420.160503362954842,420.160503362954842S92.044938408496819,743.755975958280033,92.044938408496819,511.999987447625244,280.449437585635678,91.839484084672222,512.205457446611035,91.839484084672222c79.717468956334415,0,154.503971440222813,22.394866150465532,217.990376387606375,61.020859010521235l56.911678483058495-72.321019247667209C707.595513359927281,29.585873659063509,613.29048958396379,0,511.999987447625244,0,229.701435842814135,0,0,229.701435842813225,0,511.999987447625244c0,282.298535929650825,229.701435842814135,512.000012552374756,511.999987447625244,512.000012552374756,282.298535929652644,0,512.000012552374756-229.701476622723931,512.000012552374756-512.000012552374756,0-86.908511366655148-21.778503178989922-168.680586261880308-60.19901036490046-240.385226862912532l-63.28093494839959,80.333878953289968Z"/>
</svg>