<svg xmlns="http://www.w3.org/2000/svg" viewBox="0 0 1024 1024" fill="currentcolor">
  <path d="M83.6,1024c-22.7,0-44.1-11-57.4-29.5-13.3-18.5-16.9-42.2-9.7-63.8,0-.3.2-.7.3-1l128.4-347c9.7-28.6,36.7-47.9,66.9-47.8h77.1c-1.1-2.3-2.3-4.5-3.4-6.7-51-101.4-75.8-175.3-75.8-225.8-.2-80.2,31.6-157.2,88.4-213.9C355,31.7,431.9-.2,512.1,0c80.2-.2,157,31.7,213.5,88.6,56.9,56.6,88.7,133.6,88.5,213.9,0,51.2-26.1,127.8-79.5,232.5h77.3c30.2,0,57.1,19.2,66.8,47.8l128.4,347c0,.3.2.7.3,1,7.2,21.6,3.6,45.3-9.7,63.8-13.3,18.5-34.6,29.4-57.4,29.5H83.6ZM206.1,603.7c-.2.4-.2.7-.4,1.1l-128.3,346.7c-.5,1.9-.1,3.9,1,5.4,1.2,1.7,3.1,2.7,5.2,2.7h856.7c2.1,0,4-1,5.1-2.7,1.2-1.6,1.6-3.6,1-5.4l-128.2-346.7c-.2-.3-.3-.7-.4-1.1-.8-2.6-3.3-4.3-6-4.3h-111.5c-7.3,13.1-14.5,26-21.7,38.6-3.8,6.5-7.5,13.1-11.4,19.8-16.3,28.3-37.3,62.4-59.2,97.2l-1.2,2-.7,1.2-1.8,2.7c-20,31.7-54.8,50.9-92.3,50.8h0c-31.3,0-61.1-13.3-81.8-36.8-3.8-4.4-7.3-9-10.4-14-27-42.6-62.4-100.4-96.2-161.5h-111.3c-2.8,0-5.2,1.7-6.1,4.4h-.1ZM474.2,726.3c8.1,13.1,22.4,21,37.8,20.9,15.5.2,29.9-7.7,38-20.9,20.9-33,49.3-79.2,78.2-129.7,100-175.9,121.6-257,121.6-294.2,0-131.3-106.3-237.8-237.6-238-131.3.2-237.6,106.7-237.6,238,0,47,34,134,96,248.4.2.3.4.6.5,1,30.5,56.1,63.3,110.5,89,151.7,4.7,7.5,9.5,15.1,14.3,22.8h0ZM361.4,299c-2-85.3,65.4-156,150.7-158.3,85.3,2.2,152.6,73,150.7,158.3,2,85.3-65.4,156.1-150.7,158.3-85.2-2.3-152.6-73.1-150.6-158.3h0ZM425.7,299c-1.9,49.7,36.7,91.7,86.4,93.8,49.7-2.2,88.2-44.2,86.3-93.8,1.9-49.7-36.6-91.6-86.3-93.9-49.7,2.2-88.3,44.2-86.4,93.9h0Z"/>
</svg>