<svg xmlns="http://www.w3.org/2000/svg" viewBox="0 0 1024 1024" fill="currentcolor">
  <path d="M569.1,955.4l-325.8-114.3c-47.6-17.4-72.5-69.6-56.2-117.5l42.7-126.9-165.5-57.4v29.4c.2,17.9-14.2,32.6-32.1,32.8h0C14.2,601.2-.2,586.5,0,568.6H0v-261.7c-.2-17.9,14.2-32.6,32.1-32.8h0c17.9.2,32.3,14.9,32.1,32.8h0v42.8L982.5,65.1c9.7-3,20.3-1.1,28.5,5,8.2,6.3,13,15.9,13.1,26.3v729.9c0,10.5-4.9,20.4-13.3,26.7-5.5,3.9-12,6-18.7,6v.2c-3.5,0-7-.5-10.3-1.8l-254.4-88.3-43.2,128.3c-12.2,37.1-46.7,62.2-85.7,62.4v.2c-10,0-19.9-1.6-29.3-4.9ZM247.6,744.9c-4.7,13.9,2.6,29.1,16.4,34.1l325.8,114.3c13.4,4.8,28.2-2.2,33-15.6.1-.4.3-.7.4-1.1l40.8-121.4-375.6-131.6-40.8,121.4ZM959.6,780.8V140.7L79.4,413.6v61.6l880.2,305.6Z"/>
</svg>