<svg xmlns="http://www.w3.org/2000/svg" viewBox="0 0 1024 1024" fill="currentcolor">
  <path d="M58.6,1024v-92.6c-.4-55.5,11.1-110.5,33.8-161.2,22.1-48.5,54.5-91.7,94.9-126.5,42.2-36.1,91.1-63.7,143.8-81.2,58.3-19.4,119.4-29,180.9-28.5,61.4-.5,122.5,9.1,180.9,28.5,52.7,17.5,101.6,45.1,143.8,81.2,40.4,34.8,72.8,78,94.9,126.5,22.7,50.7,34.2,105.6,33.8,161.2v92.6H58.6ZM351.3,622.4c-45.1,14.9-86.9,38.4-123,69.2-33.5,28.8-60.4,64.6-78.8,104.8-19,42.4-28.6,88.5-28.2,134.9v29.3h781.1v-29.3c.4-46.5-9.2-92.5-28.2-134.9-18.3-40.2-45.2-76-78.7-104.8-36.1-30.8-77.9-54.3-123-69.2-51.8-17.2-106.1-25.7-160.6-25.2-54.5-.5-108.8,8-160.6,25.2h0ZM282.3,231.1C282.1,103.9,384.8.6,511.9,0c127.2.6,229.9,103.9,229.6,231.1.3,127.1-102.4,230.5-229.6,231.1-127.1-.6-229.8-103.9-229.6-231.1ZM345.1,231.1c-.2,92.4,74.4,167.4,166.8,167.9,92.4-.4,167-75.5,166.8-167.9.2-92.4-74.4-167.5-166.8-167.9-92.4.4-166.9,75.5-166.8,167.9h0Z"/>
</svg>