<svg xmlns="http://www.w3.org/2000/svg" viewBox="0 0 1024 1024" fill="currentcolor">
  <path d="M667.6,927.4c-57.1-.5-103-47-102.6-104.1v-251.5c-.3-57,45.6-103.5,102.6-104h251.7c57.1.4,103,47,102.7,104v251.5c.3,57.1-45.6,103.7-102.7,104.1h-251.7ZM628,571.8v251.5c-.1,22,17.6,40,39.6,40.1h251.7c22-.1,39.8-18.1,39.7-40.1v-251.5c.1-22-17.6-40-39.7-40.1h-251.7c-22,.2-39.7,18.2-39.5,40.2h0ZM736.8,797.3l-48-44.8c-12.8-12-13.6-32.1-1.7-45.1,11.5-12.8,31.2-13.8,44-2.2.2.1.3.3.5.4l22.5,21,90.7-121.5c10.3-13.9,29.8-16.8,43.7-6.6.1.1.3.2.5.3,13.9,10.7,16.7,30.6,6.2,44.8l-111.7,149.8c-5.3,7.2-13.4,11.8-22.3,12.6-.9,0-1.9.2-2.7.2-8,0-15.7-3.2-21.5-8.7h0ZM125,797.2C56.4,797.6.5,742.3,0,673.7V220.2c.5-68.6,56.4-123.9,125-123.6h774c68.6-.4,124.6,54.9,125,123.6v165.4c.1,17.5-13.9,31.8-31.4,31.9h-.1c-17.5,0-31.6-14.3-31.5-31.7v-165.6c-.7-33.6-28.4-60.3-61.9-59.7H125c-33.6-.5-61.2,26.2-61.9,59.7v453.5c.7,33.5,28.4,60.2,61.9,59.6h325.6c17.5.1,31.7,14.4,31.5,31.9.1,17.5-14,31.8-31.5,31.9H125ZM134.6,427.2c-.6-113.6,90.9-206.2,204.4-207,113.6.9,205,93.5,204.4,207,.7,113.6-90.8,206.4-204.4,207.3-113.7-.9-205.2-93.7-204.5-207.3h0ZM197.7,427.2c-.5,78.6,62.8,142.7,141.4,143.4,78.6-.6,141.8-64.8,141.4-143.4.4-78.5-62.9-142.6-141.4-143.2-78.5.6-141.8,64.6-141.4,143.2h0ZM400.3,500.4l-85.6-36.2c-11.9-5.1-19.6-17-19.4-30l1-79.8c0-17.5,14.4-31.7,31.9-31.7,17.6.4,31.5,14.9,31.2,32.4l-.7,58.2,66,28.1c16.1,6.9,23.7,25.6,16.9,41.8-4.8,11.8-16.3,19.6-29.1,19.6-4.2,0-8.3-.8-12.2-2.5h0ZM640.3,384c-17.5,0-31.6-14.4-31.5-31.9v-.2c0-17.5,14-31.8,31.5-31.9h204.3c17.5.2,31.6,14.4,31.5,31.9.2,17.5-13.9,31.9-31.4,32h-204.4Z"/>
</svg>