<svg version="1.1" id="Layer_1" xmlns="http://www.w3.org/2000/svg" x="0" y="0" viewBox="0 0 648.39 102.76" style="enable-background:new 0 0 648.39 102.76" xml:space="preserve"><style>.st0{fill:none}.st2{fill:#e51b27}</style><path class="st0" d="M387.6 88.48c-.49-.52-1.07-.94-1.76-1.26s-1.45-.47-2.32-.47c-.87 0-1.64.16-2.32.47-.68.31-1.27.73-1.75 1.26s-.85 1.13-1.1 1.81c-.25.68-.37 1.39-.37 2.13s.12 1.44.37 2.13c.25.68.62 1.29 1.1 1.81s1.07.94 1.75 1.26c.68.31 1.46.47 2.32.47.87 0 1.64-.16 2.32-.47.68-.31 1.27-.73 1.76-1.26a5.4 5.4 0 0 0 1.1-1.81c.25-.69.37-1.39.37-2.13s-.13-1.44-.37-2.13a5.5 5.5 0 0 0-1.1-1.81zm-13.04-61.83c-.48-1.33-1.44-1.99-2.89-1.99-1.48 0-2.49.76-3.04 2.3-.55 1.53-.86 3.76-.93 6.69h7.63c-.02-3.34-.29-5.67-.77-7zm85.19 61.83c-.49-.52-1.07-.94-1.76-1.26s-1.45-.47-2.32-.47c-.87 0-1.64.16-2.32.47s-1.27.73-1.75 1.26-.85 1.13-1.1 1.81c-.25.68-.37 1.39-.37 2.13s.12 1.44.37 2.13c.25.68.62 1.29 1.1 1.81s1.07.94 1.75 1.26c.68.31 1.46.47 2.32.47.87 0 1.64-.16 2.32-.47.68-.31 1.27-.73 1.76-1.26a5.4 5.4 0 0 0 1.1-1.81c.25-.69.37-1.39.37-2.13s-.13-1.44-.37-2.13a5.5 5.5 0 0 0-1.1-1.81zm88.93 0c-.49-.52-1.07-.94-1.76-1.26s-1.45-.47-2.32-.47c-.87 0-1.64.16-2.32.47s-1.27.73-1.75 1.26c-.49.52-.85 1.13-1.1 1.81-.25.68-.37 1.39-.37 2.13s.12 1.44.37 2.13a5.4 5.4 0 0 0 1.1 1.81c.49.52 1.07.94 1.75 1.26.68.31 1.46.47 2.32.47.87 0 1.64-.16 2.32-.47.68-.31 1.27-.73 1.76-1.26a5.4 5.4 0 0 0 1.1-1.81c.25-.69.37-1.39.37-2.13s-.13-1.44-.37-2.13a5.5 5.5 0 0 0-1.1-1.81zM323.27 26.13c-2.02 0-3.38 1.39-4.11 4.18-.39 1.49-.58 3.61-.58 6.33 0 2.91.19 5.11.56 6.58.68 2.67 2 4.01 3.94 4.01 1.22 0 2.32-.54 3.29-1.63.97-1.09 1.46-1.85 1.46-2.3V29.53c0-.46-.42-1.14-1.25-2.05-.84-.9-1.94-1.35-3.31-1.35zm232.39 21.16c2.05 0 3.43-1.35 4.15-4.07.39-1.49.58-3.64.58-6.45 0-3.24-.3-5.83-.88-7.76-.59-1.93-1.79-2.89-3.6-2.89-1.22 0-2.3.54-3.26 1.6-.96 1.07-1.44 1.84-1.44 2.32v13.78c0 .55.46 1.27 1.37 2.14.91.89 1.93 1.33 3.08 1.33zM310.2 93.49c-.82.05-1.58.18-2.31.37-.72.2-1.33.49-1.83.87s-.75.91-.75 1.59c0 .45.1.82.3 1.12.2.3.45.56.77.77.31.21.67.36 1.06.45.39.09.79.14 1.18.14 1.63 0 2.83-.39 3.6-1.16.78-.78 1.16-1.83 1.16-3.17v-1.06h-.99c-.64 0-1.38.02-2.19.08zM129.42 26.65c-.48-1.33-1.44-1.99-2.89-1.99-1.48 0-2.49.76-3.04 2.3-.55 1.53-.86 3.76-.93 6.69h7.63c-.03-3.34-.29-5.67-.77-7zm41.28 15.98c0 1.24.28 2.18.84 2.81.56.64 1.19.96 1.9.96.92 0 1.78-.27 2.57-.83.44-.33.97-.85 1.58-1.55v-8.29c-1.51.37-2.84.95-3.98 1.75-1.95 1.34-2.91 3.06-2.91 5.15zm337.03 6.04c1.82 0 3.02-.94 3.59-2.82.57-1.88.86-4.94.86-9.18 0-4.22-.3-7.28-.9-9.17-.6-1.89-1.78-2.83-3.53-2.83-1.92 0-3.2 1.23-3.84 3.68-.42 1.64-.64 4.42-.64 8.33 0 3.96.2 6.74.61 8.33.65 2.43 1.93 3.66 3.85 3.66zM290.7 78.89c-.58-.28-1.22-.45-1.93-.53-.71-.08-1.39-.12-2.05-.12h-3.55v7.84h2.99c.71 0 1.44-.03 2.21-.08.76-.05 1.46-.21 2.1-.47.64-.26 1.17-.66 1.58-1.18.41-.52.61-1.26.61-2.21 0-.87-.18-1.56-.55-2.07-.36-.51-.83-.9-1.41-1.18zm315.34-36.26c0 1.24.28 2.18.85 2.81.56.64 1.19.96 1.89.96.92 0 1.78-.27 2.57-.83.44-.33.97-.85 1.58-1.55v-8.29c-1.51.37-2.84.95-3.98 1.75-1.94 1.34-2.91 3.06-2.91 5.15zm-3.82 43.41c-1.42 0-2.54.41-3.37 1.22-.83.82-1.34 1.9-1.52 3.27h9.69c-.03-1.39-.46-2.49-1.3-3.29-.84-.8-2-1.2-3.5-1.2zm40.35-82.82h-.36v2.66c.09.03.28.05.43.05.79 0 1.23-.68 1.23-1.41-.01-.57-.19-1.3-1.3-1.3z"/><path class="st0" d="M642.76 1.29c-2.64 0-4.8 2.15-4.8 4.8 0 2.64 2.15 4.8 4.8 4.8 2.64 0 4.78-2.15 4.78-4.8s-2.14-4.8-4.78-4.8zm3.25 7.84h-1.87l-1.58-2.85h-.35v1.35c0 .82 0 1.22.92 1.22v.29h-3.26v-.3c.81 0 .81-.4.81-1.22V4.36c0-.66 0-1.2-.7-1.2v-.29h3.2c1.33 0 2.36.54 2.36 1.68 0 .84-.6 1.42-1.39 1.61l.97 1.76c.19.34.47.92.9.92v.29z"/><path d="M294.76 75.7c-.94-.62-2.04-1.06-3.29-1.32s-2.54-.39-3.88-.39h-9.37v27.88h4.96V90.33h3.55c1.47 0 2.88-.1 4.23-.31 1.35-.21 2.54-.61 3.57-1.2s1.84-1.43 2.44-2.5c.6-1.08.9-2.49.9-4.25 0-1.55-.28-2.84-.85-3.88a6.792 6.792 0 0 0-2.26-2.49zm-2.7 8.65c-.41.52-.93.92-1.58 1.18-.64.26-1.34.42-2.1.47-.76.05-1.5.08-2.21.08h-2.99v-7.84h3.55c.66 0 1.34.04 2.05.12.71.08 1.35.26 1.93.53.58.27 1.05.67 1.42 1.18.37.51.55 1.2.55 2.07-.01.95-.21 1.68-.62 2.21zm25.56 3.27a7.79 7.79 0 0 0-.71-1.87c-.33-.62-.8-1.16-1.4-1.63-.6-.48-1.36-.86-2.28-1.16-.92-.3-2.05-.45-3.39-.45-1.5 0-2.95.24-4.35.71s-2.63 1.25-3.68 2.32l2.48 2.48c.63-.6 1.38-1.08 2.24-1.44.87-.36 1.8-.53 2.8-.53 1.26 0 2.3.29 3.11.88.81.59 1.22 1.48 1.22 2.66v.51h-1.18c-.79 0-1.63.02-2.52.06-.9.04-1.78.13-2.66.28-.88.14-1.73.36-2.54.65-.81.29-1.53.68-2.15 1.16-.62.49-1.11 1.09-1.48 1.81-.37.72-.55 1.59-.55 2.62 0 .94.2 1.77.59 2.48.39.71.91 1.3 1.56 1.77.64.47 1.38.83 2.2 1.06s1.67.35 2.54.35c1.26 0 2.42-.24 3.47-.73 1.05-.48 1.92-1.27 2.6-2.34h.12v2.6h4.25V91.01c0-.45-.01-.96-.04-1.56-.02-.59-.11-1.2-.25-1.83zm-4.23 6.85c0 1.34-.39 2.39-1.16 3.17-.77.78-1.97 1.16-3.6 1.16-.39 0-.79-.05-1.18-.14-.39-.09-.75-.24-1.06-.45-.31-.21-.57-.47-.77-.77-.2-.3-.3-.67-.3-1.12 0-.68.25-1.21.75-1.59.5-.38 1.11-.67 1.83-.87.72-.2 1.49-.32 2.31-.37.81-.05 1.55-.08 2.2-.08h.99v1.06zm17.32 1.73h-.08l-5.04-13.23h-5.15l7.71 18.9h5.05l7.44-18.9h-4.85zm15.13-22.49c-.87 0-1.58.28-2.15.85-.56.56-.85 1.23-.85 1.99s.28 1.42.85 1.99c.57.57 1.28.85 2.15.85.87 0 1.59-.27 2.18-.8.59-.54.89-1.22.89-2.03 0-.81-.29-1.49-.89-2.03-.59-.54-1.32-.82-2.18-.82zm-2.33 9.26h4.73v18.9h-4.73zm10.24-10.87h4.73v29.77h-4.73zm10.28 10.87h4.73v18.9h-4.73zm2.32-9.26c-.87 0-1.58.28-2.15.85-.56.56-.85 1.23-.85 1.99s.28 1.42.85 1.99c.57.57 1.28.85 2.15.85.87 0 1.59-.27 2.18-.8.59-.54.89-1.22.89-2.03 0-.81-.29-1.49-.89-2.03-.58-.54-1.31-.82-2.18-.82zm24.46 11.51c-.92-.87-2.01-1.54-3.27-2.01-1.26-.47-2.6-.71-4.02-.71-1.42 0-2.76.24-4.02.71-1.26.47-2.35 1.14-3.27 2.01-.92.87-1.65 1.91-2.19 3.13s-.81 2.58-.81 4.08.27 2.85.81 4.08c.54 1.22 1.27 2.27 2.19 3.13.92.87 2.01 1.54 3.27 2.01 1.26.47 2.6.71 4.02.71 1.42 0 2.76-.24 4.02-.71 1.26-.47 2.35-1.14 3.27-2.01.92-.87 1.65-1.91 2.18-3.13.54-1.22.81-2.58.81-4.08s-.27-2.85-.81-4.08c-.53-1.22-1.26-2.27-2.18-3.13zm-2.11 9.33a5.4 5.4 0 0 1-1.1 1.81c-.49.52-1.07.94-1.76 1.26-.68.31-1.45.47-2.32.47-.87 0-1.64-.16-2.32-.47-.68-.31-1.27-.73-1.75-1.26s-.85-1.13-1.1-1.81c-.25-.69-.37-1.39-.37-2.13s.12-1.44.37-2.13.62-1.29 1.1-1.81 1.07-.94 1.75-1.26c.68-.31 1.46-.47 2.32-.47.87 0 1.64.16 2.32.47s1.27.73 1.76 1.26a5.4 5.4 0 0 1 1.1 1.81c.25.68.37 1.39.37 2.13s-.12 1.45-.37 2.13zm25.23-9.77c-.55-.68-1.27-1.23-2.15-1.65-.88-.42-1.95-.63-3.21-.63-1.58 0-2.83.35-3.74 1.04-.92.69-1.6 1.52-2.05 2.46h-.08v-3.03h-4.49v18.9h4.73V91.56c0-.63.08-1.23.24-1.81.16-.58.41-1.09.77-1.53.36-.45.8-.8 1.34-1.06s1.2-.39 1.99-.39c.81 0 1.46.19 1.93.57.47.38.82.85 1.04 1.42.22.57.36 1.17.41 1.81.05.64.08 1.23.08 1.75v9.57h4.73V89.94c0-.97-.12-1.9-.36-2.8-.24-.89-.63-1.67-1.18-2.36zm23.7-12.54c-.92.41-1.63.99-2.15 1.75-.51.76-.86 1.67-1.04 2.74-.18 1.06-.27 2.25-.27 3.56v2.68h-3.9v4.02h3.9v14.89h4.73V86.99h4.37v-4.02h-4.37v-3.43c0-.52.03-1.02.1-1.5.07-.47.21-.89.43-1.24.22-.36.53-.64.92-.85.4-.21.92-.31 1.58-.31.34 0 .67.03.99.08.31.05.64.12.98.2l.31-4.02c-.92-.18-1.92-.28-2.99-.28-1.47.01-2.67.21-3.59.62zm25.33 12.98c-.92-.87-2.01-1.54-3.27-2.01-1.26-.47-2.6-.71-4.02-.71-1.42 0-2.76.24-4.02.71-1.26.47-2.35 1.14-3.27 2.01-.92.87-1.65 1.91-2.19 3.13s-.81 2.58-.81 4.08.27 2.85.81 4.08c.54 1.22 1.27 2.27 2.19 3.13.92.87 2.01 1.54 3.27 2.01 1.26.47 2.6.71 4.02.71 1.42 0 2.76-.24 4.02-.71 1.26-.47 2.35-1.14 3.27-2.01.92-.87 1.65-1.91 2.18-3.13.54-1.22.81-2.58.81-4.08s-.27-2.85-.81-4.08c-.53-1.22-1.26-2.27-2.18-3.13zm-2.11 9.33a5.4 5.4 0 0 1-1.1 1.81c-.49.52-1.07.94-1.76 1.26-.68.31-1.45.47-2.32.47-.87 0-1.64-.16-2.32-.47-.68-.31-1.27-.73-1.75-1.26s-.85-1.13-1.1-1.81c-.25-.69-.37-1.39-.37-2.13s.12-1.44.37-2.13.62-1.29 1.1-1.81 1.07-.94 1.75-1.26 1.46-.47 2.32-.47c.87 0 1.64.16 2.32.47s1.27.73 1.76 1.26a5.4 5.4 0 0 1 1.1 1.81c.25.68.37 1.39.37 2.13s-.12 1.45-.37 2.13zm19.91-12.05c-1.26 0-2.38.3-3.35.9-.97.61-1.72 1.46-2.24 2.56h-.08v-2.99h-4.73v18.9h4.73V91.75c0-.26.06-.66.18-1.18.12-.52.35-1.05.71-1.57.35-.52.87-.99 1.54-1.4.67-.41 1.55-.61 2.66-.61.37 0 .74.03 1.12.1.38.06.77.15 1.16.25v-4.57c-.29-.08-.57-.14-.85-.2-.28-.05-.56-.07-.85-.07zm42.02 11.58h-.07l-6.15-20.09h-4.88l-6.27 20.09h-.07l-5.24-20.09h-5.44l8.23 27.88h4.57l6.46-21.22h.08l6.46 21.22h4.73l8.11-27.88h-5.04zm29.11-8.86c-.92-.87-2.01-1.54-3.27-2.01-1.26-.47-2.6-.71-4.02-.71-1.42 0-2.76.24-4.02.71-1.26.47-2.35 1.14-3.27 2.01-.92.87-1.65 1.91-2.19 3.13s-.81 2.58-.81 4.08.27 2.85.81 4.08c.54 1.22 1.27 2.27 2.19 3.13.92.87 2.01 1.54 3.27 2.01 1.26.47 2.6.71 4.02.71 1.42 0 2.76-.24 4.02-.71 1.26-.47 2.35-1.14 3.27-2.01.92-.87 1.65-1.91 2.18-3.13.54-1.22.81-2.58.81-4.08s-.27-2.85-.81-4.08c-.53-1.22-1.26-2.27-2.18-3.13zm-2.11 9.33a5.4 5.4 0 0 1-1.1 1.81c-.49.52-1.07.94-1.76 1.26-.68.31-1.45.47-2.32.47-.87 0-1.64-.16-2.32-.47-.68-.31-1.27-.73-1.75-1.26-.49-.52-.85-1.13-1.1-1.81-.25-.69-.37-1.39-.37-2.13s.12-1.44.37-2.13.62-1.29 1.1-1.81c.49-.52 1.07-.94 1.75-1.26s1.46-.47 2.32-.47c.87 0 1.64.16 2.32.47s1.27.73 1.76 1.26a5.4 5.4 0 0 1 1.1 1.81c.25.68.37 1.39.37 2.13s-.12 1.45-.37 2.13zm37.1-9.69a5.61 5.61 0 0 0-2.11-1.73c-.87-.42-1.93-.63-3.19-.63-1.42 0-2.64.28-3.66.85-1.03.57-1.88 1.45-2.56 2.66-.97-2.34-2.94-3.5-5.91-3.5-1.57 0-2.83.35-3.76 1.04-.93.69-1.61 1.49-2.03 2.38h-.08v-2.95h-4.49v18.9h4.73V91.56c0-.63.08-1.23.24-1.81.16-.58.41-1.09.77-1.53.35-.45.8-.8 1.34-1.06s1.2-.39 1.99-.39c1.15 0 1.98.35 2.48 1.04.5.69.75 1.63.75 2.82v11.26h4.73V91.64c0-.6.07-1.2.22-1.79.15-.59.38-1.12.71-1.57.33-.46.75-.83 1.26-1.1.51-.28 1.13-.41 1.87-.41.71 0 1.29.12 1.73.35s.8.56 1.06.96c.26.41.45.88.55 1.42.1.54.16 1.1.16 1.67v10.71h4.73V90.61c0-1.13-.12-2.19-.36-3.17s-.63-1.85-1.17-2.58zm22.41.31a7.752 7.752 0 0 0-2.8-1.99c-1.09-.46-2.29-.69-3.6-.69-1.42 0-2.76.24-4.02.71-1.26.47-2.35 1.14-3.27 2.01-.92.87-1.65 1.91-2.19 3.13s-.81 2.58-.81 4.08.27 2.85.81 4.08c.54 1.22 1.27 2.27 2.19 3.13.92.87 2.01 1.54 3.27 2.01 1.26.47 2.6.71 4.02.71 1.5 0 2.93-.29 4.29-.87 1.36-.58 2.6-1.55 3.7-2.92L607.49 96c-.6.74-1.31 1.35-2.11 1.83-.8.48-1.79.73-2.97.73-1.34 0-2.48-.39-3.43-1.18-.94-.79-1.5-1.89-1.65-3.31h14.41v-1.3c0-1.66-.22-3.12-.65-4.39-.42-1.27-1.03-2.34-1.8-3.21zm-11.95 5.36c.18-1.37.69-2.45 1.52-3.27.83-.81 1.95-1.22 3.37-1.22 1.5 0 2.66.4 3.5 1.2.84.8 1.27 1.9 1.3 3.29h-9.69zm34.54-5.75c-.55-.68-1.27-1.23-2.15-1.65-.88-.42-1.95-.63-3.21-.63-1.58 0-2.83.35-3.74 1.04-.92.69-1.6 1.52-2.05 2.46h-.08v-3.03h-4.49v18.9h4.73V91.56c0-.63.08-1.23.24-1.81.16-.58.41-1.09.77-1.53.36-.45.8-.8 1.34-1.06s1.2-.39 1.99-.39c.81 0 1.46.19 1.93.57.47.38.82.85 1.04 1.42.22.57.36 1.17.41 1.81.05.64.08 1.23.08 1.75v9.57h4.73V89.94c0-.97-.12-1.9-.36-2.8-.24-.89-.63-1.67-1.18-2.36z" style="fill:#666"/><path d="M113.23 14.49c2.53 1.44 4.06 4.21 4.59 8.29h1.63l-.06-11.42h-34.1l-.05 11.42h1.63c.35-4.05 1.88-6.81 4.59-8.29 1.48-.8 3.6-1.23 6.36-1.3v29.84c0 2.07-.36 3.45-1.09 4.14-.73.69-2.2 1.04-4.41 1.04v1.44h20.19V48.2c-2.31 0-3.82-.34-4.55-1.02-.73-.68-1.09-2.07-1.09-4.15V13.18c2.82.08 4.94.51 6.36 1.31z"/><path d="M136.12 42.56c-1.07 1.18-1.97 2.02-2.69 2.52-1.18.83-2.44 1.24-3.77 1.24-2.79 0-4.74-1.56-5.85-4.67-.61-1.66-.98-3.62-1.11-5.89h14.47c0-.52-.06-1.26-.19-2.24-.26-2.08-.72-3.78-1.38-5.09-.89-1.73-2.15-3.09-3.79-4.07-1.64-.98-3.4-1.47-5.26-1.47-3.27 0-6.06 1.2-8.38 3.61-2.32 2.41-3.48 5.79-3.48 10.14 0 4.81 1.22 8.32 3.66 10.51 2.44 2.19 5.05 3.29 7.84 3.29 1.94 0 3.66-.36 5.15-1.08 2.31-1.12 4.34-3.12 6.09-6l-1.31-.8zm-12.62-15.6c.55-1.53 1.56-2.3 3.04-2.3 1.44 0 2.41.66 2.89 1.99s.74 3.66.78 7h-7.63c.06-2.93.37-5.16.92-6.69z"/><path d="m161.33 47.14-8.46-12.85 5.86-7.22c.6-.76 1.33-1.32 2.17-1.69.46-.18 1.04-.34 1.73-.47v-1.36h-9.49v1.36c1.03.04 1.77.13 2.22.28.45.15.68.5.68 1.05 0 .44-.23 1-.69 1.66-.46.67-1.67 2.22-3.61 4.67-.72-.98-1.56-2.22-2.51-3.72-.95-1.5-1.42-2.46-1.42-2.89 0-.35.11-.57.33-.65.22-.08.99-.22 2.3-.4v-1.36h-14.16v1.36c.68.09 1.2.25 1.55.47.35.22.82.78 1.41 1.69l7.28 11.16c-.61.78-1.38 1.79-2.33 3.05-.94 1.26-1.7 2.24-2.27 2.94-1.38 1.68-2.41 2.75-3.08 3.21-.67.46-1.48.77-2.42.91v1.3h9.57v-1.3c-.94-.04-1.65-.15-2.11-.33-.47-.18-.7-.57-.7-1.16 0-.5.62-1.62 1.85-3.35.6-.84 1.5-2.03 2.71-3.58.42.65.88 1.36 1.4 2.11.51.76.9 1.35 1.18 1.78.5.78.86 1.37 1.08 1.8.39.7.58 1.21.58 1.52 0 .48-.23.79-.69.94-.46.15-1.09.24-1.88.27v1.3h13.64v-1.3c-.42-.16-.76-.33-1.01-.48-.28-.17-.5-.4-.71-.72z"/><path d="m200.55 33.7-3.1-1.49c-1.49-.72-2.51-1.42-3.04-2.1-.55-.66-.83-1.33-.83-1.99 0-.81.31-1.57.93-2.27.62-.7 1.55-1.05 2.81-1.05 1.62 0 3.04.58 4.26 1.74 1.22 1.16 2.09 2.7 2.63 4.62h1.44v-8.19h-1.24c-.13.35-.29.62-.48.82-.19.19-.52.29-.98.29-.33 0-1.17-.2-2.52-.59-1.35-.4-2.62-.6-3.82-.6-2.75 0-4.89.8-6.42 2.39-1.53 1.6-2.3 3.49-2.3 5.68 0 1.73.49 3.24 1.47 4.51.96 1.27 2.54 2.45 4.76 3.54l4.2 2.05c.9.44 1.56.86 1.96 1.25.74.72 1.11 1.59 1.11 2.6 0 1.07-.34 1.93-1.02 2.59s-1.75.98-3.21.98c-1.59 0-3.14-.56-4.65-1.67-1.51-1.12-2.54-3.03-3.1-5.74h-1.58v5l-.01-.02c-.37.37-.64.59-.82.68-.18.08-.37.13-.6.13-.26 0-.49-.14-.7-.43-.21-.28-.32-.63-.32-1.04V31.66c0-3.36-1.07-5.66-3.21-6.92-2.16-1.23-4.84-1.85-8.05-1.85-2.99 0-5.5.63-7.55 1.9s-3.07 2.99-3.07 5.16c0 1.21.38 2.14 1.15 2.79.76.64 1.69.97 2.78.97.94 0 1.77-.29 2.48-.87s1.06-1.41 1.06-2.48c0-.42-.08-.82-.23-1.2-.16-.38-.36-.72-.62-1.04l-.33-.39c-.15-.17-.26-.32-.33-.47-.07-.15-.11-.33-.11-.55 0-.57.33-1.05.98-1.42.65-.38 1.49-.57 2.5-.57 1.81 0 3.07.4 3.78 1.2.71.8 1.06 2.04 1.06 3.72v4.12c-5.24 1.51-9.08 3.02-11.53 4.52-2.45 1.49-3.68 3.52-3.68 6.07 0 2.09.67 3.63 2.02 4.62 1.35.99 2.79 1.48 4.34 1.48 1.16 0 2.34-.2 3.54-.61 1.97-.65 3.74-1.75 5.31-3.33.2 1.09.52 1.91.97 2.47.78.98 2 1.47 3.68 1.47.94 0 1.83-.16 2.68-.5 1.01-.39 1.96-1 2.84-1.82v2.32h1.35c.3-.59.56-1.01.79-1.26.23-.25.5-.37.82-.37.13 0 .23.01.32.03.08.02.3.09.65.22l.97.33c1.12.39 2.07.66 2.83.82.76.16 1.53.23 2.28.23 3.04 0 5.32-.91 6.85-2.72 1.52-1.82 2.28-3.78 2.28-5.88 0-2.16-.74-3.97-2.21-5.45-.9-.88-2.3-1.77-4.22-2.7zm-22.97 10.32c-.61.7-1.13 1.22-1.58 1.55-.79.56-1.65.83-2.57.83-.7 0-1.33-.32-1.9-.96-.56-.64-.84-1.57-.84-2.81 0-2.09.97-3.81 2.9-5.16 1.14-.79 2.47-1.38 3.98-1.75v8.3zm70.55 1.55c-2.51 1.62-5.21 2.43-8.12 2.43-4.75 0-8-2.45-9.75-7.36-.94-2.62-1.41-5.95-1.41-10.01 0-5.51.8-9.91 2.39-13.18 1.59-3.27 4.29-4.91 8.08-4.91 3.35 0 6.35 1.53 9.01 4.59 1.42 1.66 2.81 3.93 4.17 6.8h1.44V10.69h-1.58c-.11.61-.38 1.19-.82 1.74-.43.55-1.01.83-1.73.83-.28 0-1.62-.44-4.04-1.31s-4.8-1.31-7.16-1.31c-5.46 0-10.07 1.79-13.83 5.37-4 3.82-6 8.81-6 14.96 0 6.21 2.09 11.16 6.28 14.83 3.78 3.32 8.46 4.98 14.05 4.98 3.65 0 6.97-.99 9.96-2.96 1.68-1.11 3.62-2.9 5.84-5.37l-1.69-1.38c-1.95 2.06-3.65 3.56-5.09 4.5zm42.9-26.28c1.2 0 2.23-.43 3.08-1.29.86-.86 1.29-1.9 1.29-3.11 0-1.22-.43-2.25-1.29-3.11-.86-.86-1.89-1.29-3.08-1.29-1.22 0-2.25.43-3.11 1.29-.86.86-1.29 1.89-1.29 3.11s.43 2.25 1.29 3.11c.86.86 1.89 1.29 3.11 1.29z"/><path d="M273.65 47.45c-.37.35-1.06.63-2.08.83v1.35h38.85v-1.35c-1.03-.26-1.75-.58-2.16-.97-.41-.39-.61-1.21-.61-2.46v-33.5h-10.73v1.35c1.05.24 1.77.55 2.16.92.39.37.58 1.16.58 2.37v28.85c0 1.25-.21 2.08-.62 2.47-.37.35-.97.64-1.79.87-.8-.19-1.38-.44-1.69-.74-.37-.35-.55-1.14-.55-2.38V23.55h-10.87v1.36c1.14.2 1.91.52 2.3.93.39.42.58 1.2.58 2.36v16.65c0 1.29-.28 2.18-.83 2.68-.31.28-.87.5-1.64.67-.84-.21-1.46-.49-1.85-.84-.43-.4-.65-1.23-.65-2.5V31.24c0-3.04-.71-5.19-2.13-6.46-1.42-1.26-3.22-1.9-5.39-1.9-1.6 0-3.05.38-4.33 1.15-1.28.76-2.5 1.85-3.66 3.25V11.36h-10.95v1.35c1.2.15 2 .45 2.41.91.41.46.61 1.25.61 2.39v28.85c0 1.29-.24 2.15-.73 2.59-.49.43-1.25.72-2.28.85v1.35h13.64V48.3c-1.01-.2-1.71-.48-2.07-.83-.37-.35-.55-1.14-.55-2.38V29.92c0-.33.52-.95 1.56-1.85 1.04-.9 2.05-1.36 3.03-1.36 1.31 0 2.19.58 2.63 1.74.26.65.39 1.61.39 2.9v13.72c-.03 1.24-.21 2.03-.58 2.38zm76.91-18.32c.77-.93 1.53-1.4 2.29-1.4.35 0 .97.56 1.84 1.69.88 1.12 1.92 1.69 3.12 1.69 1.05 0 1.91-.36 2.57-1.08.66-.72.98-1.63.98-2.74 0-1.44-.47-2.53-1.4-3.28-.94-.75-1.98-1.12-3.15-1.12-1.56 0-2.92.46-4.11 1.38-1.18.92-2.37 2.17-3.57 3.73v-4.45H338.4v1.36c1.2.15 2 .44 2.41.86.4.43.61 1.24.61 2.43v15.41l-.06 1.66c-.04 1.11-.27 1.85-.69 2.24-.34.31-.89.53-1.64.67v-.95c-1.29-.11-2.16-.39-2.6-.84-.44-.45-.66-1.26-.66-2.43v-32.6h-12.2v1.35c1.73.07 2.88.28 3.43.63.55.35.83 1.23.83 2.66v10.37c-1.09-1.14-1.99-1.94-2.71-2.38-1.16-.74-2.49-1.11-3.98-1.11-2.99 0-5.55 1.3-7.68 3.89s-3.19 6.13-3.19 10.61c0 4.02 1.02 7.2 3.07 9.54 2.05 2.34 4.45 3.51 7.22 3.51 1.62 0 3.14-.42 4.54-1.27.88-.54 1.86-1.35 2.93-2.46v3.73c2.33-.65 3.95-1.04 4.87-1.2.86-.15 2.7-.36 5.52-.64v1.04h15.07v-1.35c-1.62-.15-2.7-.45-3.25-.92-.54-.47-.82-1.64-.82-3.51V33.13c-.01-1.74.37-3.07 1.14-4zM327.82 43.3c0 .44-.49 1.21-1.46 2.3-.97 1.09-2.07 1.63-3.29 1.63-1.94 0-3.26-1.34-3.94-4.01-.37-1.48-.56-3.67-.56-6.58 0-2.73.19-4.84.58-6.33.72-2.78 2.09-4.18 4.11-4.18 1.37 0 2.47.45 3.3 1.36.83.9 1.25 1.59 1.25 2.05V43.3z"/><path d="m382.56 43.36-1.3-.8c-1.07 1.18-1.97 2.02-2.69 2.52-1.18.83-2.44 1.24-3.77 1.24-2.79 0-4.74-1.56-5.85-4.67-.61-1.66-.98-3.62-1.11-5.89h14.47c0-.52-.07-1.26-.2-2.24-.26-2.08-.72-3.78-1.38-5.09-.89-1.73-2.15-3.09-3.79-4.07-1.64-.98-3.4-1.47-5.26-1.47-3.27 0-6.06 1.2-8.38 3.61-2.32 2.41-3.47 5.79-3.47 10.14 0 4.81 1.22 8.32 3.65 10.51 2.44 2.19 5.05 3.29 7.84 3.29 1.94 0 3.66-.36 5.15-1.08 2.31-1.12 4.34-3.12 6.09-6zm-13.92-16.4c.55-1.53 1.56-2.3 3.04-2.3 1.44 0 2.41.66 2.89 1.99s.74 3.66.78 7h-7.63c.06-2.93.37-5.16.92-6.69z"/><path d="M399.75 47.45c-.37.35-1.06.63-2.07.83v1.35h13.3v-1.35c-1.01-.13-1.74-.38-2.17-.75s-.65-1.19-.65-2.46V31.38c0-3.15-.67-5.36-2.01-6.61-1.34-1.25-3.22-1.88-5.66-1.88-1.7 0-3.24.45-4.63 1.34-1.39.89-2.54 2.03-3.44 3.39v-4.07h-10.73v1.36c1.22.15 2.02.45 2.42.89.39.45.59 1.25.59 2.4v16.65c0 1.29-.25 2.15-.73 2.59-.49.43-1.25.72-2.28.85v1.35h13.64v-1.35c-1.01-.2-1.71-.48-2.08-.83-.37-.35-.55-1.14-.55-2.38V29.92c.44-.72 1.07-1.43 1.9-2.14.82-.71 1.72-1.07 2.7-1.07 1.31 0 2.18.58 2.63 1.74.26.65.39 1.61.39 2.9v13.72c-.02 1.24-.2 2.03-.57 2.38zm18.82-36.95c-1.46 0-2.61.44-3.46 1.33-.85.88-1.27 2.04-1.27 3.46 0 1.29.39 2.35 1.19 3.17.79.82 1.8 1.23 3.02 1.23.18 0 .59-.05 1.22-.14.37 0 .66.12.86.36.18.26.28.57.28.94 0 1.37-.77 2.82-2.32 4.37-.87.87-2.15 1.89-3.85 3.07l.66 1.24c2.56-1.44 4.56-2.92 6-4.45 2.25-2.41 3.38-5.09 3.38-8.02 0-2.03-.55-3.63-1.65-4.8-1.1-1.18-2.45-1.76-4.06-1.76zm16.06 39.94c3.04 0 5.33-.91 6.85-2.72 1.52-1.82 2.28-3.78 2.28-5.88 0-2.16-.74-3.97-2.21-5.45-.89-.87-2.29-1.76-4.21-2.68l-3.1-1.49c-1.49-.72-2.51-1.42-3.04-2.1-.55-.66-.83-1.33-.83-1.99 0-.81.31-1.57.93-2.27.62-.7 1.55-1.05 2.81-1.05 1.62 0 3.04.58 4.26 1.74 1.22 1.16 2.09 2.7 2.63 4.62h1.44v-8.19h-1.24c-.13.35-.29.62-.49.82-.19.19-.52.29-.98.29-.33 0-1.17-.2-2.52-.59-1.35-.4-2.62-.6-3.82-.6-2.75 0-4.89.8-6.42 2.39-1.53 1.6-2.3 3.49-2.3 5.68 0 1.73.49 3.24 1.47 4.51.96 1.27 2.54 2.45 4.76 3.54l4.2 2.05c.9.44 1.56.86 1.97 1.25.74.72 1.11 1.59 1.11 2.6 0 1.07-.34 1.93-1.02 2.59-.68.66-1.75.98-3.21.98-1.59 0-3.14-.56-4.65-1.67-1.51-1.12-2.54-3.03-3.1-5.74h-1.58v9.38h1.35c.3-.59.56-1.01.79-1.26.23-.25.5-.37.82-.37.13 0 .23.01.32.03.08.02.3.09.65.22l.97.33c1.12.39 2.07.66 2.83.82.76.13 1.52.21 2.28.21z"/><path class="st2" d="M67.57 31.67c-1.14 0-2.18.46-2.93 1.2L52.3 45.61c-4.78 4.14-9.32 6.32-16.35 6.36-6.85-.11-11.33-2.28-16.03-6.36L7.46 32.87c-.75-.74-1.79-1.2-2.93-1.2-2.31 0-4.18 1.88-4.18 4.18 0 1.15.47 2.2 1.23 2.96l16.2 15.8c4.56 3.74 11.02 5.62 18.17 5.62 7.16 0 13.61-1.88 18.17-5.62l16.41-15.8c.76-.75 1.23-1.8 1.23-2.96 0-2.3-1.88-4.18-4.19-4.18z"/><path class="st2" d="M21.52 38.38c4.74 4.53 7.51 7.41 14.39 7.51 7.16.11 9.95-2.96 14.77-7.57l9.55-9.69c.75-.76 1.23-1.8 1.23-2.96 0-2.31-1.88-4.18-4.18-4.18-1.19 0-2.26.5-3.03 1.3l-10.84 10.9c-1.85 2.03-4.52 3.3-7.48 3.3-2.95 0-5.6-1.26-7.45-3.26L17.85 22.78c-.76-.8-1.83-1.3-3.02-1.3-2.31 0-4.18 1.88-4.18 4.18 0 1.15.47 2.2 1.23 2.96l9.64 9.76z"/><path class="st2" d="M33.76 30c.56.59 1.36.96 2.24.96.87 0 1.67-.36 2.23-.95l11.81-11.67c.77-.76 1.24-1.81 1.24-2.97 0-2.31-1.88-4.18-4.18-4.18-1.13 0-2.15.45-2.9 1.17l-6.88 6.97c-.35.35-.83.57-1.37.57-.55 0-1.05-.23-1.4-.61l-6.63-6.93a4.175 4.175 0 0 0-2.9-1.17c-2.31 0-4.18 1.88-4.18 4.18 0 1.16.47 2.21 1.24 2.97L33.76 30z"/><path class="st2" d="M35.95 11.63c3.03 0 5.5-2.46 5.5-5.5 0-3.03-2.46-5.5-5.5-5.5s-5.5 2.46-5.5 5.5 2.46 5.5 5.5 5.5z"/><path d="m645.1 7.92-.97-1.76c.79-.19 1.39-.78 1.39-1.61 0-1.14-1.03-1.68-2.36-1.68h-3.2v.29c.7 0 .7.54.7 1.2v3.26c0 .82 0 1.22-.81 1.22v.29h3.26v-.29c-.92 0-.92-.4-.92-1.22V6.28h.35l1.58 2.85h1.87v-.29c-.41 0-.7-.58-.89-.92zm-2.47-1.99c-.15 0-.34-.02-.43-.05V3.22h.36c1.11 0 1.3.73 1.3 1.3 0 .73-.44 1.41-1.23 1.41z"/><path d="M642.76.61c-3.02 0-5.49 2.45-5.49 5.48s2.47 5.48 5.49 5.48 5.48-2.46 5.48-5.48-2.46-5.48-5.48-5.48zm0 10.28c-2.64 0-4.8-2.15-4.8-4.8 0-2.64 2.15-4.8 4.8-4.8 2.64 0 4.78 2.15 4.78 4.8 0 2.64-2.14 4.8-4.78 4.8zM473.69 48.2c-1.57-.06-2.68-.25-3.35-.58-1.14-.59-1.72-1.73-1.72-3.4V31.16h13.5v13.05c0 1.62-.53 2.73-1.58 3.32-.68.39-1.83.61-3.46.66v1.44h19.28V48.2c-1.51-.06-2.59-.26-3.23-.61-1.13-.59-1.69-1.71-1.69-3.38V16.78c0-1.61.51-2.7 1.52-3.27.61-.35 1.74-.59 3.4-.72v-1.44h-19.28v1.44c1.72.11 2.89.34 3.51.69 1.01.57 1.52 1.67 1.52 3.3v11.76h-13.5V16.78c0-1.63.54-2.74 1.61-3.32.64-.35 1.8-.57 3.46-.66v-1.44h-19.17v1.44c1.68.17 2.8.41 3.38.74.94.57 1.41 1.65 1.41 3.24v27.44c0 1.64-.53 2.76-1.58 3.35-.63.35-1.7.56-3.21.63v1.44h19.17V48.2z"/><path d="M498.58 46.52c2.41 2.65 5.47 3.97 9.15 3.97 3.8 0 6.88-1.36 9.24-4.08 2.36-2.72 3.54-5.97 3.54-9.75 0-3.84-1.19-7.1-3.58-9.79-2.39-2.69-5.45-4.04-9.2-4.04-3.67 0-6.72 1.32-9.14 3.96-2.42 2.64-3.64 5.93-3.64 9.88 0 3.92 1.21 7.21 3.63 9.85zm5.33-18.18c.64-2.45 1.93-3.68 3.84-3.68 1.75 0 2.93.94 3.53 2.83.6 1.89.9 4.95.9 9.17 0 4.24-.29 7.3-.86 9.18-.57 1.88-1.77 2.82-3.59 2.82-1.92 0-3.2-1.23-3.85-3.68-.4-1.59-.61-4.36-.61-8.33.01-3.89.22-6.67.64-8.31zm19.66 20.84c.23-.25.5-.37.82-.37.13 0 .23.01.32.03.08.02.3.09.65.22l.97.33c1.12.39 2.07.66 2.83.82.77.16 1.53.23 2.28.23 3.04 0 5.33-.91 6.85-2.72s2.28-3.78 2.28-5.88c0-2.16-.74-3.97-2.21-5.45-.89-.87-2.29-1.76-4.21-2.68l-3.1-1.49c-1.49-.72-2.51-1.42-3.04-2.1-.55-.66-.83-1.33-.83-1.99 0-.81.31-1.57.93-2.27.62-.7 1.55-1.05 2.81-1.05 1.62 0 3.04.58 4.26 1.74 1.22 1.16 2.09 2.7 2.63 4.62h1.44v-8.19H538c-.13.35-.29.62-.49.82-.19.19-.52.29-.98.29-.33 0-1.17-.2-2.52-.59s-2.62-.6-3.82-.6c-2.75 0-4.89.8-6.42 2.39-1.53 1.6-2.3 3.49-2.3 5.68 0 1.73.49 3.24 1.47 4.51.96 1.27 2.54 2.45 4.76 3.54l4.2 2.05c.9.44 1.56.86 1.97 1.25.74.72 1.11 1.59 1.11 2.6 0 1.07-.34 1.93-1.02 2.59s-1.75.98-3.21.98c-1.59 0-3.14-.56-4.65-1.67-1.51-1.12-2.54-3.03-3.1-5.74h-1.58v9.38h1.35c.31-.61.57-1.03.8-1.28z"/><path d="M553.5 49.08c1.38.9 2.85 1.35 4.4 1.35 3.02 0 5.59-1.35 7.7-4.05 2.11-2.7 3.17-6.11 3.17-10.22 0-4.42-.98-7.75-2.95-9.98-1.97-2.23-4.43-3.35-7.4-3.35-2.06 0-3.76.54-5.09 1.6-.74.61-1.49 1.56-2.27 2.85v-3.73h-10.82v1.36c1.18.17 1.98.46 2.39.88.42.42.62 1.22.62 2.41v28.46c0 1.2-.22 2.02-.66 2.45-.44.43-1.27.71-2.49.85v1.35h15.49v-1.16c-1.49-.09-2.56-.42-3.19-.97-.64-.55-1.02-1.58-1.15-3.07-.02-.31-.04-1.74-.06-4.29v-4.78c.81.88 1.57 1.56 2.31 2.04zm-2.3-19.03c0-.48.48-1.25 1.44-2.32.96-1.07 2.05-1.6 3.26-1.6 1.81 0 3.01.96 3.6 2.89.59 1.93.88 4.51.88 7.76 0 2.8-.19 4.95-.58 6.45-.72 2.71-2.1 4.07-4.15 4.07-1.14 0-2.17-.44-3.08-1.31-.92-.88-1.37-1.59-1.37-2.14v-13.8zm24.25-10.76c1.2 0 2.23-.43 3.09-1.29.86-.86 1.28-1.9 1.28-3.11 0-1.22-.43-2.25-1.28-3.11-.86-.86-1.89-1.29-3.09-1.29-1.22 0-2.25.43-3.11 1.29-.86.86-1.29 1.89-1.29 3.11s.43 2.25 1.29 3.11c.85.86 1.89 1.29 3.11 1.29z"/><path d="M571.44 28.2v16.65c0 1.29-.28 2.18-.83 2.68-.37.33-1.05.58-2.05.75v1.35h13.5v-1.35c-1.01-.2-1.71-.48-2.07-.83-.37-.35-.55-1.14-.55-2.38V23.55h-10.87v1.36c1.14.2 1.91.52 2.3.93.37.42.57 1.21.57 2.36zm61.94 16.65v-33.5h-10.73v1.35c1.05.24 1.77.55 2.16.92.39.37.58 1.16.58 2.37v28.85c0 1.25-.21 2.08-.62 2.47-.34.33-.89.6-1.62.82.3-.28.59-.58.87-.91l-.86-1.19c-.37.37-.64.59-.82.68-.18.08-.37.13-.59.13-.26 0-.49-.14-.7-.43-.21-.28-.32-.63-.32-1.04V31.66c0-3.36-1.07-5.66-3.21-6.92-2.16-1.23-4.84-1.85-8.05-1.85-2.99 0-5.5.63-7.55 1.9s-3.07 2.99-3.07 5.16c0 1.21.38 2.14 1.15 2.79.76.64 1.69.97 2.78.97.94 0 1.77-.29 2.48-.87.71-.58 1.06-1.41 1.06-2.48 0-.42-.08-.82-.24-1.2-.16-.38-.36-.72-.62-1.04l-.33-.39c-.15-.17-.26-.32-.33-.47-.08-.15-.11-.33-.11-.55 0-.57.33-1.05.98-1.42.66-.38 1.49-.57 2.5-.57 1.81 0 3.07.4 3.78 1.2.71.8 1.06 2.04 1.06 3.72v4.12c-5.24 1.51-9.08 3.02-11.53 4.52-2.17 1.32-3.37 3.05-3.63 5.2l-.24-.11c-.5.92-.99 1.65-1.49 2.17s-1.11.79-1.85.79c-.85 0-1.46-.42-1.83-1.24-.24-.54-.36-1.2-.36-1.99V26.04h5.39v-2.49h-5.39v-9.57h-1.44c-1.4 2.16-2.96 4.18-4.67 6.06-.87.96-1.79 1.89-2.77 2.79-.74.63-1.36 1.17-1.85 1.63v1.58h2.93v18.37c.01 2.52.97 4.27 2.89 5.23.99.5 2.16.75 3.48.75 2.34 0 4.32-.86 5.94-2.57.5-.52.95-1.14 1.37-1.83.27 1.27.89 2.27 1.85 2.98 1.35.99 2.79 1.48 4.34 1.48 1.16 0 2.34-.2 3.54-.61 1.97-.65 3.74-1.75 5.31-3.33.2 1.09.53 1.91.97 2.47.78.98 2 1.47 3.68 1.47.94 0 1.84-.16 2.68-.5.81-.31 1.58-.78 2.31-1.38v1.08h13.5V48.3c-1.03-.26-1.75-.58-2.16-.97-.39-.4-.6-1.22-.6-2.48zm-20.45-.83c-.61.7-1.13 1.22-1.58 1.55-.79.56-1.65.83-2.57.83-.7 0-1.33-.32-1.89-.96-.56-.64-.85-1.57-.85-2.81 0-2.09.97-3.81 2.9-5.16 1.14-.79 2.47-1.38 3.98-1.75v8.3z"/></svg>