<svg xmlns="http://www.w3.org/2000/svg" viewBox="0 0 1024 1024" fill="currentcolor">
  <path d="M486.5,1015c-7.5-7.5-10.6-18.2-8.2-28.6l37.6-163.7c1-6.3,4-12.1,8.4-16.7.4-.5.9-.9,1.4-1.3l279.3-280.5c11.7-11.9,27.7-18.5,44.4-18.5,16.7,0,32.7,6.6,44.4,18.5l80.9,81.2c11.8,11.9,18.5,27.9,18.5,44.6,0,16.8-6.6,32.8-18.5,44.7l-280.6,281.8c-4,4-9.1,6.9-14.6,8.1l-164.6,38.5c-2.3.5-4.6.8-6.9.8-8.1,0-15.8-3.3-21.4-9ZM548.7,952.4l63.5-14.8-48.9-49.1-14.6,63.9ZM672.7,911.6l165-165.7-83.6-83.9-164.9,165.7,83.5,83.9ZM880.8,702.6l51-51.2c.3-.4.5-.9.5-1.4,0-.5-.2-.9-.5-1.3l-80.9-81.2c-.4-.4-.9-.6-1.4-.6s-1,.2-1.4.6l-51,51.2,83.6,83.9ZM145.1,913.9c-63.3-.2-114.4-51.6-114.3-114.9V172.7c0-63.2,51.1-114.5,114.3-114.7h75.3v-27.3c0-16.9,13.6-30.6,30.4-30.6h0c16.8,0,30.4,13.8,30.4,30.6v27.2h351.3v-27.2c0-16.9,13.6-30.6,30.4-30.6h0c16.9,0,30.5,13.7,30.5,30.6h0v27.4h75.3c63.2.2,114.3,51.5,114.3,114.7v248.1c0,16.9-13.5,30.6-30.4,30.7h0c-16.9,0-30.5-13.8-30.5-30.6h0v-82.2H91.6v460.5c0,29.5,23.9,53.5,53.4,53.6h269.4c16.9,0,30.4,13.8,30.4,30.7,0,16.9-13.5,30.5-30.4,30.7H145.1ZM822.1,277.1v-104.5c0-29.5-23.9-53.4-53.3-53.4h-75.3v22.3c0,16.9-13.6,30.6-30.5,30.7h0c-16.9,0-30.5-13.8-30.5-30.6h0v-22.4h-351.3v22.3c0,16.9-13.5,30.6-30.4,30.7-16.9,0-30.5-13.8-30.5-30.6h0v-22.4h-75.3c-29.5,0-53.4,24-53.4,53.4v104.5h730.5Z"/>
</svg>