<svg xmlns="http://www.w3.org/2000/svg" viewBox="0 0 1024 1024" fill="currentcolor">
  <path d="M492.2,1016c-2-1.8-3.8-3.8-5.4-5.9l-266.4-308c-157.6-162.8-156-421.8,3.6-582.7,158.9-159.1,416.6-159.3,575.7-.4.1.1.3.3.4.4,160.2,162.1,161.4,422.5,2.6,586l-265.4,307.2c-6,7-14.7,11-23.9,11.1l-.2.2c-7.7,0-15.1-2.8-20.7-8ZM268.6,165.6c-134.6,135.7-135.9,354.1-3,491.5l3,3.1,244.5,282.7,242.7-280.9c135.1-137.9,134.8-358.7-.8-496.2-64.3-64.8-151.9-101.1-243.2-100.9v-.2c-91.2-.1-178.7,36.2-243,100.9h-.1ZM506.9,656.2c-13.3.2-26.1-5.1-35.3-14.7-9.6-9.4-14.8-22.5-14.2-35.9-.3-13.4,4.9-26.4,14.5-35.9,9.2-9.6,22-14.9,35.3-14.4,13.3-.2,26.1,5.1,35.3,14.7,9.6,9.4,14.8,22.5,14.3,35.9.3,13.5-5,26.4-14.5,35.9-9,9.4-21.5,14.6-34.5,14.4h-.8ZM472.3,496.9l-26.5-232.8c-4.2-34.6,20.5-66,55-70.2,2.4-.3,4.8-.4,7.2-.5v.2c34.8.3,62.8,28.7,62.5,63.5,0,2.5-.2,5-.5,7.5l-28.1,232.6c-2.1,17.8-17.1,31.2-34.9,31.3-17.9-.1-32.8-13.7-34.6-31.5h-.1Z"/>
</svg>