<svg xmlns="http://www.w3.org/2000/svg" viewBox="0 0 1024 1024" fill="currentcolor">
  <path d="M102,922.9V243.9c-1-53.8,41.5-98.4,95.3-99.9h85.7c15.5-31.5,47.5-51.5,82.6-51.6h4.2C377.5,40.5,433.1,0,500.3,0s123.2,40.6,130.4,92.4h7.9c35.8-2.1,69.2,18.4,83.5,51.3h103c54.6,1.2,98,46.4,96.8,101,0,0,0,.2,0,.2v679c1.1,53.7-41.4,98.3-95.1,99.7H198.9v.3c-54.6-1.1-98-46.3-96.9-100.9,0,0,0-.1,0-.2ZM167.8,242.6v681.9c-.9,18.6,13.3,34.4,31.9,35.3,0,0,.2,0,.3,0h624.9c17.8-1.2,31.5-16.3,30.8-34.2V243.7c1-18.7-13.3-34.7-31.9-35.7,0,0-.1,0-.2,0h-97.8v.5c1.5,19.6-5.4,38.9-19,53.2-17.2,14.1-39.3,20.7-61.4,18.3v.2h-279.7c-25.9,0-86.3,0-86.3-71.4v-.5h-80.7c-17.9,1.2-31.6,16.5-30.9,34.5ZM365.6,215.9h277c5,0,12.4,0,16.9-.5,0-1.5.5-3.6.5-6.7v-44.7c-6-4.5-13.3-7-20.8-7h-44.1c-10.8.1-21-5.2-27.2-14.1-6.1-8.8-7.4-20-3.4-29.9,1.1-2.8,1.6-5.8,1.6-8.8,0-18.8-26.9-39.8-65.5-39.8s-65.4,21.1-65.4,40.1c0,2.9.6,5.8,1.6,8.5,4,9.9,2.7,21.1-3.4,29.9-6.2,8.8-16.4,14.1-27.2,14.1h-40.3c-7.6.6-14.8,3.8-20.3,9v42.7c-.1,2.2,0,4.3.5,6.4h-.5c6.7.7,13.3.9,20,.8ZM523.9,834h.2-.2ZM480.9,834c-42.4.5-77.2-33.4-77.8-75.8v-60.1h-61.7c-42.3.5-77.1-33.4-77.8-75.7v-42.3c.6-42.4,35.4-76.2,77.8-75.8h61.7v-60.1c.6-42.4,35.4-76.3,77.8-75.8h43.3c42.4-.5,77.2,33.4,77.8,75.8v60.2h61.7c42.4-.5,77.2,33.4,77.8,75.8v42.2c-.6,42.4-35.4,76.3-77.8,75.8h-62v60.1c-.6,42.4-35.4,76.3-77.8,75.8h-43ZM329.5,580.1v42.3c0,6.5,5.3,11.6,11.8,11.6,0,0,0,0,.1,0h127.7v124.3c0,6.4,5.3,11.6,11.8,11.6,0,0,0,0,.1,0h43.3c6.4.1,11.7-5,11.8-11.5,0,0,0,0,0,0v-124.4h127.9c6.5.1,11.8-5,11.9-11.5,0,0,0,0,0-.1v-42.1c0-6.5-5.4-11.6-11.8-11.6,0,0,0,0,0,0h-127.7v-124.4c0-6.4-5.3-11.6-11.8-11.6,0,0,0,0-.1,0h-43.2c-6.4-.1-11.8,5-11.9,11.4,0,0,0,0,0,.1v124.4h-127.9c-6.4-.1-11.8,5-11.9,11.4,0,0,0,0,0,.1Z"/>
</svg>