<svg xmlns="http://www.w3.org/2000/svg" viewBox="0 0 1024 1024" fill="currentcolor">
  <path d="M965.1,810.5c-7.1-17-26.5-25.2-43.7-18.1l-88.7,36.6-141-304.2c-5.5-11.8-17.4-19.3-30.3-19.3h-284.3l-6.5-72.5h211.4c18.5,0,33.4-14.9,33.4-33.4s-14.9-33.4-33.4-33.4h-217.5l-16.8-186.1c46.9-3.1,84.2-42.2,84.2-89.9C432.1,40.3,391.6,0,342,0s-90.1,40.3-90.1,90.1,10.5,48.1,27.3,64.5c-.2,1.9-.2,3.6,0,5.5l34.3,381.7c1.5,17.2,16,30.3,33.2,30.3h293.5l145.4,313.9c5.7,12.2,17.7,19.3,30.3,19.3s8.6-.8,12.8-2.5l118.5-48.9c17-7.1,25-26.5,17.9-43.5v.2Z"/>
  <path d="M387.3,1024c-43,0-84.8-8.2-124.5-24.5-41.4-17-78.5-41.8-110.2-73.8-31.7-32-56.2-69.3-72.8-110.9-17.3-43.3-25-88.9-23.1-135.7,2.5-61.5,22.1-120.9,56.6-171.7,26.4-39,60.8-71.8,100.6-96.3,17.5-10.8,40.6-3.8,49.3,14.8h0c7.4,15.9,1.6,34.8-13.3,44.1-31.4,19.4-58.5,45.3-79.4,76.2-27.3,40.2-42.8,87.2-44.8,135.9-1.5,37,4.6,73.1,18.2,107.3,13.1,32.9,32.6,62.5,57.7,87.9,25.2,25.4,54.6,45.1,87.4,58.5,34,13.9,70.1,20.4,107.1,19.2,56.5-1.8,109.7-21.3,154-56.4,35.5-28.2,62.7-64.2,79.7-105.3,6.7-16.2,24.4-24.8,41.2-20h0c19.8,5.6,30.4,27.2,22.6,46.2-8.4,20.2-18.7,39.6-31,58-19.2,28.6-42.6,53.9-69.6,75.3-55.9,44.3-123.2,69-194.6,71.3-3.7.1-7.3.2-10.9.2Z"/>
</svg>