<svg viewBox="0 0 40 40" fill="none" xmlns="http://www.w3.org/2000/svg">
<path d="M11.625 0.385742C17.2271 0.385836 21.7969 4.94456 21.7969 10.5498V20.4053H21.6719V20.5273H1.46094V10.5469C1.46094 4.94446 6.02268 0.385742 11.625 0.385742ZM11.6328 1.71875C6.76297 1.71894 2.79395 5.68022 2.79395 10.5498V19.1973H20.4639V10.5498C20.4639 5.67995 16.5027 1.71875 11.6328 1.71875Z" fill="#DF2530" stroke="#DF2530" stroke-width="0.25"/>
<path d="M21.7969 19.1943V29.1748C21.7969 34.7798 17.2387 39.3386 11.6338 39.3389C6.02313 39.3389 1.46387 34.78 1.46387 29.1748V19.1943H21.7969ZM2.79395 29.1748C2.79395 34.0447 6.75515 38.0059 11.625 38.0059C16.495 38.0058 20.4639 34.0445 20.4639 29.1748V20.5273H2.79395V29.1748Z" fill="#DF2530" stroke="#DF2530" stroke-width="0.25"/>
<path d="M28.333 19.1943C31.0606 19.1943 33.6228 20.2576 35.5518 22.1836C39.5311 26.163 39.5311 32.6399 35.5518 36.6221C33.6523 38.5214 31.1386 39.5755 28.458 39.6074V39.6143H28.333C25.6054 39.6142 23.0432 38.5501 21.1143 36.624C20.2499 35.7597 19.6775 34.9677 19.2041 33.9785L19.1494 33.8662L19.2617 33.8125L20.2373 33.3428L20.3496 33.2881L20.4043 33.4014C20.8085 34.2454 21.3025 34.9283 22.0576 35.6807C23.7342 37.3572 25.9634 38.2803 28.333 38.2803C30.7026 38.2803 32.9318 37.3572 34.6084 35.6807C38.0678 32.2212 38.068 26.5893 34.6084 23.127C32.9319 21.4505 30.7025 20.5273 28.333 20.5273C25.9635 20.5274 23.7341 21.4505 22.0576 23.127L22.0566 23.1279C21.9318 23.2501 21.8141 23.3778 21.6943 23.5088L21.6113 23.5996L21.5195 23.5186L20.709 22.8018L20.6152 22.7188L20.6982 22.625C20.8304 22.476 20.971 22.3269 21.1143 22.1836C23.0405 20.2546 25.6056 19.1944 28.333 19.1943Z" fill="#DF2530" stroke="#DF2530" stroke-width="0.25"/>
<path d="M34.6968 22.096L35.6394 23.0386L21.9689 36.7091L21.0263 35.7665L34.6968 22.096Z" fill="#DF2530" stroke="#DF2530" stroke-width="0.25"/>
<path d="M8.76953 35.041C9.03652 35.1745 9.46998 35.3553 9.77832 35.459L9.89648 35.499L9.85742 35.6172L9.5127 36.6426L9.47266 36.7607L9.35449 36.7207C8.98209 36.5966 8.49915 36.3941 8.17188 36.2305L8.05957 36.1748L8.11621 36.0625L8.60156 35.0957L8.6582 34.9844L8.76953 35.041Z" fill="#DF2530" stroke="#DF2530" stroke-width="0.25"/>
<path d="M5.04102 28.875V29C5.04102 31.0729 5.97391 33.0038 7.59961 34.2939L7.69727 34.3711L7.62012 34.4697L6.94727 35.3164L6.91016 35.3643H6.80371L6.76953 35.3369C4.82303 33.791 3.70801 31.4826 3.70801 29V28.875H5.04102Z" fill="#DF2530" stroke="#DF2530" stroke-width="0.25"/>
</svg>
