<svg version="1.1" id="Layer_1" xmlns="http://www.w3.org/2000/svg" x="0" y="0" viewBox="259.63 291.7 1401.67 296.4" style="enable-background:new 0 0 1920 1080" xml:space="preserve"><style>.st1{fill:none}.st2{fill:#e51b27}</style><path d="M816.8 519.68h-24.5v-12.87h63.22v12.87h-24.5v67.06H816.8v-67.06zm60.74 20.43h.23c1.05-2.26 2.92-4.31 5.59-6.15 2.67-1.84 6.11-2.77 10.33-2.77 3.61 0 6.68.6 9.2 1.81 2.52 1.21 4.57 2.79 6.15 4.74 1.58 1.96 2.71 4.22 3.39 6.77.68 2.56 1.02 5.23 1.02 8.02v34.21H899.9V559.3c0-1.5-.08-3.18-.23-5.02-.15-1.84-.55-3.57-1.19-5.19a9.731 9.731 0 0 0-2.99-4.06c-1.35-1.09-3.2-1.64-5.53-1.64-2.26 0-4.16.38-5.7 1.13-1.54.75-2.82 1.77-3.84 3.05-1.02 1.28-1.75 2.75-2.2 4.4-.45 1.66-.68 3.39-.68 5.19v29.58h-13.55v-85.35h13.55v38.72zm62.1 24.28c.45 4.06 2.03 7.23 4.74 9.48 2.71 2.26 5.98 3.39 9.82 3.39 3.39 0 6.23-.69 8.52-2.09 2.3-1.39 4.31-3.14 6.04-5.25l9.71 7.34c-3.16 3.91-6.7 6.7-10.61 8.35a31.396 31.396 0 0 1-12.3 2.48c-4.07 0-7.9-.68-11.52-2.03-3.61-1.36-6.74-3.28-9.37-5.76-2.64-2.48-4.72-5.47-6.27-8.98-1.54-3.5-2.31-7.39-2.31-11.68s.77-8.19 2.31-11.69 3.63-6.49 6.27-8.98c2.63-2.48 5.76-4.4 9.37-5.76 3.61-1.35 7.45-2.03 11.52-2.03 3.76 0 7.21.66 10.33 1.98 3.12 1.32 5.79 3.22 8.02 5.7 2.22 2.48 3.95 5.55 5.19 9.2 1.24 3.65 1.86 7.85 1.86 12.59v3.73h-41.32zm27.77-10.17c-.08-3.99-1.32-7.13-3.73-9.43s-5.76-3.44-10.05-3.44c-4.07 0-7.28 1.17-9.65 3.5s-3.82 5.46-4.35 9.37h27.78zm60.85-47.41h31.5c5.27 0 10.35.81 15.24 2.43 4.89 1.62 9.22 4.08 12.98 7.39 3.76 3.31 6.77 7.47 9.03 12.48 2.26 5.01 3.39 10.9 3.39 17.67 0 6.85-1.3 12.78-3.89 17.78-2.6 5.01-5.95 9.15-10.05 12.42a42.91 42.91 0 0 1-13.66 7.34c-5.01 1.62-9.92 2.43-14.73 2.43h-29.81v-79.94zm24.84 67.06c4.44 0 8.64-.51 12.59-1.52 3.95-1.02 7.4-2.6 10.33-4.74s5.25-4.93 6.94-8.35c1.69-3.42 2.54-7.58 2.54-12.48 0-4.82-.75-8.96-2.26-12.42-1.51-3.46-3.6-6.27-6.27-8.41-2.67-2.15-5.83-3.73-9.48-4.74-3.65-1.02-7.66-1.52-12.02-1.52h-12.98v54.19h10.61zm109.06 12.87h-12.87v-8.69h-.23c-1.28 2.71-3.24 5.06-5.87 7.06-2.64 1.99-6.21 2.99-10.73 2.99-3.61 0-6.68-.59-9.2-1.75-2.52-1.17-4.57-2.75-6.15-4.74-1.58-1.99-2.71-4.27-3.39-6.83-.68-2.56-1.02-5.23-1.02-8.02v-34.21h13.55v27.44c0 1.51.07 3.18.23 5.02.15 1.84.54 3.57 1.18 5.19.64 1.62 1.62 2.98 2.94 4.06 1.32 1.09 3.18 1.64 5.59 1.64 2.26 0 4.16-.37 5.7-1.13 1.54-.75 2.82-1.77 3.84-3.05 1.02-1.28 1.75-2.75 2.2-4.4.45-1.65.68-3.39.68-5.19v-29.58h13.55v54.19zm15.35-54.19h12.87v8.69h.22c1.28-2.71 3.24-5.06 5.87-7.06 2.64-1.99 6.21-2.99 10.73-2.99 3.61 0 6.68.6 9.2 1.81 2.52 1.21 4.57 2.79 6.15 4.74 1.58 1.96 2.71 4.22 3.39 6.77.68 2.56 1.02 5.23 1.02 8.02v34.21h-13.55V559.3c0-1.5-.08-3.18-.23-5.02-.15-1.84-.55-3.57-1.19-5.19a9.731 9.731 0 0 0-2.99-4.06c-1.35-1.09-3.2-1.64-5.53-1.64-2.26 0-4.16.38-5.7 1.13-1.54.75-2.82 1.77-3.84 3.05-1.02 1.28-1.75 2.75-2.2 4.4-.45 1.66-.68 3.39-.68 5.19v29.58h-13.55v-54.19zm101.84 16.25c-1.58-1.65-3.24-2.97-4.97-3.95-1.73-.98-3.5-1.47-5.3-1.47-2.48 0-4.71.45-6.66 1.35-1.96.9-3.63 2.11-5.02 3.61a15.353 15.353 0 0 0-3.16 5.19 17.53 17.53 0 0 0-1.07 6.1c0 2.11.36 4.14 1.07 6.1.71 1.96 1.77 3.69 3.16 5.19 1.39 1.51 3.06 2.71 5.02 3.61 1.96.9 4.18 1.35 6.66 1.35 2.1 0 4.06-.43 5.87-1.3 1.81-.86 3.35-2.13 4.63-3.78l9.03 9.71c-1.36 1.36-2.92 2.52-4.69 3.5a31.89 31.89 0 0 1-5.36 2.37c-1.81.6-3.54 1.03-5.19 1.3-1.66.26-3.09.4-4.29.4-4.07 0-7.9-.68-11.52-2.03-3.61-1.36-6.74-3.28-9.37-5.76-2.64-2.48-4.72-5.47-6.27-8.98s-2.31-7.39-2.31-11.68.77-8.19 2.31-11.69 3.63-6.49 6.27-8.98c2.63-2.48 5.76-4.4 9.37-5.76 3.61-1.35 7.45-2.03 11.52-2.03 3.46 0 6.94.66 10.44 1.98 3.5 1.32 6.57 3.41 9.2 6.27l-9.37 9.38zm51.26 30.49h-.34c-1.96 3.09-4.44 5.33-7.45 6.72-3.01 1.39-6.32 2.09-9.94 2.09-2.48 0-4.91-.34-7.28-1.02-2.37-.68-4.48-1.69-6.32-3.05-1.85-1.35-3.33-3.05-4.46-5.08-1.13-2.03-1.69-4.4-1.69-7.11 0-2.94.53-5.44 1.58-7.51 1.05-2.07 2.46-3.8 4.23-5.19 1.77-1.39 3.82-2.5 6.16-3.33 2.33-.83 4.76-1.45 7.28-1.86 2.52-.41 5.06-.68 7.62-.79s4.97-.17 7.23-.17h3.39v-1.47c0-3.39-1.17-5.93-3.5-7.62-2.33-1.69-5.3-2.54-8.92-2.54-2.86 0-5.53.51-8.02 1.52-2.48 1.02-4.63 2.39-6.44 4.12l-7.11-7.11c3.01-3.09 6.53-5.31 10.55-6.66 4.03-1.35 8.19-2.03 12.48-2.03 3.84 0 7.07.43 9.71 1.3 2.64.87 4.82 1.98 6.55 3.33 1.73 1.36 3.07 2.92 4.01 4.69.94 1.77 1.62 3.56 2.03 5.36.41 1.81.66 3.56.73 5.25.08 1.69.11 3.18.11 4.46v31.16h-12.19v-7.46zm-.79-16.82H1327c-1.88 0-3.99.08-6.32.22-2.33.15-4.54.51-6.61 1.07-2.07.56-3.82 1.39-5.25 2.48-1.43 1.09-2.15 2.62-2.15 4.57 0 1.28.28 2.35.85 3.22.56.87 1.3 1.6 2.2 2.2.9.6 1.92 1.04 3.05 1.3s2.26.4 3.39.4c4.66 0 8.11-1.11 10.33-3.33 2.22-2.22 3.33-5.25 3.33-9.09v-3.04zm27.54-29.92h12.87v8.69h.22c1.28-2.71 3.24-5.06 5.87-7.06 2.64-1.99 6.21-2.99 10.73-2.99 3.61 0 6.68.6 9.2 1.81 2.52 1.21 4.57 2.79 6.15 4.74 1.58 1.96 2.71 4.22 3.39 6.77.68 2.56 1.02 5.23 1.02 8.02v34.21h-13.55V559.3c0-1.5-.08-3.18-.23-5.02-.15-1.84-.55-3.57-1.19-5.19a9.731 9.731 0 0 0-2.99-4.06c-1.35-1.09-3.2-1.64-5.53-1.64-2.26 0-4.16.38-5.7 1.13-1.54.75-2.82 1.77-3.84 3.05-1.02 1.28-1.75 2.75-2.2 4.4-.45 1.66-.68 3.39-.68 5.19v29.58h-13.55v-54.19zm99.47-25.74h18.86l38.73 59.39h.23v-59.39h14.22v79.93h-18.06l-39.51-61.31h-.23v61.31h-14.23v-79.93zm89.86 0h27.78c3.84 0 7.54.36 11.12 1.07 3.57.72 6.76 1.94 9.54 3.67 2.78 1.73 5 4.06 6.66 7 1.65 2.94 2.48 6.66 2.48 11.18 0 5.8-1.6 10.65-4.8 14.56-3.2 3.92-7.77 6.29-13.72 7.11l21.23 35.34h-17.16l-18.52-33.87h-10.38v33.87h-14.23v-79.93zm25.29 33.87c2.03 0 4.06-.09 6.1-.28 2.03-.19 3.9-.64 5.59-1.36a9.603 9.603 0 0 0 4.12-3.27c1.05-1.47 1.58-3.52 1.58-6.15 0-2.33-.49-4.21-1.47-5.65a9.18 9.18 0 0 0-3.84-3.22c-1.58-.71-3.33-1.18-5.25-1.41-1.92-.23-3.78-.34-5.59-.34h-12.3v21.68h11.06zm45.5-33.87h14.23v79.93h-14.23v-79.93z" style="fill:#808285"/><path class="st1" d="M1260.24 370.69c-6.23 0-10.47 4.31-12.72 12.94-1.2 4.63-1.79 11.17-1.79 19.63 0 9.02.57 15.82 1.72 20.4 2.11 8.28 6.18 12.42 12.2 12.42 3.79 0 7.18-1.69 10.18-5.06 3.01-3.37 4.51-5.74 4.51-7.11v-42.67c0-1.43-1.29-3.54-3.86-6.34-2.59-2.81-6-4.21-10.24-4.21zm158.92 1.63c-1.49-4.11-4.47-6.17-8.94-6.17-4.58 0-7.72 2.37-9.41 7.11-1.69 4.74-2.65 11.65-2.88 20.74h23.65c-.12-10.34-.92-17.57-2.42-21.68zm-631.62 49.5c0 3.84.87 6.74 2.61 8.72 1.74 1.98 3.7 2.96 5.87 2.96 2.85 0 5.51-.85 7.97-2.57 1.37-1.03 3-2.64 4.88-4.81v-25.69c-4.68 1.15-8.8 2.95-12.34 5.41-5.99 4.19-8.99 9.51-8.99 15.98zm-127.87-49.5c-1.49-4.11-4.47-6.17-8.94-6.17-4.59 0-7.73 2.37-9.42 7.11-1.69 4.74-2.65 11.65-2.88 20.74h23.65c-.11-10.34-.92-17.57-2.41-21.68zm984.66-65.85c-8.19 0-14.87 6.67-14.87 14.87 0 8.19 6.67 14.87 14.87 14.87 8.19 0 14.81-6.67 14.81-14.87-.01-8.2-6.62-14.87-14.81-14.87zm10.06 24.29h-5.8l-4.9-8.83h-1.08v4.17c0 2.55 0 3.77 2.84 3.77v.88h-10.1v-.88c2.5 0 2.5-1.23 2.5-3.77v-10.11c0-2.06 0-3.73-2.16-3.73v-.88h9.91c4.13 0 7.31 1.67 7.31 5.21 0 2.59-1.86 4.41-4.32 5l3 5.44c.58 1.04 1.47 2.85 2.8 2.85v.88z"/><path class="st1" d="M1643.74 312.46h-1.12v8.24c.29.09.87.15 1.33.15 2.44 0 3.82-2.11 3.82-4.37-.01-1.77-.59-4.02-4.03-4.02z"/><path d="M609.51 334.63c7.82 4.47 12.57 13.03 14.23 25.69h5.06l-.17-35.39H522.95l-.17 35.39h5.06c1.08-12.55 5.83-21.11 14.22-25.69 4.57-2.46 11.14-3.81 19.71-4.04v92.45c0 6.41-1.13 10.68-3.38 12.82-2.26 2.15-6.81 3.22-13.67 3.22v4.46h62.56v-4.46c-7.14 0-11.84-1.06-14.1-3.17-2.26-2.12-3.38-6.41-3.38-12.87v-92.45c8.74.23 15.3 1.57 19.71 4.04z"/><path d="M680.42 421.6c-3.32 3.65-6.1 6.25-8.33 7.8-3.67 2.56-7.56 3.85-11.68 3.85-8.64 0-14.68-4.83-18.12-14.48-1.89-5.14-3.04-11.23-3.43-18.25h44.82c0-1.6-.2-3.91-.6-6.95-.8-6.45-2.23-11.71-4.29-15.77-2.75-5.37-6.66-9.57-11.76-12.6-5.09-3.03-10.52-4.54-16.3-4.54-10.13 0-18.78 3.73-25.96 11.19-7.18 7.45-10.77 17.92-10.77 31.41 0 14.91 3.77 25.77 11.33 32.57 7.55 6.8 15.64 10.19 24.28 10.19 6.01 0 11.33-1.11 15.96-3.34 7.15-3.48 13.44-9.68 18.87-18.59l-4.02-2.49zm-39.11-48.33c1.69-4.74 4.83-7.11 9.42-7.11 4.47 0 7.45 2.06 8.94 6.17 1.49 4.11 2.29 11.34 2.41 21.68h-23.65c.23-9.09 1.19-16.01 2.88-20.74z"/><path d="M758.53 435.82 732.31 396l18.15-22.38c1.87-2.34 4.11-4.09 6.73-5.23 1.42-.57 3.21-1.06 5.37-1.46v-4.2h-29.41v4.2c3.2.11 5.5.4 6.89.86 1.4.46 2.09 1.54 2.09 3.26 0 1.37-.71 3.09-2.13 5.15-1.43 2.06-5.16 6.89-11.2 14.47-2.24-3.04-4.83-6.88-7.77-11.53-2.94-4.65-4.41-7.63-4.41-8.95 0-1.09.34-1.76 1.03-2.02s3.06-.68 7.11-1.25v-4.2h-43.87v4.2c2.11.29 3.72.77 4.8 1.46 1.09.68 2.54 2.43 4.37 5.23l22.55 34.56c-1.89 2.4-4.29 5.55-7.2 9.44-2.92 3.9-5.26 6.93-7.03 9.11-4.29 5.2-7.47 8.52-9.56 9.95-2.09 1.43-4.58 2.37-7.5 2.83v4.03h29.63v-4.03c-2.91-.11-5.1-.45-6.55-1.02-1.46-.57-2.18-1.78-2.18-3.61 0-1.55 1.91-5.01 5.74-10.39 1.85-2.6 4.65-6.3 8.41-11.09 1.3 2.02 2.74 4.2 4.32 6.54 1.58 2.35 2.8 4.18 3.64 5.51 1.54 2.4 2.66 4.26 3.34 5.57 1.2 2.17 1.8 3.75 1.8 4.72 0 1.49-.71 2.46-2.14 2.92-1.43.45-3.37.74-5.83.85v4.03h42.26v-4.03c-1.31-.51-2.36-1.01-3.13-1.5-.77-.48-1.47-1.21-2.1-2.18z"/><path d="m880.05 394.17-9.6-4.63c-4.63-2.22-7.77-4.39-9.43-6.51-1.71-2.06-2.57-4.11-2.57-6.17 0-2.51.96-4.86 2.87-7.03 1.91-2.17 4.81-3.26 8.69-3.26 5.03 0 9.43 1.8 13.2 5.4 3.77 3.6 6.48 8.37 8.14 14.31h4.46v-25.37h-3.86c-.4 1.09-.9 1.93-1.5 2.53-.6.6-1.62.9-3.04.9-1.03 0-3.63-.61-7.8-1.84s-8.11-1.84-11.82-1.84c-8.51 0-15.14 2.47-19.88 7.41-4.74 4.94-7.11 10.81-7.11 17.61 0 5.37 1.51 10.03 4.54 13.97 2.97 3.95 7.88 7.6 14.74 10.97l13.03 6.34c2.8 1.37 4.83 2.65 6.08 3.86 2.29 2.23 3.43 4.91 3.43 8.06 0 3.32-1.06 5.98-3.17 8.01-2.12 2.03-5.43 3.04-9.94 3.04-4.92 0-9.71-1.73-14.4-5.18-4.68-3.46-7.88-9.39-9.6-17.79h-4.88v15.49l-.04-.06c-1.15 1.14-1.99 1.84-2.53 2.09-.54.26-1.16.39-1.84.39-.8 0-1.53-.44-2.18-1.33-.66-.88-.99-1.96-.99-3.21v-42.51c0-10.4-3.31-17.54-9.94-21.43-6.68-3.82-15-5.74-24.94-5.74-9.26 0-17.05 1.97-23.4 5.9-6.34 3.93-9.51 9.26-9.51 15.98 0 3.76 1.19 6.64 3.56 8.64 2.37 1.99 5.24 2.99 8.61 2.99 2.91 0 5.47-.9 7.67-2.7s3.3-4.35 3.3-7.67c0-1.31-.24-2.56-.72-3.73-.49-1.17-1.13-2.24-1.93-3.21l-1.03-1.2c-.46-.51-.8-1-1.03-1.45-.23-.46-.34-1.03-.34-1.72 0-1.77 1.01-3.24 3.04-4.41 2.03-1.17 4.61-1.76 7.76-1.76 5.6 0 9.5 1.25 11.7 3.73 2.2 2.49 3.3 6.33 3.3 11.53v12.77c-16.23 4.69-28.14 9.36-35.74 14-7.6 4.63-11.39 10.9-11.39 18.79 0 6.47 2.08 11.24 6.25 14.3 4.17 3.05 8.66 4.58 13.46 4.58 3.6 0 7.25-.63 10.97-1.88 6.11-2 11.6-5.44 16.46-10.3.63 3.37 1.63 5.93 3 7.64 2.4 3.04 6.2 4.55 11.4 4.55 2.91 0 5.68-.51 8.31-1.54 3.14-1.2 6.07-3.08 8.78-5.65v7.19h4.2c.92-1.83 1.73-3.13 2.45-3.9.71-.77 1.55-1.16 2.53-1.16.4 0 .72.04.98.09.26.05.93.28 2.02.68l3 1.03c3.48 1.2 6.41 2.04 8.78 2.53 2.37.48 4.73.72 7.07.72 9.43 0 16.5-2.81 21.21-8.44 4.72-5.63 7.07-11.7 7.07-18.21 0-6.68-2.29-12.31-6.85-16.88-2.78-2.68-7.12-5.45-13.06-8.31zm-71.17 31.95c-1.88 2.17-3.51 3.78-4.88 4.81-2.46 1.72-5.12 2.57-7.97 2.57-2.17 0-4.13-.98-5.87-2.96-1.74-1.98-2.61-4.87-2.61-8.72 0-6.47 3-11.8 9-15.98 3.54-2.46 7.66-4.26 12.34-5.41v25.69zm218.59 4.82c-7.77 5.03-16.15 7.54-25.17 7.54-14.72 0-24.79-7.59-30.21-22.8-2.91-8.11-4.36-18.45-4.36-31.02 0-17.08 2.46-30.69 7.4-40.83 4.94-10.14 13.27-15.21 25.04-15.21 10.38 0 19.68 4.74 27.91 14.23 4.39 5.14 8.7 12.17 12.92 21.08h4.46v-41.05h-4.88c-.34 1.88-1.19 3.68-2.53 5.4-1.34 1.71-3.14 2.57-5.36 2.57-.85 0-5.02-1.36-12.5-4.07s-14.88-4.07-22.2-4.07c-16.91 0-31.19 5.54-42.85 16.62-12.4 11.83-18.59 27.28-18.59 46.36 0 19.26 6.48 34.57 19.45 45.93 11.71 10.28 26.22 15.43 43.53 15.43 11.32 0 21.6-3.06 30.86-9.17 5.19-3.43 11.22-8.97 18.08-16.63l-5.23-4.29c-6.07 6.4-11.32 11.06-15.77 13.98zm132.89-81.41c3.72 0 6.9-1.33 9.55-3.98 2.66-2.66 3.99-5.87 3.99-9.64 0-3.77-1.32-6.99-3.99-9.64-2.65-2.66-5.84-3.99-9.55-3.99-3.77 0-6.99 1.33-9.64 3.99-2.65 2.65-3.99 5.87-3.99 9.64 0 3.77 1.33 6.98 3.99 9.64 2.66 2.65 5.88 3.98 9.64 3.98z"/><path d="M1211.9 428.71V324.93h-33.25v4.2c3.25.74 5.48 1.69 6.69 2.85 1.2 1.16 1.8 3.61 1.8 7.35v89.38c0 3.89-.65 6.44-1.94 7.67-1.14 1.09-3.01 1.97-5.55 2.68-2.47-.6-4.26-1.35-5.24-2.29-1.14-1.09-1.71-3.54-1.71-7.37v-66.68h-33.68v4.2c3.54.63 5.92 1.6 7.11 2.9 1.2 1.3 1.79 3.73 1.79 7.3v51.59c0 4-.85 6.77-2.56 8.31-.97.88-2.69 1.56-5.07 2.06-2.6-.67-4.54-1.53-5.73-2.61-1.34-1.23-2.01-3.81-2.01-7.76v-42.17c0-9.42-2.2-16.09-6.61-20.01-4.39-3.91-9.97-5.87-16.71-5.87-4.97 0-9.44 1.19-13.41 3.56-3.97 2.37-7.76 5.73-11.34 10.07v-49.36h-33.94v4.2c3.72.46 6.2 1.4 7.46 2.81 1.26 1.41 1.88 3.88 1.88 7.39v89.38c0 4-.75 6.67-2.27 8.01-1.51 1.34-3.87 2.22-7.07 2.62v4.2h42.24v-4.2c-3.14-.63-5.27-1.49-6.42-2.57-1.15-1.09-1.72-3.54-1.72-7.37v-46.96c0-1.03 1.61-2.94 4.84-5.74 3.23-2.8 6.36-4.2 9.39-4.2 4.06 0 6.78 1.8 8.14 5.4.81 2 1.21 5 1.21 9v42.51c0 3.82-.57 6.28-1.71 7.37-1.14 1.09-3.29 1.94-6.43 2.57v4.2h120.39v-4.2c-3.2-.81-5.42-1.8-6.69-3-1.24-1.21-1.88-3.75-1.88-7.64zm166.35-54.42c0-4.46-1.45-7.84-4.34-10.16-2.89-2.32-6.14-3.47-9.75-3.47-4.81 0-9.04 1.43-12.71 4.29-3.66 2.86-7.36 6.71-11.08 11.57v-13.8h-33.25v4.2c3.71.46 6.2 1.35 7.46 2.68 1.25 1.33 1.88 3.83 1.88 7.52v47.73l-.17 5.15c-.12 3.43-.83 5.74-2.15 6.94-1.04.95-2.76 1.64-5.09 2.09v-2.95c-4.01-.34-6.69-1.21-8.06-2.59-1.38-1.39-2.07-3.9-2.07-7.52V324.93h-37.79v4.2c5.36.23 8.92.88 10.62 1.94 1.72 1.07 2.57 3.82 2.57 8.25v32.14c-3.37-3.54-6.16-6-8.39-7.37-3.61-2.29-7.72-3.43-12.34-3.43-9.26 0-17.18 4.01-23.79 12.04-6.6 8.02-9.89 18.98-9.89 32.87 0 12.45 3.16 22.31 9.51 29.56 6.34 7.26 13.8 10.88 22.37 10.88 5.03 0 9.71-1.31 14.05-3.94 2.74-1.66 5.77-4.2 9.08-7.63v11.57c7.2-2 12.23-3.23 15.09-3.72 2.66-.46 8.39-1.12 17.1-1.99v3.23h46.7v-4.2c-5.03-.46-8.38-1.4-10.07-2.85-1.69-1.45-2.53-5.07-2.53-10.86v-33.23c0-5.38 1.19-9.52 3.56-12.4 2.38-2.88 4.74-4.33 7.09-4.33 1.09 0 3 1.74 5.72 5.23 2.72 3.48 5.94 5.23 9.66 5.23 3.26 0 5.92-1.11 7.95-3.34 2.04-2.23 3.06-5.06 3.06-8.49zm-103.91 49.62c0 1.38-1.5 3.74-4.51 7.11s-6.4 5.06-10.18 5.06c-6.02 0-10.09-4.14-12.2-12.42-1.15-4.58-1.72-11.37-1.72-20.4 0-8.45.6-15 1.79-19.63 2.25-8.63 6.49-12.94 12.72-12.94 4.24 0 7.66 1.4 10.24 4.2 2.57 2.8 3.86 4.92 3.86 6.34v42.68z"/><path d="M1439.91 421.6c-3.32 3.65-6.1 6.25-8.33 7.8-3.66 2.56-7.56 3.85-11.68 3.85-8.64 0-14.69-4.83-18.12-14.48-1.88-5.14-3.04-11.23-3.43-18.25h44.83c0-1.6-.21-3.91-.61-6.95-.8-6.45-2.23-11.71-4.29-15.77-2.75-5.37-6.67-9.57-11.75-12.6-5.09-3.03-10.53-4.54-16.31-4.54-10.12 0-18.77 3.73-25.95 11.19-7.18 7.45-10.76 17.92-10.76 31.41 0 14.91 3.77 25.77 11.32 32.57 7.56 6.8 15.65 10.19 24.28 10.19 6.01 0 11.33-1.11 15.97-3.34 7.15-3.48 13.44-9.68 18.87-18.59l-4.04-2.49zm-39.11-48.33c1.69-4.74 4.83-7.11 9.41-7.11 4.48 0 7.46 2.06 8.94 6.17 1.5 4.11 2.3 11.34 2.41 21.68h-23.65c.24-9.09 1.2-16.01 2.89-20.74z"/><path d="M1523.25 429.4v-42.42c0-9.77-2.08-16.6-6.22-20.48-4.14-3.88-9.99-5.83-17.52-5.83-5.26 0-10.04 1.39-14.35 4.15-4.31 2.77-7.87 6.27-10.67 10.5v-12.6h-33.25v4.2c3.77.46 6.27 1.38 7.5 2.76 1.22 1.39 1.84 3.86 1.84 7.43v51.59c0 4-.76 6.67-2.27 8.01-1.51 1.34-3.87 2.22-7.07 2.62v4.2h42.25v-4.2c-3.14-.63-5.29-1.49-6.43-2.57-1.14-1.09-1.71-3.54-1.71-7.37v-46.96c1.38-2.23 3.33-4.44 5.87-6.64 2.55-2.2 5.33-3.3 8.35-3.3 4.06 0 6.77 1.8 8.15 5.4.8 2 1.2 5 1.2 9v42.51c0 3.82-.57 6.28-1.71 7.37-1.14 1.09-3.29 1.94-6.42 2.57v4.2h41.22v-4.2c-3.14-.4-5.39-1.18-6.73-2.32-1.36-1.14-2.03-3.68-2.03-7.62zm32.27-107.13c-4.51 0-8.08 1.37-10.71 4.11-2.63 2.74-3.94 6.32-3.94 10.71 0 4 1.22 7.27 3.68 9.81 2.46 2.54 5.57 3.81 9.34 3.81.57 0 1.83-.14 3.77-.43 1.14 0 2.03.38 2.65 1.11.57.8.86 1.77.86 2.91 0 4.23-2.4 8.74-7.19 13.54-2.69 2.69-6.66 5.86-11.92 9.51l2.06 3.86c7.94-4.46 14.14-9.06 18.59-13.8 6.97-7.48 10.46-15.77 10.46-24.85 0-6.28-1.7-11.24-5.1-14.87-3.4-3.6-7.59-5.42-12.55-5.42zm58.13 71.9-9.6-4.63c-4.63-2.22-7.77-4.39-9.42-6.51-1.71-2.06-2.57-4.11-2.57-6.17 0-2.51.95-4.86 2.87-7.03 1.91-2.17 4.81-3.26 8.7-3.26 5.02 0 9.42 1.8 13.19 5.4 3.77 3.6 6.49 8.37 8.15 14.31h4.45v-25.37h-3.85c-.4 1.09-.9 1.93-1.5 2.53-.6.6-1.61.9-3.04.9-1.03 0-3.63-.61-7.8-1.84s-8.11-1.84-11.82-1.84c-8.52 0-15.14 2.47-19.88 7.41-4.75 4.94-7.11 10.81-7.11 17.61 0 5.37 1.51 10.03 4.54 13.97 2.97 3.95 7.88 7.6 14.74 10.97l13.02 6.34c2.8 1.37 4.83 2.65 6.09 3.86 2.28 2.23 3.43 4.91 3.43 8.06 0 3.32-1.06 5.98-3.17 8.01-2.11 2.03-5.43 3.04-9.94 3.04-4.91 0-9.71-1.73-14.4-5.18-4.68-3.46-7.88-9.39-9.6-17.79h-4.88v29.05h4.2c.92-1.83 1.73-3.13 2.45-3.9.72-.77 1.55-1.16 2.53-1.16.4 0 .72.04.99.09.25.05.92.28 2.01.68l3 1.03c3.48 1.2 6.41 2.04 8.78 2.53 2.37.48 4.73.72 7.07.72 9.43 0 16.5-2.81 21.21-8.44s7.07-11.7 7.07-18.21c0-6.68-2.28-12.31-6.85-16.88-2.77-2.67-7.11-5.44-13.06-8.3zm37.95-67.15-3-5.44c2.45-.59 4.32-2.41 4.32-5 0-3.53-3.18-5.21-7.31-5.21h-9.91v.88c2.16 0 2.16 1.67 2.16 3.73v10.11c0 2.55 0 3.77-2.5 3.77v.88h10.1v-.88c-2.84 0-2.84-1.23-2.84-3.77v-4.17h1.08l4.9 8.83h5.8v-.88c-1.34 0-2.22-1.81-2.8-2.85zm-7.66-6.17c-.46 0-1.04-.05-1.33-.15v-8.24h1.12c3.44 0 4.02 2.26 4.02 4.02.01 2.26-1.36 4.37-3.81 4.37z"/><path d="M1644.33 304.37c-9.37 0-17.02 7.6-17.02 16.97s7.65 16.98 17.02 16.98 16.97-7.61 16.97-16.98c0-9.37-7.6-16.97-16.97-16.97zm0 31.84c-8.19 0-14.87-6.67-14.87-14.87 0-8.19 6.67-14.87 14.87-14.87 8.19 0 14.81 6.67 14.81 14.87-.01 8.19-6.62 14.87-14.81 14.87z"/><path class="st2" d="M468.13 387.98c-3.54 0-6.74 1.4-9.09 3.7l-38.3 39.54c-14.79 12.81-28.88 19.58-50.68 19.71v-.01c-21.26-.34-35.15-7.08-49.73-19.7l-38.63-39.54c-2.34-2.3-5.55-3.7-9.09-3.7-7.15 0-12.98 5.8-12.98 12.96 0 3.58 1.45 6.83 3.8 9.18l50.27 49c14.12 11.57 34.14 17.42 56.36 17.42 22.18 0 42.19-5.85 56.34-17.42l50.92-49c2.36-2.36 3.8-5.6 3.8-9.18-.01-7.16-5.83-12.96-12.99-12.96z"/><path class="st2" d="M325.3 408.76c14.71 14.03 23.31 22.99 44.65 23.31 22.18.32 30.87-9.17 45.81-23.48l29.62-30.06c2.36-2.35 3.8-5.6 3.8-9.18 0-7.16-5.82-12.98-12.98-12.98-3.67 0-7.01 1.55-9.37 4.01l-33.6 33.8c-5.75 6.28-14.02 10.24-23.2 10.24-9.16 0-17.4-3.91-23.13-10.12l-32.98-33.93c-2.38-2.47-5.69-4.01-9.41-4.01-7.16 0-12.96 5.82-12.96 12.98 0 3.58 1.44 6.83 3.8 9.18l29.95 30.24z"/><path class="st2" d="M363.26 382.79a9.49 9.49 0 0 0 6.94 2.98 9.61 9.61 0 0 0 6.91-2.92l36.63-36.2c2.38-2.35 3.84-5.61 3.84-9.21 0-7.17-5.82-12.99-12.98-12.99-3.51 0-6.67 1.39-9.01 3.65l-21.32 21.62a6.048 6.048 0 0 1-4.24 1.75 5.95 5.95 0 0 1-4.37-1.88l-20.55-21.49a12.933 12.933 0 0 0-9-3.65c-7.18 0-12.98 5.82-12.98 12.99 0 3.6 1.48 6.86 3.85 9.21l36.28 36.14z"/><path class="st2" d="M370.05 325.8c9.4 0 17.03-7.65 17.03-17.05 0-9.42-7.63-17.05-17.03-17.05-9.44 0-17.05 7.64-17.05 17.05 0 9.4 7.61 17.05 17.05 17.05z"/></svg>