<?xml version="1.0" encoding="utf-8"?>
<!-- Generator: Adobe Illustrator 26.5.0, SVG Export Plug-In . SVG Version: 6.00 Build 0)  -->
<svg version="1.1" id="Layer_1" xmlns="http://www.w3.org/2000/svg" xmlns:xlink="http://www.w3.org/1999/xlink" x="0px" y="0px"
  viewBox="259.63 291.7 1401.67 296.4" style="enable-background:new 0 0 1920 1080;" xml:space="preserve">
<style type="text/css">
  .st0{fill:#808285;}
  .st1{fill:none;} 
  .st2{fill:#E51B27;}
</style>
<g>
  <g>
    <g>
      <path class="st0" d="M816.8,519.68h-24.5v-12.87h63.22v12.87h-24.5v67.06H816.8V519.68z"></path>
      <path class="st0" d="M877.54,540.11h0.23c1.05-2.26,2.92-4.31,5.59-6.15c2.67-1.84,6.11-2.77,10.33-2.77 c3.61,0,6.68,0.6,9.2,1.81c2.52,1.21,4.57,2.79,6.15,4.74c1.58,1.96,2.71,4.22,3.39,6.77c0.68,2.56,1.02,5.23,1.02,8.02v34.21 H899.9V559.3c0-1.5-0.08-3.18-0.23-5.02c-0.15-1.84-0.55-3.57-1.19-5.19c-0.64-1.62-1.64-2.97-2.99-4.06 c-1.35-1.09-3.2-1.64-5.53-1.64c-2.26,0-4.16,0.38-5.7,1.13c-1.54,0.75-2.82,1.77-3.84,3.05c-1.02,1.28-1.75,2.75-2.2,4.4 c-0.45,1.66-0.68,3.39-0.68,5.19v29.58h-13.55v-85.35h13.55V540.11z"></path>
      <path class="st0" d="M939.64,564.39c0.45,4.06,2.03,7.23,4.74,9.48c2.71,2.26,5.98,3.39,9.82,3.39c3.39,0,6.23-0.69,8.52-2.09 c2.3-1.39,4.31-3.14,6.04-5.25l9.71,7.34c-3.16,3.91-6.7,6.7-10.61,8.35c-3.92,1.65-8.02,2.48-12.3,2.48 c-4.07,0-7.9-0.68-11.52-2.03c-3.61-1.36-6.74-3.28-9.37-5.76c-2.64-2.48-4.72-5.47-6.27-8.98c-1.54-3.5-2.31-7.39-2.31-11.68 c0-4.29,0.77-8.19,2.31-11.69c1.54-3.5,3.63-6.49,6.27-8.98c2.63-2.48,5.76-4.4,9.37-5.76c3.61-1.35,7.45-2.03,11.52-2.03 c3.76,0,7.21,0.66,10.33,1.98c3.12,1.32,5.79,3.22,8.02,5.7c2.22,2.48,3.95,5.55,5.19,9.2c1.24,3.65,1.86,7.85,1.86,12.59v3.73 H939.64z M967.41,554.22c-0.08-3.99-1.32-7.13-3.73-9.43s-5.76-3.44-10.05-3.44c-4.07,0-7.28,1.17-9.65,3.5 c-2.37,2.33-3.82,5.46-4.35,9.37H967.41z"></path>
      <path class="st0" d="M1028.26,506.81h31.5c5.27,0,10.35,0.81,15.24,2.43c4.89,1.62,9.22,4.08,12.98,7.39 c3.76,3.31,6.77,7.47,9.03,12.48c2.26,5.01,3.39,10.9,3.39,17.67c0,6.85-1.3,12.78-3.89,17.78c-2.6,5.01-5.95,9.15-10.05,12.42 c-4.11,3.28-8.66,5.72-13.66,7.34c-5.01,1.62-9.92,2.43-14.73,2.43h-29.81V506.81z M1053.1,573.87c4.44,0,8.64-0.51,12.59-1.52 c3.95-1.02,7.4-2.6,10.33-4.74s5.25-4.93,6.94-8.35c1.69-3.42,2.54-7.58,2.54-12.48c0-4.82-0.75-8.96-2.26-12.42 c-1.51-3.46-3.6-6.27-6.27-8.41c-2.67-2.15-5.83-3.73-9.48-4.74c-3.65-1.02-7.66-1.52-12.02-1.52h-12.98v54.19H1053.1z"></path>
      <path class="st0" d="M1162.16,586.74h-12.87v-8.69h-0.23c-1.28,2.71-3.24,5.06-5.87,7.06c-2.64,1.99-6.21,2.99-10.73,2.99 c-3.61,0-6.68-0.59-9.2-1.75c-2.52-1.17-4.57-2.75-6.15-4.74c-1.58-1.99-2.71-4.27-3.39-6.83c-0.68-2.56-1.02-5.23-1.02-8.02 v-34.21h13.55v27.44c0,1.51,0.07,3.18,0.23,5.02c0.15,1.84,0.54,3.57,1.18,5.19c0.64,1.62,1.62,2.98,2.94,4.06 c1.32,1.09,3.18,1.64,5.59,1.64c2.26,0,4.16-0.37,5.7-1.13c1.54-0.75,2.82-1.77,3.84-3.05c1.02-1.28,1.75-2.75,2.2-4.4 c0.45-1.65,0.68-3.39,0.68-5.19v-29.58h13.55V586.74z"></path>
      <path class="st0" d="M1177.51,532.55h12.87v8.69h0.22c1.28-2.71,3.24-5.06,5.87-7.06c2.64-1.99,6.21-2.99,10.73-2.99 c3.61,0,6.68,0.6,9.2,1.81c2.52,1.21,4.57,2.79,6.15,4.74c1.58,1.96,2.71,4.22,3.39,6.77c0.68,2.56,1.02,5.23,1.02,8.02v34.21 h-13.55V559.3c0-1.5-0.08-3.18-0.23-5.02c-0.15-1.84-0.55-3.57-1.19-5.19c-0.64-1.62-1.64-2.97-2.99-4.06 c-1.35-1.09-3.2-1.64-5.53-1.64c-2.26,0-4.16,0.38-5.7,1.13c-1.54,0.75-2.82,1.77-3.84,3.05c-1.02,1.28-1.75,2.75-2.2,4.4 c-0.45,1.66-0.68,3.39-0.68,5.19v29.58h-13.55V532.55z"></path>
      <path class="st0" d="M1279.35,548.8c-1.58-1.65-3.24-2.97-4.97-3.95c-1.73-0.98-3.5-1.47-5.3-1.47c-2.48,0-4.71,0.45-6.66,1.35 c-1.96,0.9-3.63,2.11-5.02,3.61c-1.39,1.51-2.45,3.24-3.16,5.19c-0.72,1.96-1.07,3.99-1.07,6.1c0,2.11,0.36,4.14,1.07,6.1 c0.71,1.96,1.77,3.69,3.16,5.19c1.39,1.51,3.06,2.71,5.02,3.61c1.96,0.9,4.18,1.35,6.66,1.35c2.1,0,4.06-0.43,5.87-1.3 c1.81-0.86,3.35-2.13,4.63-3.78l9.03,9.71c-1.36,1.36-2.92,2.52-4.69,3.5c-1.77,0.98-3.56,1.77-5.36,2.37 c-1.81,0.6-3.54,1.03-5.19,1.3c-1.66,0.26-3.09,0.4-4.29,0.4c-4.07,0-7.9-0.68-11.52-2.03c-3.61-1.36-6.74-3.28-9.37-5.76 c-2.64-2.48-4.72-5.47-6.27-8.98s-2.31-7.39-2.31-11.68c0-4.29,0.77-8.19,2.31-11.69s3.63-6.49,6.27-8.98 c2.63-2.48,5.76-4.4,9.37-5.76c3.61-1.35,7.45-2.03,11.52-2.03c3.46,0,6.94,0.66,10.44,1.98c3.5,1.32,6.57,3.41,9.2,6.27 L1279.35,548.8z"></path> <path class="st0" d="M1330.61,579.29h-0.34c-1.96,3.09-4.44,5.33-7.45,6.72c-3.01,1.39-6.32,2.09-9.94,2.09 c-2.48,0-4.91-0.34-7.28-1.02c-2.37-0.68-4.48-1.69-6.32-3.05c-1.85-1.35-3.33-3.05-4.46-5.08c-1.13-2.03-1.69-4.4-1.69-7.11 c0-2.94,0.53-5.44,1.58-7.51c1.05-2.07,2.46-3.8,4.23-5.19c1.77-1.39,3.82-2.5,6.16-3.33c2.33-0.83,4.76-1.45,7.28-1.86 c2.52-0.41,5.06-0.68,7.62-0.79s4.97-0.17,7.23-0.17h3.39v-1.47c0-3.39-1.17-5.93-3.5-7.62c-2.33-1.69-5.3-2.54-8.92-2.54 c-2.86,0-5.53,0.51-8.02,1.52c-2.48,1.02-4.63,2.39-6.44,4.12l-7.11-7.11c3.01-3.09,6.53-5.31,10.55-6.66 c4.03-1.35,8.19-2.03,12.48-2.03c3.84,0,7.07,0.43,9.71,1.3c2.64,0.87,4.82,1.98,6.55,3.33c1.73,1.36,3.07,2.92,4.01,4.69 c0.94,1.77,1.62,3.56,2.03,5.36c0.41,1.81,0.66,3.56,0.73,5.25c0.08,1.69,0.11,3.18,0.11,4.46v31.16h-12.19V579.29z  M1329.82,562.47h-2.82c-1.88,0-3.99,0.08-6.32,0.22c-2.33,0.15-4.54,0.51-6.61,1.07c-2.07,0.56-3.82,1.39-5.25,2.48 c-1.43,1.09-2.15,2.62-2.15,4.57c0,1.28,0.28,2.35,0.85,3.22c0.56,0.87,1.3,1.6,2.2,2.2c0.9,0.6,1.92,1.04,3.05,1.3 c1.13,0.26,2.26,0.4,3.39,0.4c4.66,0,8.11-1.11,10.33-3.33c2.22-2.22,3.33-5.25,3.33-9.09V562.47z"></path> <path class="st0" d="M1357.36,532.55h12.87v8.69h0.22c1.28-2.71,3.24-5.06,5.87-7.06c2.64-1.99,6.21-2.99,10.73-2.99 c3.61,0,6.68,0.6,9.2,1.81c2.52,1.21,4.57,2.79,6.15,4.74c1.58,1.96,2.71,4.22,3.39,6.77c0.68,2.56,1.02,5.23,1.02,8.02v34.21 h-13.55V559.3c0-1.5-0.08-3.18-0.23-5.02c-0.15-1.84-0.55-3.57-1.19-5.19c-0.64-1.62-1.64-2.97-2.99-4.06 c-1.35-1.09-3.2-1.64-5.53-1.64c-2.26,0-4.16,0.38-5.7,1.13c-1.54,0.75-2.82,1.77-3.84,3.05c-1.02,1.28-1.75,2.75-2.2,4.4 c-0.45,1.66-0.68,3.39-0.68,5.19v29.58h-13.55V532.55z"></path> <path class="st0" d="M1456.83,506.81h18.86l38.73,59.39h0.23v-59.39h14.22v79.93h-18.06l-39.51-61.31h-0.23v61.31h-14.23V506.81z "></path> <path class="st0" d="M1546.69,506.81h27.78c3.84,0,7.54,0.36,11.12,1.07c3.57,0.72,6.76,1.94,9.54,3.67c2.78,1.73,5,4.06,6.66,7 c1.65,2.94,2.48,6.66,2.48,11.18c0,5.8-1.6,10.65-4.8,14.56c-3.2,3.92-7.77,6.29-13.72,7.11l21.23,35.34h-17.16l-18.52-33.87 h-10.38v33.87h-14.23V506.81z M1571.98,540.68c2.03,0,4.06-0.09,6.1-0.28c2.03-0.19,3.9-0.64,5.59-1.36 c1.69-0.71,3.06-1.81,4.12-3.27c1.05-1.47,1.58-3.52,1.58-6.15c0-2.33-0.49-4.21-1.47-5.65c-0.98-1.43-2.26-2.5-3.84-3.22 c-1.58-0.71-3.33-1.18-5.25-1.41c-1.92-0.23-3.78-0.34-5.59-0.34h-12.3v21.68H1571.98z"></path> <path class="st0" d="M1617.48,506.81h14.23v79.93h-14.23V506.81z"></path></g> </g> <g><path class="st1" d="M1260.24,370.69c-6.23,0-10.47,4.31-12.72,12.94c-1.2,4.63-1.79,11.17-1.79,19.63 c0,9.02,0.57,15.82,1.72,20.4c2.11,8.28,6.18,12.42,12.2,12.42c3.79,0,7.18-1.69,10.18-5.06c3.01-3.37,4.51-5.74,4.51-7.11v-42.67 c0-1.43-1.29-3.54-3.86-6.34C1267.89,372.09,1264.48,370.69,1260.24,370.69z"></path><path class="st1" d="M1419.16,372.32c-1.49-4.11-4.47-6.17-8.94-6.17c-4.58,0-7.72,2.37-9.41,7.11 c-1.69,4.74-2.65,11.65-2.88,20.74h23.65C1421.46,383.66,1420.66,376.43,1419.16,372.32z"></path><path class="st1" d="M787.54,421.82c0,3.84,0.87,6.74,2.61,8.72c1.74,1.98,3.7,2.96,5.87,2.96c2.85,0,5.51-0.85,7.97-2.57 c1.37-1.03,3-2.64,4.88-4.81v-25.69c-4.68,1.15-8.8,2.95-12.34,5.41C790.54,410.03,787.54,415.35,787.54,421.82z"></path><path class="st1" d="M659.67,372.32c-1.49-4.11-4.47-6.17-8.94-6.17c-4.59,0-7.73,2.37-9.42,7.11 c-1.69,4.74-2.65,11.65-2.88,20.74h23.65C661.97,383.66,661.16,376.43,659.67,372.32z"></path><path class="st1" d="M1644.33,306.47c-8.19,0-14.87,6.67-14.87,14.87c0,8.19,6.67,14.87,14.87,14.87 c8.19,0,14.81-6.67,14.81-14.87C1659.13,313.14,1652.52,306.47,1644.33,306.47z M1654.39,330.76h-5.8l-4.9-8.83h-1.08v4.17 c0,2.55,0,3.77,2.84,3.77v0.88h-10.1v-0.88c2.5,0,2.5-1.23,2.5-3.77v-10.11c0-2.06,0-3.73-2.16-3.73v-0.88h9.91 c4.13,0,7.31,1.67,7.31,5.21c0,2.59-1.86,4.41-4.32,5l3,5.44c0.58,1.04,1.47,2.85,2.8,2.85V330.76z"></path><path class="st1" d="M1643.74,312.46h-1.12v8.24c0.29,0.09,0.87,0.15,1.33,0.15c2.44,0,3.82-2.11,3.82-4.37 C1647.76,314.71,1647.18,312.46,1643.74,312.46z"></path><path d="M609.51,334.63c7.82,4.47,12.57,13.03,14.23,25.69h5.06l-0.17-35.39H522.95l-0.17,35.39h5.06 c1.08-12.55,5.83-21.11,14.22-25.69c4.57-2.46,11.14-3.81,19.71-4.04v92.45c0,6.41-1.13,10.68-3.38,12.82 c-2.26,2.15-6.81,3.22-13.67,3.22v4.46h62.56v-4.46c-7.14,0-11.84-1.06-14.1-3.17c-2.26-2.12-3.38-6.41-3.38-12.87v-92.45 C598.54,330.82,605.1,332.16,609.51,334.63z"></path><path d="M680.42,421.6c-3.32,3.65-6.1,6.25-8.33,7.8c-3.67,2.56-7.56,3.85-11.68,3.85c-8.64,0-14.68-4.83-18.12-14.48 c-1.89-5.14-3.04-11.23-3.43-18.25h44.82c0-1.6-0.2-3.91-0.6-6.95c-0.8-6.45-2.23-11.71-4.29-15.77 c-2.75-5.37-6.66-9.57-11.76-12.6c-5.09-3.03-10.52-4.54-16.3-4.54c-10.13,0-18.78,3.73-25.96,11.19 c-7.18,7.45-10.77,17.92-10.77,31.41c0,14.91,3.77,25.77,11.33,32.57c7.55,6.8,15.64,10.19,24.28,10.19 c6.01,0,11.33-1.11,15.96-3.34c7.15-3.48,13.44-9.68,18.87-18.59L680.42,421.6z M641.31,373.27c1.69-4.74,4.83-7.11,9.42-7.11 c4.47,0,7.45,2.06,8.94,6.17c1.49,4.11,2.29,11.34,2.41,21.68h-23.65C638.66,384.92,639.62,378,641.31,373.27z"></path><path d="M758.53,435.82L732.31,396l18.15-22.38c1.87-2.34,4.11-4.09,6.73-5.23c1.42-0.57,3.21-1.06,5.37-1.46v-4.2h-29.41v4.2 c3.2,0.11,5.5,0.4,6.89,0.86c1.4,0.46,2.09,1.54,2.09,3.26c0,1.37-0.71,3.09-2.13,5.15c-1.43,2.06-5.16,6.89-11.2,14.47 c-2.24-3.04-4.83-6.88-7.77-11.53c-2.94-4.65-4.41-7.63-4.41-8.95c0-1.09,0.34-1.76,1.03-2.02s3.06-0.68,7.11-1.25v-4.2h-43.87 v4.2c2.11,0.29,3.72,0.77,4.8,1.46c1.09,0.68,2.54,2.43,4.37,5.23l22.55,34.56c-1.89,2.4-4.29,5.55-7.2,9.44 c-2.92,3.9-5.26,6.93-7.03,9.11c-4.29,5.2-7.47,8.52-9.56,9.95c-2.09,1.43-4.58,2.37-7.5,2.83v4.03h29.63v-4.03 c-2.91-0.11-5.1-0.45-6.55-1.02c-1.46-0.57-2.18-1.78-2.18-3.61c0-1.55,1.91-5.01,5.74-10.39c1.85-2.6,4.65-6.3,8.41-11.09 c1.3,2.02,2.74,4.2,4.32,6.54c1.58,2.35,2.8,4.18,3.64,5.51c1.54,2.4,2.66,4.26,3.34,5.57c1.2,2.17,1.8,3.75,1.8,4.72 c0,1.49-0.71,2.46-2.14,2.92c-1.43,0.45-3.37,0.74-5.83,0.85v4.03h42.26v-4.03c-1.31-0.51-2.36-1.01-3.13-1.5 C759.86,437.52,759.16,436.79,758.53,435.82z"></path><path d="M880.05,394.17l-9.6-4.63c-4.63-2.22-7.77-4.39-9.43-6.51c-1.71-2.06-2.57-4.11-2.57-6.17c0-2.51,0.96-4.86,2.87-7.03 c1.91-2.17,4.81-3.26,8.69-3.26c5.03,0,9.43,1.8,13.2,5.4c3.77,3.6,6.48,8.37,8.14,14.31h4.46v-25.37h-3.86 c-0.4,1.09-0.9,1.93-1.5,2.53c-0.6,0.6-1.62,0.9-3.04,0.9c-1.03,0-3.63-0.61-7.8-1.84c-4.17-1.23-8.11-1.84-11.82-1.84 c-8.51,0-15.14,2.47-19.88,7.41c-4.74,4.94-7.11,10.81-7.11,17.61c0,5.37,1.51,10.03,4.54,13.97c2.97,3.95,7.88,7.6,14.74,10.97 l13.03,6.34c2.8,1.37,4.83,2.65,6.08,3.86c2.29,2.23,3.43,4.91,3.43,8.06c0,3.32-1.06,5.98-3.17,8.01 c-2.12,2.03-5.43,3.04-9.94,3.04c-4.92,0-9.71-1.73-14.4-5.18c-4.68-3.46-7.88-9.39-9.6-17.79h-4.88v15.49l-0.04-0.06 c-1.15,1.14-1.99,1.84-2.53,2.09c-0.54,0.26-1.16,0.39-1.84,0.39c-0.8,0-1.53-0.44-2.18-1.33c-0.66-0.88-0.99-1.96-0.99-3.21 v-42.51c0-10.4-3.31-17.54-9.94-21.43c-6.68-3.82-15-5.74-24.94-5.74c-9.26,0-17.05,1.97-23.4,5.9 c-6.34,3.93-9.51,9.26-9.51,15.98c0,3.76,1.19,6.64,3.56,8.64c2.37,1.99,5.24,2.99,8.61,2.99c2.91,0,5.47-0.9,7.67-2.7 s3.3-4.35,3.3-7.67c0-1.31-0.24-2.56-0.72-3.73c-0.49-1.17-1.13-2.24-1.93-3.21l-1.03-1.2c-0.46-0.51-0.8-1-1.03-1.45 c-0.23-0.46-0.34-1.03-0.34-1.72c0-1.77,1.01-3.24,3.04-4.41c2.03-1.17,4.61-1.76,7.76-1.76c5.6,0,9.5,1.25,11.7,3.73 c2.2,2.49,3.3,6.33,3.3,11.53v12.77c-16.23,4.69-28.14,9.36-35.74,14c-7.6,4.63-11.39,10.9-11.39,18.79 c0,6.47,2.08,11.24,6.25,14.3c4.17,3.05,8.66,4.58,13.46,4.58c3.6,0,7.25-0.63,10.97-1.88c6.11-2,11.6-5.44,16.46-10.3 c0.63,3.37,1.63,5.93,3,7.64c2.4,3.04,6.2,4.55,11.4,4.55c2.91,0,5.68-0.51,8.31-1.54c3.14-1.2,6.07-3.08,8.78-5.65v7.19h4.2 c0.92-1.83,1.73-3.13,2.45-3.9c0.71-0.77,1.55-1.16,2.53-1.16c0.4,0,0.72,0.04,0.98,0.09c0.26,0.05,0.93,0.28,2.02,0.68l3,1.03 c3.48,1.2,6.41,2.04,8.78,2.53c2.37,0.48,4.73,0.72,7.07,0.72c9.43,0,16.5-2.81,21.21-8.44c4.72-5.63,7.07-11.7,7.07-18.21 c0-6.68-2.29-12.31-6.85-16.88C890.33,399.8,885.99,397.03,880.05,394.17z M808.88,426.12c-1.88,2.17-3.51,3.78-4.88,4.81 c-2.46,1.72-5.12,2.57-7.97,2.57c-2.17,0-4.13-0.98-5.87-2.96c-1.74-1.98-2.61-4.87-2.61-8.72c0-6.47,3-11.8,9-15.98 c3.54-2.46,7.66-4.26,12.34-5.41V426.12z"></path><path d="M1027.47,430.94c-7.77,5.03-16.15,7.54-25.17,7.54c-14.72,0-24.79-7.59-30.21-22.8c-2.91-8.11-4.36-18.45-4.36-31.02 c0-17.08,2.46-30.69,7.4-40.83c4.94-10.14,13.27-15.21,25.04-15.21c10.38,0,19.68,4.74,27.91,14.23 c4.39,5.14,8.7,12.17,12.92,21.08h4.46v-41.05h-4.88c-0.34,1.88-1.19,3.68-2.53,5.4c-1.34,1.71-3.14,2.57-5.36,2.57 c-0.85,0-5.02-1.36-12.5-4.07c-7.48-2.71-14.88-4.07-22.2-4.07c-16.91,0-31.19,5.54-42.85,16.62 c-12.4,11.83-18.59,27.28-18.59,46.36c0,19.26,6.48,34.57,19.45,45.93c11.71,10.28,26.22,15.43,43.53,15.43 c11.32,0,21.6-3.06,30.86-9.17c5.19-3.43,11.22-8.97,18.08-16.63l-5.23-4.29C1037.17,423.36,1031.92,428.02,1027.47,430.94z"></path><path d="M1160.36,349.53c3.72,0,6.9-1.33,9.55-3.98c2.66-2.66,3.99-5.87,3.99-9.64c0-3.77-1.32-6.99-3.99-9.64 c-2.65-2.66-5.84-3.99-9.55-3.99c-3.77,0-6.99,1.33-9.64,3.99c-2.65,2.65-3.99,5.87-3.99,9.64c0,3.77,1.33,6.98,3.99,9.64 C1153.38,348.2,1156.6,349.53,1160.36,349.53z"></path><path d="M1211.9,428.71V324.93h-33.25v4.2c3.25,0.74,5.48,1.69,6.69,2.85c1.2,1.16,1.8,3.61,1.8,7.35v89.38 c0,3.89-0.65,6.44-1.94,7.67c-1.14,1.09-3.01,1.97-5.55,2.68c-2.47-0.6-4.26-1.35-5.24-2.29c-1.14-1.09-1.71-3.54-1.71-7.37 v-66.68h-33.68v4.2c3.54,0.63,5.92,1.6,7.11,2.9c1.2,1.3,1.79,3.73,1.79,7.3v51.59c0,4-0.85,6.77-2.56,8.31 c-0.97,0.88-2.69,1.56-5.07,2.06c-2.6-0.67-4.54-1.53-5.73-2.61c-1.34-1.23-2.01-3.81-2.01-7.76v-42.17 c0-9.42-2.2-16.09-6.61-20.01c-4.39-3.91-9.97-5.87-16.71-5.87c-4.97,0-9.44,1.19-13.41,3.56c-3.97,2.37-7.76,5.73-11.34,10.07 v-49.36h-33.94v4.2c3.72,0.46,6.2,1.4,7.46,2.81c1.26,1.41,1.88,3.88,1.88,7.39v89.38c0,4-0.75,6.67-2.27,8.01 c-1.51,1.34-3.87,2.22-7.07,2.62v4.2h42.24v-4.2c-3.14-0.63-5.27-1.49-6.42-2.57c-1.15-1.09-1.72-3.54-1.72-7.37v-46.96 c0-1.03,1.61-2.94,4.84-5.74c3.23-2.8,6.36-4.2,9.39-4.2c4.06,0,6.78,1.8,8.14,5.4c0.81,2,1.21,5,1.21,9v42.51 c0,3.82-0.57,6.28-1.71,7.37c-1.14,1.09-3.29,1.94-6.43,2.57v4.2h38.95h2.27h37.36h2.18h39.63v-4.2c-3.2-0.81-5.42-1.8-6.69-3 C1212.54,435.14,1211.9,432.6,1211.9,428.71z"></path><path d="M1378.25,374.29c0-4.46-1.45-7.84-4.34-10.16c-2.89-2.32-6.14-3.47-9.75-3.47c-4.81,0-9.04,1.43-12.71,4.29 c-3.66,2.86-7.36,6.71-11.08,11.57v-13.8h-33.25v4.2c3.71,0.46,6.2,1.35,7.46,2.68c1.25,1.33,1.88,3.83,1.88,7.52v47.73 l-0.17,5.15c-0.12,3.43-0.83,5.74-2.15,6.94c-1.04,0.95-2.76,1.64-5.09,2.09v-2.95c-4.01-0.34-6.69-1.21-8.06-2.59 c-1.38-1.39-2.07-3.9-2.07-7.52V324.93h-37.79v4.2c5.36,0.23,8.92,0.88,10.62,1.94c1.72,1.07,2.57,3.82,2.57,8.25v32.14 c-3.37-3.54-6.16-6-8.39-7.37c-3.61-2.29-7.72-3.43-12.34-3.43c-9.26,0-17.18,4.01-23.79,12.04c-6.6,8.02-9.89,18.98-9.89,32.87 c0,12.45,3.16,22.31,9.51,29.56c6.34,7.26,13.8,10.88,22.37,10.88c5.03,0,9.71-1.31,14.05-3.94c2.74-1.66,5.77-4.2,9.08-7.63 v11.57c7.2-2,12.23-3.23,15.09-3.72c2.66-0.46,8.39-1.12,17.1-1.99v3.23h46.7v-4.2c-5.03-0.46-8.38-1.4-10.07-2.85 c-1.69-1.45-2.53-5.07-2.53-10.86v-33.23c0-5.38,1.19-9.52,3.56-12.4c2.38-2.88,4.74-4.33,7.09-4.33c1.09,0,3,1.74,5.72,5.23 c2.72,3.48,5.94,5.23,9.66,5.23c3.26,0,5.92-1.11,7.95-3.34C1377.23,380.55,1378.25,377.72,1378.25,374.29z M1274.34,423.91 c0,1.38-1.5,3.74-4.51,7.11c-3.01,3.37-6.4,5.06-10.18,5.06c-6.02,0-10.09-4.14-12.2-12.42c-1.15-4.58-1.72-11.37-1.72-20.4 c0-8.45,0.6-15,1.79-19.63c2.25-8.63,6.49-12.94,12.72-12.94c4.24,0,7.66,1.4,10.24,4.2c2.57,2.8,3.86,4.92,3.86,6.34V423.91z"></path><path d="M1439.91,421.6c-3.32,3.65-6.1,6.25-8.33,7.8c-3.66,2.56-7.56,3.85-11.68,3.85c-8.64,0-14.69-4.83-18.12-14.48 c-1.88-5.14-3.04-11.23-3.43-18.25h44.83c0-1.6-0.21-3.91-0.61-6.95c-0.8-6.45-2.23-11.71-4.29-15.77 c-2.75-5.37-6.67-9.57-11.75-12.6c-5.09-3.03-10.53-4.54-16.31-4.54c-10.12,0-18.77,3.73-25.95,11.19 c-7.18,7.45-10.76,17.92-10.76,31.41c0,14.91,3.77,25.77,11.32,32.57c7.56,6.8,15.65,10.19,24.28,10.19 c6.01,0,11.33-1.11,15.97-3.34c7.15-3.48,13.44-9.68,18.87-18.59L1439.91,421.6z M1400.8,373.27c1.69-4.74,4.83-7.11,9.41-7.11 c4.48,0,7.46,2.06,8.94,6.17c1.5,4.11,2.3,11.34,2.41,21.68h-23.65C1398.15,384.92,1399.11,378,1400.8,373.27z"></path><path d="M1523.25,429.4v-42.42c0-9.77-2.08-16.6-6.22-20.48c-4.14-3.88-9.99-5.83-17.52-5.83c-5.26,0-10.04,1.39-14.35,4.15 c-4.31,2.77-7.87,6.27-10.67,10.5v-12.6h-33.25v4.2c3.77,0.46,6.27,1.38,7.5,2.76c1.22,1.39,1.84,3.86,1.84,7.43v51.59 c0,4-0.76,6.67-2.27,8.01c-1.51,1.34-3.87,2.22-7.07,2.62v4.2h42.25v-4.2c-3.14-0.63-5.29-1.49-6.43-2.57 c-1.14-1.09-1.71-3.54-1.71-7.37v-46.96c1.38-2.23,3.33-4.44,5.87-6.64c2.55-2.2,5.33-3.3,8.35-3.3c4.06,0,6.77,1.8,8.15,5.4 c0.8,2,1.2,5,1.2,9v42.51c0,3.82-0.57,6.28-1.71,7.37c-1.14,1.09-3.29,1.94-6.42,2.57v4.2h41.22v-4.2 c-3.14-0.4-5.39-1.18-6.73-2.32C1523.92,435.88,1523.25,433.34,1523.25,429.4z"></path><path d="M1555.52,322.27c-4.51,0-8.08,1.37-10.71,4.11c-2.63,2.74-3.94,6.32-3.94,10.71c0,4,1.22,7.27,3.68,9.81 c2.46,2.54,5.57,3.81,9.34,3.81c0.57,0,1.83-0.14,3.77-0.43c1.14,0,2.03,0.38,2.65,1.11c0.57,0.8,0.86,1.77,0.86,2.91 c0,4.23-2.4,8.74-7.19,13.54c-2.69,2.69-6.66,5.86-11.92,9.51l2.06,3.86c7.94-4.46,14.14-9.06,18.59-13.8 c6.97-7.48,10.46-15.77,10.46-24.85c0-6.28-1.7-11.24-5.1-14.87C1564.67,324.09,1560.48,322.27,1555.52,322.27z"></path><path d="M1613.65,394.17l-9.6-4.63c-4.63-2.22-7.77-4.39-9.42-6.51c-1.71-2.06-2.57-4.11-2.57-6.17c0-2.51,0.95-4.86,2.87-7.03 c1.91-2.17,4.81-3.26,8.7-3.26c5.02,0,9.42,1.8,13.19,5.4c3.77,3.6,6.49,8.37,8.15,14.31h4.45v-25.37h-3.85 c-0.4,1.09-0.9,1.93-1.5,2.53c-0.6,0.6-1.61,0.9-3.04,0.9c-1.03,0-3.63-0.61-7.8-1.84c-4.17-1.23-8.11-1.84-11.82-1.84 c-8.52,0-15.14,2.47-19.88,7.41c-4.75,4.94-7.11,10.81-7.11,17.61c0,5.37,1.51,10.03,4.54,13.97c2.97,3.95,7.88,7.6,14.74,10.97 l13.02,6.34c2.8,1.37,4.83,2.65,6.09,3.86c2.28,2.23,3.43,4.91,3.43,8.06c0,3.32-1.06,5.98-3.17,8.01 c-2.11,2.03-5.43,3.04-9.94,3.04c-4.91,0-9.71-1.73-14.4-5.18c-4.68-3.46-7.88-9.39-9.6-17.79h-4.88v29.05h4.2 c0.92-1.83,1.73-3.13,2.45-3.9c0.72-0.77,1.55-1.16,2.53-1.16c0.4,0,0.72,0.04,0.99,0.09c0.25,0.05,0.92,0.28,2.01,0.68l3,1.03 c3.48,1.2,6.41,2.04,8.78,2.53c2.37,0.48,4.73,0.72,7.07,0.72c9.43,0,16.5-2.81,21.21-8.44s7.07-11.7,7.07-18.21 c0-6.68-2.28-12.31-6.85-16.88C1623.94,399.8,1619.6,397.03,1613.65,394.17z"></path><path d="M1651.6,327.02l-3-5.44c2.45-0.59,4.32-2.41,4.32-5c0-3.53-3.18-5.21-7.31-5.21h-9.91v0.88c2.16,0,2.16,1.67,2.16,3.73 v10.11c0,2.55,0,3.77-2.5,3.77v0.88h10.1v-0.88c-2.84,0-2.84-1.23-2.84-3.77v-4.17h1.08l4.9,8.83h5.8v-0.88 C1653.06,329.87,1652.18,328.06,1651.6,327.02z M1643.94,320.85c-0.46,0-1.04-0.05-1.33-0.15v-8.24h1.12 c3.44,0,4.02,2.26,4.02,4.02C1647.76,318.74,1646.39,320.85,1643.94,320.85z"></path><path d="M1644.33,304.37c-9.37,0-17.02,7.6-17.02,16.97c0,9.37,7.65,16.98,17.02,16.98c9.37,0,16.97-7.61,16.97-16.98 C1661.3,311.97,1653.7,304.37,1644.33,304.37z M1644.33,336.21c-8.19,0-14.87-6.67-14.87-14.87c0-8.19,6.67-14.87,14.87-14.87 c8.19,0,14.81,6.67,14.81,14.87C1659.13,329.53,1652.52,336.21,1644.33,336.21z"></path><path class="st2" d="M468.13,387.98c-3.54,0-6.74,1.4-9.09,3.7l-38.3,39.54c-14.79,12.81-28.88,19.58-50.68,19.71v-0.01 c-21.26-0.34-35.15-7.08-49.73-19.7l-38.63-39.54c-2.34-2.3-5.55-3.7-9.09-3.7c-7.15,0-12.98,5.8-12.98,12.96 c0,3.58,1.45,6.83,3.8,9.18l50.27,49c14.12,11.57,34.14,17.42,56.36,17.42c22.18,0,42.19-5.85,56.34-17.42l50.92-49 c2.36-2.36,3.8-5.6,3.8-9.18C481.11,393.78,475.29,387.98,468.13,387.98z"></path><path class="st2" d="M325.3,408.76c14.71,14.03,23.31,22.99,44.65,23.31c22.18,0.32,30.87-9.17,45.81-23.48l29.62-30.06 c2.36-2.35,3.8-5.6,3.8-9.18c0-7.16-5.82-12.98-12.98-12.98c-3.67,0-7.01,1.55-9.37,4.01l-33.6,33.8 c-5.75,6.28-14.02,10.24-23.2,10.24c-9.16,0-17.4-3.91-23.13-10.12l-32.98-33.93c-2.38-2.47-5.69-4.01-9.41-4.01 c-7.16,0-12.96,5.82-12.96,12.98c0,3.58,1.44,6.83,3.8,9.18L325.3,408.76z"></path><path class="st2" d="M363.26,382.79c1.73,1.84,4.2,2.98,6.94,2.98c2.71,0,5.16-1.12,6.91-2.92l36.63-36.2 c2.38-2.35,3.84-5.61,3.84-9.21c0-7.17-5.82-12.99-12.98-12.99c-3.51,0-6.67,1.39-9.01,3.65l-21.32,21.62 c-1.1,1.08-2.6,1.75-4.24,1.75c-1.74,0-3.28-0.72-4.37-1.88l-20.55-21.49c-2.34-2.26-5.52-3.65-9-3.65 c-7.18,0-12.98,5.82-12.98,12.99c0,3.6,1.48,6.86,3.85,9.21L363.26,382.79z"></path><path class="st2" d="M370.05,325.8c9.4,0,17.03-7.65,17.03-17.05c0-9.42-7.63-17.05-17.03-17.05c-9.44,0-17.05,7.64-17.05,17.05 C353,318.15,360.61,325.8,370.05,325.8z"></path>
    </g>
  </g>
</svg>