<svg xmlns="http://www.w3.org/2000/svg" viewBox="0 0 522.09999 342.00001">
  <g style="fill: #da2530" transform="translate(-2.6,-4.1999998)">
    <path d="m 218.9,129.4 c 13.2,11.3 25.6,17.4 44.7,17.8 19.6,-0.1 32.2,-6.2 45.5,-17.8 l 34.4,-35.6 c 2.1,-2.1 5,-3.4 8.1,-3.4 6.4,0 11.6,5.2 11.6,11.6 0,3.2 -1.3,6.2 -3.4,8.3 l -45.8,44 c -12.7,10.4 -30.7,15.7 -50.7,15.7 -19.9,0 -37.9,-5.2 -50.7,-15.7 l -44.9,-43.8 c -2.1,-2.1 -3.4,-5 -3.4,-8.3 0,-6.4 5.2,-11.6 11.6,-11.6 3.2,0 6,1.3 8.1,3.4 z" />
    <path d="m 242.7,96.3 c 5.2,5.6 12.6,9.1 20.7,9.1 8.3,0 15.7,-3.5 20.9,-9.2 l 30.2,-30.4 c 2.1,-2.2 5.2,-3.6 8.4,-3.6 6.4,0 11.6,5.2 11.6,11.6 0,3.2 -1.3,6.2 -3.4,8.3 l -26.6,27 c -13.4,12.9 -21.3,21.4 -41.2,21.1 -19.2,-0.3 -26.9,-8.3 -40,-21 L 196.5,82 c -2.1,-2.1 -3.4,-5 -3.4,-8.3 0,-6.4 5.2,-11.6 11.6,-11.6 3.4,0 6.3,1.4 8.4,3.6 z" />
    <path d="m 224.8,53.5 c -2.1,-2.1 -3.5,-5 -3.5,-8.3 0,-6.4 5.2,-11.6 11.6,-11.6 3.1,0 6,1.3 8.1,3.2 l 18.5,19.3 c 1,1 2.4,1.7 3.9,1.7 1.5,0 2.8,-0.6 3.8,-1.5 l 19.2,-19.5 c 2.1,-2 4.9,-3.2 8.1,-3.2 6.4,0 11.6,5.2 11.6,11.6 0,3.2 -1.3,6.2 -3.5,8.3 L 269.7,86 c -1.5,1.7 -3.8,2.7 -6.2,2.7 -2.5,0 -4.6,-1 -6.3,-2.7 z" />
    <circle cx="263.60001" cy="19.5" r="15.3" />
  </g>
  <g style="fill: #000" transform="translate(-2.6,-4.1999998)">
    <path d="m 257.5,246.4 c 1.5,-0.1 2.7,-0.6 3.4,-1.3 0.7,-0.7 1.1,-1.8 1.1,-3.8 v -42 c 0,-1.7 -0.3,-2.8 -0.8,-3.5 -0.5,-0.7 -1.8,-1.1 -3.5,-1.3 v -2 h 16 v 23.2 c 1.7,-2.1 3.5,-3.6 5.3,-4.8 1.8,-1.1 3.9,-1.7 6.3,-1.7 3.2,0 5.7,1 7.8,2.8 2.1,1.8 3.1,5 3.1,9.4 v 19.9 c 0,1.8 0.3,3.1 1,3.6 0.7,0.6 1.7,1 3.2,1.4 v 2 h -19.6 v -2 c 1.5,-0.3 2.5,-0.7 3.1,-1.3 0.6,-0.6 0.8,-1.7 0.8,-3.5 v -20 c 0,-1.8 -0.1,-3.4 -0.6,-4.2 -0.7,-1.7 -2,-2.5 -3.8,-2.5 -1.4,0 -2.9,0.7 -4.5,2 -1.6,1.3 -2.2,2.2 -2.2,2.7 v 22.1 c 0,1.8 0.3,2.9 0.8,3.5 0.6,0.6 1.5,1 3.1,1.3 v 2 h -19.8 v -2.1 z" />
    <path d="m 299,246.4 c 1.4,-0.3 2.4,-0.6 2.9,-1.1 0.8,-0.7 1.1,-2.1 1.1,-3.9 v -24.2 c 0,-1.7 -0.3,-2.8 -0.8,-3.5 -0.6,-0.6 -1.7,-1.1 -3.4,-1.4 v -2 h 15.7 v 31.4 c 0,1.8 0.3,2.9 0.8,3.5 0.6,0.6 1.5,0.8 3.1,1.3 v 2 h -19.6 z m 5.4,-53.1 c 1.3,-1.3 2.8,-1.8 4.5,-1.8 1.8,0 3.2,0.6 4.5,1.8 1.3,1.3 1.8,2.8 1.8,4.5 0,1.8 -0.7,3.2 -1.8,4.5 -1.3,1.3 -2.8,1.8 -4.5,1.8 -1.8,0 -3.4,-0.6 -4.5,-1.8 -1.3,-1.3 -1.8,-2.8 -1.8,-4.5 -0.1,-1.7 0.6,-3.2 1.8,-4.5 z m 36.9,21.7 c 3.1,-3.8 6.9,-5.6 11.2,-5.6 2.2,0 4.1,0.6 5.9,1.7 1,0.7 2.4,1.8 3.9,3.5 v -15.1 c 0,-2.1 -0.4,-3.4 -1.3,-3.9 -0.9,-0.5 -2.5,-0.8 -5,-1 v -2 h 17.7 v 47.6 c 0,1.7 0.3,2.8 1,3.5 0.7,0.7 2,1 3.8,1.1 v 2 c -4.6,0.4 -7.7,0.8 -9,1 -1.4,0.3 -3.8,0.8 -7.1,1.7 V 244 c -1.5,1.5 -2.9,2.8 -4.3,3.5 -2.1,1.3 -4.2,1.8 -6.6,1.8 -4.1,0 -7.6,-1.7 -10.5,-5.2 -2.9,-3.4 -4.5,-8.1 -4.5,-13.9 0.1,-6.2 1.7,-11.4 4.8,-15.2 z m 18.8,27.5 c 1.4,-1.5 2.1,-2.7 2.1,-3.4 v -20.2 c 0,-0.7 -0.6,-1.7 -1.8,-2.9 -1.3,-1.3 -2.8,-2 -4.8,-2 -2.9,0 -4.9,2.1 -6,6.2 -0.6,2.2 -0.8,5.3 -0.8,9.2 0,4.2 0.3,7.4 0.8,9.7 1,3.9 2.9,5.9 5.7,5.9 1.8,-0.2 3.4,-1 4.8,-2.5 z" />
    <path d="m 377.5,246.4 c 1.5,-0.1 2.7,-0.6 3.4,-1.1 0.6,-0.6 1,-1.7 1,-3.2 l 0.1,-2.4 v -22.4 c 0,-1.7 -0.3,-2.9 -0.8,-3.5 -0.6,-0.6 -1.8,-1 -3.5,-1.3 v -2 h 15.5 v 6.4 c 1.8,-2.2 3.5,-4.1 5.2,-5.5 1.7,-1.4 3.8,-2 6,-2 1.7,0 3.2,0.6 4.6,1.7 1.4,1.1 2.1,2.7 2.1,4.8 0,1.7 -0.4,2.9 -1.4,3.9 -1,1 -2.2,1.5 -3.8,1.5 -1.8,0 -3.2,-0.8 -4.6,-2.5 -1.3,-1.7 -2.2,-2.5 -2.7,-2.5 -1.1,0 -2.2,0.7 -3.4,2 -1.1,1.4 -1.7,3.4 -1.7,5.9 v 15.7 c 0,2.7 0.4,4.5 1.3,5 0.8,0.7 2.4,1.1 4.8,1.4 v 2 h -22 z" />
    <path d="m 413.6,214.6 c 3.4,-3.5 7.4,-5.3 12.2,-5.3 2.7,0 5.3,0.7 7.7,2.1 2.4,1.4 4.2,3.4 5.5,5.9 1,2 1.7,4.3 2,7.4 0.1,1.4 0.3,2.5 0.3,3.2 h -21 c 0.1,3.4 0.7,6.2 1.7,8.5 1.7,4.5 4.5,6.9 8.5,6.9 2,0 3.8,-0.6 5.5,-1.8 1,-0.7 2.4,-2 3.9,-3.6 l 2,1.1 c -2.5,4.2 -5.5,7.1 -8.8,8.8 -2.2,1.1 -4.6,1.5 -7.6,1.5 -4.1,0 -7.8,-1.5 -11.5,-4.8 -3.5,-3.2 -5.3,-8.3 -5.3,-15.3 -0.1,-6.2 1.6,-11.1 4.9,-14.6 z m 17.5,10.4 c 0,-4.8 -0.4,-8.1 -1.1,-10.1 -0.7,-2 -2.1,-2.9 -4.2,-2.9 -2.1,0 -3.6,1.1 -4.5,3.4 -0.8,2.2 -1.3,5.5 -1.4,9.7 z m 65.8,10.9 h 2.2 c 0.8,3.9 2.2,6.7 4.5,8.3 2.2,1.7 4.5,2.4 6.7,2.4 2.1,0 3.6,-0.4 4.6,-1.4 1,-1 1.5,-2.2 1.5,-3.8 0,-1.5 -0.6,-2.8 -1.7,-3.8 -0.6,-0.6 -1.5,-1.1 -2.8,-1.8 l -6.2,-2.9 c -3.2,-1.5 -5.5,-3.4 -6.9,-5.2 -1.4,-1.8 -2.1,-4.1 -2.1,-6.6 0,-3.2 1.1,-6 3.4,-8.3 2.2,-2.4 5.3,-3.5 9.4,-3.5 1.8,0 3.6,0.3 5.6,0.8 2,0.5 3.2,0.8 3.6,0.8 0.7,0 1.1,-0.1 1.4,-0.4 0.3,-0.3 0.6,-0.7 0.7,-1.3 h 1.8 v 11.9 h -1.9 c -0.8,-2.8 -2.1,-5 -3.9,-6.7 -1.8,-1.7 -3.9,-2.5 -6.3,-2.5 -1.8,0 -3.2,0.6 -4.1,1.5 -0.8,1 -1.4,2.1 -1.4,3.4 0,1 0.4,2 1.3,2.9 0.8,1 2.2,2 4.5,3.1 l 4.5,2.2 c 2.8,1.4 4.9,2.7 6.2,3.9 2.1,2.1 3.2,4.8 3.2,8 0,3.1 -1.1,5.9 -3.4,8.5 -2.3,2.6 -5.6,3.9 -9.9,3.9 -1.1,0 -2.2,-0.1 -3.4,-0.3 -1.1,-0.3 -2.5,-0.7 -4.2,-1.3 l -1.4,-0.6 c -0.6,-0.1 -0.8,-0.3 -1,-0.3 H 501 c -0.4,0 -0.8,0.1 -1.3,0.6 -0.3,0.4 -0.7,1 -1.1,1.8 h -2 v -13.6 z m -375.1,-3.7 c 3.6,-2.2 9.2,-4.3 16.9,-6.6 v -6 c 0,-2.4 -0.6,-4.2 -1.5,-5.5 -1,-1.1 -2.9,-1.8 -5.6,-1.8 -1.5,0 -2.7,0.3 -3.6,0.8 -1,0.6 -1.4,1.3 -1.4,2.1 0,0.3 0,0.6 0.1,0.8 0.1,0.3 0.3,0.4 0.4,0.7 l 0.4,0.6 c 0.4,0.4 0.7,1 0.8,1.5 0.3,0.6 0.3,1.1 0.3,1.8 0,1.5 -0.6,2.8 -1.5,3.6 -1,0.8 -2.2,1.3 -3.6,1.3 -1.5,0 -2.9,-0.4 -4.1,-1.4 -1.1,-1 -1.7,-2.2 -1.7,-4.1 0,-3.2 1.5,-5.6 4.5,-7.6 2.9,-1.8 6.7,-2.8 11.1,-2.8 4.6,0 8.5,0.8 11.8,2.7 3.1,1.8 4.6,5.2 4.6,10.1 v 20 c 0,0.6 0.1,1.1 0.4,1.5 0.3,0.4 0.7,0.6 1,0.6 0.3,0 0.6,0 0.8,-0.1 0.3,-0.1 0.7,-0.4 1.3,-1 l 1.3,1.7 c -1.7,1.8 -3.4,3.2 -5.3,3.9 -1.3,0.4 -2.5,0.7 -3.9,0.7 -2.4,0 -4.2,-0.7 -5.3,-2.1 -0.7,-0.8 -1.1,-2 -1.4,-3.6 -2.2,2.2 -4.9,3.9 -7.7,4.9 -1.8,0.6 -3.5,0.8 -5.2,0.8 -2.2,0 -4.3,-0.7 -6.3,-2.1 -2,-1.4 -2.9,-3.6 -2.9,-6.7 -0.1,-3.5 1.8,-6.4 5.3,-8.7 z m 14.4,10.7 c 0.7,-0.4 1.4,-1.3 2.2,-2.2 v -12.2 c -2.2,0.6 -4.2,1.4 -5.9,2.5 -2.8,2 -4.2,4.5 -4.2,7.6 0,1.8 0.4,3.2 1.3,4.1 0.8,1 1.7,1.4 2.8,1.4 1.4,0 2.7,-0.4 3.8,-1.2 z M 117.7,327 c 2.2,-0.1 3.8,-0.4 4.6,-1 1.5,-0.8 2.2,-2.5 2.2,-4.9 v -39.9 c 0,-2.4 -0.7,-3.9 -2.1,-4.8 -0.8,-0.4 -2.5,-0.8 -4.9,-1.1 v -2.1 h 28 v 2.1 c -2.4,0.1 -4.1,0.4 -5,1 -1.5,0.8 -2.4,2.5 -2.4,4.9 v 17.1 h 19.7 v -17.1 c 0,-2.4 -0.7,-4.1 -2.2,-4.9 -1,-0.6 -2.7,-0.8 -5,-1 v -2.1 h 28 v 2.1 c -2.4,0.1 -4.1,0.6 -4.9,1 -1.5,0.8 -2.2,2.4 -2.2,4.8 v 40 c 0,2.4 0.8,4.1 2.4,4.9 1,0.6 2.5,0.8 4.8,0.8 v 2.1 h -28 v -2.1 c 2.4,-0.1 4.1,-0.4 5,-1 1.5,-0.8 2.2,-2.5 2.2,-4.9 v -18.8 h -19.7 v 19 c 0,2.5 0.8,4.1 2.5,5 1,0.4 2.7,0.8 4.9,0.8 v 2.1 h -28 l 0.1,-2 c -0.1,0 0,0 0,0 z m 66.6,-31.2 c 3.5,-3.8 8,-5.7 13.3,-5.7 5.5,0 9.9,2 13.4,5.9 3.5,3.9 5.2,8.7 5.2,14.3 0,5.5 -1.7,10.2 -5.2,14.3 -3.5,3.9 -8,6 -13.4,6 -5.3,0 -9.8,-2 -13.3,-5.7 -3.5,-3.9 -5.3,-8.7 -5.3,-14.4 0.1,-6 1.8,-10.8 5.3,-14.7 z m 7.9,26.6 c 1,3.6 2.8,5.3 5.6,5.3 2.7,0 4.3,-1.4 5.2,-4.1 0.8,-2.8 1.3,-7.1 1.3,-13.4 0,-6.2 -0.4,-10.6 -1.3,-13.3 -0.8,-2.8 -2.5,-4.2 -5.2,-4.2 -2.8,0 -4.6,1.8 -5.6,5.3 -0.6,2.4 -1,6.4 -1,12.2 0,5.9 0.3,10 1,12.2 z m 25.3,-5.7 h 2.2 c 0.8,3.9 2.2,6.7 4.5,8.3 2.2,1.7 4.5,2.4 6.7,2.4 2.1,0 3.6,-0.4 4.6,-1.4 1,-1 1.5,-2.2 1.5,-3.8 0,-1.6 -0.6,-2.8 -1.7,-3.8 -0.6,-0.6 -1.5,-1.1 -2.8,-1.8 l -6.2,-2.9 c -3.2,-1.5 -5.5,-3.4 -6.9,-5.2 -1.4,-1.8 -2.1,-4.1 -2.1,-6.6 0,-3.2 1.1,-6 3.4,-8.3 2.2,-2.4 5.3,-3.5 9.4,-3.5 1.8,0 3.6,0.3 5.6,0.8 2,0.6 3.2,0.8 3.6,0.8 0.7,0 1.1,-0.1 1.4,-0.4 0.3,-0.3 0.6,-0.7 0.7,-1.3 h 1.8 v 12 h -2.1 c -0.8,-2.8 -2.1,-5 -3.9,-6.7 -1.8,-1.7 -3.9,-2.5 -6.3,-2.5 -1.8,0 -3.2,0.6 -4.1,1.5 -0.8,1 -1.4,2.1 -1.4,3.4 0,1 0.4,2 1.3,2.9 0.8,1 2.2,2 4.5,3.1 l 4.5,2.2 c 2.8,1.4 4.9,2.7 6.2,3.9 2.1,2.1 3.2,4.8 3.2,8 0,3.1 -1.1,5.9 -3.4,8.5 -2.2,2.7 -5.6,3.9 -9.9,3.9 -1.1,0 -2.2,-0.1 -3.4,-0.3 -1.1,-0.3 -2.5,-0.7 -4.2,-1.3 l -1.4,-0.6 c -0.6,-0.1 -0.8,-0.3 -1,-0.3 h -0.4 c -0.4,0 -0.8,0.1 -1.3,0.6 -0.3,0.4 -0.7,1 -1.1,1.8 h -2 v -13.6 h 0.5 z m 28.4,27.5 c 1.8,-0.1 2.9,-0.6 3.6,-1.3 0.7,-0.7 1,-1.8 1,-3.6 v -41.4 c 0,-1.7 -0.3,-2.9 -0.8,-3.5 -0.6,-0.6 -1.8,-1 -3.5,-1.3 v -2 H 262 v 5.5 c 1.1,-1.8 2.2,-3.2 3.4,-4.2 2,-1.5 4.3,-2.4 7.4,-2.4 4.3,0 7.8,1.7 10.8,4.9 2.8,3.2 4.3,8.1 4.3,14.6 0,6 -1.5,10.9 -4.6,14.8 -3.1,3.9 -6.9,5.9 -11.2,5.9 -2.2,0 -4.3,-0.7 -6.4,-2 -1.1,-0.7 -2.2,-1.7 -3.4,-2.9 v 7 c 0,3.8 0,5.7 0.1,6.3 0.1,2.1 0.7,3.6 1.7,4.5 1,0.8 2.5,1.3 4.6,1.4 v 1.7 H 246 Z m 28.7,-24.5 c 0.6,-2.2 0.8,-5.3 0.8,-9.4 0,-4.8 -0.4,-8.5 -1.3,-11.3 -0.8,-2.8 -2.7,-4.2 -5.3,-4.2 -1.8,0 -3.4,0.8 -4.8,2.4 -1.4,1.6 -2.1,2.7 -2.1,3.4 v 20 c 0,0.8 0.7,1.8 2,3.1 1.4,1.3 2.8,2 4.5,2 3.3,0.1 5.2,-2 6.2,-6 z m 14,7.5 c 1.4,-0.3 2.4,-0.6 2.9,-1.1 0.8,-0.7 1.1,-2.1 1.1,-3.9 V 298 c 0,-1.7 -0.3,-2.8 -0.8,-3.5 -0.6,-0.6 -1.7,-1.1 -3.4,-1.4 v -2 h 15.7 v 31.4 c 0,1.8 0.3,2.9 0.8,3.5 0.5,0.6 1.5,0.8 3.1,1.3 v 2 h -19.6 z m 5.3,-53.1 c 1.3,-1.3 2.8,-1.8 4.5,-1.8 1.7,0 3.2,0.6 4.5,1.8 1.3,1.3 1.8,2.8 1.8,4.5 0,1.8 -0.7,3.2 -1.8,4.5 -1.3,1.3 -2.8,1.8 -4.5,1.8 -1.8,0 -3.4,-0.6 -4.5,-1.8 -1.3,-1.3 -1.8,-2.8 -1.8,-4.5 0,-1.7 0.6,-3.2 1.8,-4.5 z m 14.3,20.6 v -2.2 c 0.7,-0.7 1.7,-1.4 2.7,-2.4 1.4,-1.3 2.8,-2.7 4.1,-4.1 2.5,-2.8 4.8,-5.7 6.9,-8.8 h 2.1 v 14 h 7.8 v 3.6 H 324 v 24.9 c 0,1.1 0.1,2.1 0.6,2.9 0.6,1.3 1.4,1.8 2.7,1.8 1.1,0 2,-0.4 2.7,-1.1 0.7,-0.7 1.4,-1.8 2.2,-3.2 l 2,1 c -1,2.2 -2.1,4.1 -3.5,5.6 -2.4,2.5 -5.2,3.8 -8.7,3.8 -2,0 -3.6,-0.4 -5,-1.1 -2.8,-1.4 -4.2,-3.9 -4.2,-7.6 v -26.7 h -4.3 z" />
    <path d="m 338.7,312.5 c 3.6,-2.2 9.2,-4.3 16.9,-6.6 v -6 c 0,-2.4 -0.6,-4.2 -1.5,-5.5 -1,-1.1 -2.9,-1.8 -5.5,-1.8 -1.5,0 -2.7,0.3 -3.6,0.8 -1,0.6 -1.4,1.3 -1.4,2.1 0,0.3 0,0.6 0.1,0.8 0.1,0.3 0.3,0.4 0.4,0.7 l 0.4,0.6 c 0.4,0.4 0.7,1 0.8,1.5 0.3,0.6 0.3,1.1 0.3,1.8 0,1.5 -0.6,2.8 -1.5,3.6 -1,0.8 -2.2,1.3 -3.6,1.3 -1.5,0 -2.9,-0.4 -4.1,-1.4 -1.1,-1 -1.7,-2.2 -1.7,-4.1 0,-3.2 1.5,-5.6 4.5,-7.6 2.9,-1.8 6.7,-2.8 11.1,-2.8 4.6,0 8.5,0.8 11.8,2.7 3.1,1.8 4.6,5.2 4.6,10.1 v 20 c 0,0.6 0.1,1.1 0.4,1.5 0.3,0.4 0.7,0.6 1,0.6 0.3,0 0.6,0 0.8,-0.1 0.3,-0.1 0.7,-0.4 1.3,-1 l 1.3,1.7 c -1.7,1.8 -3.4,3.2 -5.3,3.9 -1.3,0.4 -2.5,0.7 -3.9,0.7 -2.4,0 -4.2,-0.7 -5.3,-2.1 -0.7,-0.8 -1.1,-2 -1.4,-3.6 -2.2,2.2 -4.9,3.9 -7.7,4.9 -1.8,0.6 -3.5,0.8 -5.2,0.8 -2.2,0 -4.3,-0.7 -6.3,-2.1 -2,-1.4 -2.9,-3.6 -2.9,-6.7 -0.1,-3.6 1.7,-6.5 5.2,-8.7 z m 14.4,10.7 c 0.7,-0.4 1.4,-1.3 2.2,-2.2 v -12.2 c -2.2,0.6 -4.2,1.4 -5.9,2.5 -2.8,2 -4.2,4.5 -4.2,7.6 0,1.8 0.4,3.2 1.3,4.1 0.8,1 1.7,1.4 2.8,1.4 1.5,0 2.7,-0.5 3.8,-1.2 z" />
    <path d="m 370.8,327.2 c 1.4,-0.3 2.5,-0.8 3.1,-1.4 0.6,-0.6 0.8,-1.8 0.8,-3.6 v -42 c 0,-1.8 -0.3,-2.9 -0.8,-3.5 -0.6,-0.6 -1.5,-1 -3.1,-1.4 v -2 h 15.5 v 48.9 c 0,1.8 0.3,3.1 0.8,3.6 0.6,0.6 1.7,1 3.2,1.4 v 2 h -19.7 v -2 z m 30.8,-44.7 c -4.6,0 -8.4,-3.8 -8.4,-8.4 0,-4.6 3.8,-8.4 8.4,-8.4 4.6,0 8.4,3.8 8.4,8.4 0,4.6 -3.8,8.4 -8.4,8.4 z m 0,-15.7 c -4.1,0 -7.3,3.2 -7.3,7.3 0,4.1 3.2,7.3 7.3,7.3 4.1,0 7.3,-3.2 7.3,-7.3 0,-3.9 -3.3,-7.3 -7.3,-7.3 z m -3.2,4.8 c 0,-1 0,-1.8 -1.1,-1.8 v -0.4 h 4.9 c 2.1,0 3.6,0.8 3.6,2.5 0,1.3 -1,2.2 -2.1,2.5 l 1.5,2.7 c 0.3,0.6 0.7,1.4 1.4,1.4 v 0.4 h -2.8 l -2.4,-4.3 h -0.6 v 2.1 c 0,1.3 0,1.8 1.4,1.8 v 0.4 h -5 v -0.4 c 1.3,0 1.3,-0.6 1.3,-1.8 v -5 h -0.1 z m 2.3,2.2 c 0.1,0 0.4,0.1 0.7,0.1 1.3,0 1.8,-1 1.8,-2.1 0,-0.8 -0.3,-2 -2,-2 h -0.5 z M 2.9,193 h 49.7 l 0.1,16.7 h -2.4 c -0.8,-6 -2.9,-9.9 -6.7,-12.2 -2.1,-1.1 -5.2,-1.8 -9.2,-2 v 43.7 c 0,3.1 0.6,5 1.5,6 1.1,1 3.2,1.5 6.7,1.5 v 2.1 H 13 v -2.1 c 3.2,0 5.5,-0.6 6.4,-1.5 1.1,-1 1.5,-3.1 1.5,-6 v -43.5 c -4.1,0.1 -7.1,0.7 -9.2,2 -3.9,2.1 -6.2,6.2 -6.7,12.2 H 2.6 Z" />
    <path d="m 76.3,238.5 c -1.5,1.6 -2.9,2.9 -3.9,3.6 -1.7,1.2 -3.5,1.8 -5.5,1.8 -4,0 -6.8,-2.4 -8.5,-6.9 -1,-2.3 -1.6,-5.1 -1.7,-8.5 h 21.2 c 0,-0.7 -0.2,-1.8 -0.3,-3.2 -0.3,-3.1 -1,-5.4 -2,-7.4 -1.3,-2.5 -3.1,-4.5 -5.5,-5.9 -2.4,-1.4 -5,-2.1 -7.7,-2.1 -4.8,0 -8.8,1.8 -12.2,5.3 -3.3,3.5 -5,8.4 -5.1,14.6 0,7 1.8,12.1 5.3,15.3 3.7,3.3 7.4,4.8 11.5,4.8 3,0 5.4,-0.5 7.6,-1.5 3.3,-1.7 6.3,-4.6 8.8,-8.8 z M 58.1,215.9 c 0.9,-2.3 2.4,-3.4 4.5,-3.4 2.1,0 3.5,0.9 4.2,2.9 0.7,2 1.1,5.3 1.1,10.1 l -11.2,0.1 c 0.1,-4.2 0.6,-7.5 1.4,-9.7 z" />
    <path d="m 77.7,246.9 c 1.4,-0.3 2.5,-0.7 3.5,-1.4 1,-0.7 2.5,-2.2 4.5,-4.6 0.8,-1 2,-2.5 3.4,-4.3 1.4,-1.8 2.5,-3.4 3.4,-4.5 L 81.7,215.9 c -0.8,-1.3 -1.5,-2.1 -2.1,-2.5 -0.6,-0.3 -1.3,-0.6 -2.2,-0.7 v -2 H 98 v 2 c -2,0.3 -3.1,0.4 -3.4,0.6 -0.3,0.1 -0.4,0.4 -0.4,1 0,0.6 0.7,2 2.1,4.2 1.4,2.2 2.7,3.9 3.6,5.5 2.8,-3.5 4.6,-5.9 5.2,-6.9 0.7,-1 1,-1.8 1,-2.4 0,-0.8 -0.3,-1.3 -1,-1.5 -0.7,-0.3 -1.7,-0.3 -3.2,-0.4 v -2 h 13.8 v 2 c -1,0.1 -1.8,0.4 -2.5,0.7 -1.3,0.6 -2.2,1.4 -3.2,2.5 l -8.5,10.5 12.3,18.8 c 0.3,0.4 0.6,0.8 1,1 0.4,0.3 0.8,0.4 1.4,0.7 v 2 H 96.3 v -2 c 1.1,0 2.1,-0.1 2.8,-0.4 0.7,-0.3 1,-0.7 1,-1.4 0,-0.4 -0.3,-1.3 -0.8,-2.2 -0.3,-0.6 -0.8,-1.5 -1.5,-2.7 -0.4,-0.6 -1,-1.5 -1.7,-2.5 -0.7,-1.1 -1.4,-2.1 -2.1,-3.1 -1.8,2.2 -3.1,3.9 -4.1,5.2 -1.8,2.5 -2.7,4.2 -2.7,4.9 0,0.8 0.3,1.4 1,1.7 0.7,0.3 1.7,0.4 3.1,0.4 v 2 H 77.4 v -1.7 z m 76.5,-10.5 h 2.2 c 0.8,3.9 2.2,6.7 4.5,8.3 2.2,1.7 4.5,2.4 6.7,2.4 2.1,0 3.6,-0.4 4.6,-1.4 1,-1 1.5,-2.2 1.5,-3.8 0,-1.5 -0.6,-2.8 -1.7,-3.8 -0.6,-0.6 -1.5,-1.1 -2.8,-1.8 l -6.2,-2.9 c -3.2,-1.5 -5.5,-3.4 -6.9,-5.2 -1.4,-1.8 -2.1,-4.1 -2.1,-6.6 0,-3.2 1.1,-6 3.4,-8.3 2.2,-2.4 5.3,-3.5 9.4,-3.5 1.8,0 3.6,0.3 5.6,0.8 2,0.6 3.2,0.8 3.6,0.8 0.7,0 1.1,-0.1 1.4,-0.4 0.3,-0.3 0.6,-0.7 0.7,-1.3 h 1.8 v 11.9 h -2.1 c -0.8,-2.8 -2.1,-5 -3.9,-6.7 -1.8,-1.7 -3.9,-2.5 -6.3,-2.5 -1.8,0 -3.2,0.6 -4.1,1.5 -0.8,1 -1.4,2.1 -1.4,3.4 0,1 0.4,2 1.3,2.9 0.8,1 2.2,2 4.5,3.1 l 4.5,2.2 c 2.8,1.4 4.9,2.7 6.2,3.9 2.1,2.1 3.2,4.8 3.2,8 0,3.1 -1.1,5.9 -3.4,8.5 -2.2,2.7 -5.6,3.9 -9.9,3.9 -1.1,0 -2.2,-0.1 -3.4,-0.3 -1.1,-0.3 -2.5,-0.7 -4.2,-1.3 l -1.4,-0.6 c -0.6,-0.1 -0.8,-0.3 -1,-0.3 h -0.4 c -0.4,0 -0.8,0.1 -1.1,0.6 -0.3,0.4 -0.7,1 -1.1,1.8 h -2 z m 89.2,-42.9 c 3.5,1.3 5.5,2 5.9,2 1.1,0 1.8,-0.4 2.5,-1.3 0.7,-0.8 1,-1.7 1.3,-2.7 h 2.4 v 19.3 h -2.1 c -2,-4.2 -4.1,-7.6 -6.2,-9.9 -3.9,-4.5 -8.3,-6.7 -13.2,-6.7 -5.6,0 -9.5,2.4 -11.8,7.1 -2.4,4.8 -3.5,11.2 -3.5,19.2 0,5.9 0.7,10.8 2.1,14.6 2.5,7.1 7.3,10.8 14.1,10.8 4.2,0 8.1,-1.1 11.8,-3.5 2.1,-1.4 4.6,-3.5 7.4,-6.6 l 2.5,2.1 c -3.2,3.6 -6,6.2 -8.5,7.8 -4.3,2.9 -9.2,4.3 -14.6,4.3 -8.1,0 -15,-2.4 -20.4,-7.3 -6.2,-5.3 -9.1,-12.6 -9.1,-21.6 0,-9 2.9,-16.2 8.8,-21.8 5.5,-5.2 12.2,-7.8 20.2,-7.8 3.4,0 6.9,0.7 10.4,2 z m 74.1,52.9 c 1.4,-0.3 2.5,-0.8 3.1,-1.4 0.6,-0.6 0.8,-1.8 0.8,-3.6 v -42 c 0,-1.8 -0.3,-2.9 -0.8,-3.5 -0.6,-0.6 -1.5,-1 -3.1,-1.4 v -2 H 333 v 48.9 c 0,1.8 0.3,3.1 0.8,3.6 0.6,0.6 1.7,1 3.2,1.4 v 2 h -19.7 v -2 z m 165.4,-28 c 2.5,-1.7 4.3,-3.2 5.6,-4.5 2.2,-2.2 3.4,-4.3 3.4,-6.4 0,-0.6 -0.1,-1 -0.4,-1.4 -0.3,-0.3 -0.7,-0.6 -1.3,-0.6 -1,0.1 -1.5,0.1 -1.8,0.1 -1.8,0 -3.2,-0.6 -4.5,-1.8 -1.1,-1.3 -1.7,-2.8 -1.7,-4.6 0,-2.1 0.6,-3.8 1.8,-5 1.3,-1.3 2.9,-2 5,-2 2.4,0 4.3,0.8 5.9,2.5 1.6,1.7 2.4,4.1 2.4,7 0,4.3 -1.7,8.1 -4.9,11.8 -2.1,2.2 -5,4.3 -8.8,6.4 z m -42.7,28 c 1.5,-0.1 2.7,-0.6 3.4,-1.3 0.7,-0.7 1.1,-1.8 1.1,-3.8 v -24.2 c 0,-1.7 -0.3,-2.8 -0.8,-3.5 -0.6,-0.7 -1.8,-1.1 -3.5,-1.3 v -2 h 15.5 v 5.9 c 1.3,-2 2.9,-3.6 5,-4.9 2,-1.3 4.3,-2 6.7,-2 3.5,0 6.3,1 8.3,2.8 2,1.8 2.9,5 2.9,9.7 v 20 c 0,1.8 0.3,3.1 1,3.5 0.7,0.6 1.7,0.8 3.2,1.1 v 2 h -19.5 v -2 c 1.5,-0.3 2.5,-0.7 3.1,-1.3 0.6,-0.6 0.8,-1.7 0.8,-3.5 v -20 c 0,-1.8 -0.1,-3.4 -0.6,-4.2 -0.7,-1.7 -2,-2.5 -3.8,-2.5 -1.4,0 -2.8,0.6 -3.9,1.5 -1.3,1 -2.1,2.1 -2.8,3.1 v 22.1 c 0,1.8 0.3,2.9 0.8,3.5 0.6,0.6 1.5,1 3.1,1.3 v 2 h -19.9 v -2.1 z" />
  </g>
</svg>
