<?xml version="1.0" encoding="utf-8"?>
<!-- Generator: Adobe Illustrator 26.2.1, SVG Export Plug-In . SVG Version: 6.00 Build 0)  -->
<svg version="1.1" id="Layer_1" xmlns="http://www.w3.org/2000/svg" xmlns:xlink="http://www.w3.org/1999/xlink" x="0px" y="0px"
	 viewBox="0 0 648.39 102.76" style="enable-background:new 0 0 648.39 102.76;" xml:space="preserve">
<style type="text/css">
	.st0{fill:none;}
	.st1{fill:#666666;}
	.st2{fill:#E51B27;}
</style>
<g>
	<path class="st0" d="M387.6,88.48c-0.49-0.52-1.07-0.94-1.76-1.26s-1.45-0.47-2.32-0.47c-0.87,0-1.64,0.16-2.32,0.47
		c-0.68,0.31-1.27,0.73-1.75,1.26s-0.85,1.13-1.1,1.81c-0.25,0.68-0.37,1.39-0.37,2.13s0.12,1.44,0.37,2.13
		c0.25,0.68,0.62,1.29,1.1,1.81s1.07,0.94,1.75,1.26c0.68,0.31,1.46,0.47,2.32,0.47c0.87,0,1.64-0.16,2.32-0.47
		c0.68-0.31,1.27-0.73,1.76-1.26c0.48-0.52,0.85-1.13,1.1-1.81c0.25-0.69,0.37-1.39,0.37-2.13s-0.13-1.44-0.37-2.13
		C388.45,89.61,388.08,89.01,387.6,88.48z"/>
	<path class="st0" d="M374.56,26.65c-0.48-1.33-1.44-1.99-2.89-1.99c-1.48,0-2.49,0.76-3.04,2.3c-0.55,1.53-0.86,3.76-0.93,6.69
		h7.63C375.31,30.31,375.04,27.98,374.56,26.65z"/>
	<path class="st0" d="M459.75,88.48c-0.49-0.52-1.07-0.94-1.76-1.26s-1.45-0.47-2.32-0.47c-0.87,0-1.64,0.16-2.32,0.47
		s-1.27,0.73-1.75,1.26s-0.85,1.13-1.1,1.81c-0.25,0.68-0.37,1.39-0.37,2.13s0.12,1.44,0.37,2.13c0.25,0.68,0.62,1.29,1.1,1.81
		s1.07,0.94,1.75,1.26c0.68,0.31,1.46,0.47,2.32,0.47c0.87,0,1.64-0.16,2.32-0.47c0.68-0.31,1.27-0.73,1.76-1.26
		c0.48-0.52,0.85-1.13,1.1-1.81c0.25-0.69,0.37-1.39,0.37-2.13s-0.13-1.44-0.37-2.13C460.6,89.61,460.23,89.01,459.75,88.48z"/>
	<path class="st0" d="M548.68,88.48c-0.49-0.52-1.07-0.94-1.76-1.26s-1.45-0.47-2.32-0.47c-0.87,0-1.64,0.16-2.32,0.47
		s-1.27,0.73-1.75,1.26c-0.49,0.52-0.85,1.13-1.1,1.81c-0.25,0.68-0.37,1.39-0.37,2.13s0.12,1.44,0.37,2.13
		c0.25,0.68,0.62,1.29,1.1,1.81c0.49,0.52,1.07,0.94,1.75,1.26c0.68,0.31,1.46,0.47,2.32,0.47c0.87,0,1.64-0.16,2.32-0.47
		c0.68-0.31,1.27-0.73,1.76-1.26c0.48-0.52,0.85-1.13,1.1-1.81c0.25-0.69,0.37-1.39,0.37-2.13s-0.13-1.44-0.37-2.13
		C549.53,89.61,549.16,89.01,548.68,88.48z"/>
	<path class="st0" d="M323.27,26.13c-2.02,0-3.38,1.39-4.11,4.18c-0.39,1.49-0.58,3.61-0.58,6.33c0,2.91,0.19,5.11,0.56,6.58
		c0.68,2.67,2,4.01,3.94,4.01c1.22,0,2.32-0.54,3.29-1.63c0.97-1.09,1.46-1.85,1.46-2.3V29.53c0-0.46-0.42-1.14-1.25-2.05
		C325.74,26.58,324.64,26.13,323.27,26.13z"/>
	<path class="st0" d="M555.66,47.29c2.05,0,3.43-1.35,4.15-4.07c0.39-1.49,0.58-3.64,0.58-6.45c0-3.24-0.3-5.83-0.88-7.76
		c-0.59-1.93-1.79-2.89-3.6-2.89c-1.22,0-2.3,0.54-3.26,1.6c-0.96,1.07-1.44,1.84-1.44,2.32v13.78c0,0.55,0.46,1.27,1.37,2.14
		C553.49,46.85,554.51,47.29,555.66,47.29z"/>
	<path class="st0" d="M310.2,93.49c-0.82,0.05-1.58,0.18-2.31,0.37c-0.72,0.2-1.33,0.49-1.83,0.87c-0.5,0.38-0.75,0.91-0.75,1.59
		c0,0.45,0.1,0.82,0.3,1.12c0.2,0.3,0.45,0.56,0.77,0.77c0.31,0.21,0.67,0.36,1.06,0.45c0.39,0.09,0.79,0.14,1.18,0.14
		c1.63,0,2.83-0.39,3.6-1.16c0.78-0.78,1.16-1.83,1.16-3.17v-1.06h-0.99C311.75,93.41,311.01,93.43,310.2,93.49z"/>
	<path class="st0" d="M129.42,26.65c-0.48-1.33-1.44-1.99-2.89-1.99c-1.48,0-2.49,0.76-3.04,2.3c-0.55,1.53-0.86,3.76-0.93,6.69
		h7.63C130.16,30.31,129.9,27.98,129.42,26.65z"/>
	<path class="st0" d="M170.7,42.63c0,1.24,0.28,2.18,0.84,2.81c0.56,0.64,1.19,0.96,1.9,0.96c0.92,0,1.78-0.27,2.57-0.83
		c0.44-0.33,0.97-0.85,1.58-1.55v-8.29c-1.51,0.37-2.84,0.95-3.98,1.75C171.66,38.82,170.7,40.54,170.7,42.63z"/>
	<path class="st0" d="M507.73,48.67c1.82,0,3.02-0.94,3.59-2.82c0.57-1.88,0.86-4.94,0.86-9.18c0-4.22-0.3-7.28-0.9-9.17
		c-0.6-1.89-1.78-2.83-3.53-2.83c-1.92,0-3.2,1.23-3.84,3.68c-0.42,1.64-0.64,4.42-0.64,8.33c0,3.96,0.2,6.74,0.61,8.33
		C504.53,47.44,505.81,48.67,507.73,48.67z"/>
	<path class="st0" d="M290.7,78.89c-0.58-0.28-1.22-0.45-1.93-0.53c-0.71-0.08-1.39-0.12-2.05-0.12h-3.55v7.84h2.99
		c0.71,0,1.44-0.03,2.21-0.08c0.76-0.05,1.46-0.21,2.1-0.47c0.64-0.26,1.17-0.66,1.58-1.18c0.41-0.52,0.61-1.26,0.61-2.21
		c0-0.87-0.18-1.56-0.55-2.07C291.75,79.56,291.28,79.17,290.7,78.89z"/>
	<path class="st0" d="M606.04,42.63c0,1.24,0.28,2.18,0.85,2.81c0.56,0.64,1.19,0.96,1.89,0.96c0.92,0,1.78-0.27,2.57-0.83
		c0.44-0.33,0.97-0.85,1.58-1.55v-8.29c-1.51,0.37-2.84,0.95-3.98,1.75C607.01,38.82,606.04,40.54,606.04,42.63z"/>
	<path class="st0" d="M602.22,86.04c-1.42,0-2.54,0.41-3.37,1.22c-0.83,0.82-1.34,1.9-1.52,3.27h9.69c-0.03-1.39-0.46-2.49-1.3-3.29
		C604.88,86.44,603.72,86.04,602.22,86.04z"/>
	<path class="st0" d="M642.57,3.22h-0.36v2.66c0.09,0.03,0.28,0.05,0.43,0.05c0.79,0,1.23-0.68,1.23-1.41
		C643.86,3.95,643.68,3.22,642.57,3.22z"/>
	<path class="st0" d="M642.76,1.29c-2.64,0-4.8,2.15-4.8,4.8c0,2.64,2.15,4.8,4.8,4.8c2.64,0,4.78-2.15,4.78-4.8
		C647.54,3.44,645.4,1.29,642.76,1.29z M646.01,9.13h-1.87l-1.58-2.85h-0.35v1.35c0,0.82,0,1.22,0.92,1.22v0.29h-3.26V8.84
		c0.81,0,0.81-0.4,0.81-1.22V4.36c0-0.66,0-1.2-0.7-1.2V2.87h3.2c1.33,0,2.36,0.54,2.36,1.68c0,0.84-0.6,1.42-1.39,1.61l0.97,1.76
		c0.19,0.34,0.47,0.92,0.9,0.92V9.13z"/>
	<path class="st1" d="M294.76,75.7c-0.94-0.62-2.04-1.06-3.29-1.32c-1.25-0.26-2.54-0.39-3.88-0.39h-9.37v27.88h4.96V90.33h3.55
		c1.47,0,2.88-0.1,4.23-0.31c1.35-0.21,2.54-0.61,3.57-1.2s1.84-1.43,2.44-2.5c0.6-1.08,0.9-2.49,0.9-4.25
		c0-1.55-0.28-2.84-0.85-3.88C296.46,77.15,295.7,76.32,294.76,75.7z M292.06,84.35c-0.41,0.52-0.93,0.92-1.58,1.18
		c-0.64,0.26-1.34,0.42-2.1,0.47c-0.76,0.05-1.5,0.08-2.21,0.08h-2.99v-7.84h3.55c0.66,0,1.34,0.04,2.05,0.12
		c0.71,0.08,1.35,0.26,1.93,0.53c0.58,0.27,1.05,0.67,1.42,1.18c0.37,0.51,0.55,1.2,0.55,2.07
		C292.67,83.09,292.47,83.82,292.06,84.35z"/>
	<path class="st1" d="M317.62,87.62c-0.15-0.63-0.38-1.25-0.71-1.87c-0.33-0.62-0.8-1.16-1.4-1.63c-0.6-0.48-1.36-0.86-2.28-1.16
		c-0.92-0.3-2.05-0.45-3.39-0.45c-1.5,0-2.95,0.24-4.35,0.71s-2.63,1.25-3.68,2.32l2.48,2.48c0.63-0.6,1.38-1.08,2.24-1.44
		c0.87-0.36,1.8-0.53,2.8-0.53c1.26,0,2.3,0.29,3.11,0.88c0.81,0.59,1.22,1.48,1.22,2.66v0.51h-1.18c-0.79,0-1.63,0.02-2.52,0.06
		c-0.9,0.04-1.78,0.13-2.66,0.28c-0.88,0.14-1.73,0.36-2.54,0.65c-0.81,0.29-1.53,0.68-2.15,1.16c-0.62,0.49-1.11,1.09-1.48,1.81
		c-0.37,0.72-0.55,1.59-0.55,2.62c0,0.94,0.2,1.77,0.59,2.48c0.39,0.71,0.91,1.3,1.56,1.77c0.64,0.47,1.38,0.83,2.2,1.06
		s1.67,0.35,2.54,0.35c1.26,0,2.42-0.24,3.47-0.73c1.05-0.48,1.92-1.27,2.6-2.34h0.12v2.6h4.25V91.01c0-0.45-0.01-0.96-0.04-1.56
		C317.85,88.86,317.76,88.25,317.62,87.62z M313.39,94.47c0,1.34-0.39,2.39-1.16,3.17c-0.77,0.78-1.97,1.16-3.6,1.16
		c-0.39,0-0.79-0.05-1.18-0.14c-0.39-0.09-0.75-0.24-1.06-0.45c-0.31-0.21-0.57-0.47-0.77-0.77c-0.2-0.3-0.3-0.67-0.3-1.12
		c0-0.68,0.25-1.21,0.75-1.59c0.5-0.38,1.11-0.67,1.83-0.87c0.72-0.2,1.49-0.32,2.31-0.37c0.81-0.05,1.55-0.08,2.2-0.08h0.99V94.47z
		"/>
	<polygon class="st1" points="330.71,96.2 330.63,96.2 325.59,82.97 320.44,82.97 328.15,101.87 333.2,101.87 340.64,82.97 
		335.79,82.97 	"/>
	<path class="st1" d="M345.84,73.71c-0.87,0-1.58,0.28-2.15,0.85c-0.56,0.56-0.85,1.23-0.85,1.99s0.28,1.42,0.85,1.99
		c0.57,0.57,1.28,0.85,2.15,0.85c0.87,0,1.59-0.27,2.18-0.8c0.59-0.54,0.89-1.22,0.89-2.03c0-0.81-0.29-1.49-0.89-2.03
		C347.43,73.99,346.7,73.71,345.84,73.71z"/>
	<rect x="343.51" y="82.97" class="st1" width="4.73" height="18.9"/>
	<rect x="353.75" y="72.1" class="st1" width="4.73" height="29.77"/>
	<rect x="364.03" y="82.97" class="st1" width="4.73" height="18.9"/>
	<path class="st1" d="M366.35,73.71c-0.87,0-1.58,0.28-2.15,0.85c-0.56,0.56-0.85,1.23-0.85,1.99s0.28,1.42,0.85,1.99
		c0.57,0.57,1.28,0.85,2.15,0.85c0.87,0,1.59-0.27,2.18-0.8c0.59-0.54,0.89-1.22,0.89-2.03c0-0.81-0.29-1.49-0.89-2.03
		C367.95,73.99,367.22,73.71,366.35,73.71z"/>
	<path class="st1" d="M390.81,85.22c-0.92-0.87-2.01-1.54-3.27-2.01c-1.26-0.47-2.6-0.71-4.02-0.71c-1.42,0-2.76,0.24-4.02,0.71
		c-1.26,0.47-2.35,1.14-3.27,2.01c-0.92,0.87-1.65,1.91-2.19,3.13c-0.54,1.22-0.81,2.58-0.81,4.08c0,1.5,0.27,2.85,0.81,4.08
		c0.54,1.22,1.27,2.27,2.19,3.13c0.92,0.87,2.01,1.54,3.27,2.01c1.26,0.47,2.6,0.71,4.02,0.71c1.42,0,2.76-0.24,4.02-0.71
		c1.26-0.47,2.35-1.14,3.27-2.01c0.92-0.87,1.65-1.91,2.18-3.13c0.54-1.22,0.81-2.58,0.81-4.08c0-1.5-0.27-2.85-0.81-4.08
		C392.46,87.13,391.73,86.08,390.81,85.22z M388.7,94.55c-0.25,0.68-0.62,1.29-1.1,1.81c-0.49,0.52-1.07,0.94-1.76,1.26
		c-0.68,0.31-1.45,0.47-2.32,0.47c-0.87,0-1.64-0.16-2.32-0.47c-0.68-0.31-1.27-0.73-1.75-1.26s-0.85-1.13-1.1-1.81
		c-0.25-0.69-0.37-1.39-0.37-2.13s0.12-1.44,0.37-2.13c0.25-0.69,0.62-1.29,1.1-1.81s1.07-0.94,1.75-1.26
		c0.68-0.31,1.46-0.47,2.32-0.47c0.87,0,1.64,0.16,2.32,0.47s1.27,0.73,1.76,1.26c0.48,0.52,0.85,1.13,1.1,1.81
		c0.25,0.68,0.37,1.39,0.37,2.13S388.95,93.87,388.7,94.55z"/>
	<path class="st1" d="M413.93,84.78c-0.55-0.68-1.27-1.23-2.15-1.65c-0.88-0.42-1.95-0.63-3.21-0.63c-1.58,0-2.83,0.35-3.74,1.04
		c-0.92,0.69-1.6,1.52-2.05,2.46h-0.08v-3.03h-4.49v18.9h4.73V91.56c0-0.63,0.08-1.23,0.24-1.81c0.16-0.58,0.41-1.09,0.77-1.53
		c0.36-0.45,0.8-0.8,1.34-1.06c0.54-0.26,1.2-0.39,1.99-0.39c0.81,0,1.46,0.19,1.93,0.57c0.47,0.38,0.82,0.85,1.04,1.42
		c0.22,0.57,0.36,1.17,0.41,1.81c0.05,0.64,0.08,1.23,0.08,1.75v9.57h4.73V89.94c0-0.97-0.12-1.9-0.36-2.8
		C414.87,86.25,414.48,85.47,413.93,84.78z"/>
	<path class="st1" d="M437.63,72.24c-0.92,0.41-1.63,0.99-2.15,1.75c-0.51,0.76-0.86,1.67-1.04,2.74c-0.18,1.06-0.27,2.25-0.27,3.56
		v2.68h-3.9v4.02h3.9v14.89h4.73V86.99h4.37v-4.02h-4.37v-3.43c0-0.52,0.03-1.02,0.1-1.5c0.07-0.47,0.21-0.89,0.43-1.24
		c0.22-0.36,0.53-0.64,0.92-0.85c0.4-0.21,0.92-0.31,1.58-0.31c0.34,0,0.67,0.03,0.99,0.08c0.31,0.05,0.64,0.12,0.98,0.2l0.31-4.02
		c-0.92-0.18-1.92-0.28-2.99-0.28C439.75,71.63,438.55,71.83,437.63,72.24z"/>
	<path class="st1" d="M462.96,85.22c-0.92-0.87-2.01-1.54-3.27-2.01c-1.26-0.47-2.6-0.71-4.02-0.71c-1.42,0-2.76,0.24-4.02,0.71
		c-1.26,0.47-2.35,1.14-3.27,2.01c-0.92,0.87-1.65,1.91-2.19,3.13c-0.54,1.22-0.81,2.58-0.81,4.08c0,1.5,0.27,2.85,0.81,4.08
		c0.54,1.22,1.27,2.27,2.19,3.13c0.92,0.87,2.01,1.54,3.27,2.01c1.26,0.47,2.6,0.71,4.02,0.71c1.42,0,2.76-0.24,4.02-0.71
		c1.26-0.47,2.35-1.14,3.27-2.01c0.92-0.87,1.65-1.91,2.18-3.13c0.54-1.22,0.81-2.58,0.81-4.08c0-1.5-0.27-2.85-0.81-4.08
		C464.61,87.13,463.88,86.08,462.96,85.22z M460.85,94.55c-0.25,0.68-0.62,1.29-1.1,1.81c-0.49,0.52-1.07,0.94-1.76,1.26
		c-0.68,0.31-1.45,0.47-2.32,0.47c-0.87,0-1.64-0.16-2.32-0.47c-0.68-0.31-1.27-0.73-1.75-1.26s-0.85-1.13-1.1-1.81
		c-0.25-0.69-0.37-1.39-0.37-2.13s0.12-1.44,0.37-2.13c0.25-0.69,0.62-1.29,1.1-1.81s1.07-0.94,1.75-1.26s1.46-0.47,2.32-0.47
		c0.87,0,1.64,0.16,2.32,0.47s1.27,0.73,1.76,1.26c0.48,0.52,0.85,1.13,1.1,1.81c0.25,0.68,0.37,1.39,0.37,2.13
		S461.1,93.87,460.85,94.55z"/>
	<path class="st1" d="M480.76,82.5c-1.26,0-2.38,0.3-3.35,0.9c-0.97,0.61-1.72,1.46-2.24,2.56h-0.08v-2.99h-4.73v18.9h4.73V91.75
		c0-0.26,0.06-0.66,0.18-1.18c0.12-0.52,0.35-1.05,0.71-1.57c0.35-0.52,0.87-0.99,1.54-1.4c0.67-0.41,1.55-0.61,2.66-0.61
		c0.37,0,0.74,0.03,1.12,0.1c0.38,0.06,0.77,0.15,1.16,0.25v-4.57c-0.29-0.08-0.57-0.14-0.85-0.2
		C481.33,82.52,481.05,82.5,480.76,82.5z"/>
	<polygon class="st1" points="522.78,94.08 522.71,94.08 516.56,73.99 511.68,73.99 505.41,94.08 505.34,94.08 500.1,73.99 
		494.66,73.99 502.89,101.87 507.46,101.87 513.92,80.65 514,80.65 520.46,101.87 525.19,101.87 533.3,73.99 528.26,73.99 	"/>
	<path class="st1" d="M551.89,85.22c-0.92-0.87-2.01-1.54-3.27-2.01c-1.26-0.47-2.6-0.71-4.02-0.71c-1.42,0-2.76,0.24-4.02,0.71
		c-1.26,0.47-2.35,1.14-3.27,2.01c-0.92,0.87-1.65,1.91-2.19,3.13c-0.54,1.22-0.81,2.58-0.81,4.08c0,1.5,0.27,2.85,0.81,4.08
		c0.54,1.22,1.27,2.27,2.19,3.13c0.92,0.87,2.01,1.54,3.27,2.01c1.26,0.47,2.6,0.71,4.02,0.71c1.42,0,2.76-0.24,4.02-0.71
		c1.26-0.47,2.35-1.14,3.27-2.01c0.92-0.87,1.65-1.91,2.18-3.13c0.54-1.22,0.81-2.58,0.81-4.08c0-1.5-0.27-2.85-0.81-4.08
		C553.54,87.13,552.81,86.08,551.89,85.22z M549.78,94.55c-0.25,0.68-0.62,1.29-1.1,1.81c-0.49,0.52-1.07,0.94-1.76,1.26
		c-0.68,0.31-1.45,0.47-2.32,0.47c-0.87,0-1.64-0.16-2.32-0.47c-0.68-0.31-1.27-0.73-1.75-1.26c-0.49-0.52-0.85-1.13-1.1-1.81
		c-0.25-0.69-0.37-1.39-0.37-2.13s0.12-1.44,0.37-2.13c0.25-0.69,0.62-1.29,1.1-1.81c0.49-0.52,1.07-0.94,1.75-1.26
		s1.46-0.47,2.32-0.47c0.87,0,1.64,0.16,2.32,0.47s1.27,0.73,1.76,1.26c0.48,0.52,0.85,1.13,1.1,1.81c0.25,0.68,0.37,1.39,0.37,2.13
		S550.03,93.87,549.78,94.55z"/>
	<path class="st1" d="M586.88,84.86c-0.54-0.73-1.24-1.31-2.11-1.73c-0.87-0.42-1.93-0.63-3.19-0.63c-1.42,0-2.64,0.28-3.66,0.85
		c-1.03,0.57-1.88,1.45-2.56,2.66c-0.97-2.34-2.94-3.5-5.91-3.5c-1.57,0-2.83,0.35-3.76,1.04c-0.93,0.69-1.61,1.49-2.03,2.38h-0.08
		v-2.95h-4.49v18.9h4.73V91.56c0-0.63,0.08-1.23,0.24-1.81c0.16-0.58,0.41-1.09,0.77-1.53c0.35-0.45,0.8-0.8,1.34-1.06
		c0.54-0.26,1.2-0.39,1.99-0.39c1.15,0,1.98,0.35,2.48,1.04c0.5,0.69,0.75,1.63,0.75,2.82v11.26h4.73V91.64
		c0-0.6,0.07-1.2,0.22-1.79c0.15-0.59,0.38-1.12,0.71-1.57c0.33-0.46,0.75-0.83,1.26-1.1c0.51-0.28,1.13-0.41,1.87-0.41
		c0.71,0,1.29,0.12,1.73,0.35s0.8,0.56,1.06,0.96c0.26,0.41,0.45,0.88,0.55,1.42c0.1,0.54,0.16,1.1,0.16,1.67v10.71h4.73V90.61
		c0-1.13-0.12-2.19-0.36-3.17S587.42,85.59,586.88,84.86z"/>
	<path class="st1" d="M609.29,85.17c-0.78-0.87-1.71-1.53-2.8-1.99c-1.09-0.46-2.29-0.69-3.6-0.69c-1.42,0-2.76,0.24-4.02,0.71
		c-1.26,0.47-2.35,1.14-3.27,2.01c-0.92,0.87-1.65,1.91-2.19,3.13c-0.54,1.22-0.81,2.58-0.81,4.08c0,1.5,0.27,2.85,0.81,4.08
		c0.54,1.22,1.27,2.27,2.19,3.13c0.92,0.87,2.01,1.54,3.27,2.01c1.26,0.47,2.6,0.71,4.02,0.71c1.5,0,2.93-0.29,4.29-0.87
		c1.36-0.58,2.6-1.55,3.7-2.92l-3.39-2.56c-0.6,0.74-1.31,1.35-2.11,1.83c-0.8,0.48-1.79,0.73-2.97,0.73
		c-1.34,0-2.48-0.39-3.43-1.18c-0.94-0.79-1.5-1.89-1.65-3.31h14.41v-1.3c0-1.66-0.22-3.12-0.65-4.39
		C610.67,87.11,610.06,86.04,609.29,85.17z M597.34,90.53c0.18-1.37,0.69-2.45,1.52-3.27c0.83-0.81,1.95-1.22,3.37-1.22
		c1.5,0,2.66,0.4,3.5,1.2c0.84,0.8,1.27,1.9,1.3,3.29H597.34z"/>
	<path class="st1" d="M631.88,84.78c-0.55-0.68-1.27-1.23-2.15-1.65c-0.88-0.42-1.95-0.63-3.21-0.63c-1.58,0-2.83,0.35-3.74,1.04
		c-0.92,0.69-1.6,1.52-2.05,2.46h-0.08v-3.03h-4.49v18.9h4.73V91.56c0-0.63,0.08-1.23,0.24-1.81c0.16-0.58,0.41-1.09,0.77-1.53
		c0.36-0.45,0.8-0.8,1.34-1.06c0.54-0.26,1.2-0.39,1.99-0.39c0.81,0,1.46,0.19,1.93,0.57c0.47,0.38,0.82,0.85,1.04,1.42
		c0.22,0.57,0.36,1.17,0.41,1.81c0.05,0.64,0.08,1.23,0.08,1.75v9.57h4.73V89.94c0-0.97-0.12-1.9-0.36-2.8
		C632.82,86.25,632.43,85.47,631.88,84.78z"/>
	<path d="M113.23,14.49c2.53,1.44,4.06,4.21,4.59,8.29h1.63l-0.06-11.42H85.29l-0.05,11.42h1.63c0.35-4.05,1.88-6.81,4.59-8.29
		c1.48-0.8,3.6-1.23,6.36-1.3v29.84c0,2.07-0.36,3.45-1.09,4.14c-0.73,0.69-2.2,1.04-4.41,1.04v1.44h20.19V48.2
		c-2.31,0-3.82-0.34-4.55-1.02c-0.73-0.68-1.09-2.07-1.09-4.15V13.18C109.69,13.26,111.81,13.69,113.23,14.49z"/>
	<path d="M136.12,42.56c-1.07,1.18-1.97,2.02-2.69,2.52c-1.18,0.83-2.44,1.24-3.77,1.24c-2.79,0-4.74-1.56-5.85-4.67
		c-0.61-1.66-0.98-3.62-1.11-5.89h14.47c0-0.52-0.06-1.26-0.19-2.24c-0.26-2.08-0.72-3.78-1.38-5.09c-0.89-1.73-2.15-3.09-3.79-4.07
		c-1.64-0.98-3.4-1.47-5.26-1.47c-3.27,0-6.06,1.2-8.38,3.61c-2.32,2.41-3.48,5.79-3.48,10.14c0,4.81,1.22,8.32,3.66,10.51
		c2.44,2.19,5.05,3.29,7.84,3.29c1.94,0,3.66-0.36,5.15-1.08c2.31-1.12,4.34-3.12,6.09-6L136.12,42.56z M123.5,26.96
		c0.55-1.53,1.56-2.3,3.04-2.3c1.44,0,2.41,0.66,2.89,1.99c0.48,1.33,0.74,3.66,0.78,7h-7.63C122.64,30.72,122.95,28.49,123.5,26.96
		z"/>
	<path d="M161.33,47.14l-8.46-12.85l5.86-7.22c0.6-0.76,1.33-1.32,2.17-1.69c0.46-0.18,1.04-0.34,1.73-0.47v-1.36h-9.49v1.36
		c1.03,0.04,1.77,0.13,2.22,0.28c0.45,0.15,0.68,0.5,0.68,1.05c0,0.44-0.23,1-0.69,1.66c-0.46,0.67-1.67,2.22-3.61,4.67
		c-0.72-0.98-1.56-2.22-2.51-3.72c-0.95-1.5-1.42-2.46-1.42-2.89c0-0.35,0.11-0.57,0.33-0.65c0.22-0.08,0.99-0.22,2.3-0.4v-1.36
		h-14.16v1.36c0.68,0.09,1.2,0.25,1.55,0.47c0.35,0.22,0.82,0.78,1.41,1.69l7.28,11.16c-0.61,0.78-1.38,1.79-2.33,3.05
		c-0.94,1.26-1.7,2.24-2.27,2.94c-1.38,1.68-2.41,2.75-3.08,3.21c-0.67,0.46-1.48,0.77-2.42,0.91v1.3h9.57v-1.3
		c-0.94-0.04-1.65-0.15-2.11-0.33c-0.47-0.18-0.7-0.57-0.7-1.16c0-0.5,0.62-1.62,1.85-3.35c0.6-0.84,1.5-2.03,2.71-3.58
		c0.42,0.65,0.88,1.36,1.4,2.11c0.51,0.76,0.9,1.35,1.18,1.78c0.5,0.78,0.86,1.37,1.08,1.8c0.39,0.7,0.58,1.21,0.58,1.52
		c0,0.48-0.23,0.79-0.69,0.94c-0.46,0.15-1.09,0.24-1.88,0.27v1.3h13.64v-1.3c-0.42-0.16-0.76-0.33-1.01-0.48
		C161.76,47.69,161.54,47.46,161.33,47.14z"/>
	<path d="M200.55,33.7l-3.1-1.49c-1.49-0.72-2.51-1.42-3.04-2.1c-0.55-0.66-0.83-1.33-0.83-1.99c0-0.81,0.31-1.57,0.93-2.27
		c0.62-0.7,1.55-1.05,2.81-1.05c1.62,0,3.04,0.58,4.26,1.74c1.22,1.16,2.09,2.7,2.63,4.62h1.44v-8.19h-1.24
		c-0.13,0.35-0.29,0.62-0.48,0.82c-0.19,0.19-0.52,0.29-0.98,0.29c-0.33,0-1.17-0.2-2.52-0.59c-1.35-0.4-2.62-0.6-3.82-0.6
		c-2.75,0-4.89,0.8-6.42,2.39c-1.53,1.6-2.3,3.49-2.3,5.68c0,1.73,0.49,3.24,1.47,4.51c0.96,1.27,2.54,2.45,4.76,3.54l4.2,2.05
		c0.9,0.44,1.56,0.86,1.96,1.25c0.74,0.72,1.11,1.59,1.11,2.6c0,1.07-0.34,1.93-1.02,2.59s-1.75,0.98-3.21,0.98
		c-1.59,0-3.14-0.56-4.65-1.67c-1.51-1.12-2.54-3.03-3.1-5.74h-1.58v5l-0.01-0.02c-0.37,0.37-0.64,0.59-0.82,0.68
		c-0.18,0.08-0.37,0.13-0.6,0.13c-0.26,0-0.49-0.14-0.7-0.43c-0.21-0.28-0.32-0.63-0.32-1.04V31.66c0-3.36-1.07-5.66-3.21-6.92
		c-2.16-1.23-4.84-1.85-8.05-1.85c-2.99,0-5.5,0.63-7.55,1.9c-2.05,1.27-3.07,2.99-3.07,5.16c0,1.21,0.38,2.14,1.15,2.79
		c0.76,0.64,1.69,0.97,2.78,0.97c0.94,0,1.77-0.29,2.48-0.87s1.06-1.41,1.06-2.48c0-0.42-0.08-0.82-0.23-1.2
		c-0.16-0.38-0.36-0.72-0.62-1.04l-0.33-0.39c-0.15-0.17-0.26-0.32-0.33-0.47c-0.07-0.15-0.11-0.33-0.11-0.55
		c0-0.57,0.33-1.05,0.98-1.42c0.65-0.38,1.49-0.57,2.5-0.57c1.81,0,3.07,0.4,3.78,1.2c0.71,0.8,1.06,2.04,1.06,3.72v4.12
		c-5.24,1.51-9.08,3.02-11.53,4.52c-2.45,1.49-3.68,3.52-3.68,6.07c0,2.09,0.67,3.63,2.02,4.62c1.35,0.99,2.79,1.48,4.34,1.48
		c1.16,0,2.34-0.2,3.54-0.61c1.97-0.65,3.74-1.75,5.31-3.33c0.2,1.09,0.52,1.91,0.97,2.47c0.78,0.98,2,1.47,3.68,1.47
		c0.94,0,1.83-0.16,2.68-0.5c1.01-0.39,1.96-1,2.84-1.82v2.32h1.35c0.3-0.59,0.56-1.01,0.79-1.26c0.23-0.25,0.5-0.37,0.82-0.37
		c0.13,0,0.23,0.01,0.32,0.03c0.08,0.02,0.3,0.09,0.65,0.22l0.97,0.33c1.12,0.39,2.07,0.66,2.83,0.82c0.76,0.16,1.53,0.23,2.28,0.23
		c3.04,0,5.32-0.91,6.85-2.72c1.52-1.82,2.28-3.78,2.28-5.88c0-2.16-0.74-3.97-2.21-5.45C203.87,35.52,202.47,34.63,200.55,33.7z
		 M177.58,44.02c-0.61,0.7-1.13,1.22-1.58,1.55c-0.79,0.56-1.65,0.83-2.57,0.83c-0.7,0-1.33-0.32-1.9-0.96
		c-0.56-0.64-0.84-1.57-0.84-2.81c0-2.09,0.97-3.81,2.9-5.16c1.14-0.79,2.47-1.38,3.98-1.75V44.02z"/>
	<path d="M248.13,45.57c-2.51,1.62-5.21,2.43-8.12,2.43c-4.75,0-8-2.45-9.75-7.36c-0.94-2.62-1.41-5.95-1.41-10.01
		c0-5.51,0.8-9.91,2.39-13.18c1.59-3.27,4.29-4.91,8.08-4.91c3.35,0,6.35,1.53,9.01,4.59c1.42,1.66,2.81,3.93,4.17,6.8h1.44V10.69
		h-1.58c-0.11,0.61-0.38,1.19-0.82,1.74c-0.43,0.55-1.01,0.83-1.73,0.83c-0.28,0-1.62-0.44-4.04-1.31s-4.8-1.31-7.16-1.31
		c-5.46,0-10.07,1.79-13.83,5.37c-4,3.82-6,8.81-6,14.96c0,6.21,2.09,11.16,6.28,14.83c3.78,3.32,8.46,4.98,14.05,4.98
		c3.65,0,6.97-0.99,9.96-2.96c1.68-1.11,3.62-2.9,5.84-5.37l-1.69-1.38C251.27,43.13,249.57,44.63,248.13,45.57z"/>
	<path d="M291.03,19.29c1.2,0,2.23-0.43,3.08-1.29c0.86-0.86,1.29-1.9,1.29-3.11c0-1.22-0.43-2.25-1.29-3.11
		c-0.86-0.86-1.89-1.29-3.08-1.29c-1.22,0-2.25,0.43-3.11,1.29c-0.86,0.86-1.29,1.89-1.29,3.11c0,1.22,0.43,2.25,1.29,3.11
		C288.78,18.86,289.81,19.29,291.03,19.29z"/>
	<path d="M273.65,47.45c-0.37,0.35-1.06,0.63-2.08,0.83v1.35h12.57h0.73h12.06h0.7h12.79v-1.35c-1.03-0.26-1.75-0.58-2.16-0.97
		c-0.41-0.39-0.61-1.21-0.61-2.46v-33.5h-10.73v1.35c1.05,0.24,1.77,0.55,2.16,0.92c0.39,0.37,0.58,1.16,0.58,2.37v28.85
		c0,1.25-0.21,2.08-0.62,2.47c-0.37,0.35-0.97,0.64-1.79,0.87c-0.8-0.19-1.38-0.44-1.69-0.74c-0.37-0.35-0.55-1.14-0.55-2.38V23.55
		h-10.87v1.36c1.14,0.2,1.91,0.52,2.3,0.93c0.39,0.42,0.58,1.2,0.58,2.36v16.65c0,1.29-0.28,2.18-0.83,2.68
		c-0.31,0.28-0.87,0.5-1.64,0.67c-0.84-0.21-1.46-0.49-1.85-0.84c-0.43-0.4-0.65-1.23-0.65-2.5V31.24c0-3.04-0.71-5.19-2.13-6.46
		c-1.42-1.26-3.22-1.9-5.39-1.9c-1.6,0-3.05,0.38-4.33,1.15c-1.28,0.76-2.5,1.85-3.66,3.25V11.36h-10.95v1.35
		c1.2,0.15,2,0.45,2.41,0.91c0.41,0.46,0.61,1.25,0.61,2.39v28.85c0,1.29-0.24,2.15-0.73,2.59c-0.49,0.43-1.25,0.72-2.28,0.85v1.35
		h13.64v-1.35c-1.01-0.2-1.71-0.48-2.07-0.83c-0.37-0.35-0.55-1.14-0.55-2.38V29.92c0-0.33,0.52-0.95,1.56-1.85
		c1.04-0.9,2.05-1.36,3.03-1.36c1.31,0,2.19,0.58,2.63,1.74c0.26,0.65,0.39,1.61,0.39,2.9v13.72
		C274.2,46.31,274.02,47.1,273.65,47.45z"/>
	<path d="M350.56,29.13c0.77-0.93,1.53-1.4,2.29-1.4c0.35,0,0.97,0.56,1.84,1.69c0.88,1.12,1.92,1.69,3.12,1.69
		c1.05,0,1.91-0.36,2.57-1.08c0.66-0.72,0.98-1.63,0.98-2.74c0-1.44-0.47-2.53-1.4-3.28c-0.94-0.75-1.98-1.12-3.15-1.12
		c-1.56,0-2.92,0.46-4.11,1.38c-1.18,0.92-2.37,2.17-3.57,3.73v-4.45H338.4v1.36c1.2,0.15,2,0.44,2.41,0.86
		c0.4,0.43,0.61,1.24,0.61,2.43v15.41l-0.06,1.66c-0.04,1.11-0.27,1.85-0.69,2.24c-0.34,0.31-0.89,0.53-1.64,0.67v-0.95
		c-1.29-0.11-2.16-0.39-2.6-0.84c-0.44-0.45-0.66-1.26-0.66-2.43V11.36h-12.2v1.35c1.73,0.07,2.88,0.28,3.43,0.63
		c0.55,0.35,0.83,1.23,0.83,2.66v10.37c-1.09-1.14-1.99-1.94-2.71-2.38c-1.16-0.74-2.49-1.11-3.98-1.11c-2.99,0-5.55,1.3-7.68,3.89
		c-2.13,2.59-3.19,6.13-3.19,10.61c0,4.02,1.02,7.2,3.07,9.54c2.05,2.34,4.45,3.51,7.22,3.51c1.62,0,3.14-0.42,4.54-1.27
		c0.88-0.54,1.86-1.35,2.93-2.46v3.73c2.33-0.65,3.95-1.04,4.87-1.2c0.86-0.15,2.7-0.36,5.52-0.64v1.04h15.07v-1.35
		c-1.62-0.15-2.7-0.45-3.25-0.92c-0.54-0.47-0.82-1.64-0.82-3.51V33.13C349.41,31.39,349.79,30.06,350.56,29.13z M327.82,43.3
		c0,0.44-0.49,1.21-1.46,2.3c-0.97,1.09-2.07,1.63-3.29,1.63c-1.94,0-3.26-1.34-3.94-4.01c-0.37-1.48-0.56-3.67-0.56-6.58
		c0-2.73,0.19-4.84,0.58-6.33c0.72-2.78,2.09-4.18,4.11-4.18c1.37,0,2.47,0.45,3.3,1.36c0.83,0.9,1.25,1.59,1.25,2.05V43.3z"/>
	<path d="M382.56,43.36l-1.3-0.8c-1.07,1.18-1.97,2.02-2.69,2.52c-1.18,0.83-2.44,1.24-3.77,1.24c-2.79,0-4.74-1.56-5.85-4.67
		c-0.61-1.66-0.98-3.62-1.11-5.89h14.47c0-0.52-0.07-1.26-0.2-2.24c-0.26-2.08-0.72-3.78-1.38-5.09c-0.89-1.73-2.15-3.09-3.79-4.07
		c-1.64-0.98-3.4-1.47-5.26-1.47c-3.27,0-6.06,1.2-8.38,3.61c-2.32,2.41-3.47,5.79-3.47,10.14c0,4.81,1.22,8.32,3.65,10.51
		c2.44,2.19,5.05,3.29,7.84,3.29c1.94,0,3.66-0.36,5.15-1.08C378.78,48.24,380.81,46.24,382.56,43.36z M368.64,26.96
		c0.55-1.53,1.56-2.3,3.04-2.3c1.44,0,2.41,0.66,2.89,1.99c0.48,1.33,0.74,3.66,0.78,7h-7.63
		C367.78,30.72,368.09,28.49,368.64,26.96z"/>
	<path d="M399.75,47.45c-0.37,0.35-1.06,0.63-2.07,0.83v1.35h13.3v-1.35c-1.01-0.13-1.74-0.38-2.17-0.75s-0.65-1.19-0.65-2.46V31.38
		c0-3.15-0.67-5.36-2.01-6.61c-1.34-1.25-3.22-1.88-5.66-1.88c-1.7,0-3.24,0.45-4.63,1.34c-1.39,0.89-2.54,2.03-3.44,3.39v-4.07
		h-10.73v1.36c1.22,0.15,2.02,0.45,2.42,0.89c0.39,0.45,0.59,1.25,0.59,2.4v16.65c0,1.29-0.25,2.15-0.73,2.59
		c-0.49,0.43-1.25,0.72-2.28,0.85v1.35h13.64v-1.35c-1.01-0.2-1.71-0.48-2.08-0.83c-0.37-0.35-0.55-1.14-0.55-2.38V29.92
		c0.44-0.72,1.07-1.43,1.9-2.14c0.82-0.71,1.72-1.07,2.7-1.07c1.31,0,2.18,0.58,2.63,1.74c0.26,0.65,0.39,1.61,0.39,2.9v13.72
		C400.3,46.31,400.12,47.1,399.75,47.45z"/>
	<path d="M418.57,10.5c-1.46,0-2.61,0.44-3.46,1.33c-0.85,0.88-1.27,2.04-1.27,3.46c0,1.29,0.39,2.35,1.19,3.17
		c0.79,0.82,1.8,1.23,3.02,1.23c0.18,0,0.59-0.05,1.22-0.14c0.37,0,0.66,0.12,0.86,0.36c0.18,0.26,0.28,0.57,0.28,0.94
		c0,1.37-0.77,2.82-2.32,4.37c-0.87,0.87-2.15,1.89-3.85,3.07l0.66,1.24c2.56-1.44,4.56-2.92,6-4.45c2.25-2.41,3.38-5.09,3.38-8.02
		c0-2.03-0.55-3.63-1.65-4.8C421.53,11.08,420.18,10.5,418.57,10.5z"/>
	<path d="M434.63,50.44c3.04,0,5.33-0.91,6.85-2.72c1.52-1.82,2.28-3.78,2.28-5.88c0-2.16-0.74-3.97-2.21-5.45
		c-0.89-0.87-2.29-1.76-4.21-2.68l-3.1-1.49c-1.49-0.72-2.51-1.42-3.04-2.1c-0.55-0.66-0.83-1.33-0.83-1.99
		c0-0.81,0.31-1.57,0.93-2.27c0.62-0.7,1.55-1.05,2.81-1.05c1.62,0,3.04,0.58,4.26,1.74c1.22,1.16,2.09,2.7,2.63,4.62h1.44v-8.19
		h-1.24c-0.13,0.35-0.29,0.62-0.49,0.82c-0.19,0.19-0.52,0.29-0.98,0.29c-0.33,0-1.17-0.2-2.52-0.59c-1.35-0.4-2.62-0.6-3.82-0.6
		c-2.75,0-4.89,0.8-6.42,2.39c-1.53,1.6-2.3,3.49-2.3,5.68c0,1.73,0.49,3.24,1.47,4.51c0.96,1.27,2.54,2.45,4.76,3.54l4.2,2.05
		c0.9,0.44,1.56,0.86,1.97,1.25c0.74,0.72,1.11,1.59,1.11,2.6c0,1.07-0.34,1.93-1.02,2.59c-0.68,0.66-1.75,0.98-3.21,0.98
		c-1.59,0-3.14-0.56-4.65-1.67c-1.51-1.12-2.54-3.03-3.1-5.74h-1.58v9.38h1.35c0.3-0.59,0.56-1.01,0.79-1.26
		c0.23-0.25,0.5-0.37,0.82-0.37c0.13,0,0.23,0.01,0.32,0.03c0.08,0.02,0.3,0.09,0.65,0.22l0.97,0.33c1.12,0.39,2.07,0.66,2.83,0.82
		C433.11,50.36,433.87,50.44,434.63,50.44z"/>
	<path class="st2" d="M67.57,31.67c-1.14,0-2.18,0.46-2.93,1.2L52.3,45.61c-4.78,4.14-9.32,6.32-16.35,6.36v0
		c-6.85-0.11-11.33-2.28-16.03-6.36L7.46,32.87c-0.75-0.74-1.79-1.2-2.93-1.2c-2.31,0-4.18,1.88-4.18,4.18
		c0,1.15,0.47,2.2,1.23,2.96l16.2,15.8c4.56,3.74,11.02,5.62,18.17,5.62c7.16,0,13.61-1.88,18.17-5.62l16.41-15.8
		c0.76-0.75,1.23-1.8,1.23-2.96C71.76,33.55,69.88,31.67,67.57,31.67z"/>
	<path class="st2" d="M21.52,38.38c4.74,4.53,7.51,7.41,14.39,7.51c7.16,0.11,9.95-2.96,14.77-7.57l9.55-9.69
		c0.75-0.76,1.23-1.8,1.23-2.96c0-2.31-1.88-4.18-4.18-4.18c-1.19,0-2.26,0.5-3.03,1.3l-10.84,10.9c-1.85,2.03-4.52,3.3-7.48,3.3
		c-2.95,0-5.6-1.26-7.45-3.26L17.85,22.78c-0.76-0.8-1.83-1.3-3.02-1.3c-2.31,0-4.18,1.88-4.18,4.18c0,1.15,0.47,2.2,1.23,2.96
		L21.52,38.38z"/>
	<path class="st2" d="M33.76,30c0.56,0.59,1.36,0.96,2.24,0.96c0.87,0,1.67-0.36,2.23-0.95l11.81-11.67
		c0.77-0.76,1.24-1.81,1.24-2.97c0-2.31-1.88-4.18-4.18-4.18c-1.13,0-2.15,0.45-2.9,1.17l-6.88,6.97c-0.35,0.35-0.83,0.57-1.37,0.57
		c-0.55,0-1.05-0.23-1.4-0.61l-6.63-6.93c-0.75-0.72-1.77-1.17-2.9-1.17c-2.31,0-4.18,1.88-4.18,4.18c0,1.16,0.47,2.21,1.24,2.97
		L33.76,30z"/>
	<path class="st2" d="M35.95,11.63c3.03,0,5.5-2.46,5.5-5.5c0-3.03-2.46-5.5-5.5-5.5c-3.04,0-5.5,2.46-5.5,5.5
		C30.45,9.17,32.91,11.63,35.95,11.63z"/>
	<path d="M645.1,7.92l-0.97-1.76c0.79-0.19,1.39-0.78,1.39-1.61c0-1.14-1.03-1.68-2.36-1.68h-3.2v0.29c0.7,0,0.7,0.54,0.7,1.2v3.26
		c0,0.82,0,1.22-0.81,1.22v0.29h3.26V8.84c-0.92,0-0.92-0.4-0.92-1.22V6.28h0.35l1.58,2.85h1.87V8.84
		C645.58,8.84,645.29,8.26,645.1,7.92z M642.63,5.93c-0.15,0-0.34-0.02-0.43-0.05V3.22h0.36c1.11,0,1.3,0.73,1.3,1.3
		C643.86,5.25,643.42,5.93,642.63,5.93z"/>
	<path d="M642.76,0.61c-3.02,0-5.49,2.45-5.49,5.48s2.47,5.48,5.49,5.48s5.48-2.46,5.48-5.48S645.78,0.61,642.76,0.61z
		 M642.76,10.89c-2.64,0-4.8-2.15-4.8-4.8c0-2.64,2.15-4.8,4.8-4.8c2.64,0,4.78,2.15,4.78,4.8C647.54,8.73,645.4,10.89,642.76,10.89
		z"/>
	<path d="M473.69,48.2c-1.57-0.06-2.68-0.25-3.35-0.58c-1.14-0.59-1.72-1.73-1.72-3.4V31.16h13.5v13.05c0,1.62-0.53,2.73-1.58,3.32
		c-0.68,0.39-1.83,0.61-3.46,0.66v1.44h19.28V48.2c-1.51-0.06-2.59-0.26-3.23-0.61c-1.13-0.59-1.69-1.71-1.69-3.38V16.78
		c0-1.61,0.51-2.7,1.52-3.27c0.61-0.35,1.74-0.59,3.4-0.72v-1.44h-19.28v1.44c1.72,0.11,2.89,0.34,3.51,0.69
		c1.01,0.57,1.52,1.67,1.52,3.3v11.76h-13.5V16.78c0-1.63,0.54-2.74,1.61-3.32c0.64-0.35,1.8-0.57,3.46-0.66v-1.44h-19.17v1.44
		c1.68,0.17,2.8,0.41,3.38,0.74c0.94,0.57,1.41,1.65,1.41,3.24v27.44c0,1.64-0.53,2.76-1.58,3.35c-0.63,0.35-1.7,0.56-3.21,0.63
		v1.44h19.17V48.2z"/>
	<path d="M498.58,46.52c2.41,2.65,5.47,3.97,9.15,3.97c3.8,0,6.88-1.36,9.24-4.08c2.36-2.72,3.54-5.97,3.54-9.75
		c0-3.84-1.19-7.1-3.58-9.79c-2.39-2.69-5.45-4.04-9.2-4.04c-3.67,0-6.72,1.32-9.14,3.96c-2.42,2.64-3.64,5.93-3.64,9.88
		C494.95,40.59,496.16,43.88,498.58,46.52z M503.91,28.34c0.64-2.45,1.93-3.68,3.84-3.68c1.75,0,2.93,0.94,3.53,2.83
		c0.6,1.89,0.9,4.95,0.9,9.17c0,4.24-0.29,7.3-0.86,9.18c-0.57,1.88-1.77,2.82-3.59,2.82c-1.92,0-3.2-1.23-3.85-3.68
		c-0.4-1.59-0.61-4.36-0.61-8.33C503.28,32.76,503.49,29.98,503.91,28.34z"/>
	<path d="M523.57,49.18c0.23-0.25,0.5-0.37,0.82-0.37c0.13,0,0.23,0.01,0.32,0.03c0.08,0.02,0.3,0.09,0.65,0.22l0.97,0.33
		c1.12,0.39,2.07,0.66,2.83,0.82c0.77,0.16,1.53,0.23,2.28,0.23c3.04,0,5.33-0.91,6.85-2.72s2.28-3.78,2.28-5.88
		c0-2.16-0.74-3.97-2.21-5.45c-0.89-0.87-2.29-1.76-4.21-2.68l-3.1-1.49c-1.49-0.72-2.51-1.42-3.04-2.1
		c-0.55-0.66-0.83-1.33-0.83-1.99c0-0.81,0.31-1.57,0.93-2.27c0.62-0.7,1.55-1.05,2.81-1.05c1.62,0,3.04,0.58,4.26,1.74
		c1.22,1.16,2.09,2.7,2.63,4.62h1.44v-8.19H538c-0.13,0.35-0.29,0.62-0.49,0.82c-0.19,0.19-0.52,0.29-0.98,0.29
		c-0.33,0-1.17-0.2-2.52-0.59s-2.62-0.6-3.82-0.6c-2.75,0-4.89,0.8-6.42,2.39c-1.53,1.6-2.3,3.49-2.3,5.68
		c0,1.73,0.49,3.24,1.47,4.51c0.96,1.27,2.54,2.45,4.76,3.54l4.2,2.05c0.9,0.44,1.56,0.86,1.97,1.25c0.74,0.72,1.11,1.59,1.11,2.6
		c0,1.07-0.34,1.93-1.02,2.59s-1.75,0.98-3.21,0.98c-1.59,0-3.14-0.56-4.65-1.67c-1.51-1.12-2.54-3.03-3.1-5.74h-1.58v9.38h1.35
		C523.08,49.85,523.34,49.43,523.57,49.18z"/>
	<path d="M553.5,49.08c1.38,0.9,2.85,1.35,4.4,1.35c3.02,0,5.59-1.35,7.7-4.05c2.11-2.7,3.17-6.11,3.17-10.22
		c0-4.42-0.98-7.75-2.95-9.98c-1.97-2.23-4.43-3.35-7.4-3.35c-2.06,0-3.76,0.54-5.09,1.6c-0.74,0.61-1.49,1.56-2.27,2.85v-3.73
		h-10.82v1.36c1.18,0.17,1.98,0.46,2.39,0.88c0.42,0.42,0.62,1.22,0.62,2.41v28.46c0,1.2-0.22,2.02-0.66,2.45
		c-0.44,0.43-1.27,0.71-2.49,0.85v1.35h15.49v-1.16c-1.49-0.09-2.56-0.42-3.19-0.97c-0.64-0.55-1.02-1.58-1.15-3.07
		c-0.02-0.31-0.04-1.74-0.06-4.29v-4.78C552,47.92,552.76,48.6,553.5,49.08z M551.2,30.05c0-0.48,0.48-1.25,1.44-2.32
		c0.96-1.07,2.05-1.6,3.26-1.6c1.81,0,3.01,0.96,3.6,2.89c0.59,1.93,0.88,4.51,0.88,7.76c0,2.8-0.19,4.95-0.58,6.45
		c-0.72,2.71-2.1,4.07-4.15,4.07c-1.14,0-2.17-0.44-3.08-1.31c-0.92-0.88-1.37-1.59-1.37-2.14V30.05z"/>
	<path d="M575.45,19.29c1.2,0,2.23-0.43,3.09-1.29c0.86-0.86,1.28-1.9,1.28-3.11c0-1.22-0.43-2.25-1.28-3.11
		c-0.86-0.86-1.89-1.29-3.09-1.29c-1.22,0-2.25,0.43-3.11,1.29c-0.86,0.86-1.29,1.89-1.29,3.11c0,1.22,0.43,2.25,1.29,3.11
		C573.19,18.86,574.23,19.29,575.45,19.29z"/>
	<path d="M571.44,28.2v16.65c0,1.29-0.28,2.18-0.83,2.68c-0.37,0.33-1.05,0.58-2.05,0.75v1.35h13.5v-1.35
		c-1.01-0.2-1.71-0.48-2.07-0.83c-0.37-0.35-0.55-1.14-0.55-2.38V23.55h-10.87v1.36c1.14,0.2,1.91,0.52,2.3,0.93
		C571.24,26.26,571.44,27.05,571.44,28.2z"/>
	<path d="M633.38,44.85v-33.5h-10.73v1.35c1.05,0.24,1.77,0.55,2.16,0.92c0.39,0.37,0.58,1.16,0.58,2.37v28.85
		c0,1.25-0.21,2.08-0.62,2.47c-0.34,0.33-0.89,0.6-1.62,0.82c0.3-0.28,0.59-0.58,0.87-0.91l-0.86-1.19
		c-0.37,0.37-0.64,0.59-0.82,0.68c-0.18,0.08-0.37,0.13-0.59,0.13c-0.26,0-0.49-0.14-0.7-0.43c-0.21-0.28-0.32-0.63-0.32-1.04V31.66
		c0-3.36-1.07-5.66-3.21-6.92c-2.16-1.23-4.84-1.85-8.05-1.85c-2.99,0-5.5,0.63-7.55,1.9c-2.05,1.27-3.07,2.99-3.07,5.16
		c0,1.21,0.38,2.14,1.15,2.79c0.76,0.64,1.69,0.97,2.78,0.97c0.94,0,1.77-0.29,2.48-0.87c0.71-0.58,1.06-1.41,1.06-2.48
		c0-0.42-0.08-0.82-0.24-1.2c-0.16-0.38-0.36-0.72-0.62-1.04l-0.33-0.39c-0.15-0.17-0.26-0.32-0.33-0.47
		c-0.08-0.15-0.11-0.33-0.11-0.55c0-0.57,0.33-1.05,0.98-1.42c0.66-0.38,1.49-0.57,2.5-0.57c1.81,0,3.07,0.4,3.78,1.2
		c0.71,0.8,1.06,2.04,1.06,3.72v4.12c-5.24,1.51-9.08,3.02-11.53,4.52c-2.17,1.32-3.37,3.05-3.63,5.2l-0.24-0.11
		c-0.5,0.92-0.99,1.65-1.49,2.17c-0.5,0.52-1.11,0.79-1.85,0.79c-0.85,0-1.46-0.42-1.83-1.24c-0.24-0.54-0.36-1.2-0.36-1.99V26.04
		h5.39v-2.49h-5.39v-9.57h-1.44c-1.4,2.16-2.96,4.18-4.67,6.06c-0.87,0.96-1.79,1.89-2.77,2.79c-0.74,0.63-1.36,1.17-1.85,1.63v1.58
		h2.93v18.37c0.01,2.52,0.97,4.27,2.89,5.23c0.99,0.5,2.16,0.75,3.48,0.75c2.34,0,4.32-0.86,5.94-2.57c0.5-0.52,0.95-1.14,1.37-1.83
		c0.27,1.27,0.89,2.27,1.85,2.98c1.35,0.99,2.79,1.48,4.34,1.48c1.16,0,2.34-0.2,3.54-0.61c1.97-0.65,3.74-1.75,5.31-3.33
		c0.2,1.09,0.53,1.91,0.97,2.47c0.78,0.98,2,1.47,3.68,1.47c0.94,0,1.84-0.16,2.68-0.5c0.81-0.31,1.58-0.78,2.31-1.38v1.08h13.5
		v-1.35c-1.03-0.26-1.75-0.58-2.16-0.97C633.59,46.93,633.38,46.11,633.38,44.85z M612.93,44.02c-0.61,0.7-1.13,1.22-1.58,1.55
		c-0.79,0.56-1.65,0.83-2.57,0.83c-0.7,0-1.33-0.32-1.89-0.96c-0.56-0.64-0.85-1.57-0.85-2.81c0-2.09,0.97-3.81,2.9-5.16
		c1.14-0.79,2.47-1.38,3.98-1.75V44.02z"/>
</g>
</svg>
