<?xml version="1.0" encoding="utf-8"?>
<!-- Generator: Adobe Illustrator 26.2.1, SVG Export Plug-In . SVG Version: 6.00 Build 0)  -->
<svg version="1.1" id="Layer_1" xmlns="http://www.w3.org/2000/svg" xmlns:xlink="http://www.w3.org/1999/xlink" x="0px" y="0px"
	 viewBox="0 0 731.08 61.07" style="enable-background:new 0 0 731.08 61.07;" xml:space="preserve">
<style type="text/css">
	.st0{fill:none;}
	.st1{fill:#E51B27;}
</style>
<g>
	<path class="st0" d="M559.64,25.96c-0.48-1.33-1.44-2-2.89-2c-1.48,0-2.5,0.77-3.04,2.3c-0.55,1.53-0.86,3.77-0.93,6.71h7.65
		C560.39,29.62,560.13,27.28,559.64,25.96z"/>
	<path class="st0" d="M378.08,26.01c-0.48-1.33-1.44-1.99-2.89-1.99c-1.48,0-2.49,0.76-3.04,2.3c-0.55,1.53-0.86,3.76-0.93,6.69
		h7.63C378.83,29.67,378.57,27.33,378.08,26.01z"/>
	<path class="st0" d="M531.54,38.67c1.42,0,2.4-0.62,2.94-1.87c0.53-1.25,0.8-3.07,0.8-5.47c0-2.55-0.28-4.41-0.85-5.57
		c-0.56-1.16-1.53-1.75-2.89-1.75c-1.5,0-2.49,0.62-2.99,1.87c-0.5,1.25-0.75,3.06-0.75,5.45c0,2.18,0.18,3.8,0.55,4.85
		C528.91,37.84,529.97,38.67,531.54,38.67z"/>
	<path class="st0" d="M326.8,25.48c-2.01,0-3.38,1.39-4.1,4.18c-0.39,1.49-0.58,3.6-0.58,6.33c0,2.91,0.18,5.1,0.56,6.58
		c0.68,2.67,1.99,4.01,3.94,4.01c1.22,0,2.32-0.54,3.29-1.63c0.97-1.09,1.46-1.85,1.46-2.3V28.88c0-0.46-0.42-1.14-1.25-2.05
		C329.27,25.93,328.17,25.48,326.8,25.48z"/>
	<path class="st0" d="M539.75,52.74c-0.73-0.49-2.05-0.74-3.98-0.74h-9.31c-0.59,0.48-1.01,0.89-1.27,1.22
		c-0.46,0.61-0.69,1.26-0.69,1.95c0,1.17,0.62,2.09,1.87,2.75c1.25,0.67,3.05,1,5.42,1c2.11,0,3.84-0.17,5.21-0.5
		c2.57-0.63,3.85-1.79,3.85-3.48C540.85,53.97,540.48,53.23,539.75,52.74z"/>
	<path class="st0" d="M449.55,2.57h-0.36v2.66c0.09,0.03,0.28,0.05,0.43,0.05c0.79,0,1.23-0.68,1.23-1.41
		C450.85,3.3,450.66,2.57,449.55,2.57z"/>
	<path class="st0" d="M449.74,0.64c-2.64,0-4.8,2.15-4.8,4.8c0,2.64,2.15,4.8,4.8,4.8c2.64,0,4.78-2.15,4.78-4.8
		C454.52,2.8,452.38,0.64,449.74,0.64z M452.99,8.48h-1.87l-1.58-2.85h-0.35v1.35c0,0.82,0,1.22,0.92,1.22v0.29h-3.26V8.19
		c0.81,0,0.81-0.4,0.81-1.22V3.72c0-0.66,0-1.2-0.7-1.2V2.23h3.2c1.33,0,2.36,0.54,2.36,1.68c0,0.84-0.6,1.42-1.39,1.61l0.97,1.75
		c0.19,0.34,0.47,0.92,0.9,0.92V8.48z"/>
	<path class="st0" d="M722.37,25.96c-0.48-1.33-1.44-2-2.89-2c-1.48,0-2.5,0.77-3.04,2.3c-0.55,1.53-0.86,3.77-0.93,6.71h7.65
		C723.12,29.62,722.86,27.28,722.37,25.96z"/>
	<path class="st0" d="M174.28,41.98c0,1.24,0.28,2.18,0.84,2.81c0.56,0.64,1.19,0.96,1.89,0.96c0.92,0,1.78-0.27,2.57-0.83
		c0.44-0.33,0.97-0.85,1.58-1.55v-8.29c-1.51,0.37-2.84,0.95-3.98,1.75C175.25,38.17,174.28,39.89,174.28,41.98z"/>
	<path class="st0" d="M669.39,41.96c0,1.24,0.28,2.18,0.85,2.82c0.56,0.64,1.2,0.96,1.9,0.96c0.93,0,1.78-0.28,2.58-0.83
		c0.44-0.33,0.97-0.85,1.58-1.56v-8.31c-1.51,0.37-2.84,0.95-3.99,1.75C670.36,38.15,669.39,39.87,669.39,41.96z"/>
	<path class="st0" d="M133.02,26.01c-0.48-1.33-1.44-1.99-2.89-1.99c-1.48,0-2.49,0.76-3.04,2.3c-0.55,1.53-0.86,3.76-0.93,6.69
		h7.63C133.76,29.67,133.51,27.33,133.02,26.01z"/>
	<path d="M121.41,22.11l-0.06-11.42H87.26L87.2,22.11h1.63c0.35-4.05,1.88-6.81,4.59-8.29c1.48-0.8,3.59-1.23,6.36-1.3v29.83
		c0,2.07-0.36,3.45-1.09,4.14c-0.73,0.69-2.2,1.04-4.41,1.04v1.44h20.19v-1.44c-2.31,0-3.82-0.34-4.55-1.02
		c-0.73-0.68-1.09-2.07-1.09-4.15V12.52c2.82,0.07,4.94,0.51,6.36,1.3c2.52,1.44,4.06,4.21,4.59,8.29H121.41z"/>
	<path d="M139.72,41.91c-1.07,1.18-1.97,2.02-2.69,2.52c-1.18,0.83-2.44,1.24-3.77,1.24c-2.79,0-4.74-1.56-5.85-4.67
		c-0.61-1.66-0.98-3.62-1.11-5.89h14.46c0-0.52-0.06-1.26-0.19-2.24c-0.26-2.08-0.72-3.78-1.38-5.09c-0.89-1.73-2.15-3.09-3.79-4.06
		c-1.64-0.98-3.4-1.47-5.26-1.47c-3.27,0-6.06,1.2-8.38,3.61c-2.32,2.4-3.47,5.78-3.47,10.13c0,4.81,1.22,8.32,3.65,10.51
		c2.44,2.19,5.05,3.29,7.83,3.29c1.94,0,3.65-0.36,5.15-1.08c2.31-1.12,4.34-3.12,6.09-6L139.72,41.91z M127.1,26.31
		c0.55-1.53,1.56-2.3,3.04-2.3c1.44,0,2.4,0.66,2.89,1.99c0.48,1.33,0.74,3.66,0.78,6.99h-7.63
		C126.24,30.07,126.55,27.84,127.1,26.31z"/>
	<path d="M164.92,46.49l-8.46-12.85l5.86-7.22c0.6-0.76,1.33-1.32,2.17-1.69c0.46-0.18,1.04-0.34,1.73-0.47v-1.36h-9.49v1.36
		c1.03,0.04,1.77,0.13,2.22,0.28s0.68,0.5,0.68,1.05c0,0.44-0.23,1-0.69,1.66c-0.46,0.67-1.67,2.22-3.61,4.67
		c-0.72-0.98-1.56-2.22-2.51-3.72c-0.95-1.5-1.42-2.46-1.42-2.89c0-0.35,0.11-0.57,0.33-0.65c0.22-0.08,0.99-0.22,2.29-0.4v-1.36
		h-14.16v1.36c0.68,0.09,1.2,0.25,1.55,0.47c0.35,0.22,0.82,0.78,1.41,1.69l7.28,11.15c-0.61,0.77-1.38,1.79-2.32,3.05
		c-0.94,1.26-1.7,2.24-2.27,2.94c-1.38,1.68-2.41,2.75-3.08,3.21c-0.67,0.46-1.48,0.77-2.42,0.91v1.3h9.56v-1.3
		c-0.94-0.04-1.64-0.15-2.11-0.33c-0.47-0.18-0.7-0.57-0.7-1.16c0-0.5,0.62-1.62,1.85-3.35c0.6-0.84,1.5-2.03,2.71-3.58
		c0.42,0.65,0.88,1.36,1.39,2.11c0.51,0.76,0.9,1.35,1.18,1.78c0.5,0.77,0.86,1.37,1.08,1.8c0.39,0.7,0.58,1.21,0.58,1.52
		c0,0.48-0.23,0.79-0.69,0.94c-0.46,0.15-1.09,0.24-1.88,0.27v1.3h13.63v-1.3c-0.42-0.16-0.76-0.33-1.01-0.48
		C165.35,47.04,165.13,46.81,164.92,46.49z"/>
	<path d="M204.13,33.06l-3.1-1.49c-1.49-0.72-2.51-1.42-3.04-2.1c-0.55-0.66-0.83-1.33-0.83-1.99c0-0.81,0.31-1.57,0.93-2.27
		c0.62-0.7,1.55-1.05,2.81-1.05c1.62,0,3.04,0.58,4.26,1.74c1.22,1.16,2.09,2.7,2.63,4.62h1.44v-8.18h-1.24
		c-0.13,0.35-0.29,0.62-0.48,0.82c-0.19,0.19-0.52,0.29-0.98,0.29c-0.33,0-1.17-0.2-2.52-0.59c-1.35-0.4-2.62-0.59-3.82-0.59
		c-2.75,0-4.89,0.8-6.42,2.39c-1.53,1.59-2.3,3.49-2.3,5.68c0,1.73,0.49,3.24,1.47,4.51c0.96,1.27,2.54,2.45,4.76,3.54l4.2,2.05
		c0.9,0.44,1.56,0.86,1.96,1.25c0.74,0.72,1.11,1.58,1.11,2.6c0,1.07-0.34,1.93-1.02,2.58s-1.75,0.98-3.21,0.98
		c-1.59,0-3.13-0.56-4.65-1.67c-1.51-1.12-2.54-3.03-3.1-5.74h-1.58v5l-0.01-0.02c-0.37,0.37-0.64,0.59-0.82,0.68
		c-0.18,0.08-0.37,0.13-0.59,0.13c-0.26,0-0.49-0.14-0.7-0.43c-0.21-0.28-0.32-0.63-0.32-1.04V31.01c0-3.35-1.07-5.66-3.21-6.91
		c-2.16-1.23-4.84-1.85-8.05-1.85c-2.99,0-5.5,0.63-7.55,1.9c-2.05,1.27-3.07,2.99-3.07,5.16c0,1.21,0.38,2.14,1.15,2.79
		c0.76,0.64,1.69,0.96,2.78,0.96c0.94,0,1.77-0.29,2.47-0.87c0.71-0.58,1.06-1.4,1.06-2.47c0-0.42-0.08-0.82-0.23-1.2
		c-0.16-0.38-0.36-0.72-0.62-1.04l-0.33-0.39c-0.15-0.17-0.26-0.32-0.33-0.47s-0.11-0.33-0.11-0.55c0-0.57,0.33-1.05,0.98-1.42
		c0.65-0.38,1.49-0.57,2.5-0.57c1.81,0,3.06,0.4,3.77,1.2c0.71,0.8,1.06,2.04,1.06,3.72v4.12c-5.24,1.51-9.08,3.02-11.53,4.52
		c-2.45,1.49-3.68,3.52-3.68,6.06c0,2.09,0.67,3.63,2.02,4.61c1.35,0.99,2.79,1.48,4.34,1.48c1.16,0,2.34-0.2,3.54-0.61
		c1.97-0.65,3.74-1.75,5.31-3.32c0.2,1.09,0.52,1.91,0.97,2.46c0.77,0.98,2,1.47,3.68,1.47c0.94,0,1.83-0.16,2.68-0.5
		c1.01-0.39,1.96-1,2.83-1.82v2.32h1.35c0.3-0.59,0.56-1.01,0.79-1.26c0.23-0.25,0.5-0.37,0.82-0.37c0.13,0,0.23,0.01,0.32,0.03
		c0.08,0.02,0.3,0.09,0.65,0.22l0.97,0.33c1.12,0.39,2.07,0.66,2.83,0.82c0.76,0.15,1.53,0.23,2.28,0.23c3.04,0,5.32-0.91,6.84-2.72
		c1.52-1.82,2.28-3.77,2.28-5.88c0-2.15-0.74-3.97-2.21-5.45C207.45,34.87,206.05,33.98,204.13,33.06z M181.17,43.37
		c-0.61,0.7-1.13,1.22-1.58,1.55c-0.79,0.56-1.65,0.83-2.57,0.83c-0.7,0-1.33-0.32-1.89-0.96c-0.56-0.64-0.84-1.57-0.84-2.81
		c0-2.09,0.97-3.81,2.9-5.16c1.14-0.79,2.47-1.38,3.98-1.75V43.37z"/>
	<path d="M251.7,44.92c-2.51,1.62-5.21,2.43-8.12,2.43c-4.75,0-8-2.45-9.75-7.36c-0.94-2.62-1.41-5.95-1.41-10.01
		c0-5.51,0.8-9.9,2.39-13.18c1.59-3.27,4.28-4.91,8.08-4.91c3.35,0,6.35,1.53,9,4.59c1.42,1.66,2.81,3.93,4.17,6.8h1.44V10.05h-1.58
		c-0.11,0.61-0.38,1.19-0.82,1.74c-0.43,0.55-1.01,0.83-1.73,0.83c-0.27,0-1.62-0.44-4.03-1.31s-4.8-1.31-7.16-1.31
		c-5.46,0-10.06,1.79-13.82,5.36c-4,3.82-6,8.8-6,14.96c0,6.21,2.09,11.15,6.28,14.82c3.78,3.32,8.46,4.98,14.05,4.98
		c3.65,0,6.97-0.99,9.96-2.96c1.68-1.11,3.62-2.89,5.83-5.36l-1.69-1.38C254.83,42.48,253.14,43.98,251.7,44.92z"/>
	<path d="M294.58,18.65c1.2,0,2.23-0.43,3.08-1.28c0.86-0.86,1.29-1.89,1.29-3.11c0-1.22-0.43-2.25-1.29-3.11
		c-0.85-0.86-1.88-1.29-3.08-1.29c-1.22,0-2.25,0.43-3.11,1.29c-0.86,0.86-1.29,1.89-1.29,3.11c0,1.22,0.43,2.25,1.29,3.11
		C292.32,18.22,293.36,18.65,294.58,18.65z"/>
	<path d="M311.21,44.2V10.72h-10.73v1.35c1.05,0.24,1.77,0.55,2.16,0.92c0.39,0.37,0.58,1.16,0.58,2.37V44.2
		c0,1.25-0.21,2.08-0.63,2.47c-0.37,0.35-0.97,0.64-1.79,0.87c-0.8-0.19-1.37-0.44-1.69-0.74c-0.37-0.35-0.55-1.14-0.55-2.38V22.91
		h-10.87v1.36c1.14,0.2,1.91,0.52,2.3,0.93c0.39,0.42,0.58,1.2,0.58,2.36V44.2c0,1.29-0.27,2.18-0.83,2.68
		c-0.31,0.28-0.87,0.5-1.64,0.66c-0.84-0.21-1.46-0.49-1.85-0.84c-0.43-0.4-0.65-1.23-0.65-2.5V30.6c0-3.04-0.71-5.19-2.13-6.46
		c-1.42-1.26-3.22-1.89-5.39-1.89c-1.6,0-3.05,0.38-4.33,1.15c-1.28,0.76-2.5,1.85-3.66,3.25V10.72h-10.95v1.35
		c1.2,0.15,2,0.45,2.41,0.91c0.41,0.46,0.61,1.25,0.61,2.38V44.2c0,1.29-0.24,2.15-0.73,2.58c-0.49,0.43-1.25,0.72-2.28,0.84v1.35
		h13.63v-1.35c-1.01-0.2-1.7-0.48-2.07-0.83c-0.37-0.35-0.56-1.14-0.56-2.38V29.27c0-0.33,0.52-0.95,1.56-1.85
		c1.04-0.9,2.05-1.36,3.03-1.36c1.31,0,2.19,0.58,2.63,1.74c0.26,0.65,0.39,1.61,0.39,2.9v13.72c0,1.23-0.18,2.03-0.55,2.38
		c-0.37,0.35-1.06,0.63-2.08,0.83v1.35h12.57h0.73h12.05h0.7h12.79v-1.35c-1.03-0.26-1.75-0.58-2.16-0.97
		C311.41,46.27,311.21,45.46,311.21,44.2z"/>
	<path d="M364.88,26.64c0-1.44-0.47-2.53-1.4-3.28s-1.98-1.12-3.15-1.12c-1.55,0-2.92,0.46-4.1,1.38c-1.18,0.92-2.37,2.17-3.58,3.73
		v-4.45h-10.73v1.36c1.2,0.15,2,0.44,2.41,0.86c0.4,0.43,0.61,1.24,0.61,2.43v15.4l-0.06,1.66c-0.04,1.11-0.27,1.85-0.69,2.24
		c-0.34,0.31-0.89,0.53-1.64,0.67v-0.95c-1.29-0.11-2.16-0.39-2.6-0.84c-0.44-0.45-0.67-1.26-0.67-2.43v-32.6H327.1v1.35
		c1.73,0.07,2.88,0.28,3.43,0.63c0.56,0.35,0.83,1.23,0.83,2.66v10.37c-1.09-1.14-1.99-1.94-2.71-2.38
		c-1.16-0.74-2.49-1.11-3.98-1.11c-2.99,0-5.54,1.3-7.67,3.89c-2.13,2.59-3.19,6.12-3.19,10.6c0,4.02,1.02,7.2,3.07,9.54
		c2.05,2.34,4.45,3.51,7.22,3.51c1.62,0,3.13-0.42,4.53-1.27c0.88-0.54,1.86-1.35,2.93-2.46v3.73c2.32-0.65,3.95-1.04,4.87-1.2
		c0.86-0.15,2.71-0.36,5.52-0.64v1.04H357v-1.35c-1.62-0.15-2.7-0.45-3.25-0.92c-0.54-0.47-0.82-1.64-0.82-3.51V32.48
		c0-1.74,0.38-3.07,1.15-4c0.77-0.93,1.53-1.4,2.29-1.4c0.35,0,0.97,0.56,1.84,1.69c0.88,1.12,1.92,1.69,3.12,1.69
		c1.05,0,1.91-0.36,2.56-1.08C364.55,28.66,364.88,27.75,364.88,26.64z M331.35,42.65c0,0.44-0.49,1.21-1.46,2.3
		c-0.97,1.09-2.06,1.63-3.29,1.63c-1.94,0-3.25-1.34-3.94-4.01c-0.37-1.48-0.56-3.67-0.56-6.58c0-2.73,0.19-4.84,0.58-6.33
		c0.72-2.78,2.09-4.18,4.1-4.18c1.37,0,2.47,0.45,3.3,1.36c0.83,0.9,1.25,1.59,1.25,2.05V42.65z"/>
	<path d="M384.78,41.91c-1.07,1.18-1.97,2.02-2.69,2.52c-1.18,0.83-2.44,1.24-3.77,1.24c-2.79,0-4.74-1.56-5.85-4.67
		c-0.61-1.66-0.98-3.62-1.11-5.89h14.46c0-0.52-0.07-1.26-0.2-2.24c-0.26-2.08-0.72-3.78-1.38-5.09c-0.89-1.73-2.15-3.09-3.79-4.06
		c-1.64-0.98-3.4-1.47-5.26-1.47c-3.27,0-6.06,1.2-8.37,3.61c-2.32,2.4-3.47,5.78-3.47,10.13c0,4.81,1.22,8.32,3.65,10.51
		c2.44,2.19,5.05,3.29,7.84,3.29c1.94,0,3.65-0.36,5.15-1.08c2.31-1.12,4.34-3.12,6.09-6L384.78,41.91z M372.16,26.31
		c0.55-1.53,1.56-2.3,3.04-2.3c1.44,0,2.41,0.66,2.89,1.99c0.48,1.33,0.74,3.66,0.78,6.99h-7.63
		C371.3,30.07,371.61,27.84,372.16,26.31z"/>
	<path d="M411.67,44.42V30.73c0-3.15-0.67-5.35-2.01-6.61c-1.34-1.25-3.22-1.88-5.65-1.88c-1.7,0-3.24,0.45-4.63,1.34
		c-1.39,0.89-2.54,2.02-3.44,3.39v-4.07H385.2v1.36c1.22,0.15,2.02,0.45,2.42,0.89c0.39,0.45,0.59,1.25,0.59,2.4V44.2
		c0,1.29-0.25,2.15-0.73,2.58c-0.49,0.43-1.25,0.72-2.28,0.84v1.35h13.63v-1.35c-1.01-0.2-1.71-0.48-2.08-0.83s-0.55-1.14-0.55-2.38
		V29.27c0.44-0.72,1.07-1.43,1.89-2.14c0.82-0.71,1.72-1.07,2.7-1.07c1.31,0,2.18,0.58,2.63,1.74c0.26,0.65,0.39,1.61,0.39,2.9
		v13.72c0,1.23-0.18,2.03-0.55,2.38c-0.37,0.35-1.06,0.63-2.07,0.83v1.35h13.3v-1.35c-1.01-0.13-1.74-0.38-2.17-0.75
		C411.88,46.51,411.67,45.7,411.67,44.42z"/>
	<path d="M422.08,9.86c-1.46,0-2.61,0.44-3.46,1.33c-0.85,0.88-1.27,2.04-1.27,3.46c0,1.29,0.39,2.35,1.19,3.17
		c0.79,0.82,1.8,1.23,3.01,1.23c0.18,0,0.59-0.05,1.22-0.14c0.37,0,0.66,0.12,0.86,0.36c0.18,0.26,0.28,0.57,0.28,0.94
		c0,1.37-0.77,2.82-2.32,4.37c-0.87,0.87-2.15,1.89-3.84,3.07l0.66,1.24c2.56-1.44,4.56-2.92,6-4.45c2.25-2.41,3.37-5.09,3.37-8.02
		c0-2.03-0.55-3.63-1.65-4.8C425.03,10.44,423.68,9.86,422.08,9.86z"/>
	<path d="M440.84,33.06l-3.1-1.49c-1.49-0.72-2.51-1.42-3.04-2.1c-0.55-0.66-0.83-1.33-0.83-1.99c0-0.81,0.31-1.57,0.93-2.27
		c0.62-0.7,1.55-1.05,2.81-1.05c1.62,0,3.04,0.58,4.26,1.74c1.22,1.16,2.09,2.7,2.63,4.62h1.44v-8.18h-1.24
		c-0.13,0.35-0.29,0.62-0.49,0.82c-0.19,0.19-0.52,0.29-0.98,0.29c-0.33,0-1.17-0.2-2.52-0.59c-1.34-0.4-2.62-0.59-3.82-0.59
		c-2.75,0-4.89,0.8-6.41,2.39c-1.53,1.59-2.3,3.49-2.3,5.68c0,1.73,0.49,3.24,1.46,4.51c0.96,1.27,2.54,2.45,4.76,3.54l4.2,2.05
		c0.9,0.44,1.56,0.86,1.96,1.25c0.74,0.72,1.11,1.58,1.11,2.6c0,1.07-0.34,1.93-1.02,2.58c-0.68,0.65-1.75,0.98-3.21,0.98
		c-1.58,0-3.13-0.56-4.65-1.67c-1.51-1.12-2.54-3.03-3.1-5.74h-1.58v9.37h1.35c0.3-0.59,0.56-1.01,0.79-1.26s0.5-0.37,0.82-0.37
		c0.13,0,0.23,0.01,0.32,0.03c0.08,0.02,0.3,0.09,0.65,0.22l0.97,0.33c1.12,0.39,2.07,0.66,2.83,0.82c0.77,0.15,1.53,0.23,2.28,0.23
		c3.04,0,5.32-0.91,6.84-2.72s2.28-3.77,2.28-5.88c0-2.15-0.74-3.97-2.21-5.45C444.16,34.87,442.76,33.98,440.84,33.06z"/>
	<path d="M452.08,7.27l-0.97-1.75c0.79-0.19,1.39-0.78,1.39-1.61c0-1.14-1.03-1.68-2.36-1.68h-3.2v0.29c0.7,0,0.7,0.54,0.7,1.2v3.26
		c0,0.82,0,1.22-0.81,1.22v0.29h3.26V8.19c-0.92,0-0.92-0.4-0.92-1.22V5.63h0.35l1.58,2.85h1.87V8.19
		C452.56,8.19,452.27,7.61,452.08,7.27z M449.61,5.28c-0.15,0-0.34-0.02-0.43-0.05V2.57h0.36c1.11,0,1.3,0.73,1.3,1.3
		C450.85,4.6,450.4,5.28,449.61,5.28z"/>
	<path d="M449.74-0.04c-3.02,0-5.49,2.45-5.49,5.47c0,3.02,2.47,5.48,5.49,5.48c3.02,0,5.47-2.46,5.47-5.48
		C455.21,2.42,452.76-0.04,449.74-0.04z M449.74,10.24c-2.64,0-4.8-2.15-4.8-4.8c0-2.64,2.15-4.8,4.8-4.8c2.64,0,4.78,2.15,4.78,4.8
		C454.52,8.08,452.38,10.24,449.74,10.24z"/>
	<path class="st1" d="M69.55,31.07c-1.14,0-2.17,0.45-2.93,1.19L54.26,45.02c-4.77,4.13-9.32,6.31-16.35,6.36v0
		c-6.86-0.11-11.34-2.28-16.04-6.35L9.41,32.26c-0.76-0.74-1.79-1.19-2.93-1.19c-2.31,0-4.18,1.87-4.18,4.18
		c0,1.16,0.47,2.2,1.23,2.96l16.21,15.8c4.55,3.73,11.01,5.62,18.18,5.62c7.15,0,13.61-1.89,18.17-5.62l16.42-15.8
		c0.76-0.76,1.22-1.81,1.22-2.96C73.73,32.94,71.86,31.07,69.55,31.07z"/>
	<path class="st1" d="M23.48,37.77c4.74,4.53,7.52,7.42,14.4,7.52c7.15,0.1,9.96-2.96,14.77-7.57l9.55-9.69
		c0.76-0.76,1.23-1.81,1.23-2.96c0-2.31-1.88-4.19-4.19-4.19c-1.18,0-2.26,0.5-3.02,1.29l-10.84,10.9c-1.85,2.03-4.52,3.3-7.48,3.3
		c-2.95,0-5.61-1.26-7.46-3.26L19.81,22.17c-0.77-0.8-1.84-1.29-3.03-1.29c-2.31,0-4.18,1.88-4.18,4.19c0,1.15,0.47,2.2,1.22,2.96
		L23.48,37.77z"/>
	<path class="st1" d="M35.72,29.39c0.56,0.59,1.35,0.96,2.24,0.96c0.88,0,1.66-0.36,2.23-0.94l11.81-11.67
		c0.77-0.76,1.24-1.81,1.24-2.97c0-2.31-1.88-4.19-4.18-4.19c-1.13,0-2.15,0.45-2.91,1.18l-6.88,6.97
		c-0.36,0.35-0.84,0.56-1.37,0.56c-0.56,0-1.06-0.23-1.41-0.61l-6.63-6.93c-0.75-0.73-1.78-1.18-2.9-1.18
		c-2.32,0-4.19,1.88-4.19,4.19c0,1.16,0.48,2.21,1.24,2.97L35.72,29.39z"/>
	<path class="st1" d="M37.91,11.01c3.03,0,5.49-2.47,5.49-5.5c0-3.04-2.46-5.5-5.49-5.5c-3.04,0-5.5,2.46-5.5,5.5
		C32.41,8.55,34.87,11.01,37.91,11.01z"/>
	<path d="M497.73,10.63h-12.47v1.44c2.18,0.17,3.64,0.63,4.39,1.4c0.75,0.77,1.12,2.17,1.12,4.2v17.36c0,3.2-0.42,5.69-1.27,7.46
		c-1.53,3.24-4.48,4.85-8.84,4.85c-3.51,0-5.88-1.46-7.12-4.39c-0.69-1.57-1.03-3.8-1.03-6.69V17.25c0-2.17,0.37-3.56,1.11-4.16
		c0.74-0.61,2.21-0.95,4.41-1.02v-1.44h-19.18v1.44c1.98,0.22,3.25,0.61,3.81,1.16c0.56,0.55,0.84,1.89,0.84,4.02v19
		c0,3.27,0.64,5.94,1.91,8.02c2.4,3.9,6.86,5.85,13.38,5.85c4.99,0,8.64-1.31,10.97-3.93c2.33-2.62,3.49-6.35,3.49-11.17V16.87
		c0-1.83,0.29-3,0.87-3.5c0.58-0.51,1.78-0.94,3.59-1.29V10.63z"/>
	<path d="M518.59,23.31c-0.93-0.75-1.99-1.12-3.15-1.12c-1.56,0-2.92,0.46-4.11,1.39c-1.18,0.92-2.38,2.17-3.58,3.74v-4.46H497v1.36
		c1.2,0.15,2,0.44,2.41,0.87c0.4,0.43,0.61,1.24,0.61,2.43v15.43l-0.06,1.66c-0.04,1.11-0.27,1.85-0.69,2.24
		c-0.43,0.39-1.18,0.65-2.27,0.78v1.36h15.1v-1.36c-1.63-0.15-2.71-0.45-3.26-0.92s-0.82-1.64-0.82-3.51V32.45
		c0-1.74,0.38-3.08,1.15-4.01c0.77-0.93,1.53-1.4,2.29-1.4c0.35,0,0.97,0.56,1.85,1.69s1.92,1.69,3.12,1.69
		c1.05,0,1.91-0.36,2.57-1.08S520,27.7,520,26.59C520,25.15,519.53,24.06,518.59,23.31z"/>
	<path d="M541.27,46.1c-1.42-0.57-3.18-0.88-5.27-0.91l-3.69-0.06c-0.5,0-1.2-0.01-2.11-0.04c-0.91-0.03-1.5-0.06-1.77-0.1
		c-0.55-0.07-0.99-0.27-1.3-0.58c-0.31-0.32-0.47-0.76-0.47-1.33c0-0.72,0.31-1.34,0.94-1.86c0.61-0.5,1.19-0.79,1.75-0.89
		c0.35,0,0.61,0.01,0.79,0.03c0.18,0.02,0.55,0.03,1.13,0.03c2.64,0,4.85-0.35,6.62-1.05c3.38-1.31,5.07-3.74,5.07-7.29
		c0-1.13-0.2-2.17-0.6-3.13c-0.4-0.96-0.96-1.8-1.7-2.52h4.6v-3.02h-7.48c-0.61-0.28-1.47-0.54-2.58-0.8
		c-1.11-0.26-2.33-0.39-3.66-0.39c-3.53,0-6.33,0.84-8.4,2.52c-2.07,1.68-3.1,3.81-3.1,6.4c0,2.05,0.59,3.8,1.77,5.24
		c1.18,1.44,2.74,2.55,4.66,3.32v0.39c-1.33,0.44-2.69,1.23-4.09,2.36c-1.39,1.13-2.09,2.48-2.09,4.07c0,1.33,0.45,2.39,1.33,3.18
		c0.5,0.45,1.3,0.88,2.41,1.3v0.39c-1.66,0.26-2.83,0.82-3.5,1.68c-0.68,0.86-1.01,1.69-1.01,2.51c0,2.09,1.59,3.57,4.76,4.44
		c1.92,0.52,4.21,0.77,6.87,0.77c3.25,0,5.95-0.36,8.09-1.08c4.06-1.39,6.1-3.93,6.1-7.62C545.34,49.19,543.98,47.21,541.27,46.1z
		 M528.55,25.88c0.5-1.25,1.49-1.87,2.99-1.87c1.37,0,2.33,0.58,2.89,1.75c0.57,1.16,0.85,3.02,0.85,5.57c0,2.4-0.27,4.23-0.8,5.47
		c-0.54,1.25-1.51,1.87-2.94,1.87c-1.57,0-2.63-0.83-3.19-2.49c-0.37-1.05-0.55-2.67-0.55-4.85
		C527.8,28.95,528.05,27.13,528.55,25.88z M537,58.43c-1.37,0.33-3.1,0.5-5.21,0.5c-2.36,0-4.17-0.33-5.42-1
		c-1.25-0.67-1.87-1.59-1.87-2.75c0-0.69,0.23-1.33,0.69-1.95c0.26-0.33,0.68-0.74,1.27-1.22h9.31c1.92,0,3.25,0.25,3.98,0.74
		c0.73,0.49,1.1,1.23,1.1,2.21C540.85,56.64,539.57,57.8,537,58.43z"/>
	<path d="M566.35,41.89c-1.07,1.18-1.97,2.02-2.69,2.52c-1.18,0.83-2.44,1.25-3.78,1.25c-2.8,0-4.75-1.56-5.86-4.68
		c-0.61-1.66-0.98-3.63-1.11-5.9h14.49c0-0.52-0.07-1.27-0.2-2.25c-0.26-2.09-0.72-3.79-1.39-5.1c-0.89-1.74-2.16-3.09-3.8-4.07
		c-1.65-0.98-3.4-1.47-5.27-1.47c-3.27,0-6.07,1.21-8.39,3.62c-2.32,2.41-3.48,5.8-3.48,10.16c0,4.82,1.22,8.33,3.66,10.53
		c2.44,2.2,5.06,3.3,7.85,3.3c1.94,0,3.66-0.36,5.16-1.08c2.31-1.13,4.35-3.13,6.1-6.01L566.35,41.89z M553.71,26.26
		c0.55-1.53,1.56-2.3,3.04-2.3c1.45,0,2.41,0.67,2.89,2c0.48,1.33,0.74,3.67,0.78,7.01h-7.65
		C552.85,30.03,553.16,27.79,553.71,26.26z"/>
	<path d="M593.3,44.41V30.69c0-3.16-0.67-5.37-2.01-6.62c-1.34-1.26-3.23-1.88-5.67-1.88c-1.7,0-3.25,0.45-4.64,1.34
		c-1.39,0.9-2.55,2.03-3.45,3.4v-4.07h-10.75v1.36c1.22,0.15,2.03,0.45,2.43,0.89c0.4,0.45,0.59,1.25,0.59,2.4v16.68
		c0,1.29-0.25,2.16-0.74,2.59s-1.25,0.72-2.29,0.85v1.36h13.66v-1.36c-1.02-0.21-1.71-0.48-2.08-0.83s-0.55-1.15-0.55-2.38V29.23
		c0.45-0.72,1.08-1.44,1.9-2.15c0.82-0.71,1.72-1.07,2.7-1.07c1.31,0,2.19,0.58,2.63,1.75c0.26,0.65,0.39,1.62,0.39,2.91v13.75
		c0,1.24-0.18,2.03-0.55,2.38c-0.37,0.35-1.06,0.63-2.08,0.83v1.36h13.33v-1.36c-1.02-0.13-1.74-0.38-2.18-0.75
		C593.52,46.51,593.3,45.69,593.3,44.41z"/>
	<path d="M610.19,44.87c-0.5,0.52-1.12,0.79-1.85,0.79c-0.85,0-1.46-0.42-1.83-1.25c-0.24-0.54-0.36-1.2-0.36-2V25.34h5.4v-2.49
		h-5.4v-9.59h-1.44c-1.4,2.16-2.97,4.19-4.68,6.07c-0.87,0.96-1.79,1.89-2.77,2.8c-0.74,0.63-1.36,1.17-1.86,1.63v1.58h2.94v18.4
		c0.01,2.53,0.97,4.27,2.89,5.24c1,0.5,2.16,0.75,3.49,0.75c2.34,0,4.33-0.86,5.95-2.58c0.92-0.98,1.72-2.24,2.38-3.8l-1.36-0.67
		C611.19,43.61,610.69,44.34,610.19,44.87z"/>
	<path d="M653.15,44.91c-2.51,1.63-5.22,2.44-8.14,2.44c-4.76,0-8.02-2.46-9.77-7.37c-0.94-2.62-1.41-5.97-1.41-10.03
		c0-5.52,0.8-9.92,2.39-13.2c1.6-3.28,4.3-4.92,8.1-4.92c3.36,0,6.37,1.53,9.02,4.6c1.42,1.66,2.81,3.93,4.18,6.82h1.44V9.97h-1.58
		c-0.11,0.61-0.38,1.19-0.82,1.74c-0.43,0.55-1.01,0.83-1.73,0.83c-0.28,0-1.63-0.44-4.05-1.32c-2.42-0.88-4.81-1.32-7.18-1.32
		c-5.47,0-10.08,1.79-13.85,5.38c-4.01,3.83-6.02,8.82-6.02,14.99c0,6.23,2.1,11.18,6.29,14.85c3.79,3.33,8.48,4.99,14.08,4.99
		c3.66,0,6.98-0.99,9.97-2.97c1.68-1.11,3.63-2.9,5.85-5.38l-1.69-1.39C656.29,42.46,654.59,43.97,653.15,44.91z"/>
	<path d="M709.15,26.59c0-1.44-0.47-2.54-1.4-3.28c-0.93-0.75-1.99-1.12-3.15-1.12c-1.56,0-2.92,0.46-4.11,1.39
		c-1.18,0.92-2.38,2.17-3.58,3.74v-4.46h-10.75v1.36c1.2,0.15,2,0.44,2.41,0.87c0.4,0.43,0.61,1.24,0.61,2.43v15.43l-0.06,1.66
		c-0.04,1.11-0.27,1.85-0.69,2.24c-0.39,0.35-1.06,0.59-2,0.73c0.34-0.31,0.67-0.64,0.99-1.01l-0.86-1.19
		c-0.37,0.37-0.64,0.59-0.82,0.68c-0.18,0.08-0.37,0.13-0.59,0.13c-0.26,0-0.5-0.14-0.71-0.43c-0.21-0.28-0.32-0.63-0.32-1.04V30.97
		c0-3.36-1.07-5.67-3.21-6.93c-2.16-1.24-4.85-1.86-8.06-1.86c-2.99,0-5.51,0.64-7.57,1.91s-3.08,2.99-3.08,5.17
		c0,1.22,0.38,2.15,1.15,2.79c0.76,0.64,1.69,0.97,2.78,0.97c0.94,0,1.77-0.29,2.48-0.87c0.71-0.58,1.07-1.41,1.07-2.48
		c0-0.42-0.08-0.83-0.24-1.21c-0.16-0.38-0.36-0.72-0.62-1.04l-0.33-0.39c-0.15-0.17-0.26-0.32-0.33-0.47
		c-0.08-0.15-0.11-0.33-0.11-0.56c0-0.57,0.33-1.05,0.98-1.43c0.66-0.38,1.49-0.57,2.51-0.57c1.81,0,3.07,0.4,3.78,1.21
		c0.71,0.8,1.07,2.05,1.07,3.73v4.13c-5.24,1.52-9.1,3.03-11.55,4.53c-2.46,1.5-3.69,3.52-3.69,6.08c0,2.09,0.67,3.63,2.02,4.62
		c1.35,0.99,2.8,1.48,4.35,1.48c1.16,0,2.35-0.2,3.55-0.61c1.97-0.65,3.75-1.76,5.32-3.33c0.21,1.09,0.53,1.92,0.97,2.47
		c0.78,0.98,2.01,1.47,3.69,1.47c0.94,0,1.84-0.16,2.69-0.5c0.86-0.33,1.66-0.83,2.42-1.48v1.17h15.1v-1.36
		c-1.63-0.15-2.71-0.45-3.26-0.92s-0.82-1.64-0.82-3.51V32.45c0-1.74,0.38-3.08,1.15-4.01c0.77-0.93,1.53-1.4,2.29-1.4
		c0.35,0,0.97,0.56,1.85,1.69c0.88,1.13,1.92,1.69,3.12,1.69c1.05,0,1.91-0.36,2.57-1.08C708.81,28.61,709.15,27.7,709.15,26.59z
		 M676.3,43.35c-0.61,0.7-1.14,1.22-1.58,1.56c-0.79,0.56-1.65,0.83-2.58,0.83c-0.7,0-1.33-0.32-1.9-0.96
		c-0.57-0.64-0.85-1.58-0.85-2.82c0-2.09,0.97-3.81,2.91-5.17c1.15-0.8,2.48-1.38,3.99-1.75V43.35z"/>
	<path d="M729.08,41.89c-1.07,1.18-1.97,2.02-2.69,2.52c-1.18,0.83-2.44,1.25-3.78,1.25c-2.8,0-4.75-1.56-5.86-4.68
		c-0.61-1.66-0.98-3.63-1.11-5.9h14.49c0-0.52-0.07-1.27-0.2-2.25c-0.26-2.09-0.72-3.79-1.39-5.1c-0.89-1.74-2.16-3.09-3.8-4.07
		c-1.65-0.98-3.4-1.47-5.27-1.47c-3.27,0-6.07,1.21-8.39,3.62c-2.32,2.41-3.48,5.8-3.48,10.16c0,4.82,1.22,8.33,3.66,10.53
		c2.44,2.2,5.06,3.3,7.85,3.3c1.94,0,3.66-0.36,5.16-1.08c2.31-1.13,4.34-3.13,6.1-6.01L729.08,41.89z M716.44,26.26
		c0.55-1.53,1.56-2.3,3.04-2.3c1.45,0,2.41,0.67,2.89,2c0.48,1.33,0.74,3.67,0.78,7.01h-7.65
		C715.58,30.03,715.89,27.79,716.44,26.26z"/>
</g>
</svg>
