<svg xmlns="http://www.w3.org/2000/svg" viewBox="0 0 1024 1024" fill="currentcolor">
  <path d="M513.7 149.3c25.2 0 321.7.9 398.5 21.3 44.4 12.2 78.8 47.2 90.5 91.7 21.3 81.1 21.3 249.6 21.3 249.6v1.7c0 18.3-1.3 171.9-21.3 247.5-11.5 44.7-46 79.9-90.5 92.2-75.1 20.5-360.5 21.3-396.8 21.8h-7.3c-36.3 0-321.7-1.3-396.4-21.3-44.6-12.4-79.1-47.7-90.5-92.6C3.4 692.5.4 560.6 0 522.2v-21.3C.4 462.5 3.4 330.7 21.3 262c11.7-44.4 46.2-79.2 90.5-91.3 76.8-20.9 373.3-21.8 398.5-21.8l3.4.4ZM407 358.4v306.3L674.9 512 407 358.8v-.4Z"/>
</svg>