<svg version="1.1" id="Layer_1" xmlns="http://www.w3.org/2000/svg" x="0" y="0" viewBox="0 0 731.08 61.07" style="enable-background:new 0 0 731.08 61.07" xml:space="preserve"><style>.st0{fill:none}.st1{fill:#e51b27}</style><path class="st0" d="M559.64 25.96c-.48-1.33-1.44-2-2.89-2-1.48 0-2.5.77-3.04 2.3-.55 1.53-.86 3.77-.93 6.71h7.65c-.04-3.35-.3-5.69-.79-7.01zm-181.56.05c-.48-1.33-1.44-1.99-2.89-1.99-1.48 0-2.49.76-3.04 2.3-.55 1.53-.86 3.76-.93 6.69h7.63c-.02-3.34-.28-5.68-.77-7zm153.46 12.66c1.42 0 2.4-.62 2.94-1.87.53-1.25.8-3.07.8-5.47 0-2.55-.28-4.41-.85-5.57-.56-1.16-1.53-1.75-2.89-1.75-1.5 0-2.49.62-2.99 1.87s-.75 3.06-.75 5.45c0 2.18.18 3.8.55 4.85.56 1.66 1.62 2.49 3.19 2.49zM326.8 25.48c-2.01 0-3.38 1.39-4.1 4.18-.39 1.49-.58 3.6-.58 6.33 0 2.91.18 5.1.56 6.58.68 2.67 1.99 4.01 3.94 4.01 1.22 0 2.32-.54 3.29-1.63.97-1.09 1.46-1.85 1.46-2.3V28.88c0-.46-.42-1.14-1.25-2.05-.85-.9-1.95-1.35-3.32-1.35zm212.95 27.26c-.73-.49-2.05-.74-3.98-.74h-9.31c-.59.48-1.01.89-1.27 1.22-.46.61-.69 1.26-.69 1.95 0 1.17.62 2.09 1.87 2.75 1.25.67 3.05 1 5.42 1 2.11 0 3.84-.17 5.21-.5 2.57-.63 3.85-1.79 3.85-3.48 0-.97-.37-1.71-1.1-2.2zm-90.2-50.17h-.36v2.66c.09.03.28.05.43.05.79 0 1.23-.68 1.23-1.41 0-.57-.19-1.3-1.3-1.3z"/><path class="st0" d="M449.74.64c-2.64 0-4.8 2.15-4.8 4.8 0 2.64 2.15 4.8 4.8 4.8 2.64 0 4.78-2.15 4.78-4.8 0-2.64-2.14-4.8-4.78-4.8zm3.25 7.84h-1.87l-1.58-2.85h-.35v1.35c0 .82 0 1.22.92 1.22v.29h-3.26v-.3c.81 0 .81-.4.81-1.22V3.72c0-.66 0-1.2-.7-1.2v-.29h3.2c1.33 0 2.36.54 2.36 1.68 0 .84-.6 1.42-1.39 1.61l.97 1.75c.19.34.47.92.9.92v.29zm269.38 17.48c-.48-1.33-1.44-2-2.89-2-1.48 0-2.5.77-3.04 2.3-.55 1.53-.86 3.77-.93 6.71h7.65c-.04-3.35-.3-5.69-.79-7.01zM174.28 41.98c0 1.24.28 2.18.84 2.81.56.64 1.19.96 1.89.96.92 0 1.78-.27 2.57-.83.44-.33.97-.85 1.58-1.55v-8.29c-1.51.37-2.84.95-3.98 1.75-1.93 1.34-2.9 3.06-2.9 5.15zm495.11-.02c0 1.24.28 2.18.85 2.82.56.64 1.2.96 1.9.96.93 0 1.78-.28 2.58-.83.44-.33.97-.85 1.58-1.56v-8.31c-1.51.37-2.84.95-3.99 1.75-1.95 1.36-2.92 3.08-2.92 5.17zM133.02 26.01c-.48-1.33-1.44-1.99-2.89-1.99-1.48 0-2.49.76-3.04 2.3-.55 1.53-.86 3.76-.93 6.69h7.63c-.03-3.34-.28-5.68-.77-7z"/><path d="m121.41 22.11-.06-11.42H87.26l-.06 11.42h1.63c.35-4.05 1.88-6.81 4.59-8.29 1.48-.8 3.59-1.23 6.36-1.3v29.83c0 2.07-.36 3.45-1.09 4.14-.73.69-2.2 1.04-4.41 1.04v1.44h20.19v-1.44c-2.31 0-3.82-.34-4.55-1.02-.73-.68-1.09-2.07-1.09-4.15V12.52c2.82.07 4.94.51 6.36 1.3 2.52 1.44 4.06 4.21 4.59 8.29h1.63z"/><path d="M139.72 41.91c-1.07 1.18-1.97 2.02-2.69 2.52-1.18.83-2.44 1.24-3.77 1.24-2.79 0-4.74-1.56-5.85-4.67-.61-1.66-.98-3.62-1.11-5.89h14.46c0-.52-.06-1.26-.19-2.24-.26-2.08-.72-3.78-1.38-5.09-.89-1.73-2.15-3.09-3.79-4.06-1.64-.98-3.4-1.47-5.26-1.47-3.27 0-6.06 1.2-8.38 3.61-2.32 2.4-3.47 5.78-3.47 10.13 0 4.81 1.22 8.32 3.65 10.51 2.44 2.19 5.05 3.29 7.83 3.29 1.94 0 3.65-.36 5.15-1.08 2.31-1.12 4.34-3.12 6.09-6l-1.29-.8zm-12.62-15.6c.55-1.53 1.56-2.3 3.04-2.3 1.44 0 2.4.66 2.89 1.99.48 1.33.74 3.66.78 6.99h-7.63c.06-2.92.37-5.15.92-6.68z"/><path d="m164.92 46.49-8.46-12.85 5.86-7.22c.6-.76 1.33-1.32 2.17-1.69.46-.18 1.04-.34 1.73-.47V22.9h-9.49v1.36c1.03.04 1.77.13 2.22.28s.68.5.68 1.05c0 .44-.23 1-.69 1.66-.46.67-1.67 2.22-3.61 4.67-.72-.98-1.56-2.22-2.51-3.72-.95-1.5-1.42-2.46-1.42-2.89 0-.35.11-.57.33-.65.22-.08.99-.22 2.29-.4V22.9h-14.16v1.36c.68.09 1.2.25 1.55.47.35.22.82.78 1.41 1.69l7.28 11.15c-.61.77-1.38 1.79-2.32 3.05-.94 1.26-1.7 2.24-2.27 2.94-1.38 1.68-2.41 2.75-3.08 3.21-.67.46-1.48.77-2.42.91v1.3h9.56v-1.3c-.94-.04-1.64-.15-2.11-.33-.47-.18-.7-.57-.7-1.16 0-.5.62-1.62 1.85-3.35.6-.84 1.5-2.03 2.71-3.58.42.65.88 1.36 1.39 2.11.51.76.9 1.35 1.18 1.78.5.77.86 1.37 1.08 1.8.39.7.58 1.21.58 1.52 0 .48-.23.79-.69.94-.46.15-1.09.24-1.88.27v1.3h13.63v-1.3c-.42-.16-.76-.33-1.01-.48-.25-.16-.47-.39-.68-.71z"/><path d="m204.13 33.06-3.1-1.49c-1.49-.72-2.51-1.42-3.04-2.1-.55-.66-.83-1.33-.83-1.99 0-.81.31-1.57.93-2.27.62-.7 1.55-1.05 2.81-1.05 1.62 0 3.04.58 4.26 1.74 1.22 1.16 2.09 2.7 2.63 4.62h1.44v-8.18h-1.24c-.13.35-.29.62-.48.82-.19.19-.52.29-.98.29-.33 0-1.17-.2-2.52-.59-1.35-.4-2.62-.59-3.82-.59-2.75 0-4.89.8-6.42 2.39-1.53 1.59-2.3 3.49-2.3 5.68 0 1.73.49 3.24 1.47 4.51.96 1.27 2.54 2.45 4.76 3.54l4.2 2.05c.9.44 1.56.86 1.96 1.25.74.72 1.11 1.58 1.11 2.6 0 1.07-.34 1.93-1.02 2.58s-1.75.98-3.21.98c-1.59 0-3.13-.56-4.65-1.67-1.51-1.12-2.54-3.03-3.1-5.74h-1.58v5l-.01-.02c-.37.37-.64.59-.82.68-.18.08-.37.13-.59.13-.26 0-.49-.14-.7-.43-.21-.28-.32-.63-.32-1.04V31.01c0-3.35-1.07-5.66-3.21-6.91-2.16-1.23-4.84-1.85-8.05-1.85-2.99 0-5.5.63-7.55 1.9s-3.07 2.99-3.07 5.16c0 1.21.38 2.14 1.15 2.79.76.64 1.69.96 2.78.96.94 0 1.77-.29 2.47-.87.71-.58 1.06-1.4 1.06-2.47 0-.42-.08-.82-.23-1.2-.16-.38-.36-.72-.62-1.04l-.33-.39c-.15-.17-.26-.32-.33-.47s-.11-.33-.11-.55c0-.57.33-1.05.98-1.42.65-.38 1.49-.57 2.5-.57 1.81 0 3.06.4 3.77 1.2.71.8 1.06 2.04 1.06 3.72v4.12c-5.24 1.51-9.08 3.02-11.53 4.52-2.45 1.49-3.68 3.52-3.68 6.06 0 2.09.67 3.63 2.02 4.61 1.35.99 2.79 1.48 4.34 1.48 1.16 0 2.34-.2 3.54-.61 1.97-.65 3.74-1.75 5.31-3.32.2 1.09.52 1.91.97 2.46.77.98 2 1.47 3.68 1.47.94 0 1.83-.16 2.68-.5 1.01-.39 1.96-1 2.83-1.82v2.32h1.35c.3-.59.56-1.01.79-1.26.23-.25.5-.37.82-.37.13 0 .23.01.32.03.08.02.3.09.65.22l.97.33c1.12.39 2.07.66 2.83.82.76.15 1.53.23 2.28.23 3.04 0 5.32-.91 6.84-2.72 1.52-1.82 2.28-3.77 2.28-5.88 0-2.15-.74-3.97-2.21-5.45-.87-.87-2.27-1.76-4.19-2.68zm-22.96 10.31c-.61.7-1.13 1.22-1.58 1.55-.79.56-1.65.83-2.57.83-.7 0-1.33-.32-1.89-.96-.56-.64-.84-1.57-.84-2.81 0-2.09.97-3.81 2.9-5.16 1.14-.79 2.47-1.38 3.98-1.75v8.3zm70.53 1.55c-2.51 1.62-5.21 2.43-8.12 2.43-4.75 0-8-2.45-9.75-7.36-.94-2.62-1.41-5.95-1.41-10.01 0-5.51.8-9.9 2.39-13.18 1.59-3.27 4.28-4.91 8.08-4.91 3.35 0 6.35 1.53 9 4.59 1.42 1.66 2.81 3.93 4.17 6.8h1.44V10.05h-1.58c-.11.61-.38 1.19-.82 1.74-.43.55-1.01.83-1.73.83-.27 0-1.62-.44-4.03-1.31s-4.8-1.31-7.16-1.31c-5.46 0-10.06 1.79-13.82 5.36-4 3.82-6 8.8-6 14.96 0 6.21 2.09 11.15 6.28 14.82 3.78 3.32 8.46 4.98 14.05 4.98 3.65 0 6.97-.99 9.96-2.96 1.68-1.11 3.62-2.89 5.83-5.36l-1.69-1.38c-1.96 2.06-3.65 3.56-5.09 4.5zm42.88-26.27c1.2 0 2.23-.43 3.08-1.28.86-.86 1.29-1.89 1.29-3.11s-.43-2.25-1.29-3.11c-.85-.86-1.88-1.29-3.08-1.29-1.22 0-2.25.43-3.11 1.29-.86.86-1.29 1.89-1.29 3.11s.43 2.25 1.29 3.11c.85.85 1.89 1.28 3.11 1.28z"/><path d="M311.21 44.2V10.72h-10.73v1.35c1.05.24 1.77.55 2.16.92.39.37.58 1.16.58 2.37V44.2c0 1.25-.21 2.08-.63 2.47-.37.35-.97.64-1.79.87-.8-.19-1.37-.44-1.69-.74-.37-.35-.55-1.14-.55-2.38V22.91h-10.87v1.36c1.14.2 1.91.52 2.3.93.39.42.58 1.2.58 2.36V44.2c0 1.29-.27 2.18-.83 2.68-.31.28-.87.5-1.64.66-.84-.21-1.46-.49-1.85-.84-.43-.4-.65-1.23-.65-2.5V30.6c0-3.04-.71-5.19-2.13-6.46-1.42-1.26-3.22-1.89-5.39-1.89-1.6 0-3.05.38-4.33 1.15-1.28.76-2.5 1.85-3.66 3.25V10.72h-10.95v1.35c1.2.15 2 .45 2.41.91.41.46.61 1.25.61 2.38V44.2c0 1.29-.24 2.15-.73 2.58-.49.43-1.25.72-2.28.84v1.35h13.63v-1.35c-1.01-.2-1.7-.48-2.07-.83-.37-.35-.56-1.14-.56-2.38V29.27c0-.33.52-.95 1.56-1.85 1.04-.9 2.05-1.36 3.03-1.36 1.31 0 2.19.58 2.63 1.74.26.65.39 1.61.39 2.9v13.72c0 1.23-.18 2.03-.55 2.38-.37.35-1.06.63-2.08.83v1.35h38.84v-1.35c-1.03-.26-1.75-.58-2.16-.97-.4-.39-.6-1.2-.6-2.46zm53.67-17.56c0-1.44-.47-2.53-1.4-3.28s-1.98-1.12-3.15-1.12c-1.55 0-2.92.46-4.1 1.38-1.18.92-2.37 2.17-3.58 3.73V22.9h-10.73v1.36c1.2.15 2 .44 2.41.86.4.43.61 1.24.61 2.43v15.4l-.06 1.66c-.04 1.11-.27 1.85-.69 2.24-.34.31-.89.53-1.64.67v-.95c-1.29-.11-2.16-.39-2.6-.84-.44-.45-.67-1.26-.67-2.43V10.7H327.1v1.35c1.73.07 2.88.28 3.43.63.56.35.83 1.23.83 2.66v10.37c-1.09-1.14-1.99-1.94-2.71-2.38-1.16-.74-2.49-1.11-3.98-1.11-2.99 0-5.54 1.3-7.67 3.89s-3.19 6.12-3.19 10.6c0 4.02 1.02 7.2 3.07 9.54 2.05 2.34 4.45 3.51 7.22 3.51 1.62 0 3.13-.42 4.53-1.27.88-.54 1.86-1.35 2.93-2.46v3.73c2.32-.65 3.95-1.04 4.87-1.2.86-.15 2.71-.36 5.52-.64v1.04H357v-1.35c-1.62-.15-2.7-.45-3.25-.92-.54-.47-.82-1.64-.82-3.51v-10.7c0-1.74.38-3.07 1.15-4 .77-.93 1.53-1.4 2.29-1.4.35 0 .97.56 1.84 1.69.88 1.12 1.92 1.69 3.12 1.69 1.05 0 1.91-.36 2.56-1.08.66-.72.99-1.63.99-2.74zm-33.53 16.01c0 .44-.49 1.21-1.46 2.3-.97 1.09-2.06 1.63-3.29 1.63-1.94 0-3.25-1.34-3.94-4.01-.37-1.48-.56-3.67-.56-6.58 0-2.73.19-4.84.58-6.33.72-2.78 2.09-4.18 4.1-4.18 1.37 0 2.47.45 3.3 1.36.83.9 1.25 1.59 1.25 2.05v13.76z"/><path d="M384.78 41.91c-1.07 1.18-1.97 2.02-2.69 2.52-1.18.83-2.44 1.24-3.77 1.24-2.79 0-4.74-1.56-5.85-4.67-.61-1.66-.98-3.62-1.11-5.89h14.46c0-.52-.07-1.26-.2-2.24-.26-2.08-.72-3.78-1.38-5.09-.89-1.73-2.15-3.09-3.79-4.06-1.64-.98-3.4-1.47-5.26-1.47-3.27 0-6.06 1.2-8.37 3.61-2.32 2.4-3.47 5.78-3.47 10.13 0 4.81 1.22 8.32 3.65 10.51 2.44 2.19 5.05 3.29 7.84 3.29 1.94 0 3.65-.36 5.15-1.08 2.31-1.12 4.34-3.12 6.09-6l-1.3-.8zm-12.62-15.6c.55-1.53 1.56-2.3 3.04-2.3 1.44 0 2.41.66 2.89 1.99s.74 3.66.78 6.99h-7.63c.06-2.92.37-5.15.92-6.68z"/><path d="M411.67 44.42V30.73c0-3.15-.67-5.35-2.01-6.61-1.34-1.25-3.22-1.88-5.65-1.88-1.7 0-3.24.45-4.63 1.34-1.39.89-2.54 2.02-3.44 3.39V22.9H385.2v1.36c1.22.15 2.02.45 2.42.89.39.45.59 1.25.59 2.4V44.2c0 1.29-.25 2.15-.73 2.58-.49.43-1.25.72-2.28.84v1.35h13.63v-1.35c-1.01-.2-1.71-.48-2.08-.83s-.55-1.14-.55-2.38V29.27c.44-.72 1.07-1.43 1.89-2.14.82-.71 1.72-1.07 2.7-1.07 1.31 0 2.18.58 2.63 1.74.26.65.39 1.61.39 2.9v13.72c0 1.23-.18 2.03-.55 2.38-.37.35-1.06.63-2.07.83v1.35h13.3v-1.35c-1.01-.13-1.74-.38-2.17-.75-.44-.37-.65-1.18-.65-2.46zm10.41-34.56c-1.46 0-2.61.44-3.46 1.33-.85.88-1.27 2.04-1.27 3.46 0 1.29.39 2.35 1.19 3.17.79.82 1.8 1.23 3.01 1.23.18 0 .59-.05 1.22-.14.37 0 .66.12.86.36.18.26.28.57.28.94 0 1.37-.77 2.82-2.32 4.37-.87.87-2.15 1.89-3.84 3.07l.66 1.24c2.56-1.44 4.56-2.92 6-4.45 2.25-2.41 3.37-5.09 3.37-8.02 0-2.03-.55-3.63-1.65-4.8-1.1-1.18-2.45-1.76-4.05-1.76zm18.76 23.2-3.1-1.49c-1.49-.72-2.51-1.42-3.04-2.1-.55-.66-.83-1.33-.83-1.99 0-.81.31-1.57.93-2.27.62-.7 1.55-1.05 2.81-1.05 1.62 0 3.04.58 4.26 1.74 1.22 1.16 2.09 2.7 2.63 4.62h1.44v-8.18h-1.24c-.13.35-.29.62-.49.82-.19.19-.52.29-.98.29-.33 0-1.17-.2-2.52-.59-1.34-.4-2.62-.59-3.82-.59-2.75 0-4.89.8-6.41 2.39-1.53 1.59-2.3 3.49-2.3 5.68 0 1.73.49 3.24 1.46 4.51.96 1.27 2.54 2.45 4.76 3.54l4.2 2.05c.9.44 1.56.86 1.96 1.25.74.72 1.11 1.58 1.11 2.6 0 1.07-.34 1.93-1.02 2.58-.68.65-1.75.98-3.21.98-1.58 0-3.13-.56-4.65-1.67-1.51-1.12-2.54-3.03-3.1-5.74h-1.58v9.37h1.35c.3-.59.56-1.01.79-1.26s.5-.37.82-.37c.13 0 .23.01.32.03.08.02.3.09.65.22l.97.33c1.12.39 2.07.66 2.83.82.77.15 1.53.23 2.28.23 3.04 0 5.32-.91 6.84-2.72s2.28-3.77 2.28-5.88c0-2.15-.74-3.97-2.21-5.45-.87-.89-2.27-1.78-4.19-2.7zm11.24-25.79-.97-1.75c.79-.19 1.39-.78 1.39-1.61 0-1.14-1.03-1.68-2.36-1.68h-3.2v.29c.7 0 .7.54.7 1.2v3.26c0 .82 0 1.22-.81 1.22v.29h3.26v-.3c-.92 0-.92-.4-.92-1.22V5.63h.35l1.58 2.85h1.87v-.29c-.41 0-.7-.58-.89-.92zm-2.47-1.99c-.15 0-.34-.02-.43-.05V2.57h.36c1.11 0 1.3.73 1.3 1.3.01.73-.44 1.41-1.23 1.41z"/><path d="M449.74-.04c-3.02 0-5.49 2.45-5.49 5.47 0 3.02 2.47 5.48 5.49 5.48s5.47-2.46 5.47-5.48c0-3.01-2.45-5.47-5.47-5.47zm0 10.28c-2.64 0-4.8-2.15-4.8-4.8 0-2.64 2.15-4.8 4.8-4.8 2.64 0 4.78 2.15 4.78 4.8 0 2.64-2.14 4.8-4.78 4.8z"/><path class="st1" d="M69.55 31.07c-1.14 0-2.17.45-2.93 1.19L54.26 45.02c-4.77 4.13-9.32 6.31-16.35 6.36-6.86-.11-11.34-2.28-16.04-6.35L9.41 32.26a4.177 4.177 0 0 0-2.93-1.19 4.178 4.178 0 0 0-2.95 7.14l16.21 15.8c4.55 3.73 11.01 5.62 18.18 5.62 7.15 0 13.61-1.89 18.17-5.62l16.42-15.8c.76-.76 1.22-1.81 1.22-2.96 0-2.31-1.87-4.18-4.18-4.18z"/><path class="st1" d="M23.48 37.77c4.74 4.53 7.52 7.42 14.4 7.52 7.15.1 9.96-2.96 14.77-7.57l9.55-9.69a4.18 4.18 0 0 0 1.23-2.96c0-2.31-1.88-4.19-4.19-4.19-1.18 0-2.26.5-3.02 1.29l-10.84 10.9c-1.85 2.03-4.52 3.3-7.48 3.3-2.95 0-5.61-1.26-7.46-3.26L19.81 22.17a4.187 4.187 0 0 0-7.21 2.9c0 1.15.47 2.2 1.22 2.96l9.66 9.74z"/><path class="st1" d="M35.72 29.39c.56.59 1.35.96 2.24.96.88 0 1.66-.36 2.23-.94L52 17.74c.77-.76 1.24-1.81 1.24-2.97 0-2.31-1.88-4.19-4.18-4.19-1.13 0-2.15.45-2.91 1.18l-6.88 6.97c-.36.35-.84.56-1.37.56a1.9 1.9 0 0 1-1.41-.61l-6.63-6.93a4.158 4.158 0 0 0-2.9-1.18c-2.32 0-4.19 1.88-4.19 4.19 0 1.16.48 2.21 1.24 2.97l11.71 11.66z"/><path class="st1" d="M37.91 11.01c3.03 0 5.49-2.47 5.49-5.5a5.495 5.495 0 1 0-10.99 0c0 3.04 2.46 5.5 5.5 5.5z"/><path d="M497.73 10.63h-12.47v1.44c2.18.17 3.64.63 4.39 1.4.75.77 1.12 2.17 1.12 4.2v17.36c0 3.2-.42 5.69-1.27 7.46-1.53 3.24-4.48 4.85-8.84 4.85-3.51 0-5.88-1.46-7.12-4.39-.69-1.57-1.03-3.8-1.03-6.69V17.25c0-2.17.37-3.56 1.11-4.16.74-.61 2.21-.95 4.41-1.02v-1.44h-19.18v1.44c1.98.22 3.25.61 3.81 1.16.56.55.84 1.89.84 4.02v19c0 3.27.64 5.94 1.91 8.02 2.4 3.9 6.86 5.85 13.38 5.85 4.99 0 8.64-1.31 10.97-3.93s3.49-6.35 3.49-11.17V16.87c0-1.83.29-3 .87-3.5.58-.51 1.78-.94 3.59-1.29v-1.45zm20.86 12.68a4.9 4.9 0 0 0-3.15-1.12c-1.56 0-2.92.46-4.11 1.39-1.18.92-2.38 2.17-3.58 3.74v-4.46H497v1.36c1.2.15 2 .44 2.41.87.4.43.61 1.24.61 2.43v15.43l-.06 1.66c-.04 1.11-.27 1.85-.69 2.24-.43.39-1.18.65-2.27.78v1.36h15.1v-1.36c-1.63-.15-2.71-.45-3.26-.92s-.82-1.64-.82-3.51V32.45c0-1.74.38-3.08 1.15-4.01.77-.93 1.53-1.4 2.29-1.4.35 0 .97.56 1.85 1.69s1.92 1.69 3.12 1.69c1.05 0 1.91-.36 2.57-1.08s1-1.64 1-2.75c0-1.44-.47-2.53-1.41-3.28zm22.68 22.79c-1.42-.57-3.18-.88-5.27-.91l-3.69-.06c-.5 0-1.2-.01-2.11-.04-.91-.03-1.5-.06-1.77-.1-.55-.07-.99-.27-1.3-.58-.31-.32-.47-.76-.47-1.33 0-.72.31-1.34.94-1.86.61-.5 1.19-.79 1.75-.89.35 0 .61.01.79.03.18.02.55.03 1.13.03 2.64 0 4.85-.35 6.62-1.05 3.38-1.31 5.07-3.74 5.07-7.29 0-1.13-.2-2.17-.6-3.13-.4-.96-.96-1.8-1.7-2.52h4.6v-3.02h-7.48c-.61-.28-1.47-.54-2.58-.8s-2.33-.39-3.66-.39c-3.53 0-6.33.84-8.4 2.52-2.07 1.68-3.1 3.81-3.1 6.4 0 2.05.59 3.8 1.77 5.24 1.18 1.44 2.74 2.55 4.66 3.32v.39c-1.33.44-2.69 1.23-4.09 2.36-1.39 1.13-2.09 2.48-2.09 4.07 0 1.33.45 2.39 1.33 3.18.5.45 1.3.88 2.41 1.3v.39c-1.66.26-2.83.82-3.5 1.68-.68.86-1.01 1.69-1.01 2.51 0 2.09 1.59 3.57 4.76 4.44 1.92.52 4.21.77 6.87.77 3.25 0 5.95-.36 8.09-1.08 4.06-1.39 6.1-3.93 6.1-7.62 0-2.87-1.36-4.85-4.07-5.96zm-12.72-20.22c.5-1.25 1.49-1.87 2.99-1.87 1.37 0 2.33.58 2.89 1.75.57 1.16.85 3.02.85 5.57 0 2.4-.27 4.23-.8 5.47-.54 1.25-1.51 1.87-2.94 1.87-1.57 0-2.63-.83-3.19-2.49-.37-1.05-.55-2.67-.55-4.85 0-2.38.25-4.2.75-5.45zM537 58.43c-1.37.33-3.1.5-5.21.5-2.36 0-4.17-.33-5.42-1-1.25-.67-1.87-1.59-1.87-2.75 0-.69.23-1.33.69-1.95.26-.33.68-.74 1.27-1.22h9.31c1.92 0 3.25.25 3.98.74s1.1 1.23 1.1 2.21c0 1.68-1.28 2.84-3.85 3.47z"/><path d="M566.35 41.89c-1.07 1.18-1.97 2.02-2.69 2.52-1.18.83-2.44 1.25-3.78 1.25-2.8 0-4.75-1.56-5.86-4.68-.61-1.66-.98-3.63-1.11-5.9h14.49c0-.52-.07-1.27-.2-2.25-.26-2.09-.72-3.79-1.39-5.1a9.887 9.887 0 0 0-3.8-4.07c-1.65-.98-3.4-1.47-5.27-1.47-3.27 0-6.07 1.21-8.39 3.62-2.32 2.41-3.48 5.8-3.48 10.16 0 4.82 1.22 8.33 3.66 10.53 2.44 2.2 5.06 3.3 7.85 3.3 1.94 0 3.66-.36 5.16-1.08 2.31-1.13 4.35-3.13 6.1-6.01l-1.29-.82zm-12.64-15.63c.55-1.53 1.56-2.3 3.04-2.3 1.45 0 2.41.67 2.89 2s.74 3.67.78 7.01h-7.65c.08-2.94.39-5.18.94-6.71z"/><path d="M593.3 44.41V30.69c0-3.16-.67-5.37-2.01-6.62-1.34-1.26-3.23-1.88-5.67-1.88-1.7 0-3.25.45-4.64 1.34-1.39.9-2.55 2.03-3.45 3.4v-4.07h-10.75v1.36c1.22.15 2.03.45 2.43.89.4.45.59 1.25.59 2.4v16.68c0 1.29-.25 2.16-.74 2.59s-1.25.72-2.29.85v1.36h13.66v-1.36c-1.02-.21-1.71-.48-2.08-.83s-.55-1.15-.55-2.38V29.23c.45-.72 1.08-1.44 1.9-2.15.82-.71 1.72-1.07 2.7-1.07 1.31 0 2.19.58 2.63 1.75.26.65.39 1.62.39 2.91v13.75c0 1.24-.18 2.03-.55 2.38-.37.35-1.06.63-2.08.83v1.36h13.33v-1.36c-1.02-.13-1.74-.38-2.18-.75-.42-.37-.64-1.19-.64-2.47zm16.89.46c-.5.52-1.12.79-1.85.79-.85 0-1.46-.42-1.83-1.25-.24-.54-.36-1.2-.36-2V25.34h5.4v-2.49h-5.4v-9.59h-1.44a47.098 47.098 0 0 1-7.45 8.87c-.74.63-1.36 1.17-1.86 1.63v1.58h2.94v18.4c.01 2.53.97 4.27 2.89 5.24 1 .5 2.16.75 3.49.75 2.34 0 4.33-.86 5.95-2.58.92-.98 1.72-2.24 2.38-3.8l-1.36-.67c-.5.93-1 1.66-1.5 2.19zm42.96.04c-2.51 1.63-5.22 2.44-8.14 2.44-4.76 0-8.02-2.46-9.77-7.37-.94-2.62-1.41-5.97-1.41-10.03 0-5.52.8-9.92 2.39-13.2 1.6-3.28 4.3-4.92 8.1-4.92 3.36 0 6.37 1.53 9.02 4.6 1.42 1.66 2.81 3.93 4.18 6.82h1.44V9.97h-1.58c-.11.61-.38 1.19-.82 1.74-.43.55-1.01.83-1.73.83-.28 0-1.63-.44-4.05-1.32-2.42-.88-4.81-1.32-7.18-1.32-5.47 0-10.08 1.79-13.85 5.38-4.01 3.83-6.02 8.82-6.02 14.99 0 6.23 2.1 11.18 6.29 14.85 3.79 3.33 8.48 4.99 14.08 4.99 3.66 0 6.98-.99 9.97-2.97 1.68-1.11 3.63-2.9 5.85-5.38l-1.69-1.39c-1.94 2.09-3.64 3.6-5.08 4.54zm56-18.32c0-1.44-.47-2.54-1.4-3.28a4.9 4.9 0 0 0-3.15-1.12c-1.56 0-2.92.46-4.11 1.39-1.18.92-2.38 2.17-3.58 3.74v-4.46h-10.75v1.36c1.2.15 2 .44 2.41.87.4.43.61 1.24.61 2.43v15.43l-.06 1.66c-.04 1.11-.27 1.85-.69 2.24-.39.35-1.06.59-2 .73.34-.31.67-.64.99-1.01l-.86-1.19c-.37.37-.64.59-.82.68-.18.08-.37.13-.59.13-.26 0-.5-.14-.71-.43-.21-.28-.32-.63-.32-1.04V30.97c0-3.36-1.07-5.67-3.21-6.93-2.16-1.24-4.85-1.86-8.06-1.86-2.99 0-5.51.64-7.57 1.91s-3.08 2.99-3.08 5.17c0 1.22.38 2.15 1.15 2.79.76.64 1.69.97 2.78.97.94 0 1.77-.29 2.48-.87.71-.58 1.07-1.41 1.07-2.48 0-.42-.08-.83-.24-1.21-.16-.38-.36-.72-.62-1.04l-.33-.39c-.15-.17-.26-.32-.33-.47-.08-.15-.11-.33-.11-.56 0-.57.33-1.05.98-1.43.66-.38 1.49-.57 2.51-.57 1.81 0 3.07.4 3.78 1.21.71.8 1.07 2.05 1.07 3.73v4.13c-5.24 1.52-9.1 3.03-11.55 4.53-2.46 1.5-3.69 3.52-3.69 6.08 0 2.09.67 3.63 2.02 4.62 1.35.99 2.8 1.48 4.35 1.48 1.16 0 2.35-.2 3.55-.61 1.97-.65 3.75-1.76 5.32-3.33.21 1.09.53 1.92.97 2.47.78.98 2.01 1.47 3.69 1.47.94 0 1.84-.16 2.69-.5.86-.33 1.66-.83 2.42-1.48v1.17h15.1v-1.36c-1.63-.15-2.71-.45-3.26-.92s-.82-1.64-.82-3.51V32.45c0-1.74.38-3.08 1.15-4.01.77-.93 1.53-1.4 2.29-1.4.35 0 .97.56 1.85 1.69.88 1.13 1.92 1.69 3.12 1.69 1.05 0 1.91-.36 2.57-1.08.65-.73.99-1.64.99-2.75zM676.3 43.35c-.61.7-1.14 1.22-1.58 1.56-.79.56-1.65.83-2.58.83-.7 0-1.33-.32-1.9-.96-.57-.64-.85-1.58-.85-2.82 0-2.09.97-3.81 2.91-5.17 1.15-.8 2.48-1.38 3.99-1.75v8.31z"/><path d="M729.08 41.89c-1.07 1.18-1.97 2.02-2.69 2.52-1.18.83-2.44 1.25-3.78 1.25-2.8 0-4.75-1.56-5.86-4.68-.61-1.66-.98-3.63-1.11-5.9h14.49c0-.52-.07-1.27-.2-2.25-.26-2.09-.72-3.79-1.39-5.1a9.887 9.887 0 0 0-3.8-4.07c-1.65-.98-3.4-1.47-5.27-1.47-3.27 0-6.07 1.21-8.39 3.62-2.32 2.41-3.48 5.8-3.48 10.16 0 4.82 1.22 8.33 3.66 10.53 2.44 2.2 5.06 3.3 7.85 3.3 1.94 0 3.66-.36 5.16-1.08 2.31-1.13 4.34-3.13 6.1-6.01l-1.29-.82zm-12.64-15.63c.55-1.53 1.56-2.3 3.04-2.3 1.45 0 2.41.67 2.89 2s.74 3.67.78 7.01h-7.65c.08-2.94.39-5.18.94-6.71z"/></svg>