<svg xmlns="http://www.w3.org/2000/svg" viewBox="0 0 1024 1024" fill="currentcolor">
  <path d="M877.613,1005.328H146.388c-49.247,0-78.97,0-104.438-17.808-22.15-15.495-37.113-39.708-41.062-66.433-4.543-30.75,8.746-57.328,30.763-101.36l25.445-50.892c24-48,37.8-75.599,59.233-98.039-13.095-11.909-23.98-26.154-32.193-42.271-16.132-31.659-16.132-65.307-16.132-126.393V225.87c0-61.083,0-94.731,16.13-126.389,14.282-28.032,36.649-50.398,64.678-64.678,31.658-16.13,65.306-16.13,126.389-16.13h473.593c61.084,0,94.735,0,126.39,16.13,28.034,14.286,50.4,36.651,64.68,64.681,16.128,31.654,16.128,65.302,16.128,126.387v276.263c0,61.085,0,94.735-16.132,126.393-8.209,16.115-19.094,30.36-32.193,42.271,21.432,22.438,35.231,50.035,59.224,98.021l25.446,50.883c22.032,44.074,35.311,70.639,30.776,101.376-3.949,26.731-18.912,50.944-41.057,66.435-25.47,17.816-55.197,17.816-104.444,17.816ZM100.14,905.645c9.687,1.017,28.216,1.017,46.248,1.017h731.226c18.03,0,36.559,0,46.245-1.017-3.418-9.11-11.691-25.658-19.741-41.763l-25.463-50.921c-21.272-42.542-31.945-63.885-43.758-75.459-10.376-10.159-23.125-18.039-36.862-22.776-15.638-5.395-39.504-5.395-87.052-5.395h-397.964c-47.55,0-71.417,0-87.05,5.394-13.741,4.739-26.489,12.619-36.872,22.785-11.812,11.57-22.485,32.918-43.75,75.449l-25.435,50.869c-8.068,16.137-16.352,32.703-19.772,41.818ZM94.912,904.751s.008.003.012.004c-.007-.003-.011-.004-.012-.004ZM710.982,610.666h37.813c42.782,0,71.044,0,81.594-5.377,9.347-4.762,16.8-12.216,21.561-21.558,5.378-10.554,5.378-38.816,5.378-81.599V225.87c0-42.782,0-71.043-5.377-81.596-4.761-9.345-12.216-16.799-21.561-21.561-10.552-5.377-38.813-5.377-81.596-5.377h-473.593c-42.78,0-71.043,0-81.596,5.377-9.343,4.762-16.799,12.216-21.561,21.561-5.375,10.551-5.375,38.813-5.375,81.596v276.263c0,42.782,0,71.046,5.375,81.597,4.762,9.344,12.216,16.797,21.557,21.557,10.556,5.379,38.819,5.379,81.599,5.379h435.78ZM610.664,857.329h-197.331c-27.246,0-49.334-22.087-49.334-49.332s22.088-49.332,49.334-49.332h197.331c27.245,0,49.332,22.087,49.332,49.332s-22.087,49.332-49.332,49.332Z"/>
</svg>