<svg xmlns="http://www.w3.org/2000/svg" viewBox="0 0 1024 1024" fill="currentcolor">
  <path d="M928,512c0-26.496-21.504-48-48-48s-48,21.504-48,48,21.504,48,48,48,48-21.504,48-48h0ZM160,208v608h-32c-35.328,0-64-28.672-64-64v-480c0-35.328,28.672-64,64-64h32ZM224,816V208h512v608H224ZM896,208c35.328,0,64,28.672,64,64v480c0,35.328-28.672,64-64,64h-96V208h96ZM0,272v480c0,70.688,57.312,128,128,128h768c70.688,0,128-57.312,128-128v-480c0-70.688-57.312-128-128-128H128C57.312,144,0,201.312,0,272h0Z" />
</svg>