<svg xmlns="http://www.w3.org/2000/svg" version="1.1" id="Layer_1" x="0" y="0" style="enable-background:new 0 0 1625 273.53" xml:space="preserve" viewBox="11.65 16 1597.29 226.83"><style>.st1{fill:none}.st2{fill:#e51b27}</style><path d="M218.14 191.88h-18.07v-9.49h46.62v9.49h-18.07v49.45h-10.49v-49.45zm44.79 15.07h.17c.78-1.66 2.15-3.18 4.12-4.54 1.97-1.36 4.51-2.04 7.62-2.04 2.66 0 4.92.44 6.78 1.33 1.86.89 3.37 2.05 4.54 3.5 1.17 1.45 2 3.11 2.5 5 .5 1.89.75 3.86.75 5.91v25.23h-9.99V221.1c0-1.11-.06-2.34-.17-3.7-.11-1.36-.4-2.64-.87-3.83a7.22 7.22 0 0 0-2.21-3c-1-.8-2.36-1.21-4.08-1.21-1.66 0-3.07.28-4.2.83-1.14.55-2.08 1.3-2.83 2.25-.75.94-1.29 2.03-1.62 3.25-.33 1.22-.5 2.5-.5 3.83v21.81h-9.99v-62.94h9.99v28.56zm45.79 17.9c.33 3 1.5 5.33 3.5 6.99 2 1.66 4.41 2.5 7.24 2.5 2.5 0 4.59-.51 6.29-1.54a17.48 17.48 0 0 0 4.45-3.87l7.16 5.41c-2.33 2.89-4.94 4.94-7.83 6.16a23.077 23.077 0 0 1-9.07 1.83c-3 0-5.83-.5-8.49-1.5s-4.97-2.42-6.91-4.25c-1.94-1.83-3.48-4.04-4.62-6.62-1.14-2.58-1.71-5.45-1.71-8.62 0-3.16.57-6.03 1.71-8.62 1.14-2.58 2.68-4.79 4.62-6.62s4.25-3.25 6.91-4.25 5.49-1.5 8.49-1.5c2.77 0 5.31.49 7.62 1.46 2.3.97 4.27 2.37 5.91 4.21 1.64 1.83 2.91 4.09 3.83 6.79.91 2.69 1.37 5.78 1.37 9.28v2.75h-30.47zm20.48-7.5c-.06-2.94-.97-5.26-2.75-6.95-1.78-1.69-4.25-2.54-7.41-2.54-3 0-5.37.86-7.12 2.58-1.75 1.72-2.82 4.02-3.21 6.91h20.49zm85.33-21.14c-2.16-2.33-4.26-3.88-6.29-4.66-2.03-.78-4.07-1.16-6.12-1.16-3.05 0-5.81.54-8.28 1.62-2.47 1.08-4.59 2.58-6.37 4.49-1.78 1.92-3.15 4.15-4.12 6.7-.97 2.55-1.46 5.3-1.46 8.24 0 3.16.49 6.08 1.46 8.74s2.34 4.97 4.12 6.91c1.78 1.94 3.9 3.47 6.37 4.58 2.47 1.11 5.23 1.67 8.28 1.67 2.39 0 4.7-.57 6.95-1.71 2.25-1.14 4.34-2.95 6.29-5.45l8.66 6.16c-2.66 3.66-5.91 6.33-9.74 7.99-3.83 1.66-7.91 2.5-12.24 2.5-4.55 0-8.73-.74-12.53-2.21-3.8-1.47-7.08-3.55-9.82-6.24-2.75-2.69-4.9-5.92-6.45-9.7-1.55-3.77-2.33-7.96-2.33-12.57 0-4.72.78-9 2.33-12.86 1.55-3.86 3.71-7.14 6.45-9.86 2.75-2.72 6.02-4.81 9.82-6.29 3.8-1.47 7.98-2.21 12.53-2.21 4 0 7.7.71 11.11 2.12 3.41 1.42 6.59 3.82 9.53 7.2l-8.15 6zm23.64 28.64c.33 3 1.5 5.33 3.5 6.99 2 1.66 4.41 2.5 7.24 2.5 2.5 0 4.59-.51 6.29-1.54a17.48 17.48 0 0 0 4.45-3.87l7.16 5.41c-2.33 2.89-4.94 4.94-7.83 6.16a23.077 23.077 0 0 1-9.07 1.83c-3 0-5.83-.5-8.49-1.5s-4.97-2.42-6.91-4.25c-1.94-1.83-3.48-4.04-4.62-6.62-1.14-2.58-1.71-5.45-1.71-8.62 0-3.16.57-6.03 1.71-8.62 1.14-2.58 2.68-4.79 4.62-6.62s4.25-3.25 6.91-4.25 5.49-1.5 8.49-1.5c2.77 0 5.31.49 7.62 1.46 2.3.97 4.27 2.37 5.91 4.21 1.64 1.83 2.91 4.09 3.83 6.79.91 2.69 1.37 5.78 1.37 9.28v2.75h-30.47zm20.48-7.5c-.06-2.94-.97-5.26-2.75-6.95-1.78-1.69-4.25-2.54-7.41-2.54-3 0-5.37.86-7.12 2.58-1.75 1.72-2.82 4.02-3.21 6.91h20.49zm19.32-15.98h9.49v6.41h.17c.94-2 2.39-3.73 4.33-5.2 1.94-1.47 4.58-2.21 7.91-2.21 2.66 0 4.92.44 6.78 1.33 1.86.89 3.37 2.05 4.54 3.5 1.17 1.45 2 3.11 2.5 5 .5 1.89.75 3.86.75 5.91v25.23h-9.99V221.1c0-1.11-.06-2.34-.17-3.7-.11-1.36-.4-2.64-.87-3.83a7.22 7.22 0 0 0-2.21-3c-1-.8-2.36-1.21-4.08-1.21-1.67 0-3.07.28-4.2.83-1.14.55-2.08 1.3-2.83 2.25-.75.94-1.29 2.03-1.62 3.25-.33 1.22-.5 2.5-.5 3.83v21.81h-9.99v-39.96zm43.12 8.49v-8.49h8.24V189.8h9.99v11.57h10.99v8.49h-10.99v17.48c0 2 .38 3.58 1.12 4.75.75 1.16 2.23 1.75 4.45 1.75.89 0 1.86-.1 2.91-.29 1.05-.19 1.89-.51 2.5-.96V241c-1.06.5-2.35.85-3.87 1.04-1.53.19-2.87.29-4.04.29-2.66 0-4.84-.29-6.54-.88-1.69-.58-3.03-1.47-4-2.66-.97-1.19-1.64-2.68-2-4.45-.36-1.78-.54-3.83-.54-6.16v-18.32h-8.22zm45.04 14.99c.33 3 1.5 5.33 3.5 6.99 2 1.66 4.41 2.5 7.24 2.5 2.5 0 4.59-.51 6.29-1.54a17.48 17.48 0 0 0 4.45-3.87l7.16 5.41c-2.33 2.89-4.94 4.94-7.83 6.16a23.077 23.077 0 0 1-9.07 1.83c-3 0-5.83-.5-8.49-1.5s-4.97-2.42-6.91-4.25c-1.94-1.83-3.48-4.04-4.62-6.62-1.14-2.58-1.71-5.45-1.71-8.62 0-3.16.57-6.03 1.71-8.62 1.14-2.58 2.68-4.79 4.62-6.62s4.25-3.25 6.91-4.25 5.49-1.5 8.49-1.5c2.77 0 5.31.49 7.62 1.46 2.3.97 4.27 2.37 5.91 4.21 1.64 1.83 2.91 4.09 3.83 6.79.91 2.69 1.37 5.78 1.37 9.28v2.75h-30.47zm20.48-7.5c-.06-2.94-.97-5.26-2.75-6.95-1.78-1.69-4.25-2.54-7.41-2.54-3 0-5.37.86-7.12 2.58-1.75 1.72-2.82 4.02-3.21 6.91h20.49zm19.31-15.98h9.99v6.33h.17c1.11-2.33 2.69-4.13 4.75-5.41 2.05-1.28 4.41-1.92 7.08-1.92.61 0 1.21.06 1.79.17.58.11 1.18.25 1.79.42v9.66c-.83-.22-1.65-.4-2.46-.54-.8-.14-1.6-.21-2.37-.21-2.33 0-4.21.43-5.62 1.29-1.42.86-2.5 1.85-3.25 2.96-.75 1.11-1.25 2.22-1.5 3.33-.25 1.11-.37 1.94-.37 2.5v21.4h-9.99v-39.98zm60.61 8.49h-8.24v-8.49h8.24v-5.66c0-2.78.19-5.29.58-7.54.39-2.25 1.12-4.17 2.21-5.78 1.08-1.61 2.59-2.84 4.54-3.71 1.94-.86 4.47-1.29 7.58-1.29 2.28 0 4.38.2 6.33.58l-.67 8.49c-.72-.17-1.42-.3-2.08-.42-.67-.11-1.36-.17-2.08-.17-1.39 0-2.5.22-3.33.67-.83.44-1.48 1.04-1.96 1.79-.47.75-.78 1.62-.92 2.62s-.21 2.05-.21 3.16v7.24h9.24v8.49h-9.24v31.47h-9.99v-31.45zm23.73 11.49c0-3.16.57-6.03 1.71-8.62 1.14-2.58 2.68-4.79 4.62-6.62s4.25-3.25 6.91-4.25 5.49-1.5 8.49-1.5 5.83.5 8.49 1.5 4.97 2.42 6.91 4.25c1.94 1.83 3.48 4.04 4.62 6.62s1.71 5.45 1.71 8.62c0 3.16-.57 6.04-1.71 8.62s-2.68 4.79-4.62 6.62-4.24 3.25-6.91 4.25c-2.66 1-5.49 1.5-8.49 1.5s-5.83-.5-8.49-1.5-4.97-2.42-6.91-4.25c-1.94-1.83-3.48-4.04-4.62-6.62-1.14-2.58-1.71-5.46-1.71-8.62zm9.99 0c0 1.56.26 3.05.79 4.5.53 1.44 1.3 2.72 2.33 3.83 1.03 1.11 2.26 2 3.7 2.66 1.44.67 3.08 1 4.91 1s3.47-.33 4.91-1c1.44-.67 2.68-1.55 3.71-2.66 1.03-1.11 1.8-2.39 2.33-3.83s.79-2.94.79-4.5c0-1.55-.27-3.05-.79-4.49-.53-1.44-1.31-2.72-2.33-3.83-1.03-1.11-2.26-2-3.71-2.66-1.44-.67-3.08-1-4.91-1s-3.47.33-4.91 1c-1.44.67-2.68 1.56-3.7 2.66-1.03 1.11-1.8 2.39-2.33 3.83s-.79 2.94-.79 4.49zm42.79-19.98h9.99v6.33h.17c1.11-2.33 2.69-4.13 4.75-5.41 2.05-1.28 4.41-1.92 7.08-1.92.61 0 1.21.06 1.79.17.58.11 1.18.25 1.79.42v9.66c-.83-.22-1.65-.4-2.46-.54-.8-.14-1.6-.21-2.37-.21-2.33 0-4.2.43-5.62 1.29-1.41.86-2.5 1.85-3.25 2.96-.75 1.11-1.25 2.22-1.5 3.33-.25 1.11-.38 1.94-.38 2.5v21.4h-9.99v-39.98zm98.4-5.16c-2.16-2.33-4.26-3.88-6.28-4.66-2.03-.78-4.07-1.16-6.12-1.16-3.05 0-5.81.54-8.28 1.62-2.47 1.08-4.59 2.58-6.37 4.49-1.78 1.92-3.15 4.15-4.12 6.7-.97 2.55-1.46 5.3-1.46 8.24 0 3.16.49 6.08 1.46 8.74s2.34 4.97 4.12 6.91c1.78 1.94 3.9 3.47 6.37 4.58 2.47 1.11 5.23 1.67 8.28 1.67 2.39 0 4.7-.57 6.95-1.71 2.25-1.14 4.34-2.95 6.29-5.45l8.66 6.16c-2.66 3.66-5.91 6.33-9.74 7.99-3.83 1.66-7.91 2.5-12.24 2.5-4.55 0-8.73-.74-12.53-2.21-3.8-1.47-7.08-3.55-9.82-6.24-2.75-2.69-4.9-5.92-6.45-9.7-1.56-3.77-2.33-7.96-2.33-12.57 0-4.72.78-9 2.33-12.86 1.55-3.86 3.7-7.14 6.45-9.86 2.75-2.72 6.02-4.81 9.82-6.29 3.8-1.47 7.98-2.21 12.53-2.21 4 0 7.7.71 11.11 2.12 3.41 1.42 6.59 3.82 9.53 7.2l-8.16 6zm25.64 10.74h.17c.78-1.66 2.15-3.18 4.12-4.54 1.97-1.36 4.51-2.04 7.62-2.04 2.66 0 4.93.44 6.78 1.33 1.86.89 3.37 2.05 4.54 3.5 1.16 1.45 2 3.11 2.5 5 .5 1.89.75 3.86.75 5.91v25.23h-9.99V221.1c0-1.11-.06-2.34-.17-3.7-.11-1.36-.4-2.64-.88-3.83a7.22 7.22 0 0 0-2.21-3c-1-.8-2.36-1.21-4.08-1.21-1.67 0-3.07.28-4.21.83-1.14.55-2.08 1.3-2.83 2.25-.75.94-1.29 2.03-1.62 3.25-.33 1.22-.5 2.5-.5 3.83v21.81h-9.99v-62.94h9.99v28.56zm36.55-19.15c0-1.61.59-3.01 1.79-4.21 1.19-1.19 2.7-1.79 4.54-1.79s3.37.57 4.62 1.71 1.87 2.57 1.87 4.29c0 1.72-.63 3.15-1.87 4.29-1.25 1.14-2.79 1.71-4.62 1.71s-3.34-.6-4.54-1.79c-1.2-1.2-1.79-2.6-1.79-4.21zm1.41 13.57h9.99v39.96h-9.99v-39.96zm21.65-22.98h9.99v62.94h-9.99v-62.94zm53.12 56.95h-.17c-1.45 2.44-3.39 4.22-5.83 5.33s-5.08 1.67-7.91 1.67c-3.11 0-5.87-.54-8.28-1.62-2.41-1.08-4.48-2.57-6.2-4.45-1.72-1.88-3.03-4.11-3.91-6.66-.89-2.55-1.33-5.3-1.33-8.24 0-2.94.47-5.69 1.41-8.24s2.26-4.77 3.96-6.66c1.69-1.88 3.73-3.37 6.12-4.45s5-1.62 7.83-1.62c1.88 0 3.55.19 4.99.58s2.72.89 3.83 1.5c1.11.61 2.05 1.26 2.83 1.96.78.7 1.42 1.37 1.92 2.04h.25v-28.06h9.99v62.94h-9.49v-6.02zm-23.65-13.99c0 1.56.26 3.05.79 4.5.53 1.44 1.3 2.72 2.33 3.83 1.03 1.11 2.26 2 3.7 2.66 1.44.67 3.08 1 4.91 1s3.47-.33 4.91-1c1.44-.67 2.68-1.55 3.71-2.66 1.03-1.11 1.8-2.39 2.33-3.83s.79-2.94.79-4.5c0-1.55-.27-3.05-.79-4.49-.53-1.44-1.31-2.72-2.33-3.83-1.03-1.11-2.26-2-3.71-2.66-1.44-.67-3.08-1-4.91-1s-3.47.33-4.91 1c-1.44.67-2.68 1.56-3.7 2.66a11.146 11.146 0 0 0-2.33 3.83c-.53 1.44-.79 2.94-.79 4.49zm44.46-19.98h9.99v6.33h.17c1.11-2.33 2.69-4.13 4.75-5.41 2.05-1.28 4.41-1.92 7.08-1.92.61 0 1.21.06 1.79.17.58.11 1.18.25 1.79.42v9.66c-.83-.22-1.65-.4-2.46-.54-.8-.14-1.6-.21-2.37-.21-2.33 0-4.2.43-5.62 1.29-1.41.86-2.5 1.85-3.25 2.96-.75 1.11-1.25 2.22-1.5 3.33-.25 1.11-.38 1.94-.38 2.5v21.4h-9.99v-39.98zm38.88 23.48c.33 3 1.5 5.33 3.5 6.99 2 1.66 4.41 2.5 7.24 2.5 2.5 0 4.59-.51 6.29-1.54a17.48 17.48 0 0 0 4.45-3.87l7.16 5.41c-2.33 2.89-4.94 4.94-7.83 6.16s-5.91 1.83-9.08 1.83c-3 0-5.83-.5-8.49-1.5s-4.97-2.42-6.91-4.25c-1.94-1.83-3.48-4.04-4.62-6.62-1.14-2.58-1.71-5.45-1.71-8.62 0-3.16.57-6.03 1.71-8.62 1.14-2.58 2.68-4.79 4.62-6.62s4.25-3.25 6.91-4.25 5.5-1.5 8.49-1.5c2.78 0 5.31.49 7.62 1.46 2.3.97 4.27 2.37 5.91 4.21 1.64 1.83 2.91 4.09 3.83 6.79.91 2.69 1.37 5.78 1.37 9.28v2.75h-30.46zm20.48-7.5c-.06-2.94-.97-5.26-2.75-6.95-1.78-1.69-4.25-2.54-7.41-2.54-3 0-5.37.86-7.12 2.58-1.75 1.72-2.82 4.02-3.2 6.91h20.48zm19.31-15.98h9.49v6.41h.17c.94-2 2.39-3.73 4.33-5.2 1.94-1.47 4.58-2.21 7.91-2.21 2.66 0 4.93.44 6.78 1.33 1.86.89 3.37 2.05 4.54 3.5 1.16 1.45 2 3.11 2.5 5 .5 1.89.75 3.86.75 5.91v25.23h-9.99V221.1c0-1.11-.06-2.34-.17-3.7-.11-1.36-.4-2.64-.88-3.83a7.22 7.22 0 0 0-2.21-3c-1-.8-2.36-1.21-4.08-1.21-1.67 0-3.07.28-4.21.83-1.14.55-2.08 1.3-2.83 2.25-.75.94-1.29 2.03-1.62 3.25-.33 1.22-.5 2.5-.5 3.83v21.81h-9.99v-39.96zm97.41 34.47h-.25c-1.45 2.28-3.27 3.93-5.5 4.95-2.22 1.03-4.66 1.54-7.33 1.54-1.83 0-3.62-.25-5.37-.75s-3.3-1.25-4.66-2.25c-1.36-1-2.46-2.25-3.29-3.75-.83-1.5-1.25-3.25-1.25-5.25 0-2.16.39-4.01 1.17-5.54.78-1.53 1.82-2.8 3.12-3.83 1.3-1.03 2.82-1.85 4.54-2.46 1.72-.61 3.51-1.07 5.37-1.37 1.86-.3 3.73-.5 5.62-.58s3.66-.12 5.33-.12h2.5v-1.08c0-2.5-.86-4.37-2.58-5.62-1.72-1.25-3.91-1.87-6.58-1.87-2.11 0-4.08.37-5.91 1.12-1.83.75-3.41 1.76-4.74 3.04l-5.25-5.25c2.22-2.28 4.81-3.91 7.78-4.91 2.97-1 6.04-1.5 9.2-1.5 2.83 0 5.22.32 7.16.96 1.94.64 3.55 1.46 4.83 2.46 1.28 1 2.26 2.15 2.95 3.45.69 1.31 1.19 2.62 1.5 3.96s.49 2.62.54 3.87c.06 1.25.08 2.34.08 3.29v22.98h-8.99v-5.49zm-.59-12.41h-2.08c-1.39 0-2.94.06-4.66.17-1.72.11-3.34.37-4.87.79-1.53.42-2.82 1.03-3.87 1.83-1.05.8-1.58 1.93-1.58 3.37 0 .95.21 1.74.62 2.37.42.64.96 1.18 1.62 1.62.67.44 1.41.76 2.25.96.83.19 1.67.29 2.5.29 3.44 0 5.98-.82 7.62-2.45 1.64-1.64 2.45-3.87 2.45-6.7v-2.25zm20.31-22.06h9.49v6.41h.17c.94-2 2.39-3.73 4.33-5.2 1.94-1.47 4.58-2.21 7.91-2.21 2.66 0 4.93.44 6.78 1.33 1.86.89 3.37 2.05 4.54 3.5 1.16 1.45 2 3.11 2.5 5 .5 1.89.75 3.86.75 5.91v25.23h-9.99V221.1c0-1.11-.06-2.34-.17-3.7-.11-1.36-.4-2.64-.88-3.83a7.22 7.22 0 0 0-2.21-3c-1-.8-2.36-1.21-4.08-1.21-1.67 0-3.07.28-4.21.83-1.14.55-2.08 1.3-2.83 2.25-.75.94-1.29 2.03-1.62 3.25-.33 1.22-.5 2.5-.5 3.83v21.81h-9.99v-39.96zm79.43 33.97h-.17c-1.45 2.44-3.39 4.22-5.83 5.33-2.44 1.11-5.08 1.67-7.91 1.67-3.11 0-5.87-.54-8.28-1.62-2.41-1.08-4.48-2.57-6.2-4.45-1.72-1.88-3.03-4.11-3.91-6.66-.89-2.55-1.33-5.3-1.33-8.24 0-2.94.47-5.69 1.41-8.24s2.26-4.77 3.96-6.66c1.69-1.88 3.73-3.37 6.12-4.45s5-1.62 7.83-1.62c1.88 0 3.55.19 4.99.58 1.44.39 2.72.89 3.83 1.5 1.11.61 2.05 1.26 2.83 1.96.78.7 1.42 1.37 1.92 2.04h.25v-28.06h9.99v62.94h-9.49v-6.02zm-23.65-13.99c0 1.56.26 3.05.79 4.5.53 1.44 1.3 2.72 2.33 3.83 1.03 1.11 2.26 2 3.7 2.66 1.44.67 3.08 1 4.91 1s3.47-.33 4.91-1c1.44-.67 2.68-1.55 3.71-2.66 1.03-1.11 1.8-2.39 2.33-3.83s.79-2.94.79-4.5c0-1.55-.27-3.05-.79-4.49-.53-1.44-1.31-2.72-2.33-3.83-1.03-1.11-2.26-2-3.71-2.66-1.44-.67-3.08-1-4.91-1s-3.47.33-4.91 1c-1.44.67-2.68 1.56-3.7 2.66a11.146 11.146 0 0 0-2.33 3.83c-.52 1.44-.79 2.94-.79 4.49zm63.44-38.96h11.49l11.07 42.46h.17l13.24-42.46h10.32l12.99 42.46h.17l11.57-42.46h10.66l-17.15 58.94h-9.99l-13.65-44.87h-.17l-13.65 44.87h-9.66l-17.41-58.94zm83.84 38.96c0-3.16.57-6.03 1.71-8.62 1.14-2.58 2.68-4.79 4.62-6.62s4.25-3.25 6.91-4.25 5.5-1.5 8.49-1.5c3 0 5.83.5 8.49 1.5s4.97 2.42 6.91 4.25c1.94 1.83 3.48 4.04 4.62 6.62s1.71 5.45 1.71 8.62c0 3.16-.57 6.04-1.71 8.62s-2.68 4.79-4.62 6.62-4.24 3.25-6.91 4.25c-2.66 1-5.49 1.5-8.49 1.5s-5.83-.5-8.49-1.5-4.97-2.42-6.91-4.25c-1.94-1.83-3.48-4.04-4.62-6.62-1.15-2.58-1.71-5.46-1.71-8.62zm9.99 0c0 1.56.26 3.05.79 4.5.53 1.44 1.3 2.72 2.33 3.83 1.03 1.11 2.26 2 3.7 2.66 1.44.67 3.08 1 4.91 1s3.47-.33 4.91-1c1.44-.67 2.68-1.55 3.71-2.66 1.03-1.11 1.8-2.39 2.33-3.83s.79-2.94.79-4.5c0-1.55-.27-3.05-.79-4.49-.53-1.44-1.31-2.72-2.33-3.83-1.03-1.11-2.26-2-3.71-2.66-1.44-.67-3.08-1-4.91-1s-3.47.33-4.91 1c-1.44.67-2.68 1.56-3.7 2.66a11.146 11.146 0 0 0-2.33 3.83c-.53 1.44-.79 2.94-.79 4.49zm42.37-19.98h9.49v6.24h.17c.89-1.89 2.32-3.57 4.29-5.04 1.97-1.47 4.62-2.21 7.95-2.21 6.27 0 10.43 2.47 12.49 7.41 1.44-2.55 3.25-4.43 5.41-5.62 2.16-1.19 4.74-1.79 7.74-1.79 2.66 0 4.91.44 6.74 1.33 1.83.89 3.31 2.11 4.45 3.66 1.14 1.55 1.96 3.37 2.46 5.45s.75 4.32.75 6.7v23.81h-9.99v-22.64c0-1.22-.11-2.4-.33-3.54-.22-1.14-.61-2.14-1.17-3-.55-.86-1.3-1.54-2.25-2.04-.94-.5-2.16-.75-3.66-.75-1.55 0-2.87.29-3.95.88a7.677 7.677 0 0 0-2.66 2.33c-.69.97-1.19 2.08-1.5 3.33-.3 1.25-.46 2.51-.46 3.79v21.65h-9.99v-23.81c0-2.5-.53-4.48-1.58-5.95-1.06-1.47-2.8-2.21-5.25-2.21-1.66 0-3.07.28-4.2.83-1.14.55-2.08 1.3-2.83 2.25-.75.94-1.29 2.03-1.62 3.25-.33 1.22-.5 2.5-.5 3.83v21.81h-9.99v-39.95zm80.84 23.48c.33 3 1.5 5.33 3.5 6.99 2 1.66 4.41 2.5 7.24 2.5 2.5 0 4.59-.51 6.29-1.54a17.48 17.48 0 0 0 4.45-3.87l7.16 5.41c-2.33 2.89-4.94 4.94-7.83 6.16s-5.91 1.83-9.08 1.83c-3 0-5.83-.5-8.49-1.5s-4.97-2.42-6.91-4.25c-1.94-1.83-3.48-4.04-4.62-6.62s-1.71-5.45-1.71-8.62c0-3.16.57-6.03 1.71-8.62s2.68-4.79 4.62-6.62 4.25-3.25 6.91-4.25 5.5-1.5 8.49-1.5c2.78 0 5.31.49 7.62 1.46 2.3.97 4.27 2.37 5.91 4.21 1.64 1.83 2.91 4.09 3.83 6.79.91 2.69 1.37 5.78 1.37 9.28v2.75h-30.46zm20.48-7.5c-.06-2.94-.97-5.26-2.75-6.95-1.78-1.69-4.25-2.54-7.41-2.54-3 0-5.37.86-7.12 2.58-1.75 1.72-2.82 4.02-3.2 6.91h20.48zm19.31-15.98h9.49v6.41h.17c.94-2 2.39-3.73 4.33-5.2 1.94-1.47 4.58-2.21 7.91-2.21 2.66 0 4.93.44 6.78 1.33 1.86.89 3.37 2.05 4.54 3.5 1.16 1.45 2 3.11 2.5 5 .5 1.89.75 3.86.75 5.91v25.23h-9.99V221.1c0-1.11-.06-2.34-.17-3.7-.11-1.36-.4-2.64-.88-3.83a7.22 7.22 0 0 0-2.21-3c-1-.8-2.36-1.21-4.08-1.21-1.67 0-3.07.28-4.21.83-1.14.55-2.08 1.3-2.83 2.25-.75.94-1.29 2.03-1.62 3.25-.33 1.22-.5 2.5-.5 3.83v21.81h-9.99v-39.96z" style="fill:#808285"/><path class="st1" d="M1181.2 109.03c0 3.98 2.84 6.81 6.82 6.81 2.96 0 4.89-1.67 7.07-3.46v-19.7c-5.52 3.07-13.89 9.4-13.89 16.35zM839.32 73.55c-1.06-2.94-3.19-4.4-6.38-4.4-3.27 0-5.51 1.69-6.72 5.08-1.21 3.38-1.9 8.32-2.06 14.8h16.88c-.07-7.39-.65-12.55-1.72-15.48zm-450.85 35.33c0 2.74.62 4.81 1.87 6.22 1.24 1.42 2.64 2.11 4.19 2.11 2.04 0 3.94-.61 5.69-1.84.98-.74 2.14-1.88 3.49-3.43V93.61c-3.34.82-6.28 2.11-8.81 3.86-4.28 2.99-6.43 6.79-6.43 11.41zm608.95-87.05h-.8v5.89c.21.07.62.1.95.1 1.74 0 2.72-1.51 2.72-3.12 0-1.26-.42-2.87-2.87-2.87z"/><path class="st1" d="M997.84 17.55c-5.85 0-10.61 4.76-10.61 10.61s4.76 10.61 10.61 10.61 10.57-4.76 10.57-10.61c0-5.84-4.72-10.61-10.57-10.61zm7.18 17.34h-4.14l-3.5-6.3h-.77v2.98c0 1.82 0 2.69 2.03 2.69v.63h-7.21v-.63c1.78 0 1.78-.88 1.78-2.69v-7.21c0-1.47 0-2.66-1.54-2.66v-.63h7.07c2.95 0 5.22 1.19 5.22 3.72 0 1.85-1.33 3.15-3.08 3.57l2.14 3.88c.42.74 1.05 2.03 2 2.03v.62zM297.2 73.55c-1.06-2.94-3.19-4.4-6.38-4.4-3.28 0-5.52 1.69-6.72 5.08-1.21 3.38-1.89 8.32-2.06 14.8h16.88c-.08-7.39-.65-12.55-1.72-15.48zm840.65-5.07c-7.47 0-9.14 11.07-9.14 20.46h17.11c0-6.57 0-20.46-7.97-20.46zm361.17 40.55c0 3.98 2.82 6.81 6.82 6.81 2.97 0 4.88-1.67 7.08-3.46v-19.7c-5.55 3.07-13.9 9.4-13.9 16.35zm-87.89-64.74h-2.44v36.94h2.71c12.21 0 16.35-7.74 16.35-19.06-.01-11.18-5.03-17.88-16.62-17.88zM725.88 72.38c-4.45 0-7.48 3.08-9.08 9.24-.85 3.31-1.28 7.97-1.28 14.01 0 6.44.41 11.29 1.23 14.56 1.51 5.91 4.41 8.87 8.71 8.87 2.7 0 5.12-1.2 7.27-3.61 2.15-2.41 3.22-4.09 3.22-5.08V79.91c0-1.02-.92-2.53-2.76-4.53-1.84-2-4.28-3-7.31-3z"/><path d="M261.39 46.64c5.59 3.19 8.97 9.3 10.15 18.34h3.61l-.12-25.26H199.6l-.12 25.26h3.61c.77-8.95 4.16-15.07 10.15-18.34 3.26-1.76 7.95-2.72 14.07-2.88v65.99c0 4.57-.81 7.63-2.42 9.15-1.61 1.53-4.86 2.3-9.76 2.3v3.18h44.65v-3.18c-5.1 0-8.45-.76-10.06-2.26-1.61-1.51-2.42-4.57-2.42-9.18v-66c6.26.16 10.95 1.12 14.09 2.88z"/><path d="M312.01 108.72c-2.37 2.61-4.35 4.46-5.94 5.57-2.62 1.83-5.39 2.75-8.34 2.75-6.17 0-10.48-3.45-12.93-10.34-1.35-3.67-2.17-8.01-2.45-13.03h31.99c0-1.14-.14-2.79-.43-4.96-.57-4.61-1.59-8.36-3.06-11.25-1.96-3.83-4.76-6.83-8.39-8.99-3.63-2.16-7.51-3.24-11.64-3.24-7.23 0-13.4 2.66-18.53 7.98-5.13 5.32-7.69 12.79-7.69 22.42 0 10.65 2.69 18.39 8.08 23.25 5.39 4.85 11.17 7.28 17.33 7.28 4.29 0 8.08-.8 11.39-2.39 5.1-2.48 9.59-6.91 13.47-13.27l-2.86-1.78zm-27.91-34.5c1.21-3.39 3.45-5.08 6.72-5.08 3.19 0 5.32 1.47 6.38 4.4 1.06 2.93 1.64 8.09 1.72 15.47h-16.88c.16-6.47.85-11.41 2.06-14.79z"/><path d="m367.77 118.87-18.72-28.42 12.96-15.98c1.34-1.67 2.94-2.92 4.8-3.74 1.02-.41 2.29-.75 3.83-1.04v-3h-20.99v3c2.28.08 3.92.28 4.92.61 1 .33 1.49 1.1 1.49 2.33 0 .98-.51 2.21-1.52 3.67-1.02 1.47-3.68 4.92-7.99 10.33-1.6-2.17-3.45-4.91-5.55-8.23-2.1-3.32-3.15-5.45-3.15-6.39 0-.78.25-1.25.73-1.44.49-.18 2.18-.48 5.08-.89v-3h-31.31v3c1.51.2 2.65.55 3.42 1.04.78.49 1.81 1.73 3.12 3.74l16.1 24.67c-1.35 1.71-3.06 3.96-5.14 6.74-2.08 2.78-3.75 4.95-5.02 6.5-3.06 3.71-5.33 6.08-6.82 7.1-1.49 1.02-3.27 1.69-5.35 2.02v2.88h21.15v-2.88c-2.08-.08-3.64-.32-4.68-.73-1.04-.41-1.56-1.27-1.56-2.57 0-1.11 1.36-3.58 4.09-7.42 1.32-1.86 3.32-4.5 6-7.92.92 1.44 1.95 3 3.09 4.67 1.13 1.68 2 2.98 2.6 3.93 1.1 1.71 1.9 3.04 2.39 3.98.86 1.55 1.28 2.68 1.28 3.37 0 1.06-.51 1.75-1.53 2.08-1.02.32-2.41.53-4.16.61v2.88h30.16v-2.88c-.94-.36-1.68-.72-2.23-1.07-.54-.34-1.04-.85-1.49-1.55z"/><path d="m454.51 89.14-6.85-3.3c-3.3-1.59-5.55-3.14-6.73-4.65-1.22-1.47-1.83-2.94-1.83-4.4 0-1.79.68-3.47 2.05-5.02 1.36-1.55 3.43-2.33 6.21-2.33 3.59 0 6.73 1.28 9.42 3.85 2.69 2.57 4.63 5.97 5.81 10.22h3.18v-18.1h-2.75c-.29.78-.64 1.37-1.07 1.8-.43.43-1.15.64-2.17.64-.73 0-2.59-.44-5.57-1.31-2.98-.88-5.79-1.32-8.44-1.32-6.08 0-10.81 1.77-14.19 5.29-3.38 3.53-5.08 7.72-5.08 12.57 0 3.84 1.08 7.16 3.24 9.97 2.12 2.82 5.63 5.42 10.52 7.83l9.3 4.53c2 .98 3.45 1.9 4.34 2.76 1.63 1.59 2.45 3.51 2.45 5.75 0 2.37-.75 4.27-2.26 5.72-1.51 1.45-3.87 2.17-7.09 2.17-3.51 0-6.93-1.24-10.28-3.7-3.34-2.47-5.63-6.7-6.85-12.7h-3.49v11.06l-.03-.04c-.82.81-1.42 1.31-1.8 1.49-.39.19-.83.28-1.32.28-.57 0-1.09-.32-1.56-.95-.47-.63-.71-1.4-.71-2.29V84.62c0-7.42-2.36-12.52-7.1-15.29-4.77-2.73-10.7-4.1-17.8-4.1-6.61 0-12.17 1.4-16.7 4.21-4.53 2.81-6.79 6.61-6.79 11.41 0 2.68.85 4.74 2.54 6.16s3.74 2.13 6.15 2.13c2.08 0 3.91-.64 5.47-1.93 1.57-1.28 2.35-3.11 2.35-5.48 0-.94-.17-1.82-.52-2.66a9.19 9.19 0 0 0-1.38-2.29l-.73-.86c-.33-.37-.57-.71-.73-1.04-.16-.33-.25-.73-.25-1.23 0-1.26.72-2.31 2.17-3.15 1.45-.83 3.29-1.25 5.54-1.25 3.99 0 6.78.89 8.35 2.66 1.57 1.78 2.35 4.52 2.35 8.23v9.12c-11.58 3.35-20.09 6.68-25.51 9.99-5.42 3.3-8.13 7.78-8.13 13.41 0 4.62 1.49 8.02 4.46 10.21 2.98 2.18 6.18 3.27 9.6 3.27 2.57 0 5.18-.45 7.83-1.35 4.36-1.43 8.28-3.88 11.75-7.35.45 2.41 1.16 4.23 2.14 5.45 1.71 2.17 4.42 3.25 8.14 3.25 2.08 0 4.06-.36 5.93-1.1 2.24-.86 4.33-2.2 6.27-4.03v5.13h2.99c.65-1.31 1.24-2.23 1.75-2.78.51-.55 1.11-.83 1.8-.83.28 0 .52.03.7.06s.66.2 1.44.49l2.14.74c2.49.85 4.58 1.46 6.27 1.8 1.69.34 3.38.52 5.05.52 6.73 0 11.77-2 15.14-6.02 3.37-4.02 5.05-8.35 5.05-13 0-4.77-1.63-8.79-4.89-12.05-1.95-1.91-5.05-3.88-9.29-5.93zm-50.8 22.81c-1.35 1.55-2.51 2.7-3.49 3.43-1.75 1.23-3.65 1.84-5.69 1.84-1.55 0-2.95-.7-4.19-2.11-1.25-1.41-1.87-3.48-1.87-6.22 0-4.62 2.14-8.42 6.42-11.41 2.53-1.76 5.47-3.04 8.81-3.86v18.33zm156.03 3.44c-5.54 3.59-11.53 5.38-17.97 5.38-10.5 0-17.7-5.42-21.57-16.27-2.08-5.79-3.11-13.17-3.11-22.14 0-12.19 1.76-21.91 5.28-29.15 3.52-7.24 9.48-10.86 17.87-10.86 7.41 0 14.05 3.39 19.92 10.15 3.13 3.67 6.21 8.69 9.22 15.05h3.18v-29.3h-3.49c-.25 1.35-.85 2.63-1.8 3.85-.96 1.22-2.24 1.84-3.83 1.84-.61 0-3.58-.97-8.93-2.91-5.34-1.94-10.62-2.9-15.85-2.9-12.07 0-22.26 3.96-30.58 11.87-8.85 8.44-13.27 19.47-13.27 33.09 0 13.74 4.63 24.67 13.88 32.79 8.36 7.34 18.72 11.01 31.07 11.01 8.08 0 15.42-2.19 22.03-6.55 3.71-2.45 8.01-6.4 12.9-11.87l-3.73-3.06c-4.3 4.57-8.05 7.9-11.22 9.98zm94.85-58.12c2.65 0 4.93-.95 6.82-2.84 1.9-1.9 2.85-4.19 2.85-6.88 0-2.69-.94-4.99-2.85-6.88-1.89-1.9-4.17-2.85-6.82-2.85-2.69 0-4.99.95-6.88 2.85-1.89 1.9-2.85 4.19-2.85 6.88 0 2.69.95 4.98 2.85 6.88 1.9 1.9 4.19 2.84 6.88 2.84z"/><path d="M691.38 113.8V39.72h-23.73v2.99c2.32.53 3.91 1.21 4.77 2.03.85.82 1.29 2.57 1.29 5.25v63.8c0 2.77-.47 4.6-1.38 5.47-.81.78-2.15 1.41-3.96 1.91-1.77-.43-3.04-.97-3.74-1.64-.81-.78-1.22-2.53-1.22-5.26V66.69h-24.04v3c2.53.45 4.22 1.14 5.08 2.07.85.92 1.28 2.66 1.28 5.21v36.82c0 2.85-.61 4.83-1.83 5.93-.69.63-1.92 1.11-3.62 1.47-1.86-.47-3.24-1.09-4.09-1.87-.96-.88-1.44-2.72-1.44-5.54V83.7c0-6.73-1.57-11.49-4.72-14.28-3.14-2.79-7.11-4.19-11.93-4.19-3.54 0-6.74.85-9.57 2.54s-5.54 4.09-8.1 7.19V39.72H576.2v2.99c2.65.33 4.42 1 5.32 2 .9 1.01 1.35 2.77 1.35 5.27v63.8c0 2.85-.54 4.76-1.62 5.72s-2.76 1.58-5.04 1.87v2.99h30.15v-2.99c-2.24-.45-3.76-1.06-4.58-1.84-.82-.78-1.23-2.53-1.23-5.26v-33.5c0-.73 1.15-2.1 3.45-4.1 2.3-2 4.54-3 6.7-3 2.9 0 4.84 1.29 5.81 3.85.58 1.43.86 3.57.86 6.42v30.34c0 2.73-.41 4.48-1.22 5.26s-2.35 1.38-4.59 1.84v2.99h85.95v-2.99c-2.28-.58-3.87-1.29-4.77-2.14-.9-.86-1.36-2.67-1.36-5.44zm118.74-38.85c0-3.18-1.03-5.6-3.1-7.25-2.06-1.65-4.39-2.48-6.96-2.48-3.43 0-6.45 1.02-9.07 3.06-2.61 2.04-5.25 4.79-7.91 8.26v-9.85h-23.73v3c2.65.33 4.42.97 5.32 1.91.89.95 1.35 2.74 1.35 5.37v34.07l-.12 3.67c-.08 2.44-.59 4.09-1.53 4.95-.74.68-1.97 1.17-3.64 1.49v-2.11c-2.86-.24-4.77-.86-5.75-1.85-.98-.99-1.47-2.78-1.47-5.37v-72.1h-26.97v2.99c3.83.16 6.36.63 7.58 1.39 1.23.76 1.84 2.73 1.84 5.89v22.94c-2.41-2.53-4.4-4.28-5.99-5.26-2.57-1.63-5.51-2.45-8.81-2.45-6.61 0-12.26 2.87-16.98 8.6-4.71 5.73-7.06 13.55-7.06 23.46 0 8.89 2.26 15.93 6.79 21.1 4.53 5.18 9.85 7.77 15.97 7.77 3.59 0 6.93-.94 10.03-2.81 1.95-1.18 4.12-2.99 6.48-5.45v8.26c5.14-1.43 8.73-2.31 10.77-2.66 1.9-.33 5.99-.8 12.21-1.42v2.31h33.34v-2.99c-3.59-.33-5.98-1-7.19-2.04-1.2-1.03-1.8-3.62-1.8-7.75V87.87c0-3.84.85-6.79 2.54-8.85 1.7-2.06 3.38-3.09 5.06-3.09.78 0 2.14 1.24 4.08 3.73s4.24 3.73 6.89 3.73c2.33 0 4.22-.8 5.67-2.39 1.43-1.58 2.16-3.6 2.16-6.05zm-74.17 35.42c0 .98-1.07 2.67-3.22 5.08-2.15 2.41-4.57 3.61-7.27 3.61-4.3 0-7.2-2.96-8.71-8.87-.82-3.27-1.23-8.12-1.23-14.56 0-6.03.43-10.7 1.28-14.01 1.6-6.16 4.63-9.24 9.08-9.24 3.03 0 5.47 1 7.31 3 1.84 2 2.76 3.51 2.76 4.53v30.46z"/><path d="M854.13 108.72c-2.37 2.61-4.35 4.46-5.94 5.57-2.61 1.83-5.39 2.75-8.34 2.75-6.17 0-10.48-3.45-12.94-10.34-1.35-3.67-2.17-8.01-2.45-13.03h32c0-1.14-.15-2.79-.43-4.96-.57-4.61-1.59-8.36-3.06-11.25-1.96-3.83-4.76-6.83-8.39-8.99-3.63-2.16-7.52-3.24-11.64-3.24-7.22 0-13.4 2.66-18.52 7.98-5.12 5.32-7.68 12.79-7.68 22.42 0 10.65 2.69 18.39 8.08 23.25 5.39 4.85 11.17 7.28 17.33 7.28 4.29 0 8.09-.8 11.4-2.39 5.1-2.48 9.59-6.91 13.47-13.27l-2.89-1.78zm-27.91-34.5c1.21-3.39 3.45-5.08 6.72-5.08 3.2 0 5.32 1.47 6.38 4.4 1.07 2.93 1.64 8.09 1.72 15.47h-16.88c.16-6.47.85-11.41 2.06-14.79z"/><path d="M913.62 114.29V84.01c0-6.97-1.48-11.85-4.44-14.62-2.96-2.77-7.13-4.16-12.51-4.16-3.75 0-7.17.99-10.25 2.97-3.08 1.98-5.62 4.48-7.61 7.5v-8.99h-23.74v3c2.69.33 4.48.99 5.36 1.97.87.99 1.31 2.76 1.31 5.31v36.82c0 2.85-.54 4.76-1.62 5.72s-2.76 1.58-5.05 1.87v2.99h30.16v-2.99c-2.24-.45-3.78-1.06-4.59-1.84s-1.22-2.53-1.22-5.26V80.77c.98-1.59 2.37-3.17 4.19-4.74 1.82-1.57 3.8-2.36 5.96-2.36 2.9 0 4.83 1.29 5.81 3.85.57 1.43.85 3.57.85 6.42v30.34c0 2.73-.41 4.48-1.22 5.26-.81.78-2.35 1.38-4.59 1.84v2.99h29.42v-2.99c-2.24-.28-3.85-.84-4.81-1.66-.93-.81-1.41-2.62-1.41-5.43zm23.03-76.47c-3.22 0-5.77.98-7.64 2.94-1.88 1.96-2.81 4.51-2.81 7.65 0 2.86.87 5.19 2.63 7 1.75 1.81 3.98 2.72 6.67 2.72.41 0 1.31-.1 2.69-.31.82 0 1.45.27 1.9.8.41.57.61 1.26.61 2.08 0 3.02-1.71 6.24-5.14 9.67-1.92 1.92-4.75 4.18-8.51 6.79l1.47 2.75c5.67-3.18 10.09-6.46 13.27-9.85 4.97-5.34 7.46-11.25 7.46-17.74 0-4.49-1.22-8.02-3.64-10.61-2.43-2.59-5.41-3.89-8.96-3.89zm41.5 51.32-6.85-3.3c-3.3-1.59-5.55-3.14-6.73-4.65-1.22-1.47-1.84-2.94-1.84-4.4 0-1.79.68-3.47 2.05-5.02 1.36-1.55 3.43-2.33 6.21-2.33 3.58 0 6.73 1.28 9.42 3.85 2.69 2.57 4.63 5.97 5.81 10.22h3.18v-18.1h-2.75c-.29.78-.64 1.37-1.07 1.8-.43.43-1.15.64-2.17.64-.74 0-2.59-.44-5.57-1.31-2.97-.88-5.79-1.32-8.44-1.32-6.08 0-10.81 1.77-14.19 5.29-3.39 3.53-5.08 7.72-5.08 12.57 0 3.84 1.08 7.16 3.24 9.97 2.12 2.82 5.63 5.42 10.52 7.83l9.29 4.53c2 .98 3.45 1.9 4.35 2.76 1.63 1.59 2.44 3.51 2.44 5.75 0 2.37-.76 4.27-2.26 5.72-1.51 1.45-3.87 2.17-7.09 2.17-3.51 0-6.93-1.24-10.28-3.7-3.34-2.47-5.63-6.7-6.85-12.7H950v20.74h2.99c.65-1.31 1.24-2.23 1.75-2.78.51-.55 1.11-.83 1.8-.83.28 0 .52.03.71.06.18.04.66.2 1.44.49l2.14.74c2.48.85 4.57 1.46 6.27 1.8 1.69.34 3.38.52 5.05.52 6.73 0 11.78-2 15.14-6.02 3.36-4.02 5.04-8.35 5.04-13 0-4.77-1.63-8.79-4.89-12.05-1.95-1.92-5.05-3.89-9.29-5.94zm19.69-73.09c-6.69 0-12.15 5.42-12.15 12.11 0 6.69 5.46 12.12 12.15 12.12s12.11-5.43 12.11-12.12c0-6.68-5.42-12.11-12.11-12.11zm0 22.73c-5.85 0-10.61-4.76-10.61-10.61s4.76-10.61 10.61-10.61 10.57 4.76 10.57 10.61c0 5.84-4.72 10.61-10.57 10.61z"/><path d="m1003.03 32.22-2.14-3.88c1.75-.42 3.08-1.72 3.08-3.57 0-2.52-2.27-3.72-5.22-3.72h-7.07v.63c1.54 0 1.54 1.19 1.54 2.66v7.21c0 1.82 0 2.69-1.78 2.69v.63h7.21v-.63c-2.03 0-2.03-.88-2.03-2.69v-2.98h.77l3.5 6.3h4.14v-.63c-.96.02-1.59-1.27-2-2.02zm-5.46-4.41c-.33 0-.74-.04-.95-.1v-5.89h.8c2.46 0 2.87 1.61 2.87 2.87 0 1.62-.98 3.12-2.72 3.12z"/><path class="st2" d="M160.48 84.73c-2.53 0-4.81 1-6.49 2.64l-27.34 28.23c-10.56 9.15-20.62 13.97-36.18 14.07v-.01c-15.17-.24-25.09-5.05-35.5-14.06L27.4 87.37a9.22 9.22 0 0 0-6.49-2.64c-5.1 0-9.26 4.14-9.26 9.25a9.26 9.26 0 0 0 2.71 6.55l35.88 34.98c10.08 8.26 24.37 12.44 40.23 12.44 15.83 0 30.11-4.18 40.22-12.44l36.35-34.98c1.68-1.68 2.71-4 2.71-6.55a9.265 9.265 0 0 0-9.27-9.25z"/><path class="st2" d="M58.53 99.56c10.5 10.02 16.64 16.41 31.87 16.64 15.83.23 22.03-6.55 32.7-16.76l21.14-21.45c1.69-1.67 2.71-4 2.71-6.55 0-5.11-4.15-9.26-9.27-9.26-2.62 0-5 1.1-6.69 2.87l-23.98 24.13c-4.1 4.48-10.01 7.31-16.56 7.31a22.41 22.41 0 0 1-16.51-7.22L50.4 65.03c-1.7-1.76-4.06-2.87-6.71-2.87-5.11 0-9.25 4.15-9.25 9.26 0 2.56 1.03 4.88 2.71 6.55l21.38 21.59z"/><path class="st2" d="M85.63 81.02c1.24 1.31 3 2.13 4.96 2.13 1.94 0 3.68-.8 4.94-2.09l26.15-25.84a9.215 9.215 0 0 0 2.74-6.58c0-5.12-4.15-9.27-9.26-9.27-2.5 0-4.76.99-6.43 2.61L93.5 57.41c-.79.77-1.86 1.25-3.02 1.25-1.24 0-2.34-.51-3.12-1.34L72.68 41.98a9.202 9.202 0 0 0-6.42-2.61c-5.12 0-9.27 4.16-9.27 9.27 0 2.57 1.06 4.9 2.75 6.58l25.89 25.8z"/><path class="st2" d="M90.47 40.34c6.71 0 12.15-5.46 12.15-12.17 0-6.72-5.44-12.17-12.15-12.17-6.74 0-12.17 5.45-12.17 12.17 0 6.71 5.44 12.17 12.17 12.17z"/><path d="M1066.44 41.72c12.1 0 12.1 3.34 12.1 13.78v22.64h-29.85V55.5c0-10.44 0-13.78 12.09-13.78V39.4h-44.65v2.32c12.1 0 12.1 3.34 12.1 13.78v53c0 10.43 0 13.78-12.1 13.78v2.31h44.65v-2.31c-12.09 0-12.09-3.35-12.09-13.78V83.66h29.85v24.83c0 10.43 0 13.78-12.1 13.78v2.31h44.65v-2.31c-12.09 0-12.09-3.35-12.09-13.78v-53c0-10.44 0-13.78 12.09-13.78V39.4h-44.65v2.32zm73.21 22.39c-17.63 0-27.54 14.67-27.54 31.13 0 16.34 7.46 31.14 25.1 31.14 12.48 0 18.91-7.46 24.05-17.89l-2.06-1.4c-3.09 4.88-6.95 9.63-13.25 9.63-11.72 0-16.86-14.02-16.86-23.41h32.17c.26-13.76-7.46-29.2-21.61-29.2zm-10.94 24.83c0-9.39 1.67-20.46 9.14-20.46 7.97 0 7.97 13.9 7.97 20.46h-17.11zm90.07 27.16c-.9 1.14-1.8 2.32-3.34 2.32-2.71 0-2.71-2.84-2.71-5.93V83.92c0-12.62-6.69-19.82-21.36-19.82-9.66 0-25.99 5.15-25.99 17 0 4.87 4.63 8.1 9.14 8.1 4.63 0 8.49-2.71 8.49-7.6 0-4.12-4.11-5.67-4.11-8.11 0-3.46 5.53-4.48 8.24-4.48 3.34 0 7.97 1.8 7.97 7.97v10.41c-23.81 11.21-30.88 16.36-30.88 26.92 0 7.32 5.01 12.08 11.7 12.08 7.21 0 14.15-4.75 19.18-9.39.52 6.44 5.28 9.39 11.45 9.39 6.3 0 10.81-3.73 14.03-8.88l-1.81-1.41zm-23.68-3.73c-2.18 1.79-4.11 3.46-7.07 3.46-3.99 0-6.82-2.83-6.82-6.81 0-6.95 8.37-13.27 13.9-16.34v19.69z"/><path d="M1243.73 111.07V39.4h-24.71v2.32c7.09 0 7.09 4.63 7.09 11.45v57.9c0 7.1 0 11.2-7.09 11.2v2.31h31.66v-2.31c-6.95 0-6.95-4.1-6.95-11.2zm41.95.9c-1.41 2.71-4.25 6.3-7.46 6.3-4.63 0-4.63-5.27-4.63-11.44V72.1h14.03v-6.2h-14.03V44.41h-2.05c-5.41 10.3-13.65 18.93-23.3 25.48v2.2h7.72v39.63c0 5.91 5.53 13.64 14.93 13.64 7.97 0 13.89-4.77 16.73-11.97l-1.94-1.42z"/><path d="M1344.61 111.07V87.52c0-13.63-3.07-23.41-16.08-23.41-6.96 0-12.61 4.37-16.98 9.26V39.4h-24.7v2.32c7.07 0 7.07 4.63 7.07 11.45v57.9c0 5.79 0 11.2-6.43 11.2v2.31h29.86v-2.31c-5.79 0-5.79-5.41-5.79-11.2V80.32c2.06-3.48 5.79-7.72 9.77-7.72 5.68 0 5.68 5.91 5.68 14.53v23.93c0 5.79 0 11.2-5.79 11.2v2.31h29.85v-2.31c-6.46.01-6.46-5.4-6.46-11.19zm72.32-71.67h-40.16v2.32c12.1 0 12.1 3.34 12.1 13.78v53c0 10.43 0 13.78-12.1 13.78v2.31h44.02v-2.31c-12.11 0-12.11-3.35-12.11-13.78V86.12h4.88c26.25 0 35.27-11.45 35.27-23.67.01-15.32-13.64-23.05-31.9-23.05zm-5.54 41.83h-2.71V44.29h2.44c11.59 0 16.61 6.7 16.61 17.88.01 11.32-4.13 19.06-16.34 19.06zm62.42 29.84V39.4h-24.73v2.32c7.08 0 7.08 4.63 7.08 11.45v57.9c0 7.1 0 11.2-7.08 11.2v2.31h31.65v-2.31c-6.92 0-6.92-4.1-6.92-11.2zm59.43 7.35c-2.7 0-2.7-2.84-2.7-5.93V83.92c0-12.62-6.69-19.82-21.38-19.82-9.63 0-25.97 5.15-25.97 17 0 4.87 4.62 8.1 9.12 8.1 4.63 0 8.49-2.71 8.49-7.6 0-4.12-4.12-5.67-4.12-8.11 0-3.46 5.54-4.48 8.25-4.48 3.33 0 7.97 1.8 7.97 7.97v10.41c-23.8 11.21-30.88 16.36-30.88 26.92 0 7.32 5.03 12.08 11.71 12.08 7.21 0 14.16-4.75 19.17-9.39.51 6.44 5.28 9.39 11.45 9.39 6.31 0 10.81-3.73 14.03-8.88l-1.81-1.4c-.89 1.13-1.8 2.31-3.33 2.31zm-20.33-6.05c-2.2 1.79-4.11 3.46-7.08 3.46-4 0-6.82-2.83-6.82-6.81 0-6.95 8.35-13.27 13.89-16.34v19.69zm83.26-1.3V87.52c0-13.63-3.09-23.41-16.11-23.41-6.95 0-12.6 4.37-16.97 9.26V65.9h-24.73v2.33c7.08 0 7.08 4.63 7.08 11.45v31.38c0 5.79 0 11.2-6.43 11.2v2.31h29.87v-2.31c-5.79 0-5.79-5.41-5.79-11.2V80.32c2.05-3.48 5.79-7.72 9.78-7.72 5.67 0 5.67 5.91 5.67 14.53v23.93c0 5.79 0 11.2-5.8 11.2v2.31h29.84v-2.31c-6.41.01-6.41-5.4-6.41-11.19z"/></svg>