<svg
   width="961.33331"
   height="79.73333"
   viewBox="0 0 961.33331 79.73333"
   xmlns="http://www.w3.org/2000/svg">
  <g
     transform="matrix(1.3333333,0,0,-1.3333333,0,79.733333)">
    <g
       transform="scale(0.1)">
      <path
         d="m 1131.82,459.09 c 25.31,-14.453 40.66,-42.164 46.02,-83.113 h 16.36 l -0.56,114.476 H 851.816 l -0.543,-114.476 h 16.36 c 3.504,40.582 18.847,68.296 46.004,83.113 14.789,7.973 36.039,12.324 63.769,13.07 V 173.094 c 0,-20.727 -3.652,-34.559 -10.949,-41.477 -7.301,-6.949 -22.043,-10.406 -44.219,-10.406 v -14.422 h 202.372 v 14.422 c -23.11,0 -38.31,3.43 -45.61,10.258 -7.3,6.859 -10.95,20.722 -10.95,41.625 V 472.16 c 28.29,-0.746 49.52,-5.097 63.77,-13.07"
         style="fill:#231f20;fill-opacity:1;fill-rule:nonzero;stroke:none" />
      <path
         d="m 1234.7,334.102 c 5.47,15.347 15.63,23.011 30.48,23.011 14.46,0 24.1,-6.652 28.93,-19.961 4.82,-13.293 7.41,-36.683 7.79,-70.129 h -76.52 c 0.75,29.383 3.84,51.75 9.32,67.079 z m 126.52,-156.348 c -10.75,-11.813 -19.73,-20.227 -26.94,-25.238 -11.86,-8.297 -24.45,-12.457 -37.79,-12.457 -27.96,0 -47.5,15.621 -58.6,46.839 -6.12,16.622 -9.82,36.317 -11.12,59.051 h 144.98 c 0,5.172 -0.64,12.66 -1.95,22.465 -2.58,20.871 -7.21,37.871 -13.86,51.004 -8.88,17.367 -21.56,30.953 -38.03,40.742 -16.46,9.805 -34.05,14.699 -52.73,14.699 -32.76,0 -60.75,-12.058 -83.97,-36.183 -23.23,-24.11 -34.84,-57.981 -34.84,-101.594 0,-48.25 12.21,-83.363 36.64,-105.348 24.43,-21.984 50.61,-32.9762 78.55,-32.9762 19.43,0 36.64,3.6052 51.63,10.8162 23.13,11.254 43.48,31.305 61.06,60.149 l -13.03,8.031"
         style="fill:#231f20;fill-opacity:1;fill-rule:nonzero;stroke:none" />
      <path
         d="m 1613.9,131.762 -84.83,128.812 58.73,72.403 c 6.05,7.574 13.3,13.234 21.76,16.925 4.6,1.848 10.39,3.414 17.37,4.719 v 13.586 h -95.15 v -13.586 c 10.35,-0.367 17.78,-1.289 22.29,-2.769 4.52,-1.481 6.77,-4.997 6.77,-10.551 0,-4.442 -2.3,-9.996 -6.9,-16.653 -4.62,-6.668 -16.69,-22.277 -36.23,-46.808 -7.25,9.832 -15.62,22.262 -25.13,37.285 -9.52,15.035 -14.26,24.68 -14.26,28.945 0,3.516 1.11,5.688 3.32,6.52 2.22,0.836 9.9,2.183 23.01,4.031 v 13.586 h -141.91 v -13.586 c 6.83,-0.922 12.02,-2.492 15.52,-4.719 3.52,-2.214 8.22,-7.855 14.14,-16.925 l 72.95,-111.813 c -6.12,-7.769 -13.88,-17.937 -23.31,-30.543 -9.44,-12.605 -17.01,-22.426 -22.74,-29.457 -13.87,-16.824 -24.17,-27.555 -30.91,-32.187 -6.76,-4.629 -14.84,-7.676 -24.26,-9.145 V 106.789 H 1460 v 13.043 c -9.43,0.352 -16.49,1.469 -21.2,3.313 -4.72,1.847 -7.06,5.746 -7.06,11.668 0,5.011 6.18,16.207 18.56,33.621 5.97,8.41 15.05,20.371 27.2,35.875 4.19,-6.536 8.85,-13.598 13.98,-21.161 5.11,-7.593 9.04,-13.515 11.78,-17.824 5,-7.765 8.61,-13.777 10.82,-18.027 3.88,-7.035 5.82,-12.133 5.82,-15.27 0,-4.808 -2.3,-7.945 -6.94,-9.437 -4.61,-1.469 -10.9,-2.406 -18.84,-2.758 v -13.043 h 136.69 v 13.043 c -4.25,1.641 -7.62,3.285 -10.11,4.836 -2.51,1.586 -4.76,3.93 -6.8,7.094"
         style="fill:#231f20;fill-opacity:1;fill-rule:nonzero;stroke:none" />
      <path
         d="m 1776.77,163.129 c -6.1,-7.035 -11.36,-12.227 -15.8,-15.566 -7.94,-5.571 -16.54,-8.325 -25.78,-8.325 -7.02,0 -13.35,3.164 -18.99,9.582 -5.65,6.391 -8.46,15.774 -8.46,28.2 0,20.929 9.7,38.164 29.11,51.707 11.46,7.957 24.77,13.793 39.92,17.5 z m 230.23,103.336 -31.06,14.98 c -14.96,7.196 -25.13,14.215 -30.49,21.059 -5.54,6.656 -8.31,13.309 -8.31,19.961 0,8.137 3.09,15.711 9.29,22.734 6.18,7.02 15.56,10.535 28.12,10.535 16.27,0 30.5,-5.816 42.7,-17.468 12.21,-11.637 20.97,-27.071 26.33,-46.297 h 14.43 v 82.058 h -12.48 c -1.3,-3.519 -2.92,-6.23 -4.85,-8.179 -1.95,-1.934 -5.23,-2.903 -9.85,-2.903 -3.33,0 -11.74,1.981 -25.22,5.95 -13.5,3.972 -26.25,5.964 -38.25,5.964 -27.54,0 -48.98,-8 -64.33,-23.976 -15.33,-15.988 -23.01,-34.981 -23.01,-56.969 0,-17.379 4.9,-32.43 14.7,-45.184 9.6,-12.761 25.5,-24.578 47.68,-35.48 l 42.13,-20.52 c 9.06,-4.425 15.63,-8.585 19.69,-12.484 7.4,-7.211 11.09,-15.887 11.09,-26.058 0,-10.731 -3.41,-19.348 -10.26,-25.915 -6.84,-6.562 -17.55,-9.847 -32.15,-9.847 -15.91,0 -31.43,5.597 -46.58,16.765 -15.15,11.2 -25.5,30.368 -31.04,57.539 h -15.8 v -50.097 l -0.13,0.18 c -3.71,-3.692 -6.43,-5.95 -8.18,-6.77 -1.76,-0.852 -3.75,-1.262 -5.96,-1.262 -2.6,0 -4.94,1.438 -7.07,4.309 -2.12,2.844 -3.19,6.332 -3.19,10.379 v 137.515 c 0,33.633 -10.72,56.735 -32.16,69.309 -21.62,12.367 -48.51,18.566 -80.67,18.566 -29.94,0 -55.16,-6.359 -75.68,-19.082 -20.52,-12.718 -30.78,-29.953 -30.78,-51.703 0,-12.168 3.84,-21.472 11.51,-27.933 7.66,-6.45 16.96,-9.676 27.86,-9.676 9.42,0 17.7,2.918 24.81,8.734 7.11,5.821 10.67,14.086 10.67,24.813 0,4.254 -0.78,8.265 -2.34,12.062 -1.59,3.781 -3.65,7.242 -6.25,10.391 l -3.32,3.887 c -1.48,1.656 -2.6,3.222 -3.33,4.703 -0.73,1.48 -1.11,3.328 -1.11,5.554 0,5.715 3.28,10.481 9.84,14.274 6.55,3.781 14.92,5.687 25.09,5.687 18.1,0 30.72,-4.031 37.85,-12.062 7.11,-8.043 10.67,-20.473 10.67,-37.285 V 265.91 c -52.5,-15.183 -91.03,-30.265 -115.61,-45.273 -24.58,-14.981 -36.86,-35.262 -36.86,-60.793 0,-20.93 6.74,-36.348 20.23,-46.254 13.49,-9.879 28,-14.8322 43.52,-14.8322 11.64,0 23.47,2.0232 35.49,6.0972 19.77,6.477 37.51,17.586 53.23,33.329 2.03,-10.907 5.26,-19.172 9.7,-24.711 7.77,-9.821 20.05,-14.7152 36.87,-14.7152 9.43,0 18.38,1.6402 26.88,4.9842 10.16,3.879 19.63,9.977 28.42,18.278 V 98.7578 h 13.57 c 2.96,5.9222 5.6,10.1132 7.92,12.6052 2.3,2.489 5.02,3.75 8.17,3.75 1.29,0 2.35,-0.117 3.18,-0.293 0.84,-0.175 3.01,-0.91 6.53,-2.199 l 9.7,-3.34 c 11.27,-3.871 20.74,-6.597 28.4,-8.179 7.67,-1.5512 15.3,-2.3442 22.88,-2.3442 30.5,0 53.36,9.0862 68.61,27.2892 15.25,18.203 22.87,37.84 22.87,58.918 0,21.601 -7.4,39.82 -22.17,54.605 -8.88,8.692 -22.92,17.649 -42.14,26.895"
         style="fill:#231f20;fill-opacity:1;fill-rule:nonzero;stroke:none" />
      <path
         d="m 2483.89,147.531 c -25.12,-16.265 -52.23,-24.386 -81.43,-24.386 -47.6,0 -80.19,24.566 -97.74,73.75 -9.41,26.234 -14.11,59.679 -14.11,100.347 0,55.254 7.97,99.281 23.95,132.098 15.97,32.797 42.94,49.199 80.99,49.199 33.59,0 63.66,-15.348 90.28,-46.019 14.18,-16.637 28.14,-39.368 41.8,-68.196 h 14.42 v 132.781 h -15.8 c -1.12,-6.093 -3.84,-11.914 -8.18,-17.453 -4.34,-5.539 -10.14,-8.324 -17.35,-8.324 -2.76,0 -16.24,4.395 -40.45,13.176 -24.22,8.777 -48.13,13.16 -71.82,13.16 -54.69,0 -100.89,-17.926 -138.6,-53.773 -40.1,-38.266 -60.15,-88.258 -60.15,-149.977 0,-62.285 20.98,-111.824 62.92,-148.578 37.89,-33.27 84.83,-49.918 140.82,-49.918 36.61,0 69.88,9.906 99.83,29.66 16.8,11.11 36.29,29.02 58.48,53.789 l -16.91,13.863 c -19.58,-20.695 -36.56,-35.757 -50.95,-45.199"
         style="fill:#231f20;fill-opacity:1;fill-rule:nonzero;stroke:none" />
      <path
         d="m 2913.78,410.902 c 12.02,0 22.34,4.293 30.9,12.879 8.61,8.606 12.89,18.996 12.89,31.192 0,12.207 -4.28,22.597 -12.89,31.187 -8.56,8.602 -18.88,12.895 -30.9,12.895 -12.19,0 -22.6,-4.293 -31.19,-12.895 -8.58,-8.59 -12.89,-18.98 -12.89,-31.187 0,-12.196 4.31,-22.586 12.89,-31.192 8.59,-8.586 19,-12.879 31.19,-12.879"
         style="fill:#231f20;fill-opacity:1;fill-rule:nonzero;stroke:none" />
      <path
         d="m 3080.51,154.742 v 335.711 h -107.55 v -13.57 c 10.53,-2.406 17.74,-5.481 21.63,-9.207 3.87,-3.735 5.84,-11.664 5.84,-23.785 V 154.742 c 0,-12.574 -2.11,-20.84 -6.27,-24.797 -3.68,-3.519 -9.74,-6.386 -17.95,-8.672 -8.01,1.938 -13.78,4.375 -16.97,7.411 -3.69,3.519 -5.54,11.461 -5.54,23.832 v 215.691 h -108.95 v -13.586 c 11.46,-2.051 19.14,-5.172 23.01,-9.363 3.87,-4.192 5.8,-12.063 5.8,-23.625 V 154.742 c 0,-12.926 -2.75,-21.894 -8.29,-26.879 -3.14,-2.843 -8.7,-5.031 -16.4,-6.664 -8.41,2.153 -14.67,4.949 -18.54,8.453 -4.34,3.989 -6.51,12.34 -6.51,25.09 v 136.406 c 0,30.485 -7.12,52.055 -21.37,64.719 -14.21,12.664 -32.24,18.992 -54.05,18.992 -16.06,0 -30.54,-3.836 -43.38,-11.504 -12.84,-7.664 -25.09,-18.523 -36.7,-32.578 v 159.676 h -109.8 v -13.57 c 12.02,-1.496 20.05,-4.531 24.12,-9.086 4.08,-4.574 6.1,-12.547 6.1,-23.906 V 154.742 c 0,-12.926 -2.43,-21.57 -7.36,-25.91 -4.89,-4.34 -12.51,-7.184 -22.86,-8.473 v -13.57 h 136.65 v 13.57 c -10.14,2.051 -17.06,4.809 -20.75,8.325 -3.72,3.519 -5.57,11.461 -5.57,23.832 v 151.925 c 0,3.325 5.22,9.524 15.65,18.582 10.44,9.043 20.58,13.586 30.37,13.586 13.13,0 21.93,-5.832 26.32,-17.468 2.61,-6.481 3.9,-16.18 3.9,-29.11 V 152.516 c 0,-12.371 -1.85,-20.313 -5.54,-23.832 -3.69,-3.516 -10.64,-6.274 -20.81,-8.325 v -13.57 h 126.01 7.36 120.85 7.07 128.21 v 13.57 c -10.35,2.61 -17.53,5.836 -21.64,9.704 -4.04,3.898 -6.09,12.105 -6.09,24.679"
         style="fill:#231f20;fill-opacity:1;fill-rule:nonzero;stroke:none" />
      <path
         d="m 3282.47,170.277 c 0,-4.453 -4.87,-12.105 -14.6,-23.007 -9.73,-10.907 -20.69,-16.356 -32.95,-16.356 -19.46,0 -32.62,13.395 -39.45,40.184 -3.72,14.804 -5.57,36.789 -5.57,65.984 0,27.348 1.93,48.512 5.8,63.488 7.27,27.907 20.99,41.86 41.16,41.86 13.72,0 24.77,-4.532 33.12,-13.59 8.33,-9.055 12.49,-15.899 12.49,-20.516 z m 336.15,160.5 c 0,14.422 -4.69,25.368 -14.04,32.86 -9.36,7.488 -19.88,11.222 -31.54,11.222 -15.57,0 -29.26,-4.613 -41.13,-13.863 -11.84,-9.246 -23.8,-21.719 -35.85,-37.418 v 44.629 h -107.54 v -13.586 c 12.01,-1.492 20.05,-4.383 24.12,-8.66 4.05,-4.297 6.1,-12.398 6.1,-24.328 V 167.23 l -0.56,-16.648 c -0.38,-11.082 -2.69,-18.555 -6.94,-22.453 -3.38,-3.07 -8.92,-5.313 -16.48,-6.766 v 9.551 c -12.95,1.082 -21.63,3.899 -26.06,8.383 -4.45,4.484 -6.68,12.601 -6.68,24.328 v 326.828 h -122.23 v -13.57 c 17.35,-0.75 28.84,-2.844 34.35,-6.289 5.57,-3.457 8.33,-12.356 8.33,-26.703 V 339.938 c -10.91,11.445 -19.94,19.402 -27.15,23.828 -11.66,7.402 -24.97,11.093 -39.92,11.093 -29.96,0 -55.57,-12.984 -76.94,-38.953 -21.34,-25.957 -32.01,-61.394 -32.01,-106.316 0,-40.289 10.23,-72.18 30.75,-95.629 20.51,-23.481 44.64,-35.2032 72.37,-35.2032 16.27,0 31.42,4.2502 45.46,12.7502 8.85,5.363 18.67,13.57 29.37,24.68 V 98.7578 c 23.31,6.4762 39.57,10.4652 48.81,12.0472 8.6,1.472 27.12,3.621 55.31,6.441 v -10.457 h 151.07 v 13.57 c -16.27,1.496 -27.11,4.543 -32.56,9.235 -5.46,4.687 -8.18,16.414 -8.18,35.144 v 107.489 c 0,17.41 3.84,30.793 11.52,40.128 7.71,9.321 15.33,13.997 22.92,13.997 3.52,0 9.7,-5.645 18.49,-16.914 8.8,-11.27 19.23,-16.915 31.25,-16.915 10.55,0 19.14,3.606 25.71,10.817 6.57,7.211 9.88,16.355 9.88,27.437"
         style="fill:#231f20;fill-opacity:1;fill-rule:nonzero;stroke:none" />
      <path
         d="m 3691.57,334.102 c 5.49,15.347 15.63,23.011 30.46,23.011 14.48,0 24.12,-6.652 28.93,-19.961 4.84,-13.293 7.45,-36.683 7.8,-70.129 h -76.51 c 0.74,29.383 3.84,51.75 9.32,67.079 z m 126.51,-156.348 c -10.72,-11.813 -19.72,-20.227 -26.93,-25.238 -11.85,-8.297 -24.45,-12.457 -37.79,-12.457 -27.96,0 -47.51,15.621 -58.62,46.839 -6.1,16.622 -9.82,36.317 -11.11,59.051 h 145.01 c 0,5.172 -0.68,12.66 -1.97,22.465 -2.58,20.871 -7.21,37.871 -13.86,51.004 -8.88,17.367 -21.57,30.953 -38.02,40.742 -16.47,9.805 -34.06,14.699 -52.76,14.699 -32.74,0 -60.74,-12.058 -83.95,-36.183 -23.21,-24.11 -34.82,-57.981 -34.82,-101.594 0,-48.25 12.19,-83.363 36.61,-105.348 24.44,-21.984 50.62,-32.9762 78.55,-32.9762 19.44,0 36.64,3.6052 51.65,10.8162 23.13,11.254 43.47,31.305 61.06,60.149 l -13.05,8.031"
         style="fill:#231f20;fill-opacity:1;fill-rule:nonzero;stroke:none" />
      <path
         d="m 4087.67,152.516 v 137.238 c 0,31.598 -6.72,53.684 -20.11,66.262 -13.4,12.558 -32.3,18.843 -56.69,18.843 -17,0 -32.48,-4.484 -46.43,-13.437 -13.95,-8.969 -25.47,-20.301 -34.5,-33.973 v 40.758 h -107.58 v -13.586 c 12.2,-1.492 20.29,-4.469 24.27,-8.937 3.96,-4.489 5.96,-12.489 5.96,-24.051 V 154.742 c 0,-12.926 -2.47,-21.57 -7.36,-25.91 -4.9,-4.34 -12.52,-7.184 -22.87,-8.473 v -13.57 h 136.69 v 13.57 c -10.18,2.051 -17.12,4.809 -20.82,8.325 -3.69,3.519 -5.53,11.461 -5.53,23.832 v 151.925 c 4.45,7.207 10.75,14.375 18.99,21.485 8.23,7.121 17.23,10.683 27.02,10.683 13.14,0 21.9,-5.832 26.36,-17.468 2.57,-6.481 3.87,-16.18 3.87,-29.11 V 152.516 c 0,-12.371 -1.85,-20.313 -5.55,-23.832 -3.69,-3.516 -10.64,-6.274 -20.78,-8.325 v -13.57 h 133.34 v 13.57 c -10.17,1.289 -17.44,3.813 -21.78,7.504 -4.33,3.696 -6.5,11.903 -6.5,24.653"
         style="fill:#231f20;fill-opacity:1;fill-rule:nonzero;stroke:none" />
      <path
         d="m 4192.05,499.055 c -14.6,0 -26.15,-4.442 -34.65,-13.305 -8.5,-8.867 -12.75,-20.434 -12.75,-34.648 0,-12.942 3.96,-23.524 11.9,-31.747 7.94,-8.218 18.03,-12.339 30.22,-12.339 1.85,0 5.92,0.457 12.19,1.394 3.7,0 6.57,-1.219 8.59,-3.605 1.85,-2.594 2.79,-5.731 2.79,-9.426 0,-13.688 -7.77,-28.285 -23.28,-43.805 -8.7,-8.691 -21.54,-18.953 -38.54,-30.777 l 6.65,-12.473 c 25.68,14.422 45.73,29.297 60.15,44.641 22.54,24.195 33.83,51.004 33.83,80.387 0,20.328 -5.51,36.363 -16.51,48.101 -10.99,11.727 -24.53,17.602 -40.59,17.602"
         style="fill:#231f20;fill-opacity:1;fill-rule:nonzero;stroke:none" />
      <path
         d="m 4380.11,266.465 -31.04,14.98 c -14.98,7.196 -25.15,14.215 -30.48,21.059 -5.55,6.656 -8.33,13.309 -8.33,19.961 0,8.137 3.08,15.711 9.29,22.734 6.19,7.02 15.57,10.535 28.14,10.535 16.24,0 30.49,-5.816 42.68,-17.468 12.2,-11.637 20.99,-27.071 26.35,-46.297 h 14.4 v 82.058 h -12.46 c -1.29,-3.519 -2.91,-6.23 -4.87,-8.179 -1.93,-1.934 -5.22,-2.903 -9.82,-2.903 -3.34,0 -11.75,1.981 -25.24,5.95 -13.48,3.972 -26.23,5.964 -38.25,5.964 -27.55,0 -48.98,-8 -64.31,-23.976 -15.36,-15.988 -23.01,-34.981 -23.01,-56.969 0,-17.379 4.9,-32.43 14.69,-45.184 9.61,-12.761 25.5,-24.578 47.69,-35.48 l 42.12,-20.52 c 9.06,-4.425 15.62,-8.585 19.7,-12.484 7.38,-7.211 11.08,-15.887 11.08,-26.058 0,-10.731 -3.43,-19.348 -10.26,-25.915 -6.83,-6.562 -17.56,-9.847 -32.16,-9.847 -15.89,0 -31.42,5.597 -46.57,16.765 -15.16,11.2 -25.51,30.368 -31.05,57.539 h -15.8 V 98.7578 h 13.58 c 2.96,5.9222 5.59,10.1132 7.91,12.6052 2.32,2.489 5.01,3.75 8.18,3.75 1.29,0 2.34,-0.117 3.19,-0.293 0.82,-0.175 2.99,-0.91 6.51,-2.199 l 9.7,-3.34 c 11.26,-3.871 20.73,-6.597 28.41,-8.179 7.68,-1.5512 15.3,-2.3442 22.86,-2.3442 30.51,0 53.38,9.0862 68.62,27.2892 15.24,18.203 22.86,37.84 22.86,58.918 0,21.601 -7.38,39.82 -22.16,54.605 -8.88,8.692 -22.92,17.649 -42.15,26.895"
         style="fill:#231f20;fill-opacity:1;fill-rule:nonzero;stroke:none" />
      <path
         d="m 4469.35,494.73 c -26.51,0 -48.1,21.594 -48.1,48.098 0,26.504 21.59,48.094 48.1,48.094 26.5,0 47.89,-21.59 47.89,-48.094 0,-26.504 -21.39,-48.098 -47.89,-48.098 z m 0,102.989 c -30.3,0 -55.06,-24.586 -55.06,-54.891 0,-30.305 24.76,-54.922 55.06,-54.922 30.3,0 54.89,24.617 54.89,54.922 0,30.305 -24.59,54.891 -54.89,54.891"
         style="fill:#231f20;fill-opacity:1;fill-rule:nonzero;stroke:none" />
      <path
         d="m 4468.1,544.41 c -1.48,0 -3.36,0.168 -4.3,0.469 v 26.672 h 3.63 c 11.13,0 13.02,-7.297 13.02,-13.016 0,-7.297 -4.44,-14.125 -12.35,-14.125 z m 24.76,-19.98 -9.72,17.59 c 7.93,1.918 13.95,7.804 13.95,16.179 0,11.434 -10.29,16.848 -23.64,16.848 h -32.05 v -2.856 c 7,0 7,-5.418 7,-12.078 v -32.687 c 0,-8.242 0,-12.211 -8.08,-12.211 v -2.86 h 32.66 v 2.86 c -9.18,0 -9.18,3.969 -9.18,12.211 v 13.484 h 3.49 l 15.85,-28.555 h 18.76 v 2.86 c -4.3,0 -7.16,5.851 -9.04,9.215"
         style="fill:#231f20;fill-opacity:1;fill-rule:nonzero;stroke:none" />
      <path
         d="m 674.492,286.488 c -11.461,0 -21.808,-4.523 -29.406,-11.968 L 521.176,146.598 C 473.324,105.148 427.742,83.2734 357.215,82.8359 v 0.0352 C 288.445,83.9648 243.516,105.766 196.344,146.598 L 71.3906,274.52 c -7.5781,7.445 -17.9414,11.968 -29.414,11.968 C 18.8438,286.488 0,267.734 0,244.574 0,232.988 4.70313,222.492 12.2891,214.875 L 174.906,56.3594 C 220.59,18.9336 285.355,0 357.215,0 428.949,0 493.688,18.9336 539.469,56.3594 L 704.188,214.875 c 7.617,7.617 12.277,18.113 12.277,29.699 0,23.16 -18.805,41.914 -41.973,41.914"
         style="fill:#e71a28;fill-opacity:1;fill-rule:nonzero;stroke:none" />
      <path
         d="m 212.453,219.285 c 47.59,-45.39 75.418,-74.375 144.434,-75.406 71.742,-1.031 99.847,29.668 148.187,75.969 l 95.817,97.23 c 7.636,7.594 12.3,18.11 12.3,29.692 0,23.156 -18.82,41.98 -41.996,41.98 -11.879,0 -22.66,-4.996 -30.324,-12.984 L 432.184,266.422 c -18.598,-20.32 -45.348,-33.137 -75.055,-33.137 -29.629,0 -56.285,12.637 -74.82,32.727 L 175.625,375.766 c -7.699,7.988 -18.422,12.984 -30.43,12.984 -23.156,0 -41.914,-18.824 -41.914,-41.98 0,-11.582 4.672,-22.098 12.282,-29.692 l 96.89,-97.793"
         style="fill:#e71a28;fill-opacity:1;fill-rule:nonzero;stroke:none" />
      <path
         d="m 335.254,303.309 c 5.609,-5.954 13.578,-9.645 22.465,-9.645 8.773,0 16.687,3.609 22.367,9.465 l 118.5,117.09 c 7.695,7.597 12.422,18.156 12.422,29.804 0,23.188 -18.817,42.024 -41.977,42.024 -11.34,0 -21.566,-4.496 -29.156,-11.82 l -68.953,-69.93 c -3.563,-3.484 -8.418,-5.66 -13.707,-5.66 -5.613,0 -10.61,2.32 -14.129,6.086 l -66.492,69.504 c -7.559,7.324 -17.86,11.82 -29.117,11.82 -23.223,0 -41.997,-18.836 -41.997,-42.024 0,-11.648 4.793,-22.207 12.454,-29.804 l 117.32,-116.91"
         style="fill:#e71a28;fill-opacity:1;fill-rule:nonzero;stroke:none" />
      <path
         d="m 357.215,487.648 c 30.414,0 55.082,24.731 55.082,55.165 0,30.464 -24.668,55.167 -55.082,55.167 -30.531,0 -55.168,-24.703 -55.168,-55.167 0,-30.434 24.637,-55.165 55.168,-55.165"
         style="fill:#e71a28;fill-opacity:1;fill-rule:nonzero;stroke:none" />
      <path
         d="m 4780.22,481.398 c 54.81,0 54.81,-15.144 54.81,-62.437 V 316.375 h -135.27 v 102.586 c 0,47.293 0,62.437 54.81,62.437 v 10.508 h -202.35 v -10.508 c 54.82,0 54.82,-15.144 54.82,-62.437 V 178.77 c 0,-47.254 0,-62.438 -54.82,-62.438 v -10.461 h 202.35 v 10.461 c -54.81,0 -54.81,15.184 -54.81,62.438 v 112.543 h 135.27 V 178.77 c 0,-47.254 0,-62.438 -54.81,-62.438 v -10.461 h 202.35 v 10.461 c -54.81,0 -54.81,15.184 -54.81,62.438 v 240.191 c 0,47.293 0,62.437 54.81,62.437 v 10.508 h -202.35 v -10.508"
         style="fill:#231f20;fill-opacity:1;fill-rule:nonzero;stroke:none" />
      <path
         d="m 5062.45,267.391 c 0,42.558 7.55,92.738 41.42,92.738 36.11,0 36.11,-62.984 36.11,-92.738 z m 49.57,112.547 c -79.9,0 -124.8,-66.465 -124.8,-141.098 0,-74.07 33.81,-141.1369 113.74,-141.1369 56.54,0 85.69,33.8129 109.01,81.0669 l -9.33,6.343 c -13.99,-22.097 -31.47,-43.621 -60.04,-43.621 -53.09,0 -76.41,63.543 -76.41,106.078 h 145.78 c 1.17,62.379 -33.81,132.368 -97.95,132.368"
         style="fill:#231f20;fill-opacity:1;fill-rule:nonzero;stroke:none" />
      <path
         d="m 5363.33,161.199 c -9.89,-8.133 -18.64,-15.687 -32.06,-15.687 -18.06,0 -30.93,12.828 -30.93,30.851 0,31.481 37.92,60.145 62.99,74.071 z m 107.29,-16.886 c -4.06,-5.153 -8.16,-10.5 -15.14,-10.5 -12.26,0 -12.26,12.867 -12.26,26.851 v 129.457 c 0,57.211 -30.33,89.817 -96.8,89.817 -43.77,0 -117.8,-23.352 -117.8,-77.032 0,-22.047 21,-36.715 41.4,-36.715 20.97,0 38.47,12.258 38.47,34.45 0,18.675 -18.63,25.703 -18.63,36.761 0,15.684 25.07,20.328 37.33,20.328 15.12,0 36.14,-8.175 36.14,-36.117 v -47.179 c -107.92,-50.789 -139.95,-74.157 -139.95,-121.993 0,-33.195 22.73,-54.7379 53.05,-54.7379 32.65,0 64.14,21.5429 86.9,42.5509 2.37,-29.168 23.91,-42.5509 51.88,-42.5509 28.54,0 48.97,16.9259 63.56,40.2459 l -8.15,6.364"
         style="fill:#231f20;fill-opacity:1;fill-rule:nonzero;stroke:none" />
      <path
         d="m 5583.73,167.109 v 324.797 h -112 v -10.508 c 32.12,0 32.12,-20.98 32.12,-51.902 V 167.109 c 0,-32.164 0,-50.777 -32.12,-50.777 v -10.461 h 143.49 v 10.461 c -31.49,0 -31.49,18.613 -31.49,50.777"
         style="fill:#231f20;fill-opacity:1;fill-rule:nonzero;stroke:none" />
      <path
         d="m 5773.82,163.016 c -6.4,-12.27 -19.26,-28.559 -33.82,-28.559 -20.98,0 -20.98,23.883 -20.98,51.863 v 157.407 h 63.6 v 28.074 h -63.6 v 97.383 h -9.31 C 5685.2,422.5 5647.87,383.375 5604.12,353.691 v -9.964 h 35 V 164.133 c 0,-26.789 25.08,-61.813 67.66,-61.813 36.12,0 62.97,21.637 75.84,54.243 l -8.8,6.453"
         style="fill:#231f20;fill-opacity:1;fill-rule:nonzero;stroke:none" />
      <path
         d="m 6040.88,167.109 v 106.723 c 0,61.766 -13.92,106.106 -72.87,106.106 -31.53,0 -57.14,-19.809 -76.96,-41.961 v 153.929 h -111.96 v -10.508 c 32.05,0 32.05,-20.98 32.05,-51.902 V 167.109 c 0,-26.254 0,-50.777 -29.15,-50.777 v -10.461 h 135.3 v 10.461 c -26.24,0 -26.24,24.523 -26.24,50.777 v 139.336 c 9.33,15.766 26.24,34.977 44.26,34.977 25.74,0 25.74,-26.77 25.74,-65.856 V 167.109 c 0,-26.254 0,-50.777 -26.25,-50.777 v -10.461 h 135.27 v 10.461 c -29.19,0 -29.19,24.523 -29.19,50.777"
         style="fill:#231f20;fill-opacity:1;fill-rule:nonzero;stroke:none" />
      <path
         d="m 6343.55,302.324 h -12.27 v 167.422 h 11.06 c 52.53,0 75.29,-30.359 75.29,-81.043 0,-51.301 -18.74,-86.379 -74.08,-86.379 z m 25.09,189.582 h -182 v -10.508 c 54.85,0 54.85,-15.144 54.85,-62.437 V 178.77 c 0,-47.254 0,-62.438 -54.85,-62.438 v -10.461 h 199.5 v 10.461 c -54.86,0 -54.86,15.184 -54.86,62.438 v 101.414 h 22.12 c 118.99,0 159.84,51.871 159.84,107.285 0,69.418 -61.84,104.437 -144.6,104.437"
         style="fill:#231f20;fill-opacity:1;fill-rule:nonzero;stroke:none" />
      <path
         d="m 6626.41,167.109 v 324.797 h -112.07 v -10.508 c 32.09,0 32.09,-20.98 32.09,-51.902 V 167.109 c 0,-32.164 0,-50.777 -32.09,-50.777 v -10.461 h 143.43 v 10.461 c -31.36,0 -31.36,18.613 -31.36,50.777"
         style="fill:#231f20;fill-opacity:1;fill-rule:nonzero;stroke:none" />
      <path
         d="m 6803.62,161.199 c -9.97,-8.133 -18.61,-15.687 -32.07,-15.687 -18.12,0 -30.89,12.828 -30.89,30.851 0,31.481 37.83,60.145 62.96,74.071 z m 92.13,-27.386 c -12.25,0 -12.25,12.867 -12.25,26.851 v 129.457 c 0,57.211 -30.33,89.817 -96.88,89.817 -43.65,0 -117.67,-23.352 -117.67,-77.032 0,-22.047 20.95,-36.715 41.34,-36.715 20.99,0 38.48,12.258 38.48,34.45 0,18.675 -18.66,25.703 -18.66,36.761 0,15.684 25.1,20.328 37.39,20.328 15.09,0 36.12,-8.175 36.12,-36.117 v -47.179 c -107.85,-50.789 -139.97,-74.157 -139.97,-121.993 0,-33.195 22.8,-54.7379 53.08,-54.7379 32.69,0 64.16,21.5429 86.89,42.5509 2.33,-29.168 23.92,-42.5509 51.88,-42.5509 28.58,0 48.98,16.9259 63.59,40.2459 l -8.22,6.364 c -4.06,-5.153 -8.21,-10.5 -15.12,-10.5"
         style="fill:#231f20;fill-opacity:1;fill-rule:nonzero;stroke:none" />
      <path
         d="m 7180.94,167.109 v 106.723 c 0,61.766 -14,106.106 -72.99,106.106 -31.49,0 -57.1,-19.809 -76.89,-41.961 v 33.824 h -112.05 v -10.578 c 32.07,0 32.07,-21 32.07,-51.879 V 167.109 c 0,-26.254 0,-50.777 -29.15,-50.777 v -10.461 h 135.36 v 10.461 c -26.23,0 -26.23,24.523 -26.23,50.777 v 139.336 c 9.29,15.766 26.23,34.977 44.3,34.977 25.68,0 25.68,-26.77 25.68,-65.856 V 167.109 c 0,-26.254 0,-50.777 -26.27,-50.777 v -10.461 h 135.24 v 10.461 c -29.07,0 -29.07,24.523 -29.07,50.777"
         style="fill:#231f20;fill-opacity:1;fill-rule:nonzero;stroke:none" />
    </g>
  </g>
</svg>
