<svg xmlns="http://www.w3.org/2000/svg" viewBox="0 0 1024 1024" fill="currentcolor">
  <path d="M154.2,894.4C69.8,895,.8,827.1,0,742.6v-461.3c.8-84.5,69.8-152.3,154.2-151.7h715.5c84.5-.6,153.5,67.3,154.2,151.7v461.3c-.7,84.4-69.7,152.3-154.2,151.8H154.2ZM61.7,281.4v461.3c.5,50.7,41.9,91.4,92.5,91h715.5c50.7.3,92-40.4,92.5-91v-461.3c-.5-50.7-41.9-91.4-92.5-91H154.2c-50.7-.3-92.1,40.4-92.5,91ZM851.7,777.7l-245.1-226.7-12.4,11.5c-49.4,45.3-125.3,45.3-174.8,0l-12.4-11.5-244.9,226.8c-5.8,5.3-13.3,8.3-21.2,8.3-8.5,0-16.6-3.4-22.5-9.6-11.5-12-11-31,.9-42.4.1-.1.3-.2.4-.4l242.3-224.2-242.3-224.2c-12.2-11.2-13-30.2-1.8-42.4.2-.2.3-.3.5-.5,11.7-12.3,31.1-12.9,43.6-1.3l299.7,277.4c25.5,23.4,64.7,23.4,90.2,0l33-30.6,1.2-1.1,265.5-245.8c12.5-11.5,31.9-10.9,43.6,1.3,11.5,11.9,11.1,30.9-.8,42.4-.2.2-.4.3-.6.5l-242.2,224.2,242.2,224.2c12.2,11.2,13,30.1,1.9,42.3-.2.2-.4.4-.5.6-11.8,12.2-31.1,12.7-43.6,1.2Z"/>
</svg>