<svg xmlns="http://www.w3.org/2000/svg" viewBox="0 0 1024 1024" fill="currentcolor">
  <path d="M592.8 426.8C140.6 234.8 106.5 77 392.3 21.5 38.2-80.9-170.8 200.7 183.3 469.4l-93.8 72.5C191.9 614.4 294.3 725.3 260.1 896l-46.9 38.4 179.2 89.6C563 819.2 652.6 623 592.9 426.8ZM481.9 738.2l-68.3-85.3-81.1 12.8 34.1-68.3-68.3-85.3 89.6 42.7 38.4-68.3 21.3 93.8 93.8 46.9-81.1 12.8 21.3 98.1Z"/>
  <path d="M827.4 187.9c157.8 132.2 46.9 221.8-145 243.2 46.9 221.8-98.1 426.6-255.9 584.4l145-72.5c8.5-89.6 157.8-136.5 226.1-337 324.2-76.8 268.7-332.7 29.9-418.1Z"/>
</svg>