<svg xmlns="http://www.w3.org/2000/svg" viewBox="0 0 1024 1024" fill="currentcolor">
  <path d="M468.3,706.8c0,0,0,.2.1.2,24.1,24.1,63.1,24,87.1,0l232.2-232.2c24.1-24.1,24.1-63.1,0-87.1-24.1-24.1-63.1-24-87.1,0l-127,127V61.6C573.7,27.6,546.1,0,512.1,0s-61.6,27.6-61.6,61.6v453.2l-127.2-127.2c-24.1-24.1-63.1-24.1-87.1,0-24.1,24.1-24,63.1,0,87.1l232,232Z"/>
  <path d="M925.6,610.4c-38.1,0-68.9,30.9-68.9,68.9v206.8H144.5v-218.2c0-31.7-25.7-57.5-57.5-57.5s-57.5,25.7-57.5,57.5v298.6c0,31.7,25.7,57.5,57.5,57.5s3.7-1,5.7-1.2c2,.2,3.7,1.2,5.7,1.2h827.1c38.1,0,68.9-30.9,68.9-68.9v-275.7c0-38.1-30.9-68.9-68.9-68.9Z"/>
</svg>