<svg xmlns="http://www.w3.org/2000/svg" viewBox="0 0 1024 1024" fill="currentcolor">
  <path d="M1015.2,61.6c0-16.8-6.8-32.1-17.8-43.2,0,0-.2-.2-.3-.3,0,0-.2-.2-.2-.2-11.1-11-26.4-17.8-43.3-17.8s0,0,0,0,0,0,0,0h-328.7C590.7,0,563.1,27.6,563.1,61.6s27.6,61.6,61.7,61.6h179.9l-320.8,320.7h0c-24.1,24.2-24.1,63.2,0,87.3,24.1,24.1,63.1,24.1,87.2,0l320.9-320.9v180.1c0,34.1,27.6,61.7,61.6,61.7s61.6-27.6,61.6-61.7V61.7s0,0,0,0,0,0,0,0Z"/>
  <path d="M836.7,610c-38.1,0-69,30.9-69,69v207H146.8V265h207c38.1,0,69-30.9,69-69s-30.9-69-69-69H77.8c-10.7,0-20.9,2.4-29.9,6.8-1,.5-2,1-3,1.5-2,1.1-3.9,2.2-5.7,3.5-.9.6-1.8,1.3-2.7,1.9-1.8,1.3-3.5,2.7-5.1,4.2-.8.7-1.6,1.5-2.4,2.3-1.6,1.6-3,3.2-4.5,4.9-4.2,5.1-7.7,10.8-10.3,17s-1.6,4.2-2.3,6.3c-2,6.5-3.1,13.4-3.1,20.5v759c0,38.1,30.9,69,69,69h759c38.1,0,69-30.9,69-69v-276c0-38.1-30.9-69-69-69Z"/>
</svg>