<svg xmlns="http://www.w3.org/2000/svg" viewBox="0 0 1024 1024" fill="currentcolor">
  <path d="M736,160h-448v-32c0-35.328,28.672-64,64-64h320c35.328,0,64,28.672,64,64v32h0ZM288,224h448v416h-448V224ZM736,896c0,35.328-28.672,64-64,64h-320c-35.328,0-64-28.672-64-64v-192h448v192h0ZM672,0h-320c-70.688,0-128,57.312-128,128v768c0,70.688,57.312,128,128,128h320c70.688,0,128-57.312,128-128V128C800,57.312,742.688,0,672,0h0ZM512,896c35.328,0,64-28.672,64-64s-28.672-64-64-64-64,28.672-64,64,28.672,64,64,64h0Z" />
</svg>