<svg version="1.1" id="Layer_1" xmlns="http://www.w3.org/2000/svg" x="0" y="0" viewBox="0 0 677.15 61.03" style="enable-background:new 0 0 677.15 61.03" xml:space="preserve"><style>.st0{fill:none}.st1{fill:#e51b27}</style><path class="st0" d="M502.12 26.38c-.48-1.34-1.45-2.01-2.91-2.01-1.49 0-2.51.77-3.06 2.31-.55 1.54-.86 3.79-.94 6.74h7.69c-.03-3.35-.29-5.71-.78-7.04zm22.88-.53c-2.03 0-3.41 1.4-4.14 4.21-.39 1.51-.59 3.63-.59 6.38 0 2.93.19 5.14.56 6.63.69 2.69 2.01 4.04 3.97 4.04 1.23 0 2.33-.55 3.31-1.65.98-1.1 1.47-1.87 1.47-2.31V29.28c0-.46-.42-1.15-1.26-2.06-.83-.92-1.94-1.37-3.32-1.37zm37.65 16.62c0 1.25.28 2.19.85 2.83.57.65 1.2.96 1.91.96.93 0 1.79-.28 2.59-.84.45-.34.98-.86 1.59-1.56v-8.35c-1.52.37-2.86.96-4.01 1.76-1.95 1.37-2.93 3.1-2.93 5.2zM447.25 1.1c-2.65 0-4.81 2.16-4.81 4.81 0 2.65 2.16 4.81 4.81 4.81 2.65 0 4.79-2.16 4.79-4.81 0-2.65-2.14-4.81-4.79-4.81zm3.26 7.86h-1.88l-1.58-2.86h-.35v1.35c0 .82 0 1.22.92 1.22v.29h-3.27v-.28c.81 0 .81-.4.81-1.22V4.19c0-.67 0-1.21-.7-1.21v-.29h3.21c1.34 0 2.36.54 2.36 1.68 0 .84-.6 1.43-1.4 1.62l.97 1.76c.19.34.47.92.9.92v.29zm22.96 3.99c-1.13 0-1.95.14-2.44.41-.49.27-.74.79-.74 1.57v15.33c3.4-.06 5.67-.45 6.8-1.17 1.8-1.15 2.71-3.63 2.71-7.44 0-2.6-.44-4.7-1.31-6.3-.88-1.6-2.55-2.4-5.02-2.4zm-98.05 13.46c-.48-1.33-1.45-2-2.89-2-1.48 0-2.5.77-3.05 2.3-.55 1.53-.86 3.77-.93 6.71h7.65c-.04-3.34-.3-5.68-.78-7.01zM171.09 42.42c0 1.24.28 2.18.85 2.82.56.64 1.2.96 1.9.96.92 0 1.78-.28 2.58-.83.44-.33.97-.85 1.58-1.56V35.5c-1.52.37-2.85.95-3.99 1.75-1.95 1.35-2.92 3.08-2.92 5.17z"/><path class="st0" d="M447.06 3.04h-.36v2.67c.09.03.28.05.43.05.79 0 1.23-.68 1.23-1.41 0-.58-.18-1.31-1.3-1.31zM324.01 25.88c-2.02 0-3.39 1.4-4.12 4.19-.39 1.5-.58 3.61-.58 6.35 0 2.92.18 5.12.56 6.6.68 2.68 2 4.02 3.95 4.02 1.23 0 2.32-.55 3.29-1.64.97-1.09 1.46-1.86 1.46-2.3V29.3c0-.46-.42-1.15-1.25-2.05-.84-.92-1.94-1.37-3.31-1.37zm-194.28.53c-.48-1.33-1.45-2-2.89-2-1.48 0-2.5.77-3.05 2.3-.55 1.53-.86 3.77-.93 6.71h7.65c-.04-3.34-.3-5.68-.78-7.01z"/><path d="M113.49 14.29c2.53 1.45 4.07 4.22 4.6 8.31h1.64l-.06-11.45H85.49l-.05 11.45h1.64c.35-4.06 1.88-6.83 4.6-8.31 1.48-.8 3.6-1.23 6.38-1.31v29.91c0 2.07-.36 3.46-1.09 4.15-.73.69-2.2 1.04-4.42 1.04v1.44h20.24v-1.44c-2.31 0-3.83-.34-4.56-1.03-.73-.69-1.09-2.07-1.09-4.16V12.98c2.8.08 4.93.51 6.35 1.31z"/><path d="M136.44 42.35c-1.07 1.18-1.97 2.02-2.69 2.52-1.19.83-2.44 1.25-3.78 1.25-2.8 0-4.75-1.56-5.86-4.68-.61-1.66-.98-3.63-1.11-5.9h14.5c0-.52-.06-1.27-.19-2.25-.26-2.09-.72-3.79-1.39-5.1-.89-1.74-2.16-3.1-3.8-4.07-1.65-.98-3.4-1.47-5.27-1.47-3.28 0-6.07 1.21-8.4 3.62-2.32 2.41-3.48 5.8-3.48 10.16 0 4.82 1.22 8.34 3.66 10.53 2.44 2.2 5.06 3.3 7.85 3.3 1.94 0 3.66-.36 5.16-1.08 2.31-1.13 4.35-3.13 6.11-6.01l-1.31-.82zm-12.65-15.64c.55-1.53 1.56-2.3 3.05-2.3 1.45 0 2.41.67 2.89 2s.74 3.67.78 7.01h-7.65c.07-2.94.38-5.17.93-6.71z"/><path d="m161.71 46.95-8.48-12.88 5.87-7.24c.61-.76 1.33-1.32 2.18-1.69.46-.18 1.04-.34 1.74-.47V23.3h-9.51v1.36c1.03.04 1.78.13 2.23.28s.68.5.68 1.06c0 .44-.23 1-.69 1.66-.46.67-1.67 2.23-3.62 4.68-.73-.98-1.56-2.23-2.51-3.73-.95-1.5-1.43-2.47-1.43-2.89 0-.35.11-.57.33-.65.22-.08.99-.22 2.3-.4V23.3h-14.19v1.36c.68.09 1.2.25 1.55.47.35.22.82.79 1.41 1.69L146.86 38c-.61.78-1.39 1.79-2.33 3.05-.94 1.26-1.7 2.24-2.27 2.95-1.39 1.68-2.42 2.76-3.09 3.22-.68.46-1.48.77-2.43.91v1.3h9.59v-1.3c-.94-.04-1.65-.15-2.12-.33-.47-.18-.71-.57-.71-1.17 0-.5.62-1.62 1.86-3.36.6-.84 1.51-2.04 2.72-3.59.42.65.89 1.36 1.4 2.12.51.76.9 1.35 1.18 1.78.5.78.86 1.38 1.08 1.8.39.7.58 1.21.58 1.53 0 .48-.23.79-.69.94-.46.15-1.09.24-1.88.28v1.3h13.67v-1.3c-.43-.16-.76-.33-1.01-.48-.27-.15-.5-.39-.7-.7z"/><path d="m201.02 33.48-3.11-1.5c-1.5-.72-2.51-1.42-3.05-2.11-.55-.67-.83-1.33-.83-2 0-.81.31-1.57.93-2.27.62-.7 1.56-1.05 2.81-1.05 1.63 0 3.05.58 4.27 1.75 1.22 1.16 2.1 2.71 2.63 4.63h1.44v-8.21h-1.25c-.13.35-.29.62-.49.82-.19.19-.52.29-.98.29-.33 0-1.17-.2-2.52-.6-1.35-.4-2.62-.6-3.83-.6-2.75 0-4.9.8-6.43 2.4-1.53 1.6-2.3 3.5-2.3 5.7 0 1.74.49 3.24 1.47 4.52.96 1.28 2.55 2.46 4.77 3.55l4.21 2.05c.91.44 1.56.86 1.97 1.25.74.72 1.11 1.59 1.11 2.61 0 1.07-.34 1.93-1.03 2.59-.68.66-1.76.98-3.22.98-1.59 0-3.14-.56-4.66-1.68-1.52-1.12-2.55-3.04-3.1-5.75h-1.58v5.01l-.01-.02c-.37.37-.64.6-.82.68-.18.09-.38.13-.6.13-.26 0-.49-.14-.71-.43-.21-.28-.32-.63-.32-1.04V31.42c0-3.36-1.07-5.67-3.22-6.93-2.16-1.24-4.85-1.86-8.07-1.86-2.99 0-5.52.64-7.57 1.91s-3.08 3-3.08 5.17c0 1.22.38 2.15 1.15 2.79.77.64 1.7.97 2.79.97.94 0 1.77-.29 2.48-.87s1.07-1.41 1.07-2.48c0-.43-.08-.83-.23-1.21-.16-.38-.36-.72-.62-1.04l-.33-.39c-.15-.17-.26-.32-.33-.47-.07-.15-.11-.33-.11-.56 0-.57.33-1.05.98-1.43.66-.38 1.49-.57 2.51-.57 1.81 0 3.07.4 3.78 1.21.71.8 1.07 2.05 1.07 3.73v4.13c-5.25 1.52-9.1 3.03-11.56 4.53-2.46 1.5-3.69 3.53-3.69 6.08 0 2.09.67 3.63 2.02 4.63 1.35.99 2.8 1.48 4.35 1.48 1.16 0 2.35-.2 3.55-.61 1.98-.65 3.75-1.76 5.32-3.33.2 1.09.53 1.92.97 2.47.78.98 2.01 1.47 3.69 1.47.94 0 1.84-.16 2.69-.5 1.02-.39 1.96-1 2.84-1.83v2.33h1.36c.3-.59.56-1.01.79-1.26.23-.25.5-.38.82-.38.13 0 .23.01.32.03.08.02.3.09.65.22l.97.33c1.13.39 2.07.66 2.84.82.77.16 1.53.23 2.29.23 3.05 0 5.34-.91 6.86-2.73 1.53-1.82 2.29-3.78 2.29-5.89 0-2.16-.74-3.98-2.22-5.46-.86-.85-2.27-1.75-4.19-2.67zM178 43.81c-.61.7-1.14 1.22-1.58 1.56-.79.56-1.65.83-2.58.83-.7 0-1.34-.32-1.9-.96-.56-.64-.85-1.58-.85-2.82 0-2.09.97-3.82 2.91-5.17 1.15-.8 2.48-1.38 3.99-1.75v8.31zm70.71 1.56c-2.51 1.63-5.22 2.44-8.14 2.44-4.76 0-8.02-2.46-9.77-7.37-.94-2.62-1.41-5.97-1.41-10.03 0-5.53.8-9.93 2.39-13.21 1.6-3.28 4.29-4.92 8.1-4.92 3.36 0 6.37 1.53 9.03 4.6 1.42 1.66 2.81 3.94 4.18 6.82h1.44V10.41h-1.58c-.11.61-.38 1.19-.82 1.75-.43.55-1.01.83-1.74.83-.28 0-1.62-.44-4.05-1.32-2.42-.88-4.81-1.32-7.18-1.32-5.47 0-10.09 1.79-13.86 5.38-4.01 3.83-6.01 8.83-6.01 15 0 6.23 2.1 11.18 6.29 14.86 3.79 3.33 8.48 4.99 14.08 4.99 3.66 0 6.99-.99 9.98-2.97 1.68-1.11 3.63-2.9 5.85-5.38l-1.69-1.39c-1.95 2.08-3.65 3.59-5.09 4.53zm42.99-26.34c1.2 0 2.23-.43 3.09-1.29.86-.86 1.29-1.9 1.29-3.12 0-1.22-.43-2.26-1.29-3.12-.86-.86-1.89-1.29-3.09-1.29-1.22 0-2.26.43-3.12 1.29-.86.86-1.29 1.9-1.29 3.12 0 1.22.43 2.26 1.29 3.12.86.86 1.9 1.29 3.12 1.29z"/><path d="M308.37 44.65V11.08h-10.75v1.36c1.05.24 1.77.55 2.16.92.39.37.58 1.17.58 2.38v28.91c0 1.26-.21 2.08-.63 2.48-.37.35-.97.64-1.79.87-.8-.19-1.38-.44-1.7-.74-.37-.35-.55-1.15-.55-2.38V23.3h-10.9v1.36c1.15.21 1.91.52 2.3.94.39.42.58 1.21.58 2.36v16.69c0 1.29-.28 2.19-.83 2.69-.31.28-.87.5-1.64.67-.84-.22-1.47-.49-1.85-.85-.43-.4-.65-1.23-.65-2.51V31.01c0-3.05-.71-5.21-2.14-6.47-1.42-1.27-3.22-1.9-5.41-1.9-1.61 0-3.05.38-4.34 1.15-1.28.77-2.51 1.85-3.67 3.26V11.08h-10.98v1.36c1.2.15 2 .45 2.41.91.41.46.61 1.25.61 2.39v28.91c0 1.29-.24 2.16-.74 2.59-.49.43-1.25.72-2.29.85v1.36h13.67v-1.36c-1.01-.21-1.71-.48-2.08-.83-.37-.35-.56-1.15-.56-2.38v-15.2c0-.33.52-.95 1.57-1.86 1.04-.9 2.06-1.36 3.04-1.36 1.31 0 2.19.58 2.63 1.75.26.65.39 1.62.39 2.91v13.75c0 1.24-.18 2.03-.55 2.38s-1.06.63-2.08.83v1.36h38.96v-1.36c-1.03-.26-1.75-.58-2.16-.97-.4-.38-.61-1.2-.61-2.46zm53.81-17.61c0-1.44-.47-2.54-1.4-3.29-.94-.75-1.99-1.12-3.15-1.12-1.56 0-2.93.46-4.11 1.39-1.18.92-2.38 2.17-3.58 3.74V23.3h-10.75v1.36c1.2.15 2 .44 2.41.87.4.43.61 1.24.61 2.43V43.4l-.06 1.66c-.04 1.11-.27 1.86-.69 2.25-.34.31-.89.53-1.65.68v-.95c-1.3-.11-2.16-.39-2.61-.84-.45-.45-.67-1.26-.67-2.43V11.08H324.3v1.36c1.74.07 2.88.28 3.44.63s.83 1.24.83 2.67v10.4c-1.09-1.14-1.99-1.94-2.71-2.38-1.17-.74-2.5-1.11-3.99-1.11-3 0-5.56 1.3-7.69 3.9-2.13 2.6-3.2 6.14-3.2 10.63 0 4.03 1.02 7.22 3.07 9.56 2.05 2.35 4.46 3.52 7.24 3.52 1.63 0 3.14-.42 4.55-1.28.89-.54 1.87-1.36 2.94-2.47v3.74c2.33-.65 3.96-1.05 4.88-1.2.86-.15 2.71-.36 5.53-.64v1.05h15.11V48.1c-1.63-.15-2.71-.45-3.26-.92-.55-.47-.82-1.64-.82-3.51V32.9c0-1.74.38-3.08 1.15-4.01.77-.93 1.53-1.4 2.29-1.4.35 0 .97.56 1.85 1.69.88 1.13 1.92 1.69 3.12 1.69 1.06 0 1.91-.36 2.57-1.08.65-.72.98-1.64.98-2.75zm-33.61 16.05c0 .45-.49 1.21-1.46 2.3-.97 1.09-2.07 1.64-3.29 1.64-1.95 0-3.26-1.34-3.95-4.02-.37-1.48-.56-3.68-.56-6.6 0-2.73.19-4.85.58-6.35.73-2.79 2.1-4.19 4.12-4.19 1.37 0 2.48.45 3.31 1.36.83.91 1.25 1.59 1.25 2.05v13.81z"/><path d="M382.13 42.35c-1.07 1.18-1.97 2.02-2.69 2.52-1.18.83-2.44 1.25-3.78 1.25-2.8 0-4.75-1.56-5.86-4.68-.61-1.66-.98-3.63-1.11-5.9h14.5c0-.52-.07-1.27-.2-2.25-.26-2.09-.72-3.79-1.39-5.1-.89-1.74-2.16-3.1-3.8-4.07-1.65-.98-3.41-1.47-5.28-1.47-3.27 0-6.07 1.21-8.4 3.62-2.32 2.41-3.48 5.8-3.48 10.16 0 4.82 1.22 8.34 3.66 10.53 2.44 2.2 5.06 3.3 7.86 3.3 1.94 0 3.66-.36 5.16-1.08 2.31-1.13 4.35-3.13 6.11-6.01l-1.3-.82zm-12.65-15.64c.55-1.53 1.56-2.3 3.05-2.3 1.45 0 2.41.67 2.89 2s.74 3.67.78 7.01h-7.65c.07-2.94.38-5.17.93-6.71z"/><path d="M409.09 44.87V31.15c0-3.16-.67-5.37-2.01-6.63-1.34-1.26-3.23-1.88-5.67-1.88-1.7 0-3.25.45-4.64 1.34-1.4.9-2.55 2.03-3.45 3.4V23.3h-10.76v1.36c1.22.15 2.03.45 2.43.89.4.45.6 1.25.6 2.41v16.69c0 1.29-.25 2.16-.74 2.59s-1.25.72-2.29.85v1.36h13.67v-1.36c-1.02-.21-1.71-.48-2.08-.83-.37-.35-.55-1.15-.55-2.38v-15.2c.45-.72 1.08-1.44 1.9-2.15.82-.71 1.72-1.07 2.7-1.07 1.31 0 2.19.58 2.64 1.75.26.65.39 1.62.39 2.91v13.75c0 1.24-.18 2.03-.55 2.38-.37.35-1.06.63-2.08.83v1.36h13.33v-1.36c-1.02-.13-1.74-.38-2.18-.75-.45-.36-.66-1.18-.66-2.46zm10.43-34.65c-1.46 0-2.61.44-3.46 1.33-.85.89-1.28 2.04-1.28 3.46 0 1.29.4 2.35 1.19 3.17.79.82 1.8 1.23 3.02 1.23.18 0 .59-.05 1.22-.14.37 0 .66.12.86.36.18.26.28.57.28.94 0 1.37-.78 2.83-2.33 4.38-.87.87-2.15 1.9-3.85 3.08l.67 1.25c2.57-1.44 4.57-2.93 6.01-4.46 2.25-2.42 3.38-5.1 3.38-8.04 0-2.03-.55-3.64-1.65-4.81-1.1-1.17-2.45-1.75-4.06-1.75zm18.81 23.26-3.1-1.5c-1.5-.72-2.51-1.42-3.05-2.11-.55-.67-.83-1.33-.83-2 0-.81.31-1.57.93-2.27.62-.7 1.56-1.05 2.81-1.05 1.62 0 3.05.58 4.27 1.75 1.22 1.16 2.1 2.71 2.64 4.63h1.44v-8.21h-1.25c-.13.35-.29.62-.49.82-.19.19-.52.29-.98.29-.33 0-1.18-.2-2.52-.6-1.35-.4-2.62-.6-3.83-.6-2.76 0-4.9.8-6.43 2.4-1.54 1.6-2.3 3.5-2.3 5.7 0 1.74.49 3.24 1.47 4.52.96 1.28 2.55 2.46 4.77 3.55l4.21 2.05c.91.44 1.56.86 1.97 1.25.74.72 1.11 1.59 1.11 2.61 0 1.07-.34 1.93-1.03 2.59-.68.66-1.76.98-3.22.98-1.59 0-3.14-.56-4.66-1.68-1.52-1.12-2.55-3.04-3.1-5.75h-1.58v9.4h1.36c.3-.59.56-1.01.79-1.26.23-.25.5-.38.82-.38.13 0 .23.01.32.03.08.02.3.09.65.22l.97.33c1.13.39 2.07.66 2.84.82.77.16 1.53.23 2.29.23 3.05 0 5.34-.91 6.86-2.73 1.52-1.82 2.29-3.78 2.29-5.89 0-2.16-.74-3.98-2.22-5.46-.89-.86-2.3-1.76-4.22-2.68zM447.25.42c-3.03 0-5.51 2.46-5.51 5.49 0 3.03 2.48 5.49 5.51 5.49s5.49-2.46 5.49-5.49c0-3.03-2.46-5.49-5.49-5.49zm0 10.3c-2.65 0-4.81-2.16-4.81-4.81 0-2.65 2.16-4.81 4.81-4.81 2.65 0 4.79 2.16 4.79 4.81 0 2.65-2.14 4.81-4.79 4.81z"/><path d="m449.61 7.75-.97-1.76c.79-.19 1.4-.78 1.4-1.62 0-1.14-1.03-1.68-2.36-1.68h-3.21v.29c.7 0 .7.54.7 1.21v3.27c0 .82 0 1.22-.81 1.22v.29h3.27v-.29c-.92 0-.92-.4-.92-1.22V6.11h.35l1.58 2.86h1.88v-.29c-.44 0-.73-.59-.91-.93zm-2.48-1.99c-.15 0-.34-.02-.43-.05V3.04h.36c1.11 0 1.3.73 1.3 1.3 0 .73-.44 1.42-1.23 1.42z"/><path class="st1" d="M67.78 31.52c-1.14 0-2.18.45-2.94 1.2L52.47 45.49c-4.78 4.14-9.33 6.32-16.37 6.37-6.87-.11-11.35-2.29-16.06-6.36L7.57 32.72c-.76-.74-1.79-1.2-2.94-1.2-2.31 0-4.19 1.87-4.19 4.18 0 1.16.47 2.2 1.23 2.96L17.9 54.5c4.56 3.74 11.03 5.63 18.2 5.63 7.16 0 13.62-1.89 18.2-5.63l16.44-15.83a4.18 4.18 0 0 0 1.23-2.96c0-2.32-1.88-4.19-4.19-4.19z"/><path class="st1" d="M21.65 38.23c4.75 4.53 7.53 7.42 14.42 7.53 7.16.1 9.97-2.96 14.79-7.58l9.57-9.71a4.18 4.18 0 0 0 1.23-2.96c0-2.31-1.88-4.19-4.19-4.19-1.19 0-2.26.5-3.03 1.3l-10.85 10.9a10.141 10.141 0 0 1-7.49 3.31c-2.96 0-5.62-1.26-7.47-3.27L17.97 22.61a4.187 4.187 0 0 0-7.22 2.89c0 1.16.47 2.21 1.23 2.96l9.67 9.77z"/><path class="st1" d="M33.91 29.84c.56.59 1.36.96 2.24.96.88 0 1.67-.36 2.23-.94l11.83-11.69a4.16 4.16 0 0 0 1.24-2.98c0-2.31-1.88-4.2-4.19-4.2-1.13 0-2.15.45-2.91 1.18l-6.88 6.98c-.36.35-.84.56-1.37.56a1.9 1.9 0 0 1-1.41-.61l-6.64-6.94a4.23 4.23 0 0 0-2.9-1.16c-2.32 0-4.19 1.88-4.19 4.2 0 1.16.48 2.22 1.24 2.98l11.71 11.66z"/><path class="st1" d="M36.1 11.44c3.04 0 5.5-2.47 5.5-5.51a5.505 5.505 0 1 0-11.01 0c0 3.04 2.46 5.51 5.51 5.51z"/><path d="M489.57 21.47c0-3.85-1.27-6.56-3.8-8.14-2.53-1.58-6.24-2.37-11.1-2.37H456.3v1.45c1.86.2 3.11.59 3.76 1.15.65.56.98 1.92.98 4.06v25.25c0 2.02-.32 3.37-.96 4.02-.64.66-1.9 1.05-3.78 1.18v1.45h19v-1.45c-1.93-.07-3.25-.44-3.96-1.08-.71-.65-1.06-2.03-1.06-4.12V32.23c3.4 0 5.96-.08 7.69-.22 1.73-.15 3.46-.57 5.18-1.28 2.29-1 3.92-2.33 4.92-3.97a9.936 9.936 0 0 0 1.5-5.29zm-12.48 7.61c-1.13.72-3.4 1.12-6.8 1.17V14.92c0-.78.24-1.3.74-1.57.49-.27 1.31-.41 2.44-.41 2.47 0 4.14.8 5.01 2.4.88 1.6 1.31 3.7 1.31 6.3 0 3.81-.9 6.29-2.7 7.44zm29.07 15.86c-1.19.83-2.46 1.25-3.8 1.25-2.81 0-4.78-1.57-5.89-4.71-.61-1.67-.99-3.65-1.12-5.94h14.58c0-.52-.07-1.27-.2-2.26-.26-2.1-.72-3.81-1.39-5.13a9.946 9.946 0 0 0-3.82-4.1c-1.66-.99-3.42-1.48-5.3-1.48-3.29 0-6.1 1.21-8.44 3.64-2.33 2.42-3.5 5.83-3.5 10.21 0 4.85 1.23 8.38 3.68 10.59 2.46 2.21 5.09 3.31 7.9 3.31 1.95 0 3.68-.36 5.19-1.08 2.32-1.13 4.37-3.15 6.14-6.05l-1.31-.81c-1.09 1.21-1.99 2.05-2.72 2.56zm-10.01-18.26c.55-1.54 1.57-2.31 3.06-2.31 1.46 0 2.43.67 2.91 2.01.49 1.34.75 3.69.78 7.05h-7.69c.08-2.96.39-5.2.94-6.75zm55.33 18.26V23.26h-10.95v1.37c1.15.21 1.92.52 2.31.94.39.42.59 1.21.59 2.37v16.78c0 1.3-.28 2.2-.84 2.7-.33.29-.91.52-1.72.68v-.99c-1.3-.11-2.17-.39-2.62-.84-.45-.45-.67-1.27-.67-2.45V10.97h-12.29v1.36c1.74.08 2.9.29 3.46.63.56.35.83 1.24.83 2.68V26.1c-1.1-1.15-2.01-1.95-2.73-2.4-1.17-.74-2.51-1.12-4.01-1.12-3.01 0-5.59 1.31-7.73 3.92-2.15 2.61-3.22 6.17-3.22 10.69 0 4.05 1.03 7.26 3.09 9.61 2.06 2.36 4.48 3.54 7.27 3.54 1.64 0 3.16-.42 4.57-1.28.89-.54 1.88-1.37 2.96-2.48v3.76c2.34-.65 3.97-1.05 4.9-1.21.89-.15 2.85-.38 5.85-.68v1.08h13.6v-1.36c-1.02-.21-1.72-.48-2.09-.84s-.56-1.15-.56-2.39zm-21.9-1.79c0 .45-.49 1.22-1.47 2.31-.98 1.1-2.08 1.65-3.31 1.65-1.96 0-3.28-1.35-3.97-4.04-.37-1.49-.56-3.7-.56-6.63 0-2.75.19-4.88.59-6.38.72-2.81 2.1-4.21 4.14-4.21 1.38 0 2.49.46 3.32 1.37.84.91 1.26 1.6 1.26 2.06v13.87z"/><path d="M547.47 18.96c1.21 0 2.24-.43 3.11-1.29.86-.86 1.29-1.91 1.29-3.14 0-1.23-.43-2.27-1.29-3.14-.87-.86-1.9-1.3-3.11-1.3-1.23 0-2.27.43-3.14 1.3-.86.86-1.3 1.91-1.3 3.14 0 1.23.43 2.27 1.3 3.14.87.86 1.91 1.29 3.14 1.29zm31.61 27.63c-.18.09-.37.13-.6.13-.26 0-.5-.15-.71-.44-.22-.28-.32-.63-.32-1.04V31.42c0-3.38-1.08-5.7-3.23-6.97-2.17-1.24-4.88-1.87-8.11-1.87-3.01 0-5.55.64-7.61 1.92-2.06 1.28-3.09 3.01-3.09 5.2 0 1.22.39 2.16 1.16 2.81.77.65 1.7.97 2.8.97.95 0 1.78-.29 2.5-.88.71-.58 1.07-1.42 1.07-2.49 0-.43-.08-.83-.24-1.21a4.34 4.34 0 0 0-.62-1.04l-.34-.39c-.15-.17-.26-.32-.33-.47-.08-.15-.11-.33-.11-.56 0-.57.33-1.05.99-1.43.66-.38 1.5-.57 2.52-.57 1.82 0 3.09.41 3.8 1.21.72.81 1.07 2.06 1.07 3.75v4.15c-5.27 1.53-9.15 3.04-11.62 4.55-2.47 1.51-3.71 3.54-3.71 6.11 0 2.1.68 3.65 2.03 4.65 1.36 1 2.81 1.49 4.38 1.49 1.17 0 2.36-.2 3.57-.61 1.99-.65 3.77-1.77 5.35-3.35.21 1.1.53 1.93.98 2.48.78.99 2.02 1.48 3.71 1.48.95 0 1.85-.16 2.7-.5 1.36-.52 2.59-1.43 3.71-2.73l-.87-1.2c-.38.37-.65.59-.83.67zm-9.49-2.72c-.61.71-1.14 1.23-1.59 1.56-.8.56-1.66.84-2.59.84-.7 0-1.34-.32-1.91-.96-.57-.64-.85-1.59-.85-2.83 0-2.1.98-3.84 2.93-5.2 1.15-.8 2.49-1.39 4.01-1.76v8.35zm25.38-.66c-.5.93-1 1.66-1.51 2.19-.5.53-1.12.79-1.87.79-.85 0-1.47-.42-1.84-1.25-.24-.54-.36-1.21-.36-2.01V25.76h5.43v-2.51h-5.43v-9.64h-1.45a46.728 46.728 0 0 1-4.71 6.1c-.88.97-1.8 1.9-2.79 2.81-.74.63-1.37 1.18-1.87 1.64v1.59h2.96v18.51c.01 2.54.98 4.3 2.91 5.26 1 .5 2.17.75 3.51.75 2.36 0 4.35-.87 5.98-2.59.93-.98 1.73-2.26 2.4-3.82l-1.36-.65z"/><path d="M617.57 23.72c-.94-.75-2-1.13-3.17-1.13-1.56 0-2.94.46-4.13 1.39-1.19.93-2.39 2.18-3.6 3.76v-4.49h-10.81v1.37c1.21.15 2.02.44 2.42.87.41.43.61 1.25.61 2.45v15.52l-.06 1.67c-.04 1.11-.27 1.87-.7 2.26s-1.19.65-2.28.78v1.36h15.19v-1.36c-1.64-.15-2.73-.46-3.27-.93s-.82-1.65-.82-3.53V32.9c0-1.75.39-3.1 1.16-4.03.77-.94 1.54-1.41 2.3-1.41.35 0 .98.57 1.86 1.7.88 1.13 1.93 1.7 3.14 1.7 1.06 0 1.92-.36 2.58-1.09.66-.72.99-1.64.99-2.76 0-1.44-.47-2.54-1.41-3.29zm12.37 21.22V23.26h-10.95v1.37c1.15.21 1.92.52 2.31.94.39.42.59 1.21.59 2.37v16.78c0 1.3-.28 2.2-.84 2.7-.37.34-1.06.58-2.06.75v1.36h13.6v-1.36c-1.02-.21-1.72-.48-2.09-.84-.38-.35-.56-1.15-.56-2.39zm-4.02-25.98c1.21 0 2.24-.43 3.11-1.29.86-.86 1.29-1.91 1.29-3.14 0-1.23-.43-2.27-1.29-3.14-.87-.86-1.9-1.3-3.11-1.3-1.23 0-2.27.43-3.14 1.3-.86.86-1.3 1.91-1.3 3.14 0 1.23.43 2.27 1.3 3.14.87.86 1.92 1.29 3.14 1.29zm26.39 26.54c-1.06.67-2.34 1-3.85 1-2.4 0-4.3-1.21-5.71-3.62-1.41-2.42-2.12-5.41-2.12-8.97 0-2.51.37-4.73 1.12-6.68.74-1.94 1.99-2.91 3.76-2.91.62 0 1.16.19 1.64.56.47.37.7 1.06.7 2.06 0 .37-.01.72-.03 1.04-.02.33-.03.57-.03.74 0 1.56.51 2.64 1.53 3.23.54.33 1.17.5 1.89.5 1.08 0 1.97-.36 2.66-1.09.7-.72 1.05-1.58 1.05-2.56 0-1.84-.88-3.34-2.63-4.51s-3.83-1.76-6.23-1.76c-4.11 0-7.39 1.4-9.85 4.19-2.46 2.8-3.69 6.18-3.69 10.16 0 3.77 1.16 6.97 3.48 9.58 2.32 2.62 5.32 3.93 8.98 3.93 1.49 0 2.89-.25 4.21-.75 2.49-.97 4.66-2.74 6.52-5.32l-1.06-.98c-.93 1.05-1.71 1.76-2.34 2.16zm21.77-9.31c-.89-.87-2.3-1.77-4.24-2.7l-3.12-1.51c-1.51-.72-2.53-1.43-3.06-2.12-.56-.67-.84-1.34-.84-2.01 0-.82.31-1.58.93-2.29.62-.71 1.56-1.06 2.83-1.06 1.63 0 3.06.58 4.29 1.76 1.23 1.17 2.11 2.72 2.65 4.65h1.45v-8.25h-1.25c-.13.35-.29.63-.49.82-.19.19-.52.29-.99.29-.34 0-1.18-.2-2.54-.6-1.36-.4-2.64-.6-3.85-.6-2.77 0-4.92.8-6.46 2.41s-2.31 3.52-2.31 5.73c0 1.75.49 3.26 1.48 4.54.97 1.28 2.56 2.47 4.79 3.57l4.23 2.06c.91.44 1.57.86 1.98 1.26.74.72 1.11 1.6 1.11 2.62 0 1.08-.34 1.95-1.03 2.61s-1.77.99-3.23.99c-1.6 0-3.16-.57-4.68-1.69-1.52-1.13-2.56-3.05-3.12-5.79h-1.59v9.45h1.36c.3-.6.56-1.01.8-1.27.23-.25.5-.38.82-.38.13 0 .24.01.32.03.08.02.3.09.65.22l.98.34c1.13.39 2.08.66 2.86.82s1.54.24 2.3.24c3.07 0 5.37-.91 6.9-2.74 1.53-1.83 2.3-3.81 2.3-5.92 0-2.17-.74-4-2.23-5.48z"/></svg>