<svg xmlns="http://www.w3.org/2000/svg" viewBox="0 0 1024 1024" fill="currentcolor">
  <path d="M962,77.7h-93.2c-34.2,0-62,27.8-62,62s27.8,62,62,62h31.2v170.1c0,82.1-36.8,121.3-120.6,128.1-83.8-6.8-120.6-46-120.6-128.1v-170.1h31.2c34.2,0,62-27.8,62-62s-27.8-62-62-62h-93.2c-34.2,0-62,27.8-62,62v232.1c0,129.7,65.3,213.9,180.6,242.2v149.6c-1.5,25.6-12.9,49.1-32,66.1-19.1,17.1-42.6,25.9-72.3,24.1-56-.6-101.5-44.8-103.6-98.4l-.2-93.8c.9-10.2,1.3-20.4.8-30.3-2.5-61.9-28.9-119-74.4-161-45.5-42-105.4-63.8-164-61.3-161.3,0-219.8,147.9-219.8,247.3v57.8c-29.3,16.7-49.9,47-49.9,83.1,0,53.6,43.4,97,97,97s97-43.4,97-97-8.3-40.2-20.1-56.3v-84.6c0-5,1.1-123.2,98.2-123.2,59.2-3.8,109.6,43.9,111.9,103.5.2,4.7,0,9.6-.7,19.7v101.5c4.7,122.1,104.1,218.7,223.4,220,4.3.2,8.6.3,12.9.3,53.9,0,105.4-19.5,146.1-55.8,43.9-39.2,69.9-93,73.3-152.6l.2-154.6c.1,0,.3-.2.4-.3,117.6-27.4,184.2-112,184.2-243v-232.1c0-34.2-27.8-62-62-62Z"/>
</svg>