<?xml version="1.0" encoding="utf-8"?>
<!-- Generator: Adobe Illustrator 26.2.1, SVG Export Plug-In . SVG Version: 6.00 Build 0)  -->
<svg version="1.1" id="Layer_1" xmlns="http://www.w3.org/2000/svg" xmlns:xlink="http://www.w3.org/1999/xlink" x="0px" y="0px"
	 viewBox="0 0 653.97 60.73" style="enable-background:new 0 0 653.97 60.73;" xml:space="preserve">
<style type="text/css">
	.st0{fill:none;}
	.st1{fill:#E51B27;}
</style>
<g>
	<path class="st0" d="M325.59,26.01c-2.03,0-3.41,1.4-4.14,4.21c-0.39,1.51-0.59,3.64-0.59,6.39c0,2.94,0.19,5.15,0.56,6.64
		c0.69,2.7,2.01,4.05,3.97,4.05c1.23,0,2.34-0.55,3.32-1.65c0.98-1.1,1.47-1.87,1.47-2.32v-13.9c0-0.46-0.42-1.15-1.26-2.07
		C328.08,26.47,326.97,26.01,325.59,26.01z"/>
	<path class="st0" d="M560.34,26.01c-1.23,0-2.33,0.54-3.29,1.62c-0.97,1.08-1.45,1.86-1.45,2.34v13.9c0,0.56,0.46,1.28,1.38,2.16
		c0.92,0.88,1.96,1.33,3.11,1.33c2.07,0,3.46-1.37,4.19-4.1c0.39-1.51,0.58-3.68,0.58-6.5c0-3.27-0.3-5.88-0.89-7.83
		C563.38,26.98,562.17,26.01,560.34,26.01z"/>
	<path class="st0" d="M610.94,42.67c0,1.25,0.28,2.2,0.85,2.84c0.57,0.65,1.2,0.97,1.91,0.97c0.93,0,1.8-0.28,2.6-0.84
		c0.45-0.34,0.98-0.86,1.59-1.57V35.7c-1.53,0.37-2.87,0.96-4.02,1.76C611.91,38.82,610.94,40.56,610.94,42.67z"/>
	<path class="st0" d="M511.76,24.53c-1.93,0-3.23,1.24-3.88,3.71c-0.43,1.66-0.64,4.46-0.64,8.4c0,4,0.21,6.8,0.61,8.4
		c0.65,2.48,1.94,3.71,3.88,3.71c1.84,0,3.05-0.95,3.63-2.85c0.58-1.9,0.87-4.98,0.87-9.27c0-4.26-0.3-7.35-0.91-9.25
		C514.71,25.49,513.52,24.53,511.76,24.53z"/>
	<path class="st0" d="M129.98,26.54c-0.49-1.34-1.46-2.01-2.91-2.01c-1.49,0-2.52,0.77-3.07,2.32c-0.55,1.54-0.86,3.8-0.94,6.75h7.7
		C130.73,30.24,130.47,27.88,129.98,26.54z"/>
	<path class="st0" d="M377.35,26.54c-0.48-1.34-1.46-2.01-2.91-2.01c-1.49,0-2.51,0.77-3.07,2.32c-0.55,1.54-0.86,3.8-0.94,6.75h7.7
		C378.1,30.24,377.84,27.88,377.35,26.54z"/>
	<path class="st0" d="M171.63,42.67c0,1.25,0.28,2.2,0.85,2.84c0.57,0.65,1.21,0.97,1.91,0.97c0.93,0,1.8-0.28,2.6-0.84
		c0.45-0.34,0.98-0.86,1.59-1.57V35.7c-1.53,0.37-2.87,0.96-4.02,1.76C172.61,38.82,171.63,40.56,171.63,42.67z"/>
	<path class="st0" d="M647.98,1.37c-2.67,0-4.84,2.17-4.84,4.84c0,2.67,2.17,4.84,4.84,4.84c2.67,0,4.82-2.17,4.82-4.84
		C652.81,3.55,650.65,1.37,647.98,1.37z M651.26,9.28h-1.89l-1.59-2.88h-0.35v1.36c0,0.83,0,1.23,0.92,1.23v0.29h-3.29V9
		c0.81,0,0.81-0.4,0.81-1.23V4.47c0-0.67,0-1.22-0.7-1.22V2.97h3.23c1.34,0,2.38,0.55,2.38,1.7c0,0.84-0.61,1.44-1.41,1.63
		l0.98,1.77c0.19,0.34,0.48,0.93,0.91,0.93V9.28z"/>
	<path class="st0" d="M647.79,3.32h-0.37v2.69c0.09,0.03,0.28,0.05,0.43,0.05c0.8,0,1.24-0.69,1.24-1.42
		C649.1,4.06,648.91,3.32,647.79,3.32z"/>
	<path d="M113.64,14.27c2.55,1.45,4.09,4.25,4.63,8.37h1.65l-0.06-11.53H85.45L85.4,22.63h1.65c0.35-4.09,1.9-6.88,4.63-8.37
		c1.49-0.8,3.63-1.24,6.42-1.32v30.11c0,2.09-0.37,3.48-1.1,4.18c-0.73,0.7-2.22,1.05-4.45,1.05v1.45h20.38v-1.45
		c-2.33,0-3.86-0.35-4.59-1.03c-0.73-0.69-1.1-2.09-1.1-4.19V12.95C110.07,13.03,112.21,13.46,113.64,14.27z"/>
	<path d="M136.74,42.59c-1.08,1.19-1.99,2.04-2.71,2.54c-1.19,0.84-2.46,1.25-3.8,1.25c-2.82,0-4.78-1.57-5.9-4.72
		c-0.62-1.67-0.99-3.66-1.12-5.95h14.6c0-0.52-0.06-1.27-0.2-2.26c-0.26-2.1-0.73-3.81-1.4-5.14c-0.89-1.75-2.17-3.12-3.83-4.1
		c-1.66-0.99-3.43-1.48-5.31-1.48c-3.3,0-6.12,1.21-8.45,3.64c-2.34,2.43-3.51,5.84-3.51,10.23c0,4.86,1.23,8.39,3.69,10.61
		c2.46,2.21,5.1,3.32,7.91,3.32c1.96,0,3.69-0.36,5.2-1.09c2.33-1.13,4.38-3.15,6.15-6.06L136.74,42.59z M124,26.85
		c0.55-1.54,1.57-2.32,3.07-2.32c1.46,0,2.43,0.67,2.91,2.01c0.49,1.34,0.75,3.69,0.79,7.06h-7.7
		C123.14,30.65,123.45,28.39,124,26.85z"/>
	<path d="M162.18,47.22l-8.54-12.97l5.91-7.29c0.61-0.76,1.34-1.33,2.19-1.7c0.46-0.19,1.05-0.34,1.75-0.48v-1.37h-9.58v1.37
		c1.04,0.04,1.79,0.13,2.24,0.28c0.45,0.15,0.68,0.5,0.68,1.06c0,0.45-0.23,1.01-0.7,1.68c-0.46,0.67-1.68,2.24-3.65,4.71
		c-0.73-0.99-1.57-2.24-2.53-3.75c-0.96-1.51-1.44-2.48-1.44-2.91c0-0.35,0.11-0.57,0.33-0.66c0.22-0.08,1-0.22,2.32-0.41v-1.37
		h-14.29v1.37c0.69,0.09,1.21,0.25,1.56,0.48c0.35,0.22,0.83,0.79,1.42,1.7l7.34,11.26c-0.62,0.78-1.4,1.81-2.35,3.08
		c-0.95,1.27-1.71,2.26-2.29,2.97c-1.4,1.69-2.43,2.77-3.11,3.24c-0.68,0.47-1.49,0.77-2.44,0.92v1.31h9.65v-1.31
		c-0.95-0.04-1.66-0.15-2.13-0.33c-0.48-0.19-0.71-0.58-0.71-1.17c0-0.5,0.62-1.63,1.87-3.39c0.6-0.85,1.52-2.05,2.74-3.61
		c0.42,0.66,0.89,1.37,1.41,2.13c0.52,0.76,0.91,1.36,1.19,1.79c0.5,0.78,0.87,1.39,1.09,1.82c0.39,0.71,0.59,1.22,0.59,1.54
		c0,0.48-0.23,0.8-0.7,0.95c-0.46,0.15-1.1,0.24-1.9,0.28v1.31h13.76v-1.31c-0.43-0.17-0.77-0.33-1.02-0.49
		C162.61,47.78,162.39,47.54,162.18,47.22z"/>
	<path d="M201.76,33.66l-3.13-1.51c-1.51-0.72-2.53-1.43-3.07-2.12c-0.56-0.67-0.84-1.34-0.84-2.01c0-0.82,0.31-1.58,0.94-2.29
		c0.62-0.71,1.57-1.06,2.83-1.06c1.64,0,3.07,0.59,4.3,1.76c1.23,1.17,2.11,2.73,2.65,4.66h1.45v-8.26h-1.26
		c-0.13,0.35-0.29,0.63-0.49,0.82c-0.2,0.19-0.53,0.29-0.99,0.29c-0.33,0-1.18-0.2-2.54-0.6c-1.36-0.4-2.64-0.6-3.85-0.6
		c-2.77,0-4.93,0.81-6.48,2.41c-1.54,1.61-2.32,3.52-2.32,5.74c0,1.75,0.49,3.27,1.48,4.55c0.97,1.29,2.57,2.47,4.8,3.57l4.24,2.07
		c0.91,0.45,1.57,0.86,1.98,1.26c0.75,0.73,1.12,1.6,1.12,2.62c0,1.08-0.34,1.95-1.03,2.61c-0.69,0.66-1.77,0.99-3.24,0.99
		c-1.6,0-3.16-0.56-4.69-1.69c-1.53-1.13-2.57-3.06-3.13-5.79h-1.59v5.04l-0.01-0.02c-0.37,0.37-0.65,0.6-0.82,0.68
		c-0.18,0.09-0.38,0.13-0.6,0.13c-0.26,0-0.5-0.14-0.71-0.43c-0.21-0.29-0.32-0.64-0.32-1.04V31.59c0-3.39-1.08-5.71-3.24-6.98
		c-2.18-1.25-4.88-1.87-8.12-1.87c-3.01,0-5.55,0.64-7.62,1.92c-2.07,1.28-3.1,3.02-3.1,5.21c0,1.22,0.39,2.16,1.16,2.81
		c0.77,0.65,1.71,0.97,2.81,0.97c0.95,0,1.78-0.29,2.5-0.88c0.72-0.59,1.07-1.42,1.07-2.5c0-0.43-0.08-0.83-0.24-1.21
		c-0.16-0.38-0.37-0.73-0.63-1.05l-0.34-0.39c-0.15-0.17-0.26-0.32-0.33-0.47s-0.11-0.33-0.11-0.56c0-0.58,0.33-1.06,0.99-1.44
		c0.66-0.38,1.5-0.57,2.53-0.57c1.82,0,3.09,0.41,3.81,1.21c0.72,0.81,1.07,2.06,1.07,3.75v4.16c-5.29,1.53-9.17,3.05-11.64,4.56
		c-2.47,1.51-3.71,3.55-3.71,6.12c0,2.11,0.68,3.66,2.04,4.66c1.36,0.99,2.82,1.49,4.38,1.49c1.17,0,2.36-0.2,3.57-0.61
		c1.99-0.65,3.78-1.77,5.36-3.36c0.21,1.1,0.53,1.93,0.98,2.49c0.78,0.99,2.02,1.48,3.71,1.48c0.95,0,1.85-0.17,2.71-0.5
		c1.02-0.39,1.98-1,2.86-1.84v2.34h1.37c0.3-0.6,0.56-1.02,0.8-1.27c0.23-0.25,0.51-0.38,0.82-0.38c0.13,0,0.24,0.01,0.32,0.03
		s0.3,0.09,0.66,0.22l0.98,0.34c1.13,0.39,2.09,0.66,2.86,0.82c0.77,0.16,1.54,0.24,2.3,0.24c3.07,0,5.37-0.91,6.91-2.75
		c1.54-1.83,2.3-3.81,2.3-5.93c0-2.18-0.75-4.01-2.23-5.5C205.11,35.49,203.69,34.59,201.76,33.66z M178.58,44.07
		c-0.61,0.71-1.14,1.23-1.59,1.57c-0.8,0.56-1.67,0.84-2.6,0.84c-0.71,0-1.34-0.32-1.91-0.97c-0.57-0.64-0.85-1.59-0.85-2.84
		c0-2.11,0.98-3.84,2.93-5.21c1.15-0.8,2.49-1.39,4.02-1.76V44.07z"/>
	<path d="M249.77,45.64c-2.53,1.64-5.26,2.46-8.2,2.46c-4.8,0-8.08-2.47-9.84-7.43c-0.95-2.64-1.42-6.01-1.42-10.1
		c0-5.56,0.8-10,2.41-13.3c1.61-3.3,4.33-4.95,8.15-4.95c3.38,0,6.41,1.54,9.09,4.63c1.43,1.67,2.83,3.96,4.21,6.87h1.45V10.44
		h-1.59c-0.11,0.61-0.39,1.2-0.82,1.76c-0.44,0.56-1.02,0.84-1.75,0.84c-0.28,0-1.64-0.44-4.07-1.33c-2.44-0.88-4.85-1.33-7.23-1.33
		c-5.51,0-10.16,1.8-13.96,5.41c-4.04,3.85-6.06,8.89-6.06,15.1c0,6.27,2.11,11.26,6.33,14.96c3.81,3.35,8.54,5.03,14.18,5.03
		c3.68,0,7.03-1,10.05-2.99c1.69-1.12,3.66-2.92,5.89-5.42l-1.7-1.4C252.93,43.17,251.22,44.68,249.77,45.64z"/>
	<path d="M293.06,19.12c1.21,0,2.25-0.43,3.11-1.3c0.86-0.87,1.3-1.91,1.3-3.14c0-1.23-0.43-2.28-1.3-3.14
		c-0.86-0.87-1.9-1.3-3.11-1.3c-1.23,0-2.28,0.43-3.14,1.3c-0.86,0.86-1.3,1.91-1.3,3.14c0,1.23,0.43,2.27,1.3,3.14
		C290.78,18.69,291.83,19.12,293.06,19.12z"/>
	<path d="M309.85,44.91v-33.8h-10.83v1.37c1.06,0.24,1.79,0.55,2.18,0.93c0.39,0.38,0.59,1.17,0.59,2.39v29.11
		c0,1.27-0.21,2.1-0.63,2.5c-0.37,0.35-0.98,0.64-1.81,0.87c-0.81-0.2-1.39-0.44-1.71-0.75c-0.37-0.35-0.56-1.15-0.56-2.4V23.42
		h-10.97v1.37c1.15,0.21,1.93,0.52,2.32,0.94c0.39,0.42,0.59,1.21,0.59,2.38v16.8c0,1.3-0.28,2.2-0.84,2.71
		c-0.32,0.29-0.88,0.51-1.65,0.67c-0.85-0.22-1.48-0.5-1.87-0.85c-0.44-0.4-0.66-1.24-0.66-2.53V31.18c0-3.07-0.72-5.24-2.15-6.52
		c-1.43-1.27-3.25-1.91-5.44-1.91c-1.62,0-3.08,0.39-4.37,1.16c-1.29,0.77-2.53,1.87-3.7,3.28V11.11h-11.05v1.37
		c1.21,0.15,2.02,0.46,2.43,0.91c0.41,0.46,0.61,1.26,0.61,2.41v29.11c0,1.3-0.25,2.17-0.74,2.61c-0.49,0.44-1.26,0.72-2.3,0.85
		v1.37h13.76v-1.37c-1.02-0.21-1.72-0.48-2.09-0.84c-0.37-0.35-0.56-1.15-0.56-2.4v-15.3c0-0.33,0.53-0.96,1.58-1.87
		c1.05-0.91,2.07-1.37,3.06-1.37c1.32,0,2.21,0.59,2.65,1.76c0.26,0.65,0.39,1.63,0.39,2.93v13.85c0,1.25-0.19,2.05-0.56,2.4
		c-0.37,0.35-1.07,0.63-2.09,0.84v1.37h12.69h0.74h12.17h0.71h12.91v-1.37c-1.04-0.26-1.77-0.59-2.18-0.98
		C310.05,47,309.85,46.18,309.85,44.91z"/>
	<path d="M364.03,27.19c0-1.45-0.47-2.55-1.41-3.31c-0.94-0.75-2-1.13-3.18-1.13c-1.57,0-2.95,0.46-4.14,1.4
		c-1.19,0.93-2.4,2.19-3.61,3.77v-4.49h-10.83v1.37c1.21,0.15,2.02,0.44,2.43,0.87c0.41,0.43,0.61,1.25,0.61,2.45v15.55l-0.06,1.68
		c-0.04,1.12-0.27,1.87-0.7,2.26c-0.34,0.31-0.9,0.53-1.66,0.68v-0.96c-1.3-0.11-2.18-0.39-2.63-0.84
		c-0.45-0.45-0.67-1.27-0.67-2.45V11.11h-12.31v1.37c1.75,0.08,2.9,0.29,3.46,0.63c0.56,0.35,0.84,1.24,0.84,2.69v10.47
		c-1.1-1.15-2.01-1.95-2.74-2.4c-1.17-0.75-2.51-1.12-4.02-1.12c-3.01,0-5.6,1.31-7.75,3.92c-2.15,2.61-3.22,6.18-3.22,10.7
		c0,4.06,1.03,7.27,3.1,9.63c2.07,2.36,4.49,3.54,7.29,3.54c1.64,0,3.16-0.43,4.58-1.28c0.89-0.54,1.88-1.37,2.96-2.48v3.77
		c2.35-0.65,3.98-1.05,4.91-1.21c0.87-0.15,2.73-0.36,5.57-0.65v1.05h15.21v-1.37c-1.63-0.15-2.73-0.46-3.28-0.93
		c-0.55-0.47-0.83-1.65-0.83-3.54V33.08c0-1.75,0.39-3.1,1.16-4.04c0.77-0.94,1.54-1.41,2.31-1.41c0.35,0,0.97,0.57,1.86,1.7
		c0.89,1.13,1.94,1.7,3.15,1.7c1.06,0,1.93-0.36,2.59-1.09S364.03,28.3,364.03,27.19z M330.18,43.34c0,0.45-0.49,1.22-1.47,2.32
		c-0.98,1.1-2.09,1.65-3.32,1.65c-1.96,0-3.28-1.35-3.97-4.05c-0.37-1.49-0.56-3.7-0.56-6.64c0-2.75,0.2-4.88,0.59-6.39
		c0.73-2.81,2.11-4.21,4.14-4.21c1.38,0,2.49,0.46,3.33,1.37c0.84,0.91,1.26,1.6,1.26,2.07V43.34z"/>
	<path d="M384.11,42.59c-1.08,1.19-1.99,2.04-2.71,2.54c-1.19,0.84-2.46,1.25-3.8,1.25c-2.82,0-4.78-1.57-5.9-4.72
		c-0.61-1.67-0.99-3.66-1.12-5.95h14.6c0-0.52-0.07-1.27-0.2-2.26c-0.26-2.1-0.73-3.81-1.4-5.14c-0.89-1.75-2.17-3.12-3.83-4.1
		c-1.66-0.99-3.43-1.48-5.31-1.48c-3.3,0-6.11,1.21-8.45,3.64c-2.34,2.43-3.51,5.84-3.51,10.23c0,4.86,1.23,8.39,3.69,10.61
		c2.46,2.21,5.1,3.32,7.91,3.32c1.96,0,3.69-0.36,5.2-1.09c2.33-1.13,4.38-3.15,6.15-6.06L384.11,42.59z M371.37,26.85
		c0.55-1.54,1.57-2.32,3.07-2.32c1.46,0,2.43,0.67,2.91,2.01c0.49,1.34,0.75,3.69,0.79,7.06h-7.7
		C370.51,30.65,370.82,28.39,371.37,26.85z"/>
	<path d="M411.25,45.13V31.32c0-3.18-0.68-5.41-2.02-6.67c-1.35-1.26-3.25-1.9-5.71-1.9c-1.71,0-3.27,0.45-4.67,1.35
		c-1.4,0.9-2.56,2.04-3.47,3.42v-4.1h-10.83v1.37c1.23,0.15,2.04,0.45,2.44,0.9c0.4,0.45,0.6,1.26,0.6,2.42v16.8
		c0,1.3-0.25,2.17-0.74,2.61c-0.49,0.44-1.26,0.72-2.3,0.85v1.37h13.76v-1.37c-1.02-0.21-1.72-0.48-2.1-0.84
		c-0.37-0.35-0.56-1.15-0.56-2.4v-15.3c0.45-0.73,1.08-1.45,1.91-2.16c0.83-0.72,1.74-1.08,2.72-1.08c1.32,0,2.2,0.59,2.65,1.76
		c0.26,0.65,0.39,1.63,0.39,2.93v13.85c0,1.25-0.19,2.05-0.56,2.4c-0.37,0.35-1.07,0.63-2.09,0.84v1.37h13.43v-1.37
		c-1.02-0.13-1.76-0.38-2.19-0.76C411.47,47.24,411.25,46.42,411.25,45.13z"/>
	<path d="M421.76,10.24c-1.47,0-2.63,0.45-3.49,1.34c-0.86,0.89-1.28,2.06-1.28,3.49c0,1.3,0.4,2.37,1.2,3.2
		c0.8,0.83,1.82,1.24,3.04,1.24c0.19,0,0.6-0.05,1.23-0.14c0.37,0,0.66,0.12,0.86,0.36c0.19,0.26,0.28,0.58,0.28,0.95
		c0,1.38-0.78,2.85-2.34,4.41c-0.88,0.88-2.17,1.91-3.88,3.1l0.67,1.26c2.59-1.45,4.6-2.95,6.06-4.49c2.27-2.44,3.41-5.14,3.41-8.09
		c0-2.05-0.55-3.66-1.66-4.84C424.74,10.83,423.38,10.24,421.76,10.24z"/>
	<path d="M440.7,33.66l-3.13-1.51c-1.51-0.72-2.53-1.43-3.07-2.12c-0.56-0.67-0.84-1.34-0.84-2.01c0-0.82,0.31-1.58,0.94-2.29
		c0.62-0.71,1.57-1.06,2.83-1.06c1.64,0,3.07,0.59,4.3,1.76c1.23,1.17,2.11,2.73,2.65,4.66h1.45v-8.26h-1.25
		c-0.13,0.35-0.29,0.63-0.49,0.82c-0.19,0.19-0.53,0.29-0.99,0.29c-0.34,0-1.18-0.2-2.54-0.6c-1.36-0.4-2.64-0.6-3.85-0.6
		c-2.77,0-4.93,0.81-6.48,2.41c-1.55,1.61-2.32,3.52-2.32,5.74c0,1.75,0.49,3.27,1.48,4.55c0.97,1.29,2.57,2.47,4.8,3.57l4.24,2.07
		c0.91,0.45,1.57,0.86,1.98,1.26c0.74,0.73,1.12,1.6,1.12,2.62c0,1.08-0.35,1.95-1.03,2.61c-0.69,0.66-1.77,0.99-3.24,0.99
		c-1.6,0-3.16-0.56-4.69-1.69c-1.53-1.13-2.57-3.06-3.13-5.79h-1.59v9.46h1.37c0.3-0.6,0.56-1.02,0.8-1.27s0.5-0.38,0.82-0.38
		c0.13,0,0.24,0.01,0.32,0.03c0.08,0.02,0.3,0.09,0.66,0.22l0.98,0.34c1.13,0.39,2.09,0.66,2.86,0.82c0.77,0.16,1.54,0.24,2.3,0.24
		c3.07,0,5.37-0.91,6.91-2.75c1.53-1.83,2.3-3.81,2.3-5.93c0-2.18-0.74-4.01-2.23-5.5C444.05,35.49,442.64,34.59,440.7,33.66z"/>
	<path class="st1" d="M67.75,31.62c-1.14,0-2.18,0.46-2.93,1.2L52.48,45.54c-4.77,4.14-9.31,6.31-16.33,6.36v0
		c-6.85-0.11-11.31-2.28-16.01-6.35L7.69,32.81c-0.75-0.74-1.79-1.2-2.93-1.2c-2.31,0-4.18,1.87-4.18,4.18
		c0,1.15,0.47,2.2,1.22,2.95L18,54.54c4.56,3.73,11,5.61,18.15,5.61c7.15,0,13.59-1.88,18.15-5.61l16.4-15.79
		c0.76-0.75,1.22-1.8,1.22-2.95C71.92,33.49,70.05,31.62,67.75,31.62z"/>
	<path class="st1" d="M21.74,38.31c4.74,4.52,7.51,7.41,14.38,7.51c7.15,0.11,9.94-2.95,14.76-7.56l9.54-9.68
		c0.75-0.76,1.22-1.8,1.22-2.96c0-2.31-1.87-4.18-4.18-4.18c-1.19,0-2.26,0.5-3.02,1.3L43.61,33.62c-1.85,2.02-4.51,3.29-7.47,3.29
		c-2.95,0-5.6-1.25-7.45-3.26L18.07,22.74c-0.76-0.8-1.83-1.3-3.02-1.3c-2.31,0-4.18,1.87-4.18,4.18c0,1.15,0.47,2.2,1.22,2.96
		L21.74,38.31z"/>
	<path class="st1" d="M33.96,29.95c0.56,0.59,1.36,0.96,2.24,0.96c0.87,0,1.66-0.36,2.23-0.94l11.8-11.66
		c0.77-0.76,1.24-1.81,1.24-2.97c0-2.31-1.87-4.18-4.18-4.18c-1.13,0-2.15,0.45-2.9,1.17l-6.87,6.96c-0.35,0.35-0.83,0.57-1.37,0.57
		c-0.55,0-1.05-0.23-1.4-0.6l-6.63-6.92c-0.75-0.72-1.77-1.17-2.9-1.17c-2.31,0-4.18,1.87-4.18,4.18c0,1.16,0.47,2.21,1.24,2.97
		L33.96,29.95z"/>
	<path class="st1" d="M36.15,11.59c3.03,0,5.49-2.46,5.49-5.49c0-3.03-2.46-5.49-5.49-5.49c-3.03,0-5.49,2.46-5.49,5.49
		C30.66,9.13,33.11,11.59,36.15,11.59z"/>
	<path d="M650.35,8.07l-0.98-1.77c0.8-0.19,1.41-0.79,1.41-1.63c0-1.15-1.04-1.7-2.38-1.7h-3.23v0.29c0.7,0,0.7,0.55,0.7,1.22v3.29
		c0,0.83,0,1.23-0.81,1.23v0.29h3.29V9c-0.92,0-0.92-0.4-0.92-1.23V6.41h0.35l1.59,2.88h1.89V9C650.83,9,650.54,8.41,650.35,8.07z
		 M647.86,6.06c-0.15,0-0.34-0.02-0.43-0.05V3.32h0.37c1.12,0,1.31,0.73,1.31,1.31C649.1,5.37,648.66,6.06,647.86,6.06z"/>
	<path d="M647.98,0.69c-3.05,0-5.54,2.48-5.54,5.53c0,3.05,2.49,5.53,5.54,5.53c3.05,0,5.53-2.48,5.53-5.53
		C653.51,3.16,651.04,0.69,647.98,0.69z M647.98,11.06c-2.67,0-4.84-2.17-4.84-4.84c0-2.67,2.17-4.84,4.84-4.84
		c2.67,0,4.82,2.17,4.82,4.84C652.81,8.88,650.65,11.06,647.98,11.06z"/>
	<path d="M495.3,44.27V16.58c0-1.63,0.51-2.73,1.53-3.3c0.61-0.35,1.76-0.59,3.43-0.72v-1.45h-19.45v1.45
		c1.73,0.11,2.91,0.34,3.54,0.69c1.02,0.57,1.54,1.68,1.54,3.33v11.86h-13.62V16.58c0-1.65,0.54-2.76,1.62-3.35
		c0.65-0.35,1.82-0.57,3.49-0.67v-1.45h-19.34v1.45c1.69,0.17,2.83,0.42,3.41,0.75c0.95,0.57,1.42,1.66,1.42,3.27v27.69
		c0,1.66-0.53,2.78-1.59,3.38c-0.63,0.35-1.71,0.57-3.24,0.64v1.45h19.34v-1.45c-1.58-0.06-2.71-0.25-3.38-0.58
		c-1.15-0.6-1.73-1.74-1.73-3.44V31.09h13.62v13.17c0,1.64-0.53,2.76-1.59,3.35c-0.69,0.39-1.85,0.61-3.49,0.67v1.45h19.45v-1.45
		c-1.53-0.06-2.61-0.26-3.26-0.61C495.86,47.08,495.3,45.94,495.3,44.27z"/>
	<path d="M511.73,22.69c-3.7,0-6.78,1.33-9.23,3.99c-2.45,2.66-3.67,5.98-3.67,9.96c0,3.97,1.22,7.28,3.66,9.95
		c2.43,2.67,5.52,4,9.24,4c3.83,0,6.94-1.37,9.32-4.12c2.38-2.74,3.57-6.02,3.57-9.84c0-3.87-1.2-7.16-3.61-9.88
		C518.6,24.05,515.51,22.69,511.73,22.69z M515.36,45.91c-0.58,1.9-1.79,2.85-3.63,2.85c-1.94,0-3.23-1.24-3.88-3.71
		c-0.41-1.6-0.61-4.4-0.61-8.4c0-3.94,0.22-6.75,0.64-8.4c0.65-2.47,1.94-3.71,3.88-3.71c1.77,0,2.95,0.95,3.56,2.86
		c0.6,1.91,0.91,4.99,0.91,9.25C516.22,40.93,515.94,44.01,515.36,45.91z"/>
	<path d="M542.63,36.37c-0.89-0.88-2.31-1.78-4.24-2.71l-3.13-1.51c-1.51-0.72-2.53-1.43-3.07-2.12c-0.56-0.67-0.84-1.34-0.84-2.01
		c0-0.82,0.31-1.58,0.94-2.29c0.62-0.71,1.57-1.06,2.83-1.06c1.64,0,3.07,0.59,4.3,1.76c1.23,1.17,2.11,2.73,2.65,4.66h1.45v-8.26
		h-1.25c-0.13,0.35-0.29,0.63-0.49,0.82c-0.19,0.19-0.53,0.29-0.99,0.29c-0.34,0-1.18-0.2-2.54-0.6c-1.36-0.4-2.64-0.6-3.85-0.6
		c-2.77,0-4.93,0.81-6.48,2.41c-1.55,1.61-2.32,3.52-2.32,5.74c0,1.75,0.49,3.27,1.48,4.55c0.97,1.29,2.57,2.47,4.8,3.57l4.24,2.07
		c0.91,0.45,1.57,0.86,1.98,1.26c0.74,0.73,1.12,1.6,1.12,2.62c0,1.08-0.35,1.95-1.03,2.61c-0.69,0.66-1.77,0.99-3.24,0.99
		c-1.6,0-3.16-0.56-4.69-1.69c-1.53-1.13-2.57-3.06-3.13-5.79h-1.59v9.46h1.37c0.3-0.6,0.56-1.02,0.8-1.27s0.5-0.38,0.82-0.38
		c0.13,0,0.24,0.01,0.32,0.03c0.08,0.02,0.3,0.09,0.66,0.22l0.98,0.34c1.13,0.39,2.09,0.66,2.86,0.82c0.77,0.16,1.54,0.24,2.3,0.24
		c3.07,0,5.37-0.91,6.91-2.75c1.53-1.83,2.3-3.81,2.3-5.93C544.87,39.69,544.12,37.86,542.63,36.37z"/>
	<path d="M570.35,26.07c-1.98-2.25-4.47-3.38-7.47-3.38c-2.08,0-3.8,0.54-5.14,1.62c-0.75,0.61-1.51,1.57-2.29,2.88v-3.77h-10.91
		v1.37c1.19,0.17,2,0.46,2.41,0.89c0.42,0.42,0.63,1.23,0.63,2.43v28.72c0,1.21-0.22,2.03-0.67,2.47c-0.45,0.44-1.28,0.72-2.51,0.85
		v1.37h15.63v-1.17c-1.51-0.09-2.58-0.42-3.22-0.98c-0.64-0.56-1.03-1.59-1.16-3.1c-0.02-0.32-0.04-1.76-0.06-4.33v-4.83
		c0.8,0.89,1.57,1.58,2.32,2.07c1.4,0.91,2.88,1.37,4.44,1.37c3.05,0,5.64-1.36,7.77-4.09c2.13-2.73,3.2-6.17,3.2-10.31
		C573.32,31.68,572.33,28.32,570.35,26.07z M564.28,43.26c-0.73,2.74-2.12,4.1-4.19,4.1c-1.15,0-2.19-0.44-3.11-1.33
		c-0.92-0.89-1.38-1.61-1.38-2.16v-13.9c0-0.48,0.48-1.26,1.45-2.34c0.97-1.08,2.07-1.62,3.29-1.62c1.82,0,3.03,0.97,3.63,2.92
		c0.59,1.94,0.89,4.55,0.89,7.83C564.87,39.59,564.67,41.75,564.28,43.26z"/>
	<path d="M580.06,19.12c1.21,0,2.25-0.43,3.11-1.3c0.86-0.87,1.3-1.91,1.3-3.14c0-1.23-0.43-2.28-1.3-3.14
		c-0.87-0.87-1.9-1.3-3.11-1.3c-1.23,0-2.28,0.43-3.14,1.3c-0.86,0.86-1.3,1.91-1.3,3.14c0,1.23,0.43,2.27,1.3,3.14
		C577.79,18.69,578.84,19.12,580.06,19.12z"/>
	<path d="M584.08,45.13V23.42h-10.97v1.37c1.15,0.21,1.93,0.52,2.32,0.94c0.39,0.42,0.59,1.21,0.59,2.38v16.8
		c0,1.3-0.28,2.2-0.84,2.71c-0.37,0.34-1.06,0.59-2.07,0.76v1.37h13.62v-1.37c-1.02-0.21-1.72-0.48-2.09-0.84
		C584.27,47.18,584.08,46.38,584.08,45.13z"/>
	<path d="M638.53,44.91v-33.8H627.7v1.37c1.06,0.24,1.79,0.55,2.18,0.93c0.39,0.38,0.58,1.17,0.58,2.39v29.11
		c0,1.27-0.21,2.1-0.63,2.5c-0.34,0.33-0.89,0.6-1.63,0.82c0.3-0.28,0.59-0.59,0.88-0.92l-0.87-1.2c-0.37,0.37-0.65,0.6-0.82,0.68
		c-0.18,0.09-0.37,0.13-0.6,0.13c-0.26,0-0.5-0.14-0.71-0.43c-0.22-0.29-0.32-0.64-0.32-1.04V31.59c0-3.39-1.08-5.71-3.24-6.98
		c-2.18-1.25-4.88-1.87-8.12-1.87c-3.02,0-5.55,0.64-7.62,1.92c-2.07,1.28-3.1,3.02-3.1,5.21c0,1.22,0.39,2.16,1.16,2.81
		c0.77,0.65,1.71,0.97,2.8,0.97c0.95,0,1.78-0.29,2.5-0.88c0.71-0.59,1.07-1.42,1.07-2.5c0-0.43-0.08-0.83-0.24-1.21
		c-0.16-0.38-0.37-0.73-0.63-1.05l-0.34-0.39c-0.15-0.17-0.26-0.32-0.33-0.47c-0.08-0.15-0.11-0.33-0.11-0.56
		c0-0.58,0.33-1.06,0.99-1.44c0.66-0.38,1.51-0.57,2.53-0.57c1.82,0,3.1,0.41,3.81,1.21c0.72,0.81,1.07,2.06,1.07,3.75v4.16
		c-5.28,1.53-9.16,3.05-11.64,4.56c-2.19,1.33-3.4,3.08-3.66,5.24l-0.24-0.12c-0.5,0.93-1,1.66-1.51,2.19
		c-0.5,0.53-1.12,0.79-1.87,0.79c-0.86,0-1.47-0.42-1.84-1.25c-0.24-0.54-0.36-1.21-0.36-2.01v-17.2h5.44v-2.51h-5.44v-9.66h-1.45
		c-1.41,2.18-2.99,4.22-4.72,6.11c-0.88,0.97-1.81,1.91-2.79,2.82c-0.74,0.63-1.37,1.18-1.87,1.65v1.59h2.96v18.54
		c0.01,2.55,0.98,4.31,2.91,5.27c1,0.5,2.18,0.75,3.51,0.75c2.36,0,4.36-0.86,5.99-2.59c0.5-0.53,0.96-1.15,1.38-1.85
		c0.28,1.28,0.89,2.29,1.87,3c1.36,0.99,2.82,1.49,4.38,1.49c1.17,0,2.36-0.2,3.57-0.61c1.99-0.65,3.77-1.77,5.36-3.36
		c0.21,1.1,0.53,1.93,0.98,2.49c0.78,0.99,2.02,1.48,3.71,1.48c0.95,0,1.85-0.17,2.71-0.5c0.82-0.31,1.59-0.79,2.33-1.39v1.09h13.62
		v-1.37c-1.04-0.26-1.77-0.59-2.18-0.98C638.73,47,638.53,46.18,638.53,44.91z M617.89,44.07c-0.61,0.71-1.15,1.23-1.59,1.57
		c-0.8,0.56-1.66,0.84-2.6,0.84c-0.71,0-1.34-0.32-1.91-0.97c-0.57-0.64-0.85-1.59-0.85-2.84c0-2.11,0.98-3.84,2.93-5.21
		c1.15-0.8,2.49-1.39,4.02-1.76V44.07z"/>
</g>
</svg>
