<svg xmlns="http://www.w3.org/2000/svg" viewBox="0 0 1024 1024" fill="currentcolor">
  <path d="M216.1,796.4C20,576,75,331.7,75,142.2,243.5,140.6,510.8,0,510.8,0c0,0,268.1,149.1,439.3,142.2,0,225.5,50.9,433.9-141.2,654.2-192,220.3-288.2,227.6-288.2,227.6,0,0-108.5-7.1-304.6-227.6ZM379.6,129.9c-77.8,33.1-159.2,57-242.5,71.2-.6,15.4-1.3,31.1-2.1,47.1-7.3,85.6-4.8,171.7,7.4,256.7,15.9,92.7,57.9,178.9,120.9,248.7,56.9,67.7,123.2,126.9,196.9,175.8,18.5,12,38.4,21.7,59.3,28.8,23.7-8.6,104.9-47.2,241.5-204.1,141.7-162.7,135.5-315.6,128.5-492.6-.8-19.1-1.6-38.6-2.1-58.3-86.8-12.8-171.4-37.4-251.6-73-53.2-22.2-98.2-44.2-126-58.5-28.4,14-75.2,35.9-130.2,58.1ZM507.6,717.4l-172.5-173.9c-48.9-49.4-48.9-128.9,0-178.3,48.4-48.9,127.2-49.3,176.1-.9.3.3.6.6.9.9,48.4-48.9,127.2-49.3,176-.9.3.3.6.6.9.9,48.9,49.4,48.9,129,0,178.3l-172.5,173.9c-1.2,1.2-2.8,1.8-4.4,1.8-1.8,0-3.4-.8-4.6-2.1v.2ZM379.9,410.5c-24,24.3-24,63.5,0,87.8l132,133.1,132-133.1c24-24.3,24-63.5,0-87.8-23.9-24.1-62.8-24.2-86.8-.3-.1.1-.2.2-.3.3l-44.9,45.3-44.9-45.3c-11.5-11.6-27.2-18.2-43.6-18.2-16.3,0-32,6.5-43.5,18.1h0Z"/>
</svg>