<svg xmlns="http://www.w3.org/2000/svg" viewBox="0 0 1024 1024" fill="currentcolor">
  <path d="M810 104.9C739.5 37.3 642 0 535.4 0 372.5 0 272.3 66.8 217 122.8c-68.2 69-107.4 160.7-107.4 251.5s47.7 201.5 127.5 234c5.4 2.2 10.8 3.3 16 3.3 16.8 0 30.2-11 34.8-28.7 2.7-10.1 8.9-35.2 11.7-46 5.8-21.5 1.1-31.8-11.6-46.7-23.1-27.3-33.8-59.6-33.8-101.7 0-124.9 93-257.6 265.4-257.6s221.7 77.7 221.7 202.9-17 152.1-47.9 205.9c-21.5 37.4-59.2 82-117.2 82s-47.6-10.3-61.8-28.2c-13.4-17-17.8-38.9-12.4-61.7 6.1-25.8 14.4-52.7 22.5-78.8 14.7-47.5 28.5-92.4 28.5-128.2 0-61.3-37.7-102.4-93.7-102.4s-127 72.3-127 164.7 12 79.2 17.5 92.2c-9 38-62.3 264.1-72.4 306.7-5.9 24.9-41.1 221.4 17.2 237.1 65.5 17.6 124.1-173.8 130.1-195.4 4.8-17.6 21.7-84.1 32.1-125 31.6 30.5 82.6 51.1 132.1 51.1 93.4 0 177.5-42 236.6-118.4 57.4-74 88.9-177.2 88.9-290.6 0-88.6-38.1-175.9-104.4-239.6Z"/>
</svg>