<svg xmlns="http://www.w3.org/2000/svg" viewBox="0 0 1024 1024">
  <path d="M963.975,530.008c-16.435,0-31.156,6.431-42.018,17.15l-177.074,182.791c-68.457,59.168-133.484,90.466-234.384,91.181h0c-98.327-1.572-162.497-32.728-229.953-91.038l-178.503-183.077c-10.862-10.576-25.582-17.15-42.018-17.15-33.014,0-60.025,26.868-60.025,59.882,0,16.578,6.717,31.585,17.579,42.446l232.383,226.523c65.313,53.451,157.923,80.605,260.538,80.605s195.082-27.011,260.538-80.605l235.384-226.523c10.862-10.862,17.579-25.868,17.579-42.446,0-33.014-27.011-59.739-60.025-59.739Z"/>
  <path d="M303.556,626.048c68.028,64.884,107.759,106.33,206.372,107.759,102.471,1.429,142.631-42.446,211.803-108.617l136.914-138.915c10.862-10.862,17.579-25.868,17.579-42.446,0-33.157-26.868-60.025-60.025-60.025-17.007,0-32.442,7.146-43.304,18.579l-155.208,156.208c-26.583,29.012-64.741,47.306-107.331,47.306-42.303,0-80.462-18.008-106.902-46.734l-152.492-156.78c-11.005-11.433-26.297-18.579-43.447-18.579-33.157,0-59.882,26.868-59.882,60.025,0,16.578,6.717,31.585,17.579,42.446l138.344,139.773Z"/>
  <path d="M479.058,505.997c8.003,8.575,19.437,13.72,32.156,13.72,12.577,0,23.867-5.145,32.013-13.577l169.357-167.356c11.005-10.862,17.722-26.011,17.722-42.589,0-33.157-26.868-60.025-60.025-60.025-16.15,0-30.87,6.431-41.732,16.864l-98.613,99.899c-5.145,5.002-12.005,8.146-19.58,8.146-8.003,0-15.149-3.287-20.151-8.718l-95.04-99.327c-10.862-10.433-25.582-16.864-41.589-16.864-33.157,0-60.025,26.868-60.025,60.025,0,16.578,6.86,31.728,17.865,42.589l167.642,167.213Z"/>
  <path d="M510.499,242.459c43.447,0,78.747-35.3,78.747-78.89s-35.301-78.89-78.747-78.89-78.89,35.3-78.89,78.89c0,43.59,35.301,78.89,78.89,78.89Z"/>
</svg>