<svg xmlns="http://www.w3.org/2000/svg" viewBox="0 0 1024 1024" fill="currentcolor">
  <path d="M510.991346,1024c-9.1139098,0-18.1917962-2.2334483-26.3690987-6.9164849-15.1658341-8.6456061-371.6890171-215.203546-371.6890171-468.735946,0-128.2071343,73.8478857-228.748329,188.1500035-256.1260818,78.1346654-18.6961233,155.5128404,2.2334483,210.484486,53.098431,55.7641596-52.197847,134.295082-73.775839,213.1141912-54.3952719,113.2574404,27.6659396,186.3848589,128.171111,186.3848589,256.0180117,0,236.1331176-310.5213537,432.1722367-364.1601351,464.3050728-2.1974249,1.8011679-4.5389432,3.4582425-7.0605783,4.8991768-8.8977696,5.1873637-18.9122634,7.8530922-28.8547105,7.8530922ZM356.8473932,396.3289946c-10.5548442,0-20.677408,1.2608176-29.9714346,3.4942658-49.9283754,11.9597552-103.27897,57.2771406-103.27897,148.5243087,0,142.2202209,186.6370224,290.8525997,287.2862872,355.1903187,100.0368677-63.4731584,289.5197355-213.2582847,289.5197355-356.5952297,0-91.139098-52.6661507-136.4564835-102.0181524-148.5243087-42.3634701-10.4467741-103.3149933-.6123971-136.1682966,60.3751495-6.9525083,15.1298107-20.4612679,26.9454725-37.3201998,30.9800887-24.7120242,6.1599944-50.6128192-5.223387-62.2123408-28.0982199-24.7480476-48.6675579-67.7599381-65.346373-105.8366284-65.346373Z"/>
  <path d="M513.2968409,248.6692465c-30.5478083,0-55.3318793-24.7840709-55.3318793-55.3318793V55.3318793c0-30.5478083,24.7840709-55.3318793,55.3318793-55.3318793s55.3318793,24.7840709,55.3318793,55.3318793v138.0054879c0,30.5478083-24.7840709,55.3318793-55.3318793,55.3318793Z"/>
  <path d="M739.7396749,248.7412932c-8.2853725,0-16.7148385-1.8732147-24.6399775-5.8357841-27.3777528-13.652853-38.4729473-46.9024133-24.7840709-74.2441427l32.2048829-64.4457891c13.6888764-27.2696827,46.9024133-38.4369239,74.2081193-24.7480476,27.3777528,13.652853,38.4729473,46.9024133,24.7840709,74.2441427l-32.2048829,64.4457891c-9.7263069,19.3805671-29.2509674,30.5838317-49.5681418,30.5838317Z"/>
  <path d="M286.8540069,248.7412932c-20.2811511,0-39.8418349-11.2032646-49.5321185-30.5838317l-32.2409062-64.4457891c-13.652853-27.305706-2.5936818-60.5552663,24.7480476-74.2441427,27.305706-13.5447829,60.627313-2.5576585,74.2441427,24.7480476l32.2409062,64.4457891c13.652853,27.305706,2.5936818,60.5552663-24.7480476,74.2441427-7.925139,3.9625695-16.3906283,5.8357841-24.7120242,5.8357841Z"/>
</svg>