<svg xmlns="http://www.w3.org/2000/svg" viewBox="0 0 1024 1024" fill="currentcolor">
  <path d="M195.3,1024c-26.4,0-51.5-15.4-62.4-41.3-27.4-64.6-36.1-135.3-25.2-204.4,6.9-165.4,152.3-389.3,459.8-499.8,35.3-12.4,74,5.7,86.7,40.8,12.6,35.2-5.6,74-40.8,86.7-283.9,102-366.8,290.5-371,385.8-7.7,51.7-2.2,96.8,15.3,138,14.6,34.5-1.5,74.3-35.9,88.8-8.6,3.7-17.6,5.4-26.4,5.4Z"/>
  <path d="M544.4,863.5c-36.9,0-73.9-6.4-109.7-19.4-19.8-7.1-39.1-16.3-57.2-27.3-31.9-19.6-42-61.2-22.5-93.1,19.5-32,61.2-41.9,93.1-22.6,10.2,6.3,21.2,11.6,32.5,15.6,46.9,17.1,97.1,14.7,141.9-6.2,44.8-21,78.7-58.1,95.6-104.6,19-57.3,26.5-100.6,34.3-146.5,11.7-68.3,23.8-138.7,73.4-255.7-411.4-144.5-573.5-28-625.4,31.3-54.9,62.8-60.3,140.1-37.4,181,18.3,32.7,6.6,73.9-26.1,92.2-32.7,18.2-73.9,6.6-92.2-26.1C-10.5,383.3,11.6,245,98.4,145.8,171.8,61.7,401-110.7,942.1,102.5l67.4,26.5-31,65.5c-67.5,142.3-79.6,213-92.5,287.8-8.4,48.8-17,99.3-39.9,168-29.7,82.2-88.5,146.6-166.1,182.8-43.2,20.2-89.3,30.3-135.5,30.3Z"/>
</svg>