<svg xmlns="http://www.w3.org/2000/svg" viewBox="0 0 1024 1024" fill="currentcolor">
  <path d="M730.88,213.45l-.09-.03c4.66,2.34,9.81,3.54,15.03,3.5,12.67.05,24.27-7.08,29.95-18.41l34.97-70.02s.03-.07.05-.09c8.23-16.51,1.51-36.56-14.99-44.79-.05-.03-.12-.06-.17-.08-16.51-8.19-36.52-1.43-44.71,15.07l-35.02,69.96s0,.01-.01.02c-8.24,16.53-1.53,36.61,15,44.86Z"/>
  <path d="M513.51,216.89c18.43-.01,33.37-14.96,33.37-33.39V33.39C546.86,14.97,531.94.03,513.51,0c-18.43.03-33.37,14.96-33.39,33.39v150.1h-.08v.03c.03,18.46,15.01,33.39,33.47,33.37Z"/>
  <path d="M251.36,198.48l-.1.08c5.71,11.32,17.35,18.42,30.03,18.31,5.19.03,10.32-1.15,14.96-3.47.03-.01.04-.02.07-.03,16.5-8.26,23.18-28.34,14.92-44.85l-35.02-69.96c-.03-.06-.05-.11-.09-.17-8.27-16.46-28.33-23.09-44.79-14.82-.04.02-.07.03-.1.05-16.47,8.28-23.13,28.34-14.86,44.83l35,70.02Z"/>
  <path d="M729.31,315.17c-79.69-20.17-163.94,6.4-217.64,68.63-53.39-61.07-136.53-86.99-215.16-67.1-107.83,25.4-177.72,119.97-177.72,240.43,0,247.82,361.89,454.46,377.36,463.09,4.59,2.5,9.73,3.8,14.96,3.79v-.24c6.08-.09,12.04-1.75,17.28-4.83,1.88-1.02,3.61-2.3,5.15-3.8,47.98-27.94,371.68-225.92,371.68-459.78,0-120.21-69.05-214.49-175.91-240.19ZM510.92,954.92c-69.89-42.95-327.6-214.27-327.6-397.5,0-109.61,66.28-163.97,128.5-178.72h-.09c12.03-2.82,24.35-4.23,36.71-4.17l-.23.27c56.88-.92,109.3,30.76,134.93,81.56,7.17,12.86,22.06,19.32,36.35,15.79,9.78-2.54,17.87-9.44,21.93-18.7,33.3-61.87,104.42-93.19,172.55-75.97,61.36,14.75,126.89,69.35,126.89,178.42,0,185.32-264.15,358.59-329.92,399.03Z"/>
</svg>