<svg xmlns="http://www.w3.org/2000/svg" viewBox="0 0 1024 1024" fill="currentcolor">
  <path d="M98.7,1024c-47.4-.1-85.8-38.6-85.8-86V86.1C12.9,38.6,51.2.1,98.7,0h699.9c47.4.1,85.8,38.6,85.8,86.1,0,18.1-14.6,32.8-32.7,32.8h0c-18.1,0-32.7-14.7-32.7-32.8,0-11.3-9.1-20.4-20.4-20.5H98.6c-11.3,0-20.4,9.2-20.4,20.5v126.5h525.3c18.1,0,32.7,14.7,32.7,32.8,0,18.1-14.6,32.8-32.7,32.8H78.2v659.9c0,11.3,9.1,20.4,20.4,20.5h699.9c11.3,0,20.4-9.2,20.4-20.5v-71.5c0-18.1,14.6-32.8,32.7-32.8,18.1,0,32.8,14.7,32.7,32.8h0v71.5c0,47.4-38.4,85.9-85.8,86H98.7ZM210.4,717.1c-18.1,0-32.7-14.7-32.7-32.7h0c0-18.1,14.6-32.8,32.7-32.9h232.8c18.1,0,32.8,14.7,32.7,32.8h0c0,18.1-14.6,32.8-32.7,32.8h-232.8ZM824.8,702.3v-41.8c-33.9-3.8-65.4-19.3-89.1-43.8-22.3-24.8-34.1-57.2-32.8-90.5h87.8c-.8,16.1,6.6,31.5,19.5,41,13.9,9.9,30.7,15,47.8,14.4,16,.4,31.7-3.9,45.3-12.3,12-6.5,19.4-19.1,19.4-32.7,0-15-9.4-26.6-28.3-34.7-16.7-6.2-33.9-11.2-51.3-14.9-25.4-5.3-50.2-13.2-74.1-23.4-33.9-14.3-57-46.3-59.8-83-.4-4.3-.6-8.7-.6-13.1-1.3-29.2,9.3-57.6,29.4-78.9,22.3-21.3,51-34.6,81.6-37.7v-38.7h69.4v38.7c31.2,3.4,60.2,18.1,81.4,41.3,19.6,23.9,29.8,54.2,28.5,85.2h-86c.8-14.5-5.7-28.4-17.4-37.1-12.7-8.9-28.1-13.4-43.6-12.8-13.9-.4-27.7,2.8-40.1,9.4-10.4,4.9-16.9,15.4-16.8,26.8,0,4.2.7,8.4,2.3,12.3,1.8,4,4.7,7.4,8.3,9.9,3.9,2.9,7.5,5.5,10.8,7.5,4.9,2.7,10.2,4.9,15.6,6.4,7.1,2.2,12.7,3.9,16.9,5l20,5.1,3.5.9,21.1,5.5c4.9,1.2,11.9,3.2,20.8,6,7.3,2.1,14.4,4.6,21.4,7.6,5.3,2.3,11.8,5.5,19.4,9.5,6.6,3.3,12.8,7.4,18.4,12.1,5.3,4.7,10.3,9.7,14.9,15,5,5.6,9.2,12,12.3,18.8,3.1,7.4,5.6,15.1,7.3,22.9,1.9,9.1,2.9,18.4,2.8,27.7,1.4,31.4-10.2,61.9-32.2,84.4-23.4,22.2-53.3,36.2-85.3,40v42h-68.7ZM210.4,563.4c-18.1,0-32.8-14.7-32.7-32.8,0-18.1,14.6-32.8,32.7-32.8h393.2c18.1,0,32.7,14.7,32.7,32.8,0,18.1-14.6,32.8-32.7,32.8H210.4ZM210.4,431.7c-18.1,0-32.8-14.7-32.7-32.8h0c0-18.1,14.6-32.8,32.7-32.8h382.5c18.1,0,32.7,14.7,32.7,32.7h0c0,18.1-14.6,32.8-32.7,32.9H210.4Z"/>
</svg>