<svg xmlns="http://www.w3.org/2000/svg" viewBox="0 0 1024 1024" fill="currentcolor">
  <path d="M416,1023.9c-17.5-.2-31.5-14.5-31.4-32-.2-17.5,13.9-31.8,31.4-32h64.7v-174.9c-177.5-20.8-319-157.9-345.6-334.5-2.8-17.3,8.8-33.6,26-36.6,17.2-2.6,33.2,9.2,35.8,26.4,0,0,0,.1,0,.2,23.3,158.1,156.1,277.1,315.8,282.9,160.1-3.5,293.6-123.5,314-282.4,2.1-17.2,17.8-29.5,35-27.4.1,0,.2,0,.3,0,17.3,2.6,29.4,18.7,26.9,36.1-23.5,178.5-166.5,317.5-345.6,335.9v174.3h64.4c17.5.2,31.5,14.5,31.3,32,.2,17.5-13.8,31.8-31.3,32h-191.8ZM308.8,398.6v-177.6C304.2,104.4,394.2,5.9,510.7,0c117.5,5,208.8,104.2,204.1,221.7v177.6c4.6,116.5-85.4,214.9-201.9,220.7v.2c-117.6-4.9-208.9-104.1-204.1-221.7ZM371.1,219.9v179.7c-4,82.4,59.4,152.4,141.8,156.7,81.1-5.2,143.1-74.4,139.5-155.7v-179.6c4-82.3-59.3-152.4-141.6-156.7-81.2,5-143.4,74.3-139.6,155.6h0Z"/>
</svg>