<svg xmlns="http://www.w3.org/2000/svg" viewBox="0 0 1024 1024" fill="currentcolor">
  <path d="M0,1023.3v-84.9c-.4-48.6,9.8-96.8,29.8-141.1,19.5-42.6,48.1-80.4,83.7-110.8,37.2-31.6,80.2-55.8,126.5-71.1,51.2-16.9,104.8-25.3,158.6-24.9,53.9-.4,107.4,8,158.6,24.9,46.4,15.3,89.4,39.4,126.5,71.1,35.6,30.4,64.2,68.2,83.7,110.8,20,44.3,30.2,92.5,29.8,141.1v84.9H0ZM260.8,676.5c-38.5,12.6-74.2,32.6-105.1,58.8-59.3,50.6-92.7,125.1-91.1,203.1v20.4h668.2v-20.4c1.6-77.9-31.8-152.5-91.1-203.1-30.9-26.2-66.6-46.2-105.1-58.8-44.5-14.6-91.1-21.9-137.9-21.5-46.8-.4-93.4,6.8-137.9,21.4h0ZM194.3,334.2c.1-112.8,91.6-204.3,204.4-204.4,112.8.1,204.2,91.5,204.4,204.4-.1,112.8-91.5,204.3-204.4,204.4-112.9,0-204.4-91.6-204.4-204.4h0ZM258.8,334.2c.1,77.2,62.7,139.8,139.9,139.8,77.2,0,139.8-62.6,139.9-139.8-.1-77.2-62.7-139.7-139.9-139.8-77.1.1-139.7,62.6-139.8,139.8h-.1ZM830.4,291.2v-96.8h-96.8c-17.8,0-32.3-14.4-32.3-32.2h0c0-17.8,14.4-32.3,32.3-32.3h96.9V33c0-17.8,14.4-32.3,32.3-32.3s32.3,14.4,32.3,32.3v96.8h96.8c17.8,0,32.3,14.4,32.3,32.3s-14.4,32.3-32.3,32.3h-96.8v96.8c0,17.8-14.4,32.3-32.3,32.3-17.8,0-32.2-14.5-32.2-32.3h0Z"/>
</svg>