<svg xmlns="http://www.w3.org/2000/svg" viewBox="0 0 1024 1024" fill="currentcolor">
  <path d="M268.4,1003c-6.2-16.6,2.2-35.1,18.9-41.4h.1l1.8-.6c43.7-15.8,82.8-41.9,114.3-76.1,33.6-37.5,58.7-81.7,73.5-129.8,18.3-65.5,21.4-134.2,9.2-201.1l-.3-2c-.3-1.8-.9-5.8-1.1-6.8l-.2-1.2-.4-3.3-5.9-.8c-.7-.2-2.5-.4-4.2-.7s-2.8-.4-3.5-.6c-55.2-9.6-111.6-9.5-166.8.3l150.3,150.3c12.5,12.6,12.5,32.9,0,45.4-6,6-14.2,9.4-22.8,9.4-8.5,0-16.7-3.4-22.7-9.4l-174.4-174.4c-29.7,12.8-57.5,29.7-82.6,50.1l220.9,220.8c12.5,12.6,12.5,32.9,0,45.5-6,6-14.2,9.4-22.8,9.4-8.5,0-16.7-3.4-22.7-9.4l-220.3-220.3c-18.8,24.2-33.6,51.1-44,79.9-4.6,12.8-16.7,21.4-30.3,21.4s-7.4-.6-10.8-1.8c-16.7-6-25.4-24.4-19.5-41.1,19.4-53.9,51.5-102.4,93.7-141.1l.2-.2c39.5-35.4,85.4-62.9,135.3-80.9h.2c6.1-2.2,12.3-4.3,18.5-6.2,73-20.9,149.8-25,224.6-12-13-74.8-8.9-151.6,12-224.6,17.6-57,47.3-109.6,87.2-154l.2-.2c38.8-42.2,87.2-74.3,141.1-93.6,16.7-6,35.1,2.7,41.1,19.5t0,0c6,16.7-2.7,35.1-19.4,41.1,0,0,0,0,0,0-44,15.8-83.6,42-115.3,76.4-33.5,37.5-58.6,81.7-73.5,129.7-18.4,65.7-21.4,134.6-9.1,201.7.1.8.4,2.1.6,3.5s.5,3.5.6,4.4l.2,1.2.6,4.6,4.5.6c1,.1,5.1.8,6.8,1.1l2,.3c55.6,9.6,112.5,9.4,168.1-.7l-152.1-152.1c-12.6-12.5-12.6-32.9,0-45.5h0c12.5-12.6,32.8-12.6,45.4-.1h0c0,0,175.8,175.9,175.8,175.9,29.6-13,57.3-29.9,82.3-50.4l-220.7-220.7c-12.5-12.5-12.6-32.8-.1-45.3h.1c12.5-12.7,32.8-12.7,45.3-.2h.1c0,.1,219.9,220,219.9,220,18.1-23.6,32.5-49.9,42.7-77.9.2-.7.5-1.3.6-1.7,6.2-16.6,24.7-25.2,41.4-19.1,16.6,6.2,25.1,24.7,19,41.4l-.3.8c-19.3,53.7-51.4,101.9-93.4,140.5l-.3.2c-44.4,39.8-96.9,69.5-153.9,87.2-72.7,20.8-149.2,24.9-223.8,12.1,12.8,74.5,8.7,151-12.1,223.8-17.7,57-47.5,109.5-87.3,153.9l-.2.3c-38.6,42-86.8,74-140.5,93.4l-.7.2c-3.6,1.3-7.3,2-11.1,2.1-13.4,0-25.3-8.5-29.9-21Z"/>
</svg>