<svg xmlns="http://www.w3.org/2000/svg" viewBox="0 0 1024 1024" fill="currentcolor">
  <path d="M285.9,1024c-48.8,0-88.3-39.5-88.5-88.3V88.3C197.6,39.5,237.1,0,285.9,0h451.2c48.8,0,88.3,39.5,88.4,88.3v603.2c1.4,5.3,1.4,10.8,0,16.1v228.1c0,48.8-39.6,88.3-88.4,88.3h-451.2ZM262,935.7c0,13.2,10.7,23.9,23.9,24h451.2c13.2,0,23.9-10.8,23.9-24v-36.1h-499.1v36.1ZM269.7,686.4c-2.3,2.2-4.9,4.1-7.7,5.5v143.5h499v-132.8c-26.3-65-120.8-86.7-158.4-92.8l-57.7,66.2c-5.9,6.6-14.1,10.6-22.9,11.1-8.9.6-17.6-2.7-23.7-9.2l-68.1-66.7c-60.3,6.7-116.7,33.1-160.4,75.3h0ZM262,608.9c52.3-37.6,114.1-59.5,178.3-63.4,9.1-.5,17.9,2.8,24.4,9.2l54.1,53.1,46.6-53.5c6.6-7.9,16.8-12,27.1-10.8,60.2,6,118,26.6,168.5,60V186.4h-499.1v422.5ZM262,88.4v33.5h499v-33.5c-.1-13.2-10.8-23.8-23.9-23.9h-451.2c-13.1,0-23.8,10.6-24,23.8h.1ZM377.7,788.1c-9.5,0-17.2-7.7-17.2-17.2v-11.8h-11.8c-9.6,0-17.3-7.8-17.3-17.3h0v-11c0-9.6,7.7-17.3,17.2-17.3h11.9v-11.8c0-9.5,7.7-17.2,17.2-17.2h11.2c9.5,0,17.2,7.7,17.3,17.2h0v11.9h11.8v-.2c9.5,0,17.3,7.7,17.3,17.2v11.3c0,9.6-7.8,17.3-17.3,17.3h-11.8v11.8c0,9.5-7.7,17.2-17.3,17.2h-11.1ZM512.4,533.7c-78.9-.1-142.9-64.1-143-143,.1-79,64.1-142.9,143-143,38,0,74.5,15.1,101.3,42,27,26.8,42.1,63.2,42,101.2,0,79-64,143.1-143,143.3l-.3-.5ZM433.9,390.5c0,43.4,35.2,78.5,78.6,78.6,43.4,0,78.5-35.2,78.6-78.6,0-20.9-8.3-41-23.2-55.7-14.7-14.7-34.7-23-55.5-22.9-43.3.2-78.3,35.3-78.4,78.5h0Z"/>
</svg>