<svg xmlns="http://www.w3.org/2000/svg" viewBox="0 0 1021 1024" fill="currentcolor">
  <path d="M1017.1,384.8l-.2-.4c-15.8-47.8-56.1-84.6-105.3-95.9l-180.4-41.1-95-159.1C595.4,19.9,506.3-2.5,437.8,38.4c-20.5,12.3-37.8,29.6-50,50l-94.8,159-180.2,41c-37.7,8.5-69.8,31.2-90.4,63.9C1.8,385-4.9,423.7,3.6,461.4c5.3,23.5,16.4,45.4,32.2,63.3l121.8,139.4-14.9,168.6c-7.7,37.9-.2,76.5,21.2,108.7s53.9,54.1,91.5,61.7c28.5,5.9,59.5,2.9,86.3-8.8l170.3-73,169.8,72.9c18.6,8.1,38,11.8,57,11.8,56.1,0,109.5-32.7,133.1-87.4,9.6-22.2,13.5-46.7,11.2-70.3l-16.7-184.3,122-139.5c33.1-38.2,44.1-91.8,28.6-139.8ZM897.8,445.6l-155.7,178.1,21.2,235.8c.4,3.9-.2,7.9-1.8,11.6-5.3,12.3-19.7,18.3-32.2,12.7l-217.3-93.3-218.1,93.5c-2.9,1.2-6.1,2-14.5,1.3-8.5-1.7-13.3-7.2-15.4-10.3s-5.3-9.7-2.6-24.8l20.4-226.4-155.7-178.1c-2.6-3-4.5-6.7-5.4-10.6-2.9-13.1,5.3-26.2,18.5-29.1l230.5-52.5,121.2-203.3c2-3.4,5-6.3,8.4-8.4,11.7-6.9,26.6-3.1,33.4,8.4l121.3,203.3,230.4,52.5c8.5,2,15.1,8,17.9,16.2,2.6,8.1.6,17.3-4.9,23.6Z"/>
  <path d="M573.3,509.8c1.4-1.3,2.8-2.7,4.1-4.1,33.9-36.1,32-92.9-4.1-126.7-36.1-33.9-92.9-32-126.7,4.1-33.9,36.1-32,92.9,4.1,126.7-59.1,24.8-97.7,82.6-97.7,146.7,0,10.1,8.2,18.4,18.4,18.4h281.6l-.2-.3c10.1,0,18.4-8.2,18.4-18.4.1-1.1.1-2.1,0-3.2-1.5-62.9-39.8-119-97.8-143.2Z"/>
</svg>