<svg xmlns="http://www.w3.org/2000/svg" viewBox="0 0 1024 1024" fill="currentcolor">
  <path d="M512,0C229.7,0,0,229.7,0,512s229.7,512,512,512,512-229.7,512-512S794.3,0,512,0ZM886.4,401.1c-39.7,23.6-81.3,43.1-123.9,59.4-16.6-134.6-94.3-252-159-328.9,136,32.8,243.3,136.3,282.9,269.5ZM511.8,815.6c-42.5-50.5-91.3-121.3-116.6-200.6,43.9,8.2,88.5,14.3,133.9,17.2,32.8-1.8,65.3-6.3,97.6-11.6-25.9,76.9-73.3,145.6-114.8,194.9ZM529.8,512.8c-50.7-3.4-100.8-12.3-150.5-23.7,8.6-110.9,76.2-213.7,132.7-280.8,57.7,68.4,126.9,173.9,133,287.8-38.4,8.3-76.9,14.6-115.2,16.8ZM420.2,131.6c-63.7,75.8-139.7,190.8-157.9,322.9-42.7-15.6-84.3-33.6-124.3-54.9,40-132.4,146.8-235.3,282.2-268ZM120.9,524.2c46.4,22.4,94.1,42.1,143.6,57.7,21.1,126.9,94.2,237.1,155.8,310.5-168.2-40.6-293.8-189.1-299.5-368.3ZM603.4,892.5c60.3-71.8,131.6-178.9,154.5-302.4,50.1-16,98.1-37.7,144.8-62.1-7.3,177.4-132.2,324.2-299.3,364.5Z"/>
</svg>