<svg xmlns="http://www.w3.org/2000/svg" viewBox="0 0 1024 1024" fill="currentcolor">
  <path d="M764.8 690.1c-6.3-75.8-44.2-139-101.1-177C809.1 426.5 782 172.5 809.1 51.8c1.7-63.4-90.4-66.2-94.8-6.3H322.5c-6.3-31.6-25.3-50.6-56.9-44.2-25.3 0-44.2 25.3-37.9 50.6 29 144.1-8.6 352.7 132.7 461.3-145.9 89.3-118 334.7-145.4 461.3-1.7 63.4 90.4 66.2 94.8 6.3h391.8c4.5 63.9 99.3 52.9 88.5-6.3-18-116.5-1.7-152.9-25.3-284.4Zm-101.1-12.7h-316c35.2-154 281.9-161.3 316 0ZM518.3 462.6c-75.8 0-139-44.2-158-120.1h316c-19 69.5-82.2 120.1-158 120.1Zm183.3-322.4c-6.3 31.6-6.3 63.2-12.6 113.8H347.7c-7.4-51.9-13.6-78.7-12.6-113.8h366.5ZM322.4 886c6.3-31.6 6.3-63.2 12.6-113.8h341.3c5.4 54.5 11.3 74.9 12.6 113.8H322.4Z"/>
</svg>