<svg xmlns="http://www.w3.org/2000/svg" xmlns:xlink="http://www.w3.org/1999/xlink" version="1.1" id="Layer_1" x="0px" y="0px" style="enable-background:new 0 0 1625 273.53;" xml:space="preserve" viewBox="11.65 16 1597.29 226.83">
<style type="text/css">
	.st0{fill:#808285;}
	.st1{fill:none;}
	.st2{fill:#E51B27;}
</style>
<g>
	<g>
		<path class="st0" d="M218.14,191.88h-18.07v-9.49h46.62v9.49h-18.07v49.45h-10.49V191.88z"/>
		<path class="st0" d="M262.93,206.95h0.17c0.78-1.66,2.15-3.18,4.12-4.54c1.97-1.36,4.51-2.04,7.62-2.04    c2.66,0,4.92,0.44,6.78,1.33c1.86,0.89,3.37,2.05,4.54,3.5c1.17,1.45,2,3.11,2.5,5c0.5,1.89,0.75,3.86,0.75,5.91v25.23h-9.99    V221.1c0-1.11-0.06-2.34-0.17-3.7c-0.11-1.36-0.4-2.64-0.87-3.83c-0.47-1.19-1.21-2.19-2.21-3c-1-0.8-2.36-1.21-4.08-1.21    c-1.66,0-3.07,0.28-4.2,0.83c-1.14,0.55-2.08,1.3-2.83,2.25c-0.75,0.94-1.29,2.03-1.62,3.25c-0.33,1.22-0.5,2.5-0.5,3.83v21.81    h-9.99v-62.94h9.99V206.95z"/>
		<path class="st0" d="M308.72,224.85c0.33,3,1.5,5.33,3.5,6.99c2,1.66,4.41,2.5,7.24,2.5c2.5,0,4.59-0.51,6.29-1.54    c1.69-1.03,3.18-2.32,4.45-3.87l7.16,5.41c-2.33,2.89-4.94,4.94-7.83,6.16c-2.89,1.22-5.91,1.83-9.07,1.83c-3,0-5.83-0.5-8.49-1.5    c-2.66-1-4.97-2.42-6.91-4.25c-1.94-1.83-3.48-4.04-4.62-6.62c-1.14-2.58-1.71-5.45-1.71-8.62c0-3.16,0.57-6.03,1.71-8.62    c1.14-2.58,2.68-4.79,4.62-6.62c1.94-1.83,4.25-3.25,6.91-4.25c2.66-1,5.49-1.5,8.49-1.5c2.77,0,5.31,0.49,7.62,1.46    c2.3,0.97,4.27,2.37,5.91,4.21c1.64,1.83,2.91,4.09,3.83,6.79c0.91,2.69,1.37,5.78,1.37,9.28v2.75H308.72z M329.2,217.35    c-0.06-2.94-0.97-5.26-2.75-6.95c-1.78-1.69-4.25-2.54-7.41-2.54c-3,0-5.37,0.86-7.12,2.58c-1.75,1.72-2.82,4.02-3.21,6.91H329.2z    "/>
		<path class="st0" d="M414.53,196.21c-2.16-2.33-4.26-3.88-6.29-4.66c-2.03-0.78-4.07-1.16-6.12-1.16c-3.05,0-5.81,0.54-8.28,1.62    c-2.47,1.08-4.59,2.58-6.37,4.49c-1.78,1.92-3.15,4.15-4.12,6.7c-0.97,2.55-1.46,5.3-1.46,8.24c0,3.16,0.49,6.08,1.46,8.74    c0.97,2.66,2.34,4.97,4.12,6.91c1.78,1.94,3.9,3.47,6.37,4.58c2.47,1.11,5.23,1.67,8.28,1.67c2.39,0,4.7-0.57,6.95-1.71    c2.25-1.14,4.34-2.95,6.29-5.45l8.66,6.16c-2.66,3.66-5.91,6.33-9.74,7.99c-3.83,1.66-7.91,2.5-12.24,2.5    c-4.55,0-8.73-0.74-12.53-2.21c-3.8-1.47-7.08-3.55-9.82-6.24c-2.75-2.69-4.9-5.92-6.45-9.7c-1.55-3.77-2.33-7.96-2.33-12.57    c0-4.72,0.78-9,2.33-12.86c1.55-3.86,3.71-7.14,6.45-9.86c2.75-2.72,6.02-4.81,9.82-6.29c3.8-1.47,7.98-2.21,12.53-2.21    c4,0,7.7,0.71,11.11,2.12c3.41,1.42,6.59,3.82,9.53,7.2L414.53,196.21z"/>
		<path class="st0" d="M438.17,224.85c0.33,3,1.5,5.33,3.5,6.99c2,1.66,4.41,2.5,7.24,2.5c2.5,0,4.59-0.51,6.29-1.54    c1.69-1.03,3.18-2.32,4.45-3.87l7.16,5.41c-2.33,2.89-4.94,4.94-7.83,6.16c-2.89,1.22-5.91,1.83-9.07,1.83c-3,0-5.83-0.5-8.49-1.5    c-2.66-1-4.97-2.42-6.91-4.25c-1.94-1.83-3.48-4.04-4.62-6.62c-1.14-2.58-1.71-5.45-1.71-8.62c0-3.16,0.57-6.03,1.71-8.62    c1.14-2.58,2.68-4.79,4.62-6.62c1.94-1.83,4.25-3.25,6.91-4.25c2.66-1,5.49-1.5,8.49-1.5c2.77,0,5.31,0.49,7.62,1.46    c2.3,0.97,4.27,2.37,5.91,4.21c1.64,1.83,2.91,4.09,3.83,6.79c0.91,2.69,1.37,5.78,1.37,9.28v2.75H438.17z M458.65,217.35    c-0.06-2.94-0.97-5.26-2.75-6.95c-1.78-1.69-4.25-2.54-7.41-2.54c-3,0-5.37,0.86-7.12,2.58c-1.75,1.72-2.82,4.02-3.21,6.91H458.65    z"/>
		<path class="st0" d="M477.97,201.37h9.49v6.41h0.17c0.94-2,2.39-3.73,4.33-5.2c1.94-1.47,4.58-2.21,7.91-2.21    c2.66,0,4.92,0.44,6.78,1.33c1.86,0.89,3.37,2.05,4.54,3.5c1.17,1.45,2,3.11,2.5,5c0.5,1.89,0.75,3.86,0.75,5.91v25.23h-9.99    V221.1c0-1.11-0.06-2.34-0.17-3.7c-0.11-1.36-0.4-2.64-0.87-3.83c-0.47-1.19-1.21-2.19-2.21-3c-1-0.8-2.36-1.21-4.08-1.21    c-1.67,0-3.07,0.28-4.2,0.83c-1.14,0.55-2.08,1.3-2.83,2.25c-0.75,0.94-1.29,2.03-1.62,3.25c-0.33,1.22-0.5,2.5-0.5,3.83v21.81    h-9.99V201.37z"/>
		<path class="st0" d="M521.09,209.86v-8.49h8.24V189.8h9.99v11.57h10.99v8.49h-10.99v17.48c0,2,0.38,3.58,1.12,4.75    c0.75,1.16,2.23,1.75,4.45,1.75c0.89,0,1.86-0.1,2.91-0.29c1.05-0.19,1.89-0.51,2.5-0.96V241c-1.06,0.5-2.35,0.85-3.87,1.04    c-1.53,0.19-2.87,0.29-4.04,0.29c-2.66,0-4.84-0.29-6.54-0.88c-1.69-0.58-3.03-1.47-4-2.66c-0.97-1.19-1.64-2.68-2-4.45    c-0.36-1.78-0.54-3.83-0.54-6.16v-18.32H521.09z"/>
		<path class="st0" d="M566.13,224.85c0.33,3,1.5,5.33,3.5,6.99c2,1.66,4.41,2.5,7.24,2.5c2.5,0,4.59-0.51,6.29-1.54    c1.69-1.03,3.18-2.32,4.45-3.87l7.16,5.41c-2.33,2.89-4.94,4.94-7.83,6.16c-2.89,1.22-5.91,1.83-9.07,1.83c-3,0-5.83-0.5-8.49-1.5    c-2.66-1-4.97-2.42-6.91-4.25c-1.94-1.83-3.48-4.04-4.62-6.62c-1.14-2.58-1.71-5.45-1.71-8.62c0-3.16,0.57-6.03,1.71-8.62    c1.14-2.58,2.68-4.79,4.62-6.62c1.94-1.83,4.25-3.25,6.91-4.25c2.66-1,5.49-1.5,8.49-1.5c2.77,0,5.31,0.49,7.62,1.46    c2.3,0.97,4.27,2.37,5.91,4.21c1.64,1.83,2.91,4.09,3.83,6.79c0.91,2.69,1.37,5.78,1.37,9.28v2.75H566.13z M586.61,217.35    c-0.06-2.94-0.97-5.26-2.75-6.95c-1.78-1.69-4.25-2.54-7.41-2.54c-3,0-5.37,0.86-7.12,2.58c-1.75,1.72-2.82,4.02-3.21,6.91H586.61    z"/>
		<path class="st0" d="M605.92,201.37h9.99v6.33h0.17c1.11-2.33,2.69-4.13,4.75-5.41c2.05-1.28,4.41-1.92,7.08-1.92    c0.61,0,1.21,0.06,1.79,0.17c0.58,0.11,1.18,0.25,1.79,0.42v9.66c-0.83-0.22-1.65-0.4-2.46-0.54c-0.8-0.14-1.6-0.21-2.37-0.21    c-2.33,0-4.21,0.43-5.62,1.29c-1.42,0.86-2.5,1.85-3.25,2.96c-0.75,1.11-1.25,2.22-1.5,3.33c-0.25,1.11-0.37,1.94-0.37,2.5v21.4    h-9.99V201.37z"/>
		<path class="st0" d="M666.53,209.86h-8.24v-8.49h8.24v-5.66c0-2.78,0.19-5.29,0.58-7.54c0.39-2.25,1.12-4.17,2.21-5.78    c1.08-1.61,2.59-2.84,4.54-3.71c1.94-0.86,4.47-1.29,7.58-1.29c2.28,0,4.38,0.2,6.33,0.58l-0.67,8.49    c-0.72-0.17-1.42-0.3-2.08-0.42c-0.67-0.11-1.36-0.17-2.08-0.17c-1.39,0-2.5,0.22-3.33,0.67c-0.83,0.44-1.48,1.04-1.96,1.79    c-0.47,0.75-0.78,1.62-0.92,2.62c-0.14,1-0.21,2.05-0.21,3.16v7.24h9.24v8.49h-9.24v31.47h-9.99V209.86z"/>
		<path class="st0" d="M690.26,221.35c0-3.16,0.57-6.03,1.71-8.62c1.14-2.58,2.68-4.79,4.62-6.62c1.94-1.83,4.25-3.25,6.91-4.25    c2.66-1,5.49-1.5,8.49-1.5c3,0,5.83,0.5,8.49,1.5c2.66,1,4.97,2.42,6.91,4.25c1.94,1.83,3.48,4.04,4.62,6.62s1.71,5.45,1.71,8.62    c0,3.16-0.57,6.04-1.71,8.62s-2.68,4.79-4.62,6.62s-4.24,3.25-6.91,4.25c-2.66,1-5.49,1.5-8.49,1.5c-3,0-5.83-0.5-8.49-1.5    c-2.66-1-4.97-2.42-6.91-4.25c-1.94-1.83-3.48-4.04-4.62-6.62C690.83,227.39,690.26,224.51,690.26,221.35z M700.25,221.35    c0,1.56,0.26,3.05,0.79,4.5c0.53,1.44,1.3,2.72,2.33,3.83c1.03,1.11,2.26,2,3.7,2.66c1.44,0.67,3.08,1,4.91,1s3.47-0.33,4.91-1    c1.44-0.67,2.68-1.55,3.71-2.66c1.03-1.11,1.8-2.39,2.33-3.83c0.53-1.44,0.79-2.94,0.79-4.5c0-1.55-0.27-3.05-0.79-4.49    c-0.53-1.44-1.31-2.72-2.33-3.83c-1.03-1.11-2.26-2-3.71-2.66c-1.44-0.67-3.08-1-4.91-1s-3.47,0.33-4.91,1    c-1.44,0.67-2.68,1.56-3.7,2.66c-1.03,1.11-1.8,2.39-2.33,3.83C700.51,218.3,700.25,219.8,700.25,221.35z"/>
		<path class="st0" d="M743.04,201.37h9.99v6.33h0.17c1.11-2.33,2.69-4.13,4.75-5.41c2.05-1.28,4.41-1.92,7.08-1.92    c0.61,0,1.21,0.06,1.79,0.17c0.58,0.11,1.18,0.25,1.79,0.42v9.66c-0.83-0.22-1.65-0.4-2.46-0.54c-0.8-0.14-1.6-0.21-2.37-0.21    c-2.33,0-4.2,0.43-5.62,1.29c-1.41,0.86-2.5,1.85-3.25,2.96c-0.75,1.11-1.25,2.22-1.5,3.33c-0.25,1.11-0.38,1.94-0.38,2.5v21.4    h-9.99V201.37z"/>
		<path class="st0" d="M841.44,196.21c-2.16-2.33-4.26-3.88-6.28-4.66c-2.03-0.78-4.07-1.16-6.12-1.16c-3.05,0-5.81,0.54-8.28,1.62    c-2.47,1.08-4.59,2.58-6.37,4.49c-1.78,1.92-3.15,4.15-4.12,6.7c-0.97,2.55-1.46,5.3-1.46,8.24c0,3.16,0.49,6.08,1.46,8.74    c0.97,2.66,2.34,4.97,4.12,6.91c1.78,1.94,3.9,3.47,6.37,4.58c2.47,1.11,5.23,1.67,8.28,1.67c2.39,0,4.7-0.57,6.95-1.71    c2.25-1.14,4.34-2.95,6.29-5.45l8.66,6.16c-2.66,3.66-5.91,6.33-9.74,7.99c-3.83,1.66-7.91,2.5-12.24,2.5    c-4.55,0-8.73-0.74-12.53-2.21c-3.8-1.47-7.08-3.55-9.82-6.24c-2.75-2.69-4.9-5.92-6.45-9.7c-1.56-3.77-2.33-7.96-2.33-12.57    c0-4.72,0.78-9,2.33-12.86c1.55-3.86,3.7-7.14,6.45-9.86c2.75-2.72,6.02-4.81,9.82-6.29c3.8-1.47,7.98-2.21,12.53-2.21    c4,0,7.7,0.71,11.11,2.12c3.41,1.42,6.59,3.82,9.53,7.2L841.44,196.21z"/>
		<path class="st0" d="M867.08,206.95h0.17c0.78-1.66,2.15-3.18,4.12-4.54c1.97-1.36,4.51-2.04,7.62-2.04    c2.66,0,4.93,0.44,6.78,1.33c1.86,0.89,3.37,2.05,4.54,3.5c1.16,1.45,2,3.11,2.5,5c0.5,1.89,0.75,3.86,0.75,5.91v25.23h-9.99    V221.1c0-1.11-0.06-2.34-0.17-3.7c-0.11-1.36-0.4-2.64-0.88-3.83c-0.47-1.19-1.21-2.19-2.21-3c-1-0.8-2.36-1.21-4.08-1.21    c-1.67,0-3.07,0.28-4.21,0.83c-1.14,0.55-2.08,1.3-2.83,2.25c-0.75,0.94-1.29,2.03-1.62,3.25c-0.33,1.22-0.5,2.5-0.5,3.83v21.81    h-9.99v-62.94h9.99V206.95z"/>
		<path class="st0" d="M903.63,187.8c0-1.61,0.59-3.01,1.79-4.21c1.19-1.19,2.7-1.79,4.54-1.79s3.37,0.57,4.62,1.71    s1.87,2.57,1.87,4.29c0,1.72-0.63,3.15-1.87,4.29c-1.25,1.14-2.79,1.71-4.62,1.71s-3.34-0.6-4.54-1.79    C904.22,190.81,903.63,189.41,903.63,187.8z M905.04,201.37h9.99v39.96h-9.99V201.37z"/>
		<path class="st0" d="M926.69,178.39h9.99v62.94h-9.99V178.39z"/>
		<path class="st0" d="M979.81,235.34h-0.17c-1.45,2.44-3.39,4.22-5.83,5.33s-5.08,1.67-7.91,1.67c-3.11,0-5.87-0.54-8.28-1.62    c-2.41-1.08-4.48-2.57-6.2-4.45c-1.72-1.88-3.03-4.11-3.91-6.66c-0.89-2.55-1.33-5.3-1.33-8.24c0-2.94,0.47-5.69,1.41-8.24    c0.94-2.55,2.26-4.77,3.96-6.66c1.69-1.88,3.73-3.37,6.12-4.45c2.39-1.08,5-1.62,7.83-1.62c1.88,0,3.55,0.19,4.99,0.58    s2.72,0.89,3.83,1.5c1.11,0.61,2.05,1.26,2.83,1.96c0.78,0.7,1.42,1.37,1.92,2.04h0.25v-28.06h9.99v62.94h-9.49V235.34z     M956.16,221.35c0,1.56,0.26,3.05,0.79,4.5c0.53,1.44,1.3,2.72,2.33,3.83c1.03,1.11,2.26,2,3.7,2.66c1.44,0.67,3.08,1,4.91,1    s3.47-0.33,4.91-1c1.44-0.67,2.68-1.55,3.71-2.66c1.03-1.11,1.8-2.39,2.33-3.83c0.53-1.44,0.79-2.94,0.79-4.5    c0-1.55-0.27-3.05-0.79-4.49c-0.53-1.44-1.31-2.72-2.33-3.83c-1.03-1.11-2.26-2-3.71-2.66c-1.44-0.67-3.08-1-4.91-1    s-3.47,0.33-4.91,1c-1.44,0.67-2.68,1.56-3.7,2.66c-1.03,1.11-1.81,2.39-2.33,3.83C956.42,218.3,956.16,219.8,956.16,221.35z"/>
		<path class="st0" d="M1000.62,201.37h9.99v6.33h0.17c1.11-2.33,2.69-4.13,4.75-5.41c2.05-1.28,4.41-1.92,7.08-1.92    c0.61,0,1.21,0.06,1.79,0.17c0.58,0.11,1.18,0.25,1.79,0.42v9.66c-0.83-0.22-1.65-0.4-2.46-0.54c-0.8-0.14-1.6-0.21-2.37-0.21    c-2.33,0-4.2,0.43-5.62,1.29c-1.41,0.86-2.5,1.85-3.25,2.96c-0.75,1.11-1.25,2.22-1.5,3.33c-0.25,1.11-0.38,1.94-0.38,2.5v21.4    h-9.99V201.37z"/>
		<path class="st0" d="M1039.5,224.85c0.33,3,1.5,5.33,3.5,6.99c2,1.66,4.41,2.5,7.24,2.5c2.5,0,4.59-0.51,6.29-1.54    c1.69-1.03,3.18-2.32,4.45-3.87l7.16,5.41c-2.33,2.89-4.94,4.94-7.83,6.16s-5.91,1.83-9.08,1.83c-3,0-5.83-0.5-8.49-1.5    c-2.66-1-4.97-2.42-6.91-4.25c-1.94-1.83-3.48-4.04-4.62-6.62c-1.14-2.58-1.71-5.45-1.71-8.62c0-3.16,0.57-6.03,1.71-8.62    c1.14-2.58,2.68-4.79,4.62-6.62c1.94-1.83,4.25-3.25,6.91-4.25c2.66-1,5.5-1.5,8.49-1.5c2.78,0,5.31,0.49,7.62,1.46    c2.3,0.97,4.27,2.37,5.91,4.21c1.64,1.83,2.91,4.09,3.83,6.79c0.91,2.69,1.37,5.78,1.37,9.28v2.75H1039.5z M1059.98,217.35    c-0.06-2.94-0.97-5.26-2.75-6.95c-1.78-1.69-4.25-2.54-7.41-2.54c-3,0-5.37,0.86-7.12,2.58c-1.75,1.72-2.82,4.02-3.2,6.91H1059.98    z"/>
		<path class="st0" d="M1079.29,201.37h9.49v6.41h0.17c0.94-2,2.39-3.73,4.33-5.2c1.94-1.47,4.58-2.21,7.91-2.21    c2.66,0,4.93,0.44,6.78,1.33c1.86,0.89,3.37,2.05,4.54,3.5c1.16,1.45,2,3.11,2.5,5c0.5,1.89,0.75,3.86,0.75,5.91v25.23h-9.99    V221.1c0-1.11-0.06-2.34-0.17-3.7c-0.11-1.36-0.4-2.64-0.88-3.83c-0.47-1.19-1.21-2.19-2.21-3c-1-0.8-2.36-1.21-4.08-1.21    c-1.67,0-3.07,0.28-4.21,0.83c-1.14,0.55-2.08,1.3-2.83,2.25c-0.75,0.94-1.29,2.03-1.62,3.25c-0.33,1.22-0.5,2.5-0.5,3.83v21.81    h-9.99V201.37z"/>
		<path class="st0" d="M1176.7,235.84h-0.25c-1.45,2.28-3.27,3.93-5.5,4.95c-2.22,1.03-4.66,1.54-7.33,1.54    c-1.83,0-3.62-0.25-5.37-0.75c-1.75-0.5-3.3-1.25-4.66-2.25c-1.36-1-2.46-2.25-3.29-3.75c-0.83-1.5-1.25-3.25-1.25-5.25    c0-2.16,0.39-4.01,1.17-5.54c0.78-1.53,1.82-2.8,3.12-3.83c1.3-1.03,2.82-1.85,4.54-2.46c1.72-0.61,3.51-1.07,5.37-1.37    c1.86-0.3,3.73-0.5,5.62-0.58s3.66-0.12,5.33-0.12h2.5v-1.08c0-2.5-0.86-4.37-2.58-5.62c-1.72-1.25-3.91-1.87-6.58-1.87    c-2.11,0-4.08,0.37-5.91,1.12c-1.83,0.75-3.41,1.76-4.74,3.04l-5.25-5.25c2.22-2.28,4.81-3.91,7.78-4.91c2.97-1,6.04-1.5,9.2-1.5    c2.83,0,5.22,0.32,7.16,0.96c1.94,0.64,3.55,1.46,4.83,2.46c1.28,1,2.26,2.15,2.95,3.45c0.69,1.31,1.19,2.62,1.5,3.96    s0.49,2.62,0.54,3.87c0.06,1.25,0.08,2.34,0.08,3.29v22.98h-8.99V235.84z M1176.11,223.43h-2.08c-1.39,0-2.94,0.06-4.66,0.17    c-1.72,0.11-3.34,0.37-4.87,0.79c-1.53,0.42-2.82,1.03-3.87,1.83c-1.05,0.8-1.58,1.93-1.58,3.37c0,0.95,0.21,1.74,0.62,2.37    c0.42,0.64,0.96,1.18,1.62,1.62c0.67,0.44,1.41,0.76,2.25,0.96c0.83,0.19,1.67,0.29,2.5,0.29c3.44,0,5.98-0.82,7.62-2.45    c1.64-1.64,2.45-3.87,2.45-6.7V223.43z"/>
		<path class="st0" d="M1196.42,201.37h9.49v6.41h0.17c0.94-2,2.39-3.73,4.33-5.2c1.94-1.47,4.58-2.21,7.91-2.21    c2.66,0,4.93,0.44,6.78,1.33c1.86,0.89,3.37,2.05,4.54,3.5c1.16,1.45,2,3.11,2.5,5c0.5,1.89,0.75,3.86,0.75,5.91v25.23h-9.99    V221.1c0-1.11-0.06-2.34-0.17-3.7c-0.11-1.36-0.4-2.64-0.88-3.83c-0.47-1.19-1.21-2.19-2.21-3c-1-0.8-2.36-1.21-4.08-1.21    c-1.67,0-3.07,0.28-4.21,0.83c-1.14,0.55-2.08,1.3-2.83,2.25c-0.75,0.94-1.29,2.03-1.62,3.25c-0.33,1.22-0.5,2.5-0.5,3.83v21.81    h-9.99V201.37z"/>
		<path class="st0" d="M1275.85,235.34h-0.17c-1.45,2.44-3.39,4.22-5.83,5.33c-2.44,1.11-5.08,1.67-7.91,1.67    c-3.11,0-5.87-0.54-8.28-1.62c-2.41-1.08-4.48-2.57-6.2-4.45c-1.72-1.88-3.03-4.11-3.91-6.66c-0.89-2.55-1.33-5.3-1.33-8.24    c0-2.94,0.47-5.69,1.41-8.24c0.94-2.55,2.26-4.77,3.96-6.66c1.69-1.88,3.73-3.37,6.12-4.45c2.39-1.08,5-1.62,7.83-1.62    c1.88,0,3.55,0.19,4.99,0.58c1.44,0.39,2.72,0.89,3.83,1.5c1.11,0.61,2.05,1.26,2.83,1.96c0.78,0.7,1.42,1.37,1.92,2.04h0.25    v-28.06h9.99v62.94h-9.49V235.34z M1252.2,221.35c0,1.56,0.26,3.05,0.79,4.5c0.53,1.44,1.3,2.72,2.33,3.83    c1.03,1.11,2.26,2,3.7,2.66c1.44,0.67,3.08,1,4.91,1c1.83,0,3.47-0.33,4.91-1c1.44-0.67,2.68-1.55,3.71-2.66    c1.03-1.11,1.8-2.39,2.33-3.83c0.53-1.44,0.79-2.94,0.79-4.5c0-1.55-0.27-3.05-0.79-4.49c-0.53-1.44-1.31-2.72-2.33-3.83    c-1.03-1.11-2.26-2-3.71-2.66c-1.44-0.67-3.08-1-4.91-1c-1.83,0-3.47,0.33-4.91,1c-1.44,0.67-2.68,1.56-3.7,2.66    c-1.03,1.11-1.81,2.39-2.33,3.83C1252.47,218.3,1252.2,219.8,1252.2,221.35z"/>
		<path class="st0" d="M1315.64,182.39h11.49l11.07,42.46h0.17l13.24-42.46h10.32l12.99,42.46h0.17l11.57-42.46h10.66l-17.15,58.94    h-9.99l-13.65-44.87h-0.17l-13.65,44.87h-9.66L1315.64,182.39z"/>
		<path class="st0" d="M1399.48,221.35c0-3.16,0.57-6.03,1.71-8.62c1.14-2.58,2.68-4.79,4.62-6.62c1.94-1.83,4.25-3.25,6.91-4.25    c2.66-1,5.5-1.5,8.49-1.5c3,0,5.83,0.5,8.49,1.5c2.66,1,4.97,2.42,6.91,4.25c1.94,1.83,3.48,4.04,4.62,6.62s1.71,5.45,1.71,8.62    c0,3.16-0.57,6.04-1.71,8.62s-2.68,4.79-4.62,6.62c-1.94,1.83-4.24,3.25-6.91,4.25c-2.66,1-5.49,1.5-8.49,1.5    c-3,0-5.83-0.5-8.49-1.5c-2.66-1-4.97-2.42-6.91-4.25c-1.94-1.83-3.48-4.04-4.62-6.62    C1400.04,227.39,1399.48,224.51,1399.48,221.35z M1409.47,221.35c0,1.56,0.26,3.05,0.79,4.5c0.53,1.44,1.3,2.72,2.33,3.83    c1.03,1.11,2.26,2,3.7,2.66c1.44,0.67,3.08,1,4.91,1s3.47-0.33,4.91-1c1.44-0.67,2.68-1.55,3.71-2.66    c1.03-1.11,1.8-2.39,2.33-3.83c0.53-1.44,0.79-2.94,0.79-4.5c0-1.55-0.27-3.05-0.79-4.49c-0.53-1.44-1.31-2.72-2.33-3.83    c-1.03-1.11-2.26-2-3.71-2.66c-1.44-0.67-3.08-1-4.91-1s-3.47,0.33-4.91,1c-1.44,0.67-2.68,1.56-3.7,2.66    c-1.03,1.11-1.81,2.39-2.33,3.83C1409.73,218.3,1409.47,219.8,1409.47,221.35z"/>
		<path class="st0" d="M1451.84,201.37h9.49v6.24h0.17c0.89-1.89,2.32-3.57,4.29-5.04c1.97-1.47,4.62-2.21,7.95-2.21    c6.27,0,10.43,2.47,12.49,7.41c1.44-2.55,3.25-4.43,5.41-5.62c2.16-1.19,4.74-1.79,7.74-1.79c2.66,0,4.91,0.44,6.74,1.33    c1.83,0.89,3.31,2.11,4.45,3.66c1.14,1.55,1.96,3.37,2.46,5.45s0.75,4.32,0.75,6.7v23.81h-9.99v-22.64c0-1.22-0.11-2.4-0.33-3.54    c-0.22-1.14-0.61-2.14-1.17-3c-0.55-0.86-1.3-1.54-2.25-2.04c-0.94-0.5-2.16-0.75-3.66-0.75c-1.55,0-2.87,0.29-3.95,0.88    c-1.08,0.58-1.97,1.36-2.66,2.33c-0.69,0.97-1.19,2.08-1.5,3.33c-0.3,1.25-0.46,2.51-0.46,3.79v21.65h-9.99v-23.81    c0-2.5-0.53-4.48-1.58-5.95c-1.06-1.47-2.8-2.21-5.25-2.21c-1.66,0-3.07,0.28-4.2,0.83c-1.14,0.55-2.08,1.3-2.83,2.25    c-0.75,0.94-1.29,2.03-1.62,3.25c-0.33,1.22-0.5,2.5-0.5,3.83v21.81h-9.99V201.37z"/>
		<path class="st0" d="M1532.68,224.85c0.33,3,1.5,5.33,3.5,6.99c2,1.66,4.41,2.5,7.24,2.5c2.5,0,4.59-0.51,6.29-1.54    c1.69-1.03,3.18-2.32,4.45-3.87l7.16,5.41c-2.33,2.89-4.94,4.94-7.83,6.16s-5.91,1.83-9.08,1.83c-3,0-5.83-0.5-8.49-1.5    c-2.66-1-4.97-2.42-6.91-4.25c-1.94-1.83-3.48-4.04-4.62-6.62s-1.71-5.45-1.71-8.62c0-3.16,0.57-6.03,1.71-8.62    s2.68-4.79,4.62-6.62c1.94-1.83,4.25-3.25,6.91-4.25c2.66-1,5.5-1.5,8.49-1.5c2.78,0,5.31,0.49,7.62,1.46    c2.3,0.97,4.27,2.37,5.91,4.21c1.64,1.83,2.91,4.09,3.83,6.79c0.91,2.69,1.37,5.78,1.37,9.28v2.75H1532.68z M1553.16,217.35    c-0.06-2.94-0.97-5.26-2.75-6.95c-1.78-1.69-4.25-2.54-7.41-2.54c-3,0-5.37,0.86-7.12,2.58c-1.75,1.72-2.82,4.02-3.2,6.91H1553.16    z"/>
		<path class="st0" d="M1572.47,201.37h9.49v6.41h0.17c0.94-2,2.39-3.73,4.33-5.2c1.94-1.47,4.58-2.21,7.91-2.21    c2.66,0,4.93,0.44,6.78,1.33c1.86,0.89,3.37,2.05,4.54,3.5c1.16,1.45,2,3.11,2.5,5c0.5,1.89,0.75,3.86,0.75,5.91v25.23h-9.99    V221.1c0-1.11-0.06-2.34-0.17-3.7c-0.11-1.36-0.4-2.64-0.88-3.83c-0.47-1.19-1.21-2.19-2.21-3c-1-0.8-2.36-1.21-4.08-1.21    c-1.67,0-3.07,0.28-4.21,0.83c-1.14,0.55-2.08,1.3-2.83,2.25c-0.75,0.94-1.29,2.03-1.62,3.25c-0.33,1.22-0.5,2.5-0.5,3.83v21.81    h-9.99V201.37z"/>
	</g>
</g>
<g>
	<path class="st1" d="M1181.2,109.03c0,3.98,2.84,6.81,6.82,6.81c2.96,0,4.89-1.67,7.07-3.46V92.68   C1189.57,95.75,1181.2,102.08,1181.2,109.03z"/>
	<path class="st1" d="M839.32,73.55c-1.06-2.94-3.19-4.4-6.38-4.4c-3.27,0-5.51,1.69-6.72,5.08c-1.21,3.38-1.9,8.32-2.06,14.8h16.88   C840.97,81.64,840.39,76.48,839.32,73.55z"/>
	<path class="st1" d="M388.47,108.88c0,2.74,0.62,4.81,1.87,6.22c1.24,1.42,2.64,2.11,4.19,2.11c2.04,0,3.94-0.61,5.69-1.84   c0.98-0.74,2.14-1.88,3.49-3.43V93.61c-3.34,0.82-6.28,2.11-8.81,3.86C390.62,100.46,388.47,104.26,388.47,108.88z"/>
	<path class="st1" d="M997.42,21.83h-0.8v5.89c0.21,0.07,0.62,0.1,0.95,0.1c1.74,0,2.72-1.51,2.72-3.12   C1000.29,23.44,999.87,21.83,997.42,21.83z"/>
	<path class="st1" d="M997.84,17.55c-5.85,0-10.61,4.76-10.61,10.61c0,5.85,4.76,10.61,10.61,10.61c5.85,0,10.57-4.76,10.57-10.61   C1008.41,22.32,1003.69,17.55,997.84,17.55z M1005.02,34.89h-4.14l-3.5-6.3h-0.77v2.98c0,1.82,0,2.69,2.03,2.69v0.63h-7.21v-0.63   c1.78,0,1.78-0.88,1.78-2.69v-7.21c0-1.47,0-2.66-1.54-2.66v-0.63h7.07c2.95,0,5.22,1.19,5.22,3.72c0,1.85-1.33,3.15-3.08,3.57   l2.14,3.88c0.42,0.74,1.05,2.03,2,2.03V34.89z"/>
	<path class="st1" d="M297.2,73.55c-1.06-2.94-3.19-4.4-6.38-4.4c-3.28,0-5.52,1.69-6.72,5.08c-1.21,3.38-1.89,8.32-2.06,14.8h16.88   C298.84,81.64,298.27,76.48,297.2,73.55z"/>
	<path class="st1" d="M1137.85,68.48c-7.47,0-9.14,11.07-9.14,20.46h17.11C1145.82,82.37,1145.82,68.48,1137.85,68.48z"/>
	<path class="st1" d="M1499.02,109.03c0,3.98,2.82,6.81,6.82,6.81c2.97,0,4.88-1.67,7.08-3.46V92.68   C1507.37,95.75,1499.02,102.08,1499.02,109.03z"/>
	<path class="st1" d="M1411.13,44.29h-2.44v36.94h2.71c12.21,0,16.35-7.74,16.35-19.06C1427.74,50.99,1422.72,44.29,1411.13,44.29z"/>
	<path class="st1" d="M725.88,72.38c-4.45,0-7.48,3.08-9.08,9.24c-0.85,3.31-1.28,7.97-1.28,14.01c0,6.44,0.41,11.29,1.23,14.56   c1.51,5.91,4.41,8.87,8.71,8.87c2.7,0,5.12-1.2,7.27-3.61c2.15-2.41,3.22-4.09,3.22-5.08V79.91c0-1.02-0.92-2.53-2.76-4.53   C731.35,73.38,728.91,72.38,725.88,72.38z"/>
	<path d="M261.39,46.64c5.59,3.19,8.97,9.3,10.15,18.34h3.61l-0.12-25.26h-75.43l-0.12,25.26h3.61c0.77-8.95,4.16-15.07,10.15-18.34   c3.26-1.76,7.95-2.72,14.07-2.88v65.99c0,4.57-0.81,7.63-2.42,9.15c-1.61,1.53-4.86,2.3-9.76,2.3v3.18h44.65v-3.18   c-5.1,0-8.45-0.76-10.06-2.26c-1.61-1.51-2.42-4.57-2.42-9.18V43.76C253.56,43.92,258.25,44.88,261.39,46.64z"/>
	<path d="M312.01,108.72c-2.37,2.61-4.35,4.46-5.94,5.57c-2.62,1.83-5.39,2.75-8.34,2.75c-6.17,0-10.48-3.45-12.93-10.34   c-1.35-3.67-2.17-8.01-2.45-13.03h31.99c0-1.14-0.14-2.79-0.43-4.96c-0.57-4.61-1.59-8.36-3.06-11.25   c-1.96-3.83-4.76-6.83-8.39-8.99c-3.63-2.16-7.51-3.24-11.64-3.24c-7.23,0-13.4,2.66-18.53,7.98c-5.13,5.32-7.69,12.79-7.69,22.42   c0,10.65,2.69,18.39,8.08,23.25c5.39,4.85,11.17,7.28,17.33,7.28c4.29,0,8.08-0.8,11.39-2.39c5.1-2.48,9.59-6.91,13.47-13.27   L312.01,108.72z M284.1,74.22c1.21-3.39,3.45-5.08,6.72-5.08c3.19,0,5.32,1.47,6.38,4.4c1.06,2.93,1.64,8.09,1.72,15.47h-16.88   C282.2,82.54,282.89,77.6,284.1,74.22z"/>
	<path d="M367.77,118.87l-18.72-28.42l12.96-15.98c1.34-1.67,2.94-2.92,4.8-3.74c1.02-0.41,2.29-0.75,3.83-1.04v-3h-20.99v3   c2.28,0.08,3.92,0.28,4.92,0.61c1,0.33,1.49,1.1,1.49,2.33c0,0.98-0.51,2.21-1.52,3.67c-1.02,1.47-3.68,4.92-7.99,10.33   c-1.6-2.17-3.45-4.91-5.55-8.23c-2.1-3.32-3.15-5.45-3.15-6.39c0-0.78,0.25-1.25,0.73-1.44c0.49-0.18,2.18-0.48,5.08-0.89v-3   h-31.31v3c1.51,0.2,2.65,0.55,3.42,1.04c0.78,0.49,1.81,1.73,3.12,3.74l16.1,24.67c-1.35,1.71-3.06,3.96-5.14,6.74   c-2.08,2.78-3.75,4.95-5.02,6.5c-3.06,3.71-5.33,6.08-6.82,7.1c-1.49,1.02-3.27,1.69-5.35,2.02v2.88h21.15v-2.88   c-2.08-0.08-3.64-0.32-4.68-0.73c-1.04-0.41-1.56-1.27-1.56-2.57c0-1.11,1.36-3.58,4.09-7.42c1.32-1.86,3.32-4.5,6-7.92   c0.92,1.44,1.95,3,3.09,4.67c1.13,1.68,2,2.98,2.6,3.93c1.1,1.71,1.9,3.04,2.39,3.98c0.86,1.55,1.28,2.68,1.28,3.37   c0,1.06-0.51,1.75-1.53,2.08c-1.02,0.32-2.41,0.53-4.16,0.61v2.88h30.16v-2.88c-0.94-0.36-1.68-0.72-2.23-1.07   C368.72,120.08,368.22,119.57,367.77,118.87z"/>
	<path d="M454.51,89.14l-6.85-3.3c-3.3-1.59-5.55-3.14-6.73-4.65c-1.22-1.47-1.83-2.94-1.83-4.4c0-1.79,0.68-3.47,2.05-5.02   c1.36-1.55,3.43-2.33,6.21-2.33c3.59,0,6.73,1.28,9.42,3.85c2.69,2.57,4.63,5.97,5.81,10.22h3.18V65.41h-2.75   c-0.29,0.78-0.64,1.37-1.07,1.8c-0.43,0.43-1.15,0.64-2.17,0.64c-0.73,0-2.59-0.44-5.57-1.31c-2.98-0.88-5.79-1.32-8.44-1.32   c-6.08,0-10.81,1.77-14.19,5.29c-3.38,3.53-5.08,7.72-5.08,12.57c0,3.84,1.08,7.16,3.24,9.97c2.12,2.82,5.63,5.42,10.52,7.83   l9.3,4.53c2,0.98,3.45,1.9,4.34,2.76c1.63,1.59,2.45,3.51,2.45,5.75c0,2.37-0.75,4.27-2.26,5.72c-1.51,1.45-3.87,2.17-7.09,2.17   c-3.51,0-6.93-1.24-10.28-3.7c-3.34-2.47-5.63-6.7-6.85-12.7h-3.49v11.06l-0.03-0.04c-0.82,0.81-1.42,1.31-1.8,1.49   c-0.39,0.19-0.83,0.28-1.32,0.28c-0.57,0-1.09-0.32-1.56-0.95c-0.47-0.63-0.71-1.4-0.71-2.29V84.62c0-7.42-2.36-12.52-7.1-15.29   c-4.77-2.73-10.7-4.1-17.8-4.1c-6.61,0-12.17,1.4-16.7,4.21c-4.53,2.81-6.79,6.61-6.79,11.41c0,2.68,0.85,4.74,2.54,6.16   c1.69,1.42,3.74,2.13,6.15,2.13c2.08,0,3.91-0.64,5.47-1.93c1.57-1.28,2.35-3.11,2.35-5.48c0-0.94-0.17-1.82-0.52-2.66   c-0.35-0.83-0.81-1.6-1.38-2.29l-0.73-0.86c-0.33-0.37-0.57-0.71-0.73-1.04c-0.16-0.33-0.25-0.73-0.25-1.23   c0-1.26,0.72-2.31,2.17-3.15c1.45-0.83,3.29-1.25,5.54-1.25c3.99,0,6.78,0.89,8.35,2.66c1.57,1.78,2.35,4.52,2.35,8.23v9.12   c-11.58,3.35-20.09,6.68-25.51,9.99c-5.42,3.3-8.13,7.78-8.13,13.41c0,4.62,1.49,8.02,4.46,10.21c2.98,2.18,6.18,3.27,9.6,3.27   c2.57,0,5.18-0.45,7.83-1.35c4.36-1.43,8.28-3.88,11.75-7.35c0.45,2.41,1.16,4.23,2.14,5.45c1.71,2.17,4.42,3.25,8.14,3.25   c2.08,0,4.06-0.36,5.93-1.1c2.24-0.86,4.33-2.2,6.27-4.03v5.13h2.99c0.65-1.31,1.24-2.23,1.75-2.78c0.51-0.55,1.11-0.83,1.8-0.83   c0.28,0,0.52,0.03,0.7,0.06s0.66,0.2,1.44,0.49l2.14,0.74c2.49,0.85,4.58,1.46,6.27,1.8c1.69,0.34,3.38,0.52,5.05,0.52   c6.73,0,11.77-2,15.14-6.02c3.37-4.02,5.05-8.35,5.05-13c0-4.77-1.63-8.79-4.89-12.05C461.85,93.16,458.75,91.19,454.51,89.14z    M403.71,111.95c-1.35,1.55-2.51,2.7-3.49,3.43c-1.75,1.23-3.65,1.84-5.69,1.84c-1.55,0-2.95-0.7-4.19-2.11   c-1.25-1.41-1.87-3.48-1.87-6.22c0-4.62,2.14-8.42,6.42-11.41c2.53-1.76,5.47-3.04,8.81-3.86V111.95z"/>
	<path d="M559.74,115.39c-5.54,3.59-11.53,5.38-17.97,5.38c-10.5,0-17.7-5.42-21.57-16.27c-2.08-5.79-3.11-13.17-3.11-22.14   c0-12.19,1.76-21.91,5.28-29.15c3.52-7.24,9.48-10.86,17.87-10.86c7.41,0,14.05,3.39,19.92,10.15c3.13,3.67,6.21,8.69,9.22,15.05   h3.18v-29.3h-3.49c-0.25,1.35-0.85,2.63-1.8,3.85c-0.96,1.22-2.24,1.84-3.83,1.84c-0.61,0-3.58-0.97-8.93-2.91   c-5.34-1.94-10.62-2.9-15.85-2.9c-12.07,0-22.26,3.96-30.58,11.87c-8.85,8.44-13.27,19.47-13.27,33.09   c0,13.74,4.63,24.67,13.88,32.79c8.36,7.34,18.72,11.01,31.07,11.01c8.08,0,15.42-2.19,22.03-6.55c3.71-2.45,8.01-6.4,12.9-11.87   l-3.73-3.06C566.66,109.98,562.91,113.31,559.74,115.39z"/>
	<path d="M654.59,57.27c2.65,0,4.93-0.95,6.82-2.84c1.9-1.9,2.85-4.19,2.85-6.88c0-2.69-0.94-4.99-2.85-6.88   c-1.89-1.9-4.17-2.85-6.82-2.85c-2.69,0-4.99,0.95-6.88,2.85c-1.89,1.9-2.85,4.19-2.85,6.88c0,2.69,0.95,4.98,2.85,6.88   C649.61,56.33,651.9,57.27,654.59,57.27z"/>
	<path d="M691.38,113.8V39.72h-23.73v2.99c2.32,0.53,3.91,1.21,4.77,2.03c0.85,0.82,1.29,2.57,1.29,5.25v63.8   c0,2.77-0.47,4.6-1.38,5.47c-0.81,0.78-2.15,1.41-3.96,1.91c-1.77-0.43-3.04-0.97-3.74-1.64c-0.81-0.78-1.22-2.53-1.22-5.26V66.69   h-24.04v3c2.53,0.45,4.22,1.14,5.08,2.07c0.85,0.92,1.28,2.66,1.28,5.21v36.82c0,2.85-0.61,4.83-1.83,5.93   c-0.69,0.63-1.92,1.11-3.62,1.47c-1.86-0.47-3.24-1.09-4.09-1.87c-0.96-0.88-1.44-2.72-1.44-5.54V83.7   c0-6.73-1.57-11.49-4.72-14.28c-3.14-2.79-7.11-4.19-11.93-4.19c-3.54,0-6.74,0.85-9.57,2.54c-2.83,1.69-5.54,4.09-8.1,7.19V39.72   H576.2v2.99c2.65,0.33,4.42,1,5.32,2c0.9,1.01,1.35,2.77,1.35,5.27v63.8c0,2.85-0.54,4.76-1.62,5.72   c-1.08,0.96-2.76,1.58-5.04,1.87v2.99h30.15v-2.99c-2.24-0.45-3.76-1.06-4.58-1.84c-0.82-0.78-1.23-2.53-1.23-5.26V80.77   c0-0.73,1.15-2.1,3.45-4.1c2.3-2,4.54-3,6.7-3c2.9,0,4.84,1.29,5.81,3.85c0.58,1.43,0.86,3.57,0.86,6.42v30.34   c0,2.73-0.41,4.48-1.22,5.26s-2.35,1.38-4.59,1.84v2.99h27.81h1.62h26.67h1.56h28.29v-2.99c-2.28-0.58-3.87-1.29-4.77-2.14   C691.84,118.38,691.38,116.57,691.38,113.8z"/>
	<path d="M810.12,74.95c0-3.18-1.03-5.6-3.1-7.25c-2.06-1.65-4.39-2.48-6.96-2.48c-3.43,0-6.45,1.02-9.07,3.06   c-2.61,2.04-5.25,4.79-7.91,8.26v-9.85h-23.73v3c2.65,0.33,4.42,0.97,5.32,1.91c0.89,0.95,1.35,2.74,1.35,5.37v34.07l-0.12,3.67   c-0.08,2.44-0.59,4.09-1.53,4.95c-0.74,0.68-1.97,1.17-3.64,1.49v-2.11c-2.86-0.24-4.77-0.86-5.75-1.85   c-0.98-0.99-1.47-2.78-1.47-5.37V39.72h-26.97v2.99c3.83,0.16,6.36,0.63,7.58,1.39c1.23,0.76,1.84,2.73,1.84,5.89v22.94   c-2.41-2.53-4.4-4.28-5.99-5.26c-2.57-1.63-5.51-2.45-8.81-2.45c-6.61,0-12.26,2.87-16.98,8.6c-4.71,5.73-7.06,13.55-7.06,23.46   c0,8.89,2.26,15.93,6.79,21.1c4.53,5.18,9.85,7.77,15.97,7.77c3.59,0,6.93-0.94,10.03-2.81c1.95-1.18,4.12-2.99,6.48-5.45v8.26   c5.14-1.43,8.73-2.31,10.77-2.66c1.9-0.33,5.99-0.8,12.21-1.42v2.31h33.34v-2.99c-3.59-0.33-5.98-1-7.19-2.04   c-1.2-1.03-1.8-3.62-1.8-7.75V87.87c0-3.84,0.85-6.79,2.54-8.85c1.7-2.06,3.38-3.09,5.06-3.09c0.78,0,2.14,1.24,4.08,3.73   c1.94,2.49,4.24,3.73,6.89,3.73c2.33,0,4.22-0.8,5.67-2.39C809.39,79.42,810.12,77.4,810.12,74.95z M735.95,110.37   c0,0.98-1.07,2.67-3.22,5.08c-2.15,2.41-4.57,3.61-7.27,3.61c-4.3,0-7.2-2.96-8.71-8.87c-0.82-3.27-1.23-8.12-1.23-14.56   c0-6.03,0.43-10.7,1.28-14.01c1.6-6.16,4.63-9.24,9.08-9.24c3.03,0,5.47,1,7.31,3c1.84,2,2.76,3.51,2.76,4.53V110.37z"/>
	<path d="M854.13,108.72c-2.37,2.61-4.35,4.46-5.94,5.57c-2.61,1.83-5.39,2.75-8.34,2.75c-6.17,0-10.48-3.45-12.94-10.34   c-1.35-3.67-2.17-8.01-2.45-13.03h32c0-1.14-0.15-2.79-0.43-4.96c-0.57-4.61-1.59-8.36-3.06-11.25c-1.96-3.83-4.76-6.83-8.39-8.99   c-3.63-2.16-7.52-3.24-11.64-3.24c-7.22,0-13.4,2.66-18.52,7.98c-5.12,5.32-7.68,12.79-7.68,22.42c0,10.65,2.69,18.39,8.08,23.25   c5.39,4.85,11.17,7.28,17.33,7.28c4.29,0,8.09-0.8,11.4-2.39c5.1-2.48,9.59-6.91,13.47-13.27L854.13,108.72z M826.22,74.22   c1.21-3.39,3.45-5.08,6.72-5.08c3.2,0,5.32,1.47,6.38,4.4c1.07,2.93,1.64,8.09,1.72,15.47h-16.88   C824.32,82.54,825.01,77.6,826.22,74.22z"/>
	<path d="M913.62,114.29V84.01c0-6.97-1.48-11.85-4.44-14.62c-2.96-2.77-7.13-4.16-12.51-4.16c-3.75,0-7.17,0.99-10.25,2.97   c-3.08,1.98-5.62,4.48-7.61,7.5v-8.99h-23.74v3c2.69,0.33,4.48,0.99,5.36,1.97c0.87,0.99,1.31,2.76,1.31,5.31v36.82   c0,2.85-0.54,4.76-1.62,5.72c-1.08,0.96-2.76,1.58-5.05,1.87v2.99h30.16v-2.99c-2.24-0.45-3.78-1.06-4.59-1.84   s-1.22-2.53-1.22-5.26V80.77c0.98-1.59,2.37-3.17,4.19-4.74c1.82-1.57,3.8-2.36,5.96-2.36c2.9,0,4.83,1.29,5.81,3.85   c0.57,1.43,0.85,3.57,0.85,6.42v30.34c0,2.73-0.41,4.48-1.22,5.26c-0.81,0.78-2.35,1.38-4.59,1.84v2.99h29.42v-2.99   c-2.24-0.28-3.85-0.84-4.81-1.66C914.1,118.91,913.62,117.1,913.62,114.29z"/>
	<path d="M936.65,37.82c-3.22,0-5.77,0.98-7.64,2.94c-1.88,1.96-2.81,4.51-2.81,7.65c0,2.86,0.87,5.19,2.63,7   c1.75,1.81,3.98,2.72,6.67,2.72c0.41,0,1.31-0.1,2.69-0.31c0.82,0,1.45,0.27,1.9,0.8c0.41,0.57,0.61,1.26,0.61,2.08   c0,3.02-1.71,6.24-5.14,9.67c-1.92,1.92-4.75,4.18-8.51,6.79l1.47,2.75c5.67-3.18,10.09-6.46,13.27-9.85   c4.97-5.34,7.46-11.25,7.46-17.74c0-4.49-1.22-8.02-3.64-10.61C943.18,39.12,940.2,37.82,936.65,37.82z"/>
	<path d="M978.15,89.14l-6.85-3.3c-3.3-1.59-5.55-3.14-6.73-4.65c-1.22-1.47-1.84-2.94-1.84-4.4c0-1.79,0.68-3.47,2.05-5.02   c1.36-1.55,3.43-2.33,6.21-2.33c3.58,0,6.73,1.28,9.42,3.85c2.69,2.57,4.63,5.97,5.81,10.22h3.18V65.41h-2.75   c-0.29,0.78-0.64,1.37-1.07,1.8c-0.43,0.43-1.15,0.64-2.17,0.64c-0.74,0-2.59-0.44-5.57-1.31c-2.97-0.88-5.79-1.32-8.44-1.32   c-6.08,0-10.81,1.77-14.19,5.29c-3.39,3.53-5.08,7.72-5.08,12.57c0,3.84,1.08,7.16,3.24,9.97c2.12,2.82,5.63,5.42,10.52,7.83   l9.29,4.53c2,0.98,3.45,1.9,4.35,2.76c1.63,1.59,2.44,3.51,2.44,5.75c0,2.37-0.76,4.27-2.26,5.72c-1.51,1.45-3.87,2.17-7.09,2.17   c-3.51,0-6.93-1.24-10.28-3.7c-3.34-2.47-5.63-6.7-6.85-12.7h-3.49v20.74h2.99c0.65-1.31,1.24-2.23,1.75-2.78   c0.51-0.55,1.11-0.83,1.8-0.83c0.28,0,0.52,0.03,0.71,0.06c0.18,0.04,0.66,0.2,1.44,0.49l2.14,0.74c2.48,0.85,4.57,1.46,6.27,1.8   c1.69,0.34,3.38,0.52,5.05,0.52c6.73,0,11.78-2,15.14-6.02c3.36-4.02,5.04-8.35,5.04-13c0-4.77-1.63-8.79-4.89-12.05   C985.49,93.16,982.39,91.19,978.15,89.14z"/>
	<path d="M997.84,16.05c-6.69,0-12.15,5.42-12.15,12.11c0,6.69,5.46,12.12,12.15,12.12s12.11-5.43,12.11-12.12   C1009.95,21.48,1004.53,16.05,997.84,16.05z M997.84,38.78c-5.85,0-10.61-4.76-10.61-10.61c0-5.85,4.76-10.61,10.61-10.61   c5.85,0,10.57,4.76,10.57,10.61C1008.41,34.01,1003.69,38.78,997.84,38.78z"/>
	<path d="M1003.03,32.22l-2.14-3.88c1.75-0.42,3.08-1.72,3.08-3.57c0-2.52-2.27-3.72-5.22-3.72h-7.07v0.63   c1.54,0,1.54,1.19,1.54,2.66v7.21c0,1.82,0,2.69-1.78,2.69v0.63h7.21v-0.63c-2.03,0-2.03-0.88-2.03-2.69v-2.98h0.77l3.5,6.3h4.14   v-0.63C1004.07,34.26,1003.44,32.97,1003.03,32.22z M997.57,27.81c-0.33,0-0.74-0.04-0.95-0.1v-5.89h0.8   c2.46,0,2.87,1.61,2.87,2.87C1000.29,26.31,999.31,27.81,997.57,27.81z"/>
	<path class="st2" d="M160.48,84.73c-2.53,0-4.81,1-6.49,2.64l-27.34,28.23c-10.56,9.15-20.62,13.97-36.18,14.07v-0.01   c-15.17-0.24-25.09-5.05-35.5-14.06L27.4,87.37c-1.67-1.64-3.96-2.64-6.49-2.64c-5.1,0-9.26,4.14-9.26,9.25   c0,2.56,1.04,4.87,2.71,6.55l35.88,34.98c10.08,8.26,24.37,12.44,40.23,12.44c15.83,0,30.11-4.18,40.22-12.44l36.35-34.98   c1.68-1.68,2.71-4,2.71-6.55C169.74,88.86,165.59,84.73,160.48,84.73z"/>
	<path class="st2" d="M58.53,99.56c10.5,10.02,16.64,16.41,31.87,16.64c15.83,0.23,22.03-6.55,32.7-16.76l21.14-21.45   c1.69-1.67,2.71-4,2.71-6.55c0-5.11-4.15-9.26-9.27-9.26c-2.62,0-5,1.1-6.69,2.87l-23.98,24.13c-4.1,4.48-10.01,7.31-16.56,7.31   c-6.54,0-12.42-2.79-16.51-7.22L50.4,65.03c-1.7-1.76-4.06-2.87-6.71-2.87c-5.11,0-9.25,4.15-9.25,9.26c0,2.56,1.03,4.88,2.71,6.55   L58.53,99.56z"/>
	<path class="st2" d="M85.63,81.02c1.24,1.31,3,2.13,4.96,2.13c1.94,0,3.68-0.8,4.94-2.09l26.15-25.84c1.7-1.68,2.74-4.01,2.74-6.58   c0-5.12-4.15-9.27-9.26-9.27c-2.5,0-4.76,0.99-6.43,2.61L93.5,57.41c-0.79,0.77-1.86,1.25-3.02,1.25c-1.24,0-2.34-0.51-3.12-1.34   L72.68,41.98c-1.67-1.62-3.94-2.61-6.42-2.61c-5.12,0-9.27,4.16-9.27,9.27c0,2.57,1.06,4.9,2.75,6.58L85.63,81.02z"/>
	<path class="st2" d="M90.47,40.34c6.71,0,12.15-5.46,12.15-12.17c0-6.72-5.44-12.17-12.15-12.17c-6.74,0-12.17,5.45-12.17,12.17   C78.3,34.88,83.74,40.34,90.47,40.34z"/>
	<path d="M1066.44,41.72c12.1,0,12.1,3.34,12.1,13.78v22.64h-29.85V55.5c0-10.44,0-13.78,12.09-13.78V39.4h-44.65v2.32   c12.1,0,12.1,3.34,12.1,13.78v53c0,10.43,0,13.78-12.1,13.78v2.31h44.65v-2.31c-12.09,0-12.09-3.35-12.09-13.78V83.66h29.85v24.83   c0,10.43,0,13.78-12.1,13.78v2.31h44.65v-2.31c-12.09,0-12.09-3.35-12.09-13.78v-53c0-10.44,0-13.78,12.09-13.78V39.4h-44.65V41.72   z"/>
	<path d="M1139.65,64.11c-17.63,0-27.54,14.67-27.54,31.13c0,16.34,7.46,31.14,25.1,31.14c12.48,0,18.91-7.46,24.05-17.89l-2.06-1.4   c-3.09,4.88-6.95,9.63-13.25,9.63c-11.72,0-16.86-14.02-16.86-23.41h32.17C1161.52,79.55,1153.8,64.11,1139.65,64.11z    M1128.71,88.94c0-9.39,1.67-20.46,9.14-20.46c7.97,0,7.97,13.9,7.97,20.46H1128.71z"/>
	<path d="M1218.78,116.1c-0.9,1.14-1.8,2.32-3.34,2.32c-2.71,0-2.71-2.84-2.71-5.93V83.92c0-12.62-6.69-19.82-21.36-19.82   c-9.66,0-25.99,5.15-25.99,17c0,4.87,4.63,8.1,9.14,8.1c4.63,0,8.49-2.71,8.49-7.6c0-4.12-4.11-5.67-4.11-8.11   c0-3.46,5.53-4.48,8.24-4.48c3.34,0,7.97,1.8,7.97,7.97v10.41c-23.81,11.21-30.88,16.36-30.88,26.92c0,7.32,5.01,12.08,11.7,12.08   c7.21,0,14.15-4.75,19.18-9.39c0.52,6.44,5.28,9.39,11.45,9.39c6.3,0,10.81-3.73,14.03-8.88L1218.78,116.1z M1195.1,112.37   c-2.18,1.79-4.11,3.46-7.07,3.46c-3.99,0-6.82-2.83-6.82-6.81c0-6.95,8.37-13.27,13.9-16.34V112.37z"/>
	<path d="M1243.73,111.07V39.4h-24.71v2.32c7.09,0,7.09,4.63,7.09,11.45v57.9c0,7.1,0,11.2-7.09,11.2v2.31h31.66v-2.31   C1243.73,122.27,1243.73,118.17,1243.73,111.07z"/>
	<path d="M1285.68,111.97c-1.41,2.71-4.25,6.3-7.46,6.3c-4.63,0-4.63-5.27-4.63-11.44V72.1h14.03V65.9h-14.03V44.41h-2.05   c-5.41,10.3-13.65,18.93-23.3,25.48v2.2h7.72v39.63c0,5.91,5.53,13.64,14.93,13.64c7.97,0,13.89-4.77,16.73-11.97L1285.68,111.97z"/>
	<path d="M1344.61,111.07V87.52c0-13.63-3.07-23.41-16.08-23.41c-6.96,0-12.61,4.37-16.98,9.26V39.4h-24.7v2.32   c7.07,0,7.07,4.63,7.07,11.45v57.9c0,5.79,0,11.2-6.43,11.2v2.31h29.86v-2.31c-5.79,0-5.79-5.41-5.79-11.2V80.32   c2.06-3.48,5.79-7.72,9.77-7.72c5.68,0,5.68,5.91,5.68,14.53v23.93c0,5.79,0,11.2-5.79,11.2v2.31h29.85v-2.31   C1344.61,122.27,1344.61,116.86,1344.61,111.07z"/>
	<path d="M1416.93,39.4h-40.16v2.32c12.1,0,12.1,3.34,12.1,13.78v53c0,10.43,0,13.78-12.1,13.78v2.31h44.02v-2.31   c-12.11,0-12.11-3.35-12.11-13.78V86.12h4.88c26.25,0,35.27-11.45,35.27-23.67C1448.84,47.13,1435.19,39.4,1416.93,39.4z    M1411.39,81.23h-2.71V44.29h2.44c11.59,0,16.61,6.7,16.61,17.88C1427.74,73.49,1423.6,81.23,1411.39,81.23z"/>
	<path d="M1473.81,111.07V39.4h-24.73v2.32c7.08,0,7.08,4.63,7.08,11.45v57.9c0,7.1,0,11.2-7.08,11.2v2.31h31.65v-2.31   C1473.81,122.27,1473.81,118.17,1473.81,111.07z"/>
	<path d="M1533.24,118.42c-2.7,0-2.7-2.84-2.7-5.93V83.92c0-12.62-6.69-19.82-21.38-19.82c-9.63,0-25.97,5.15-25.97,17   c0,4.87,4.62,8.1,9.12,8.1c4.63,0,8.49-2.71,8.49-7.6c0-4.12-4.12-5.67-4.12-8.11c0-3.46,5.54-4.48,8.25-4.48   c3.33,0,7.97,1.8,7.97,7.97v10.41c-23.8,11.21-30.88,16.36-30.88,26.92c0,7.32,5.03,12.08,11.71,12.08   c7.21,0,14.16-4.75,19.17-9.39c0.51,6.44,5.28,9.39,11.45,9.39c6.31,0,10.81-3.73,14.03-8.88l-1.81-1.4   C1535.68,117.24,1534.77,118.42,1533.24,118.42z M1512.91,112.37c-2.2,1.79-4.11,3.46-7.08,3.46c-4,0-6.82-2.83-6.82-6.81   c0-6.95,8.35-13.27,13.89-16.34V112.37z"/>
	<path d="M1596.17,111.07V87.52c0-13.63-3.09-23.41-16.11-23.41c-6.95,0-12.6,4.37-16.97,9.26V65.9h-24.73v2.33   c7.08,0,7.08,4.63,7.08,11.45v31.38c0,5.79,0,11.2-6.43,11.2v2.31h29.87v-2.31c-5.79,0-5.79-5.41-5.79-11.2V80.32   c2.05-3.48,5.79-7.72,9.78-7.72c5.67,0,5.67,5.91,5.67,14.53v23.93c0,5.79,0,11.2-5.8,11.2v2.31h29.84v-2.31   C1596.17,122.27,1596.17,116.86,1596.17,111.07z"/>
</g>
</svg>
