<svg xmlns="http://www.w3.org/2000/svg" viewBox="0 0 1024 1024" fill="currentcolor">
  <path d="M577.5,824.6c177.2-29.5,320.8-171.6,345.9-353.8,5-35.9-20.1-69-56-73.9-37-4.8-69,20.2-73.9,56-19.3,140.1-140.5,246.3-279.8,247-141.8-3.9-261-108.4-283.5-248.4-5.8-35.8-39.8-60.3-75.2-54.3-35.8,5.8-60.1,39.4-54.3,75.2,29,180.2,169.1,318.9,345.6,351.2v65.2c0,1.5.8,2.8.9,4.3h-31.2c-36.2,0-65.6,29.3-65.6,65.6s29.4,65.6,65.6,65.6h191.9c36.3,0,65.6-29.3,65.6-65.6s-29.3-65.6-65.6-65.6h-31.2c.1-1.5.9-2.8.9-4.3v-64Z"/>
  <path d="M290.5,388.4c-3.9,124.8,94.5,229.8,223.8,234.1,124.7-4.4,223.1-109.4,219.3-232.1v-14.1h0v-141.8C737.6,109.5,639.2,4.3,509.7,0c-124.8,4.3-223.1,109.3-219.3,232v144.3h0v12ZM509.7,131.1c52.8,1.8,94.4,46.2,92.6,101.2v160.1c1.7,52.8-39.9,97.2-88.1,99-52.7-1.8-94.3-46.2-92.6-101v-14.1h0v-146.3c-1.7-52.7,39.9-97.1,88.1-98.9Z"/>
</svg>