<svg xmlns="http://www.w3.org/2000/svg" viewBox="0 0 1024 1024" fill="currentcolor">
  <path d="M901.1,706.1V226.7L138.8,466.4l762.3,239.6M629.6,930.7c-3.3,0-6.6-.5-9.9-1.5l-373.1-114.1c-24.2-7.4-35.5-40.7-25.3-74.2l33.4-109.3-129.4-40.7c-9.5,24.1-33,41.1-60.4,41.1S0,603.1,0,567.2v-219c0-35.8,29.1-64.8,64.9-64.8s60.7,24.9,64.4,57.2L898.6,98.7c61.3-21.7,125.4,24.2,125.4,89.7v555.9c0,65.6-64.2,111.4-125.4,89.7l-184.1-57.9-32.3,105.7c-8.9,29.1-31.1,48.9-52.6,48.9ZM360.4,664.9l-10.4,34c-5.3,17.3,4.5,35.7,21.8,41l186.4,57c17.3,5.2,35.7-4.5,41-21.8l9.8-32-248.6-78.1Z"/>
</svg>