<?xml version="1.0" encoding="UTF-8" standalone="no"?>
<!-- Generator: Adobe Illustrator 26.3.1, SVG Export Plug-In . SVG Version: 6.00 Build 0)  -->

<svg
   version="1.1"
   id="Layer_1"
   x="0px"
   y="0px"
   viewBox="0 0 213.31 302.39001"
   xml:space="preserve"
   sodipodi:docname="locations.svg"
   width="213.31"
   height="302.39001"
   inkscape:version="1.2 (dc2aeda, 2022-05-15)"
   xmlns:inkscape="http://www.inkscape.org/namespaces/inkscape"
   xmlns:sodipodi="http://sodipodi.sourceforge.net/DTD/sodipodi-0.dtd"
   xmlns="http://www.w3.org/2000/svg"
   xmlns:svg="http://www.w3.org/2000/svg"><defs
   id="defs9" /><sodipodi:namedview
   id="namedview7"
   pagecolor="#505050"
   bordercolor="#eeeeee"
   borderopacity="1"
   inkscape:showpageshadow="0"
   inkscape:pageopacity="0"
   inkscape:pagecheckerboard="0"
   inkscape:deskcolor="#505050"
   showgrid="false"
   inkscape:zoom="0.21851852"
   inkscape:cx="100.67797"
   inkscape:cy="151.01695"
   inkscape:window-width="1792"
   inkscape:window-height="978"
   inkscape:window-x="0"
   inkscape:window-y="25"
   inkscape:window-maximized="1"
   inkscape:current-layer="Layer_1" />
<style
   type="text/css"
   id="style2">
	.st0{fill:currentColor;}
</style>
<path
   class="st0"
   d="M 106.66,0 C 47.75,0 0,47.75 0,106.65 c 0,64.49 73.86,159.09 98.65,191.9 l 0.04,-0.03 c 1.86,2.36 4.73,3.87 7.97,3.87 3.24,0 6.11,-1.52 7.97,-3.88 l 0.04,0.03 c 24.79,-32.81 98.64,-127.4 98.64,-191.9 C 213.31,47.74 165.56,0 106.66,0 Z m 0,162.75 c -30.99,0 -56.11,-25.12 -56.11,-56.1 0,-30.98 25.12,-56.1 56.11,-56.1 30.98,0 56.1,25.12 56.1,56.1 0,30.98 -25.12,56.1 -56.1,56.1 z"
   id="path4" />
</svg>
