<svg xmlns="http://www.w3.org/2000/svg"
  viewBox="0 0 30.415001 42.162733"
  stroke="currentColor">
  <g transform="translate(-70.784973,-103.9166)">
    <path d="m 85.98,144 c 0,0 0,0 0,0 -0.94,0 -1.78,-0.48 -2.27,-1.29 l -9.12,-15.18 c -2.11,-3.17 -2.81,-7.07 -1.94,-10.93 1.15,-5.07 5.31,-9.21 10.36,-10.29 4.11,-0.88 8.32,0.11 11.54,2.71 3.27,2.65 5.15,6.59 5.15,10.82 0,2.76 -0.8,5.43 -2.33,7.72 l -9.14,15.14 c -0.47,0.82 -1.32,1.3 -2.25,1.3 z m -0.01,-35.99 c -0.84,0 -1.69,0.09 -2.53,0.27 -4.3,0.92 -7.85,4.44 -8.83,8.77 -0.75,3.32 -0.16,6.67 1.67,9.42 l 9.14,15.22 c 0.17,0.29 0.44,0.32 0.55,0.32 0,0 0,0 0,0 0.11,0 0.38,-0.03 0.55,-0.32 l 9.16,-15.18 c 1.33,-2 2.02,-4.28 2.02,-6.65 0,-3.62 -1.61,-7 -4.41,-9.27 -2.08,-1.69 -4.66,-2.58 -7.32,-2.58 z" />
    <path d="m 86,126.85 c -3.86,0 -7,-3.14 -7,-7 0,-3.86 3.14,-7 7,-7 3.86,0 7,3.14 7,7 0,3.86 -3.14,7 -7,7 z m 0,-12 c -2.76,0 -5,2.24 -5,5 0,2.76 2.24,5 5,5 2.76,0 5,-2.24 5,-5 0,-2.76 -2.24,-5 -5,-5 z" />
  </g>
</svg>
