<svg xmlns="http://www.w3.org/2000/svg" viewBox="0 0 265.34009 222.6925" fill="currentColor">
  <g transform="translate(-407.61,-428.1575)">
	  <path d="M 407.61,637.59 V 505.23 c 1.33,-0.1 2.65,-0.28 3.98,-0.28 29.98,-0.02 59.97,-0.03 89.95,0.01 3.89,0.01 7.55,-0.8 11.16,-2.16 5.54,-2.09 9.69,-5.99 13.64,-10.18 4.25,-4.49 9.52,-6.58 15.62,-6.58 42.69,-0.02 85.37,0 128.05,-0.05 2.13,0 2.95,0.42 2.94,2.8 -0.07,48.97 -0.04,97.93 -0.07,146.9 0,6.49 -2.77,11.38 -8.9,14.08 -2.33,1.03 -4.81,1.08 -7.3,1.08 -77.54,-0.01 -155.08,-0.01 -232.62,-0.01 -0.95,0 -1.91,-0.01 -2.86,-0.07 -6.45,-0.42 -11.73,-5.03 -13.01,-11.36 -0.13,-0.62 0.04,-1.35 -0.58,-1.82 m 132.71,-91.91 c -0.29,-0.37 -0.5,-0.58 -0.65,-0.81 -7.23,-10.84 -20.88,-15.09 -33.93,-10.55 -11.4,3.96 -18.32,15.4 -17.51,28.22 0.52,8.12 4.05,14.79 8.9,20.96 11.95,15.24 26.1,28.32 40.3,41.37 2.18,2 3.6,1.92 5.73,-0.01 9.96,-9.05 19.77,-18.26 28.94,-28.11 6.5,-6.98 13.11,-13.94 17.37,-22.62 6.59,-13.42 2.43,-30.1 -9.17,-37.45 -11.04,-7.01 -30.68,-6.17 -39.98,9" />
	  <path d="m 407.61,441.64 c 0.36,-1.26 0.65,-2.55 1.1,-3.79 1.97,-5.41 5.81,-8.6 11.51,-9.44 1.5,-0.22 3.05,-0.24 4.57,-0.24 25.4,-0.02 50.8,-0.01 76.2,-0.01 8.57,0 13.13,3.25 16.17,11.27 2.87,7.57 7.82,13.22 15.57,16.14 2.1,0.79 4.25,0.96 6.46,0.96 39.53,-0.02 79.06,-0.02 118.59,-0.01 7.74,0 13.38,4.62 14.82,11.68 0.47,2.33 -0.16,2.68 -2.3,2.68 -16.42,-0.07 -32.85,-0.04 -49.27,-0.04 -26.35,0 -52.71,-0.01 -79.06,0 -8.62,0.01 -16.01,3.05 -22.1,9.17 -1.35,1.35 -2.66,2.74 -4.06,4.04 -3.92,3.66 -8.57,5.67 -13.95,5.68 -31.41,0.02 -62.82,0.01 -94.23,0.01 v -48.1 z" />
  </g>
</svg>
