<svg xmlns="http://www.w3.org/2000/svg" viewBox="0 0 197.64 326.51999">
  <path d="M 155.52,0 H 42.12 C 18.89,0 0,18.9 0,42.12 v 12.45 217.38 12.45 c 0,23.23 18.9,42.12 42.12,42.12 h 113.4 c 23.23,0 42.12,-18.9 42.12,-42.12 V 271.95 54.57 42.12 C 197.65,18.89 178.75,0 155.52,0 Z M 87.8,30.72 c 0.1,-0.74 0.35,-1.47 0.64,-2.11 0.24,-0.69 0.59,-1.37 1.03,-1.96 0.39,-0.64 0.88,-1.18 1.37,-1.72 2.65,-2.6 6.53,-3.83 10.21,-3.09 0.69,0.15 1.42,0.39 2.11,0.64 0.64,0.29 1.33,0.64 1.91,1.03 0.64,0.44 1.23,0.88 1.72,1.42 0.54,0.54 0.98,1.08 1.42,1.72 0.39,0.59 0.74,1.28 1.03,1.96 0.25,0.64 0.49,1.38 0.64,2.11 0.15,0.69 0.2,1.42 0.2,2.16 0,0.74 -0.05,1.47 -0.2,2.21 -0.15,0.74 -0.39,1.42 -0.64,2.11 -0.29,0.69 -0.64,1.33 -1.03,1.97 -0.44,0.59 -0.88,1.18 -1.42,1.72 -0.49,0.49 -1.08,0.98 -1.72,1.38 -0.59,0.44 -1.28,0.79 -1.91,1.03 -0.69,0.29 -1.42,0.54 -2.11,0.69 -0.74,0.1 -1.47,0.2 -2.21,0.2 -2.99,0 -5.89,-1.23 -8,-3.29 -0.49,-0.54 -0.98,-1.13 -1.37,-1.72 -0.39,-0.64 -0.79,-1.28 -1.03,-1.97 -0.29,-0.69 -0.54,-1.37 -0.64,-2.11 -0.15,-0.74 -0.24,-1.47 -0.24,-2.21 0,-0.75 0.09,-1.49 0.24,-2.17 z m 30.7,269.37 H 79.17 c -3.73,0 -6.77,-3.03 -6.77,-6.77 0,-3.73 3.03,-6.77 6.77,-6.77 h 39.33 c 3.73,0 6.77,3.03 6.77,6.77 0,3.74 -3.03,6.77 -6.77,6.77 z m 55.47,-39.97 H 23.68 V 66.41 h 150.29 z" />
</svg>
