<svg xmlns="http://www.w3.org/2000/svg" viewBox="0 0 1024 1024" fill="currentcolor">
  <path d="M791.3,956.7c28.3,0,55.1-12.4,73.3-34l1.1-1.2c8.8-9.9,17.1-18.3,25.2-26.3,6.9-6.9,13.5-13.5,19.5-20.3.9-1,1.8-1.9,2.7-2.9l24.2-24.2c1.5-1.5,3-2.9,4.7-4.2,16.1-13.3,18.4-37.2,5.1-53.3-1.3-1.6-2.8-3.1-4.4-4.5-1.2-1-2.3-2.1-3.4-3.1l-126.7-126.5c-.7-.7-1.5-1.5-2.2-2.3-14.8-16.2-39.9-17.4-56.2-2.7-1.1,1-2,1.9-2.7,2.7s-1.5,1.6-2.3,2.4l-5.6,5.5-1.8,1.7c-21.5,19.9-42.8,41.1-61.1,61.2-20.3,22.2-52.9,28.2-79.8,14.7l-11.2-5.6c-1.5-.7-2.9-1.5-4.3-2.4-1.2-.7-4.4-2.2-6.8-3.4-8.7-3.8-17-8.5-24.8-13.9-76.5-50.2-144.5-112.2-201.6-183.6-29.3-33.9-53.4-72-71.4-113-11.1-25.3-5.5-54.9,14-74.5l70.8-70.7c1-1,2.1-2.1,3.3-3,16.2-14.2,17.9-38.9,3.7-55.2-1.2-1.3-2.4-2.6-3.7-3.7-1.1-1-2.2-2-3.2-3l-61.4-61.5h-.1c0-.1-20.3-20.6-20.3-20.6l-42.8-42.8c-.7-.7-1.5-1.5-2.2-2.3-14.8-16.2-40-17.4-56.3-2.7-1.3,1.2-2.1,2.1-2.7,2.7s-1.5,1.6-2.2,2.3l-31.8,31.7c-4.4,4.4-8.9,9.1-13.7,14.2-10.2,10.8-21.8,22.8-34.7,34.2-16.9,16.6-27.2,38.9-28.7,62.6-2.4,48.4,6.1,96.8,24.7,141.6l.7,1.6c38.4,99.6,93.5,191.8,163,272.8l.5.6c45.9,54.8,97.4,104.7,153.8,148.7,56.4,44,117.2,82,181.5,113.2l1.9,1c54.8,28.9,114.9,46.5,176.7,51.8h19.5M791.2,1023.9c-2.5,0-5,0-7.5-.2h-14.9c-71.7-5.8-141.5-26.1-205.1-59.5-137.5-66.8-259.3-161.9-357.4-279.2-74.5-86.8-133.6-185.7-174.9-292.3C8.8,338.5-1.4,280,1.6,221.4c2.6-41.1,20.5-79.7,50.3-108.1,16.8-14.7,31.6-31.6,46.5-46.5l31.8-31.8c2.2-2.4,4.5-4.7,6.9-6.9,43.7-39.9,111.5-36.8,151.4,6.9,0,0,0,0,0,0l42.9,42.8,20.4,20.5,18.6,18.6,42.8,42.9c3.5,3.1,6.9,6.4,10,10,38.7,44.2,34.3,111.5-10,150.2l-70.7,70.7c15.5,35.2,36.2,67.9,61.5,96.9,53.2,66.8,116.7,124.6,188.1,171.3,7.5,5.6,18.6,9.3,27.9,14.9l11.2,5.6c20.5-22.4,42.9-44.7,65.2-65.2l5.6-5.5c2.2-2.4,4.5-4.7,6.9-6.9,43.7-39.9,111.4-36.8,151.3,6.9,0,0,0,0,0,0l126.6,126.6c4.3,3.8,8.3,7.9,12,12.3,37,44.7,30.8,110.9-13.9,148l-24.2,24.2c-14.9,16.8-29.8,29.8-44.7,46.5-31,36.7-76.6,57.9-124.7,57.9h-.1Z"/>
</svg>