<svg xmlns="http://www.w3.org/2000/svg" viewBox="0 0 1024 1024" fill="currentcolor">
  <path d="M1018.1,386.7c13,40.9,4.2,85.9-23.8,118.4l-137.8,157.3,18.6,208.1c1.7,20.3-1.5,40.8-9.4,59.6-12.8,29.7-36.9,53.1-67,65.1-30.1,12-63.7,11.5-93.5-1.3l-192.2-81.8-192.5,82.3c-15,6.5-31.1,9.9-47.4,9.9l-1.4-.7h-1.3c-8.1,0-16.3-.8-24.3-2.3-31.8-6.4-59.7-25.2-77.5-52.2-17.5-26.4-24.1-58.5-18.3-89.6l17.8-197.1L30.3,504.9c-13.4-15.3-22.8-33.7-27.2-53.6-7.3-31.6-1.6-64.8,16-92,17.3-27.5,44.8-46.9,76.4-53.9l204-46.5,107.4-179.5c10.5-17.4,25.1-31.9,42.5-42.3,58-34.6,133.1-15.6,167.8,42.3l107.4,179.8,204.3,46.5c41.8,9.7,75.6,40.4,89.3,81M482.7,93.3c-8.1,4.7-14.9,11.5-19.6,19.6l-121.8,203.6-231.4,52.8c-14.7,3.3-27.5,12.3-35.6,25.1-8.1,12.7-10.8,28.2-7.3,42.9,2.1,9.2,6.4,17.7,12.5,24.8l156.3,178.5-20.9,230c-3.1,14.7,0,30.1,8.4,42.6,8.4,12.5,21.4,21.2,36.1,24.3,3.9.8,7.6.5,11.3,1l-.3-.2c7.8-.2,15.5-1.7,22.8-4.4l218.6-93.3,218.1,93c13.9,6,29.6,6.3,43.7.8,14.1-5.4,25.3-16.4,31.2-30.3,3.7-8.7,5.2-18.2,4.5-27.7l-21.2-236,156.1-178.5c13.1-15.2,17.3-36,11.3-55.1-6.4-18.9-22-33.1-41.4-37.7l-231.4-52.5-121.8-203.6c-10.3-17.2-28.8-27.7-48.9-27.6-10.3,0-20.4,2.8-29.2,8.1h0ZM657.8,680h-291.9c-10.4,0-18.9-8.4-18.9-18.9h0c0-66.4,40-126.4,101.4-151.8-37.4-35-39.4-93.6-4.4-131,0,0,0,0,0,0,35.1-37.4,93.8-39.3,131.3-4.3,37.4,34.9,39.4,93.6,4.5,131,0,0,0,0,0,0-1.3,1.5-2.8,2.7-4.4,4.3,60.1,25.2,99.9,83.3,101.4,148.5,0,1,.3,2.3.3,3.3,0,10.4-8.4,18.9-18.9,18.9h-.4Z"/>
</svg>