<svg xmlns="http://www.w3.org/2000/svg" viewBox="0 0 1024 1024" fill="currentcolor">
  <path d="M329.8,903H19.7l39.5-53.7c76.9-104.6,114.4-244.3,114.9-427.2,0-1-.2-2.2-.2-3.5-.5-92.1,35-180.7,99-246.9,54.7-57.1,128-92.8,206.7-100.6v-37.7c-.3-18.2,14.2-33.2,32.3-33.5h0c18.2.3,32.7,15.3,32.4,33.4h0v37.7c78.7,7.8,152,43.5,206.7,100.6,63.9,66.2,99.4,154.8,99,246.9,0,1.3,0,2.4-.2,3.5.5,182.8,38.1,322.6,115,427.2l39.5,53.7h-310.2c-20.6,69.5-94.4,121-182.2,121s-161.6-51.5-182.2-121ZM512,968.8c47.5,1.6,91.8-23.9,114.2-65.8h-228.4c22.4,41.9,66.7,67.4,114.2,65.7h0ZM318.8,219.1c-51.3,53.1-80,124-80,197.8,0,1,.2,2.1.2,3.4-.2,169.8-30.9,306.6-93.3,415.8h732.8c-62.5-109.1-93-245.9-93.3-415.7,0-1.2,0-2.3.2-3.5,0-73.8-28.8-144.7-80-197.8-50.4-52.7-120.2-82.6-193.1-82.6-73.1,0-143,29.7-193.5,82.5h.1Z"/>
</svg>